<?xml version="1.0" encoding="UTF-8"?>
<svg width="40px" height="40px" viewBox="0 0 40 40" version="1.1" xmlns="http://www.w3.org/2000/svg" xmlns:xlink="http://www.w3.org/1999/xlink">
    <!-- Generator: Sketch 52.5 (67469) - http://www.bohemiancoding.com/sketch -->
    <title>Icon/Category/Mobile</title>
    <desc>Created with Sketch.</desc>
    <defs>
        <polygon id="path-1" points="3.90909091 3.80432727 7.16888182 3.80432727 7.16888182 34.9910545 3.90909091 34.9910545"></polygon>
    </defs>
    <g id="Icon/Category/Mobile" stroke="none" stroke-width="1" fill="none" fill-rule="evenodd">
        <g id="Group-34" transform="translate(8.000000, 0.000000)">
            <polygon id="Fill-1" fill="#24465C" points="18.0873636 0.000781818182 18.0130909 0.0086 17.931 0.0203272727 17.8489091 0.0359636364 17.7629091 0.0594181818 17.6808182 0.0906909091 17.5909091 0.125872727 17.5049091 0.168872727 17.415 0.219690909 5.64472727 7.02150909 5.55481818 7.07623636 5.46881818 7.13487273 5.37890909 7.19741818 5.29290909 7.26778182 5.21472727 7.33814545 5.12872727 7.41632727 5.05054545 7.50232727 4.96845455 7.58441818 4.89027273 7.67432727 4.81990909 7.76423636 4.74172727 7.85805455 4.67527273 7.95578182 4.60490909 8.05741818 4.54236364 8.15514545 4.47590909 8.2646 4.41727273 8.37014545 4.36254545 8.4796 4.30390909 8.58905455 4.25309091 8.70241818 4.20618182 8.81578182 4.15927273 8.92523636 4.11627273 9.04641818 4.07718182 9.16369091 4.042 9.27705455 4.01463636 9.39432727 3.98727273 9.5116 3.96381818 9.62496364 3.94427273 9.74223636 3.92863636 9.85950909 3.92081818 9.97287273 3.913 10.0862364 3.913 10.1996 3.92081818 37.3052364 3.92472727 37.4186 3.92863636 37.5202364 3.93645455 37.6257818 3.95209091 37.7235091 3.97163636 37.8173273 3.99509091 37.9072364 4.02636364 37.9932364 4.05763636 38.0714182 4.08890909 38.1496 4.128 38.2199636 4.171 38.2903273 4.214 38.3489636 4.26481818 38.4036909 4.31563636 38.4623273 4.37427273 38.5053273 6.52036364 39.7445091 6.46172727 39.7015091 6.41481818 39.6467818 6.364 39.5920545 6.321 39.5256 6.278 39.4591455 6.23890909 39.3887818 6.20763636 39.3145091 6.17636364 39.2324182 6.14509091 39.1464182 6.12554545 39.0565091 6.10209091 38.9626909 6.08645455 38.8649636 6.07472727 38.7633273 6.07081818 38.6577818 6.07081818 38.5483273 6.05518182 11.4426909 6.05909091 11.3293273 6.07081818 11.2120545 6.07863636 11.0986909 6.09427273 10.9853273 6.11381818 10.8680545 6.13727273 10.7507818 6.16463636 10.6374182 6.192 10.5162364 6.22718182 10.3989636 6.27018182 10.2856 6.30927273 10.1722364 6.35618182 10.0549636 6.40309091 9.9416 6.45390909 9.83214545 6.50863636 9.71878182 6.56727273 9.60932727 6.62981818 9.50378182 6.68845455 9.39823636 6.75490909 9.2966 6.82136364 9.19496364 6.89172727 9.09723636 6.96990909 9.00341818 7.04027273 8.91350909 7.11845455 8.8236 7.20054545 8.74150909 7.27872727 8.65941818 7.35690909 8.58123636 7.44290909 8.51087273 7.52890909 8.44050909 7.61490909 8.37796364 7.70481818 8.31932727 7.79472727 8.2646 19.565 1.45887273 19.651 1.41196364 19.7409091 1.36896364 19.8269091 1.33378182 19.9129091 1.30250909 19.9989091 1.27905455 20.081 1.25950909 20.1630909 1.24778182 20.2373636 1.24387273 20.3194545 1.24387273 20.3937273 1.24778182 20.4601818 1.2556 20.5344545 1.27123636 20.6048182 1.29078182 18.4548182 0.0555090909 18.3883636 0.0320545455 18.3140909 0.0164181818 18.2437273 0.00469090909 18.1694545 0.000781818182"></polygon>
            <g id="Group-33" transform="translate(0.000000, 0.848273)">
                <path d="M7.8045,38.8716091 L19.5786818,32.0658818 C20.5325,31.5147 21.3104091,30.0878818 21.3104091,28.8877909 L21.3025909,1.78606364 C21.3025909,0.585972727 20.5207727,0.0582454545 19.5669545,0.613336364 L7.79277273,7.41515455 C6.83504545,7.96633636 6.05713636,9.39315455 6.05713636,10.5932455 L6.06886364,37.6988818 C6.06886364,38.8989727 6.84677273,39.4227909 7.8045,38.8716091" id="Fill-2" fill="#2A556F"></path>
                <path d="M12.4696091,8.51712727 L19.8812455,4.23667273 C20.2213364,4.03730909 20.5106091,4.16630909 20.5887909,4.52203636 C20.6005182,4.55330909 20.6083364,4.5924 20.6083364,4.63149091 L20.6083364,4.69012727 L20.6083364,4.72921818 L20.6200636,25.8695818 L20.6161545,25.9125818 L20.6161545,25.9673091 C20.6161545,26.0142182 20.6083364,26.0611273 20.5966091,26.1080364 C20.5184273,26.5497636 20.2291545,27.0110364 19.8851545,27.2104 L9.91697273,32.9724 C9.90133636,32.9802182 9.88960909,32.9880364 9.87788182,32.9958545 L7.49333636,34.3718545 C7.14933636,34.5712182 6.86006364,34.4422182 6.78188182,34.0904 C6.76624545,34.0591273 6.75842727,34.0200364 6.75842727,33.9731273 L6.75842727,33.9184 L6.75842727,33.8793091 L6.75060909,12.7389455 L6.75060909,12.6959455 L6.75060909,12.6412182 C6.75060909,12.5943091 6.75842727,12.5513091 6.77406364,12.5044 C6.85224545,12.0587636 7.14151818,11.5974909 7.48551818,11.3981273 L12.4696091,8.51712727 Z" id="Fill-4" fill="#4C66FA"></path>
                <path d="M14.8439909,5.53722727 C15.4772636,5.17368182 15.4772636,4.11431818 14.8439909,4.47786364 L12.5141727,5.8265 C11.8848091,6.19004545 11.8848091,7.2455 12.5141727,6.88195455 L14.8439909,5.53722727 Z" id="Fill-6" fill="#1C3C50"></path>
                <path d="M15.1993273,4.98213636 C15.1485091,5.15022727 15.0312364,5.32613636 14.8436,5.43559091 L12.5137818,6.78031818 C12.3300545,6.88977273 12.2127818,6.85068182 12.1619636,6.73731818 C12.1424182,6.69040909 12.1306909,6.63959091 12.1306909,6.57704545 C12.1306909,6.51840909 12.1424182,6.44804545 12.1619636,6.38159091 C12.2088727,6.2135 12.3300545,6.03759091 12.5137818,5.92813636 L14.8436,4.58340909 C15.0312364,4.47395455 15.1485091,4.51695455 15.1993273,4.62640909 C15.2188727,4.66940909 15.2306,4.72413636 15.2306,4.78668182 C15.2306,4.84531818 15.2188727,4.91177273 15.1993273,4.98213636 Z M14.8436,5.63886364 C15.1172364,5.4825 15.2853273,5.22059091 15.3635091,4.9665 C15.3947818,4.86877273 15.4065091,4.77104545 15.4065091,4.68504545 C15.4065091,4.59513636 15.3947818,4.51695455 15.3635091,4.45440909 C15.2853273,4.28631818 15.1133273,4.22377273 14.8436,4.37622727 L12.5137818,5.72486364 C12.2479636,5.87731818 12.0720545,6.14313636 11.9977818,6.39722727 C11.9704182,6.49495455 11.9547818,6.59268182 11.9547818,6.67868182 C11.9547818,6.76859091 11.9704182,6.84677273 11.9977818,6.90931818 C12.0720545,7.07740909 12.2479636,7.14386364 12.5137818,6.9875 L14.8436,5.63886364 Z" id="Fill-8" fill="#1C3C50"></path>
                <polygon id="Fill-10" fill="#E5EBEC" points="19.2417182 9.32044545 8.12035455 15.7430818 8.12035455 30.5819909 19.2417182 24.1632636"></polygon>
                <polygon id="Fill-12" fill="#131313" points="19.2417182 9.32044545 8.12035455 15.7430818 8.12035455 13.6009 19.2417182 7.18217273"></polygon>
                <path d="M9.67890909,16.6843909 C9.47172727,16.8016636 9.30363636,17.1104818 9.30363636,17.3684818 C9.30363636,17.6264818 9.47172727,17.7437545 9.67890909,17.6225727 C9.88609091,17.5013909 10.0541818,17.1925727 10.0541818,16.9345727 C10.0541818,16.6804818 9.88609091,16.5632091 9.67890909,16.6843909" id="Fill-14" fill="#78D289"></path>
                <path d="M9.67890909,19.2057545 C9.47172727,19.3269364 9.30363636,19.6357545 9.30363636,19.8937545 C9.30363636,20.1517545 9.47172727,20.2651182 9.67890909,20.1439364 C9.88609091,20.0266636 10.0541818,19.7178455 10.0541818,19.4598455 C10.0541818,19.2018455 9.88609091,19.0884818 9.67890909,19.2057545" id="Fill-16" fill="#EDD109"></path>
                <path d="M9.67890909,21.8877818 C9.47172727,22.0050545 9.30363636,22.3138727 9.30363636,22.5718727 C9.30363636,22.8298727 9.47172727,22.9471455 9.67890909,22.8259636 C9.88609091,22.7047818 10.0541818,22.3998727 10.0541818,22.1379636 C10.0541818,21.8838727 9.88609091,21.7666 9.67890909,21.8877818" id="Fill-18" fill="#7600E0"></path>
                <polygon id="Fill-20" fill="#9D9E9D" points="11.0916545 21.7752 16.9005636 18.4212 16.9005636 17.9521091 11.0916545 21.3061091"></polygon>
                <polygon id="Fill-22" fill="#9D9E9D" points="11.0916545 19.2518818 17.3735636 15.6242455 17.3735636 15.1551545 11.0916545 18.7827909"></polygon>
                <polygon id="Fill-24" fill="#9D9E9D" points="11.0916545 16.5718091 16.0405636 13.7142636 16.0405636 13.2451727 11.0916545 16.1027182"></polygon>
                <path d="M14.5883364,31.7003818 C14.7877,31.5831091 14.9714273,31.5792 15.1004273,31.6691091 C15.2294273,31.7590182 15.3154273,31.9388364 15.3154273,32.1890182 C15.3154273,32.4392 15.2333364,32.7167455 15.1004273,32.9552 C14.9714273,33.1975636 14.7877,33.4047455 14.5883364,33.5181091 L12.7823364,34.5579273 C12.5790636,34.6752 12.3992455,34.6791091 12.2702455,34.5931091 C12.1373364,34.5032 12.0591545,34.3233818 12.0591545,34.0692909 C12.0591545,33.8191091 12.1373364,33.5454727 12.2663364,33.3070182 C12.3992455,33.0646545 12.5790636,32.8574727 12.7823364,32.7441091 L14.5883364,31.7003818 Z" id="Fill-26" fill="#1C3C50"></path>
                <path d="M14.9014545,31.4943727 C14.8037273,31.4982818 14.6981818,31.5334636 14.5887273,31.5960091 L12.7827273,32.6397364 C12.6732727,32.7061909 12.5638182,32.7961 12.47,32.8977364 C12.3683636,33.0071909 12.2784545,33.1361909 12.2041818,33.2730091 C12.1299091,33.4098273 12.0673636,33.5544636 12.0282727,33.7030091 C11.9891818,33.8437364 11.9696364,33.9844636 11.9696364,34.1212818 C11.9696364,34.2581 11.9891818,34.3753727 12.0321818,34.4731 C12.0673636,34.5708273 12.1299091,34.6490091 12.2041818,34.6959182 C12.2784545,34.7506455 12.3683636,34.7701909 12.47,34.7662818 C12.5638182,34.7623727 12.6732727,34.7271909 12.7827273,34.6646455 L14.5887273,33.6209182 C14.6981818,33.5583727 14.8076364,33.4684636 14.9014545,33.3629182 C14.9991818,33.2534636 15.093,33.1244636 15.1633636,32.9876455 C15.2415455,32.8508273 15.3001818,32.7061909 15.3392727,32.5576455 C15.3783636,32.4169182 15.4018182,32.2761909 15.4018182,32.1393727 C15.4018182,32.0025545 15.3783636,31.8852818 15.3392727,31.7914636 C15.3001818,31.6898273 15.2415455,31.6116455 15.1633636,31.5608273 C15.093,31.5100091 14.9991818,31.4904636 14.9014545,31.4943727 Z M14.5887273,31.8031909 C14.6708182,31.7523727 14.7529091,31.7289182 14.8271818,31.7250091 C14.9053636,31.7171909 14.9796364,31.7367364 15.0343636,31.7758273 C15.0969091,31.8188273 15.1438182,31.8774636 15.1750909,31.9595545 C15.2063636,32.0377364 15.2259091,32.1315545 15.2259091,32.2410091 C15.2259091,32.3504636 15.2063636,32.4677364 15.1750909,32.5811 C15.1438182,32.6983727 15.0969091,32.8156455 15.0343636,32.9251 C14.9796364,33.0306455 14.9053636,33.1322818 14.8271818,33.2182818 C14.7529091,33.3003727 14.6708182,33.3668273 14.5887273,33.4176455 L12.7827273,34.4574636 C12.7006364,34.5082818 12.6146364,34.5356455 12.5403636,34.5395545 C12.4621818,34.5434636 12.3918182,34.5239182 12.3331818,34.4848273 C12.2745455,34.4418273 12.2276364,34.3831909 12.1963636,34.3011 C12.1611818,34.2268273 12.1455455,34.1291 12.1455455,34.0196455 C12.1455455,33.9101909 12.1611818,33.7929182 12.1963636,33.6795545 C12.2237273,33.5622818 12.2745455,33.4450091 12.3331818,33.3355545 C12.3918182,33.2300091 12.4621818,33.1283727 12.5403636,33.0423727 C12.6146364,32.9602818 12.6967273,32.8938273 12.7827273,32.8430091 L14.5887273,31.8031909 Z" id="Fill-28" fill="#1C3C50"></path>
                <g id="Group-32" transform="translate(0.000000, 3.909091)">
                    <mask id="mask-2" fill="white">
                        <use xlink:href="#path-1"></use>
                    </mask>
                    <g id="Clip-31"></g>
                    <polygon id="Fill-30" fill="#1C3C50" mask="url(#mask-2)" points="4.31915455 3.80432727 4.30351818 3.83169091 4.2527 3.94505455 4.20579091 4.05841818 4.15888182 4.17178182 4.11588182 4.28905455 4.07679091 4.40241818 4.04551818 4.51969091 4.01424545 4.63696364 3.98688182 4.75423636 3.96342727 4.8676 3.94388182 4.98487273 3.92824545 5.10214545 3.91651818 5.21550909 3.91260909 5.33278182 3.91260909 5.44223636 3.91651818 32.5478727 3.92042727 32.6573273 3.92433636 32.7667818 3.93606364 32.8684182 3.9517 32.9661455 3.97124545 33.0599636 3.9947 33.1498727 4.02597273 33.2358727 4.05724545 33.3140545 4.08851818 33.3922364 4.12760909 33.4626 4.17060909 33.5290545 4.21751818 33.5916 4.26442727 33.6502364 4.31524545 33.7010545 4.37388182 33.7518727 6.51606364 34.9910545 6.46524545 34.9441455 6.41442727 34.8894182 6.36360909 34.8307818 6.32060909 34.7721455 6.27760909 34.7017818 6.23851818 34.6314182 6.20333636 34.5571455 6.17597273 34.4750545 6.14860909 34.3890545 6.12515455 34.2991455 6.1017 34.2053273 6.08606364 34.1076 6.07433636 34.0059636 6.06651818 33.9004182 6.06651818 33.7909636 6.05479091 6.68532727 6.0587 6.57196364 6.06651818 6.4586 6.07824545 6.34132727 6.09388182 6.22796364 6.11342727 6.11069091 6.13688182 5.99341818 6.16424545 5.87614545 6.19160909 5.75887273 6.22679091 5.64550909 6.26979091 5.52823636 6.30888182 5.41487273 6.35579091 5.2976 6.4027 5.18423636 6.45351818 5.07087273 6.46915455 5.04350909"></polygon>
                </g>
            </g>
        </g>
    </g>
</svg>