<?xml version="1.0" encoding="UTF-8"?>
<svg width="40px" height="40px" viewBox="0 0 40 40" version="1.1" xmlns="http://www.w3.org/2000/svg" xmlns:xlink="http://www.w3.org/1999/xlink">
    <!-- Generator: Sketch 52.5 (67469) - http://www.bohemiancoding.com/sketch -->
    <title>Icon/Category/Computer</title>
    <desc>Created with Sketch.</desc>
    <defs>
        <polygon id="path-1" points="0.5439 0.9793 33.502 0.9793 33.502 20.0228 0.5439 20.0228"></polygon>
        <polygon id="path-3" points="3.5 3.1682 5.67945 3.1682 5.67945 18.2357 3.5 18.2357"></polygon>
    </defs>
    <g id="Icon/Category/Computer" stroke="none" stroke-width="1" fill="none" fill-rule="evenodd">
        <g id="Group-127" transform="translate(0.000000, 1.000000)">
            <polygon id="Fill-1" fill="#24465C" points="23.4206 0.49895 23.3646 0.50245 23.3016 0.50945 23.2421 0.51995 23.1756 0.54095 23.1091 0.55845 23.0461 0.57945 22.9796 0.60745 22.9131 0.64245 22.8431 0.68095 4.8426 11.06545 4.7726 11.10395 4.7026 11.15295 4.6396 11.19845 4.5696 11.25095 4.5101 11.30695 4.4436 11.36295 4.3806 11.42245 4.3211 11.48545 4.2616 11.55195 4.2056 11.61845 4.1531 11.68845 4.0971 11.75845 4.0411 11.83195 3.9956 11.90895 3.9431 11.98245 3.8976 12.06295 3.8521 12.13995 3.8101 12.22395 3.7716 12.30095 3.7331 12.38495 3.6981 12.46895 3.6631 12.54945 3.6386 12.63695 3.6106 12.71745 3.5896 12.80145 3.5651 12.88545 3.5476 12.96945 3.5301 13.05345 3.5196 13.13745 3.5126 13.21795 3.5021 13.29845 3.5021 13.37895 3.4986 26.15745 3.4986 26.23445 3.5091 26.31145 3.5161 26.37795 3.5266 26.44795 3.5406 26.51445 3.5616 26.57745 3.5791 26.63695 3.6036 26.69295 3.6316 26.74895 3.6596 26.79795 4.1041 27.24245 4.0796 27.19345 4.0516 27.14095 4.0306 27.08495 4.0061 27.02545 3.9851 26.96245 3.9711 26.89595 3.9641 26.82595 3.9536 26.75245 3.9501 26.67895 3.9431 26.60195 3.9501 13.82345 3.9536 13.74645 3.9571 13.66245 3.9676 13.58195 3.9781 13.49795 3.9956 13.41745 4.0096 13.33345 4.0306 13.24595 4.0586 13.16545 4.0831 13.08145 4.1146 12.99745 4.1426 12.91345 4.1776 12.82945 4.2196 12.74895 4.2546 12.66845 4.2966 12.58445 4.3421 12.50745 4.3911 12.43045 4.4401 12.35695 4.4891 12.27995 4.5381 12.20295 4.5976 12.13645 4.6536 12.06295 4.7131 11.99645 4.7691 11.92995 4.8251 11.87045 4.8916 11.80745 4.9546 11.75145 5.0176 11.69545 5.0841 11.64645 5.1506 11.59745 5.2171 11.55195 5.2871 11.50995 23.2876 1.12545 23.3576 1.08695 23.4241 1.05545 23.4941 1.02745 23.5606 1.00295 23.6236 0.98545 23.6866 0.96795 23.7461 0.95395 23.8091 0.95045 23.8651 0.94695 23.9246 0.94695 23.9806 0.95395 24.0331 0.96095 24.0891 0.97495 24.1381 0.98895 24.1871 1.00995 24.2291 1.03445 23.7846 0.58995 23.7391 0.56545 23.6901 0.54795 23.6411 0.52695 23.5886 0.51645 23.5326 0.50595 23.4801 0.50245"></polygon>
            <g id="Group-126" transform="translate(0.000000, 0.507450)">
                <path d="M5.28535,11.00285 L23.28935,0.61835 C24.02435,0.19485 24.62285,0.54485 24.62285,1.39185 L24.61935,14.17035 C24.61585,15.01735 24.02085,16.06035 23.28585,16.48385 L5.28185,26.86835 C4.54685,27.29185 3.94485,26.94535 3.94485,26.09485 L3.94835,13.31635 C3.94835,12.46935 4.55385,11.42635 5.28535,11.00285" id="Fill-2" fill="#2A556F"></path>
                <path d="M5.3676,11.96325 L10.1066,9.22625 L23.2106,1.66975 C23.5431,1.47375 23.8196,1.63475 23.8196,2.02325 L23.8161,14.46575 C23.8161,14.85425 23.5396,15.32675 23.2036,15.52275 L8.4196,24.05225 L5.3606,25.81625 C5.0211,26.00875 4.7481,25.85125 4.7481,25.46275 L4.7551,13.02025 C4.7551,12.63175 5.0281,12.15575 5.3676,11.96325" id="Fill-4" fill="#3C59FC"></path>
                <polygon id="Fill-6" fill="#E5EBEC" points="8.0983 13.5715 20.4743 6.4245 20.4743 14.9575 8.0983 22.1045"></polygon>
                <polygon id="Fill-8" fill="#131313" points="8.0983 13.5715 20.4743 6.4245 20.4743 5.196 8.0983 12.343"></polygon>
                <path d="M11.23605,13.79375 C11.40405,13.69925 11.54055,13.77625 11.54055,13.96875 C11.54055,14.16125 11.40405,14.39575 11.23605,14.49375 C11.06805,14.59175 10.93155,14.51125 10.93155,14.31875 C10.93155,14.12625 11.06805,13.89175 11.23605,13.79375" id="Fill-10" fill="#78D289"></path>
                <path d="M11.23605,15.675 C11.40405,15.5805 11.54055,15.6575 11.54055,15.85 C11.54055,16.0425 11.40405,16.2805 11.23605,16.3785 C11.06805,16.473 10.93155,16.396 10.93155,16.2 C10.93155,16.0075 11.06805,15.773 11.23605,15.675" id="Fill-12" fill="#EDD109"></path>
                <path d="M11.23605,17.6763 C11.40405,17.5818 11.54055,17.6588 11.54055,17.8513 C11.54055,18.0438 11.40405,18.2783 11.23605,18.3763 C11.06805,18.4743 10.93155,18.3938 10.93155,18.2013 C10.93155,18.0088 11.06805,17.7708 11.23605,17.6763" id="Fill-14" fill="#7600E0"></path>
                <polygon id="Fill-16" fill="#9D9E9D" points="12.159 13.4364 16.863 10.7204 16.863 11.0704 12.159 13.7864"></polygon>
                <polygon id="Fill-18" fill="#9D9E9D" points="12.159 15.31975 17.248 12.37975 17.248 12.73325 12.159 15.66975"></polygon>
                <polygon id="Fill-20" fill="#9D9E9D" points="12.159 17.3193 16.1665 15.0058 16.1665 15.3558 12.159 17.6693"></polygon>
                <polygon id="Fill-22" fill="#E5EBEC" points="29.54945 27.47385 24.23645 30.53985 24.23645 30.25635 29.54945 27.19035"></polygon>
                <polygon id="Fill-24" fill="#2F5A75" points="36.9803 24.1499 36.9803 25.1264 36.9663 25.1789 36.9453 25.2314 36.9243 25.2839 36.8963 25.3329 36.8648 25.3854 36.8263 25.4309 36.7843 25.4799 36.7388 25.5289 36.6898 25.5744 36.6338 25.6164 36.5778 25.6619 36.5148 25.7039 36.4483 25.7459 18.3778 36.1829 18.3043 36.2179 18.2343 36.2564 18.1573 36.2879 18.0803 36.3194 17.9963 36.3474 17.9193 36.3754 17.8318 36.3999 17.7478 36.4209 17.6603 36.4384 17.5728 36.4559 17.4888 36.4699 17.3943 36.4804 17.3068 36.4874 17.2158 36.4944 17.1248 36.4979 17.0338 36.4979 16.9393 36.4979 16.8518 36.4944 16.7608 36.4874 16.6698 36.4804 16.5823 36.4699 16.4913 36.4559 16.4038 36.4384 16.3198 36.4174 16.2323 36.3999 16.1518 36.3754 16.0678 36.3474 15.9908 36.3194 15.9103 36.2879 15.8368 36.2529 15.7633 36.2179 15.6933 36.1794 4.5948 29.7604 4.5318 29.7184 4.4653 29.6764 4.4058 29.6344 4.3533 29.5889 4.3043 29.5434 4.2588 29.4944 4.2203 29.4489 4.1818 29.3999 4.1468 29.3474 4.1188 29.2984 4.0943 29.2459 4.0803 29.1934 4.0628 29.1444 4.0628 28.1644 4.0803 28.2169 4.0943 28.2694 4.1188 28.3219 4.1468 28.3709 4.1818 28.4199 4.2203 28.4689 4.2588 28.5179 4.3043 28.5669 4.3533 28.6124 4.4058 28.6579 4.4653 28.6999 4.5318 28.7419 4.5948 28.7839 15.6933 35.2029 15.7633 35.2414 15.8368 35.2764 15.9103 35.3114 15.9908 35.3429 16.0678 35.3709 16.1518 35.3989 16.2323 35.4234 16.3198 35.4444 16.4038 35.4619 16.4913 35.4759 16.5823 35.4899 16.6698 35.5039 16.7608 35.5109 16.8518 35.5179 16.9393 35.5214 17.0338 35.5249 17.1248 35.5214 17.2158 35.5179 17.3068 35.5109 17.3943 35.5039 17.4888 35.4934 17.5728 35.4759 17.6603 35.4619 17.7478 35.4444 17.8318 35.4234 17.9193 35.3989 17.9963 35.3709 18.0803 35.3429 18.1573 35.3114 18.2343 35.2799 18.3043 35.2414 18.3778 35.2029 36.4483 24.7694 36.5148 24.7274 36.5778 24.6854 36.6338 24.6399 36.6898 24.5944 36.7388 24.5489 36.7843 24.5034 36.8263 24.4544 36.8648 24.4054 36.8963 24.3564 36.9243 24.3039 36.9453 24.2549 36.9663 24.2024"></polygon>
                <g id="Group-28" transform="translate(3.500000, 15.500000)">
                    <mask id="mask-2" fill="white">
                        <use xlink:href="#path-1"></use>
                    </mask>
                    <g id="Clip-27"></g>
                    <path d="M1.09515,11.73305 L19.16915,1.29955 C19.90765,0.87255 21.11515,0.87255 21.85365,1.29955 L32.94865,7.71855 C33.68715,8.14555 33.68715,8.84205 32.94865,9.26905 L14.87815,19.70255 C14.13965,20.12955 12.93215,20.12955 12.19365,19.70255 L1.09515,13.28355 C0.36015,12.85655 0.36015,12.16005 1.09515,11.73305" id="Fill-26" fill="#24465C" mask="url(#mask-2)"></path>
                </g>
                <polygon id="Fill-29" fill="#2F5A75" points="24.0261 30.8818 28.9681 28.0258 25.1846 25.8383 20.2426 28.6943"></polygon>
                <path d="M6.86105,27.5953 L8.28205,26.7728 L10.44155,25.5268 L12.68855,24.2283 L13.81205,23.5808 C13.83305,23.5668 13.85405,23.5528 13.87855,23.5423 L15.29955,22.7163 L17.45905,21.4703 L19.70605,20.1753 L22.63555,18.4848 L23.28655,18.1068 C23.68555,17.8793 24.32605,17.8793 24.72155,18.1068 L30.31805,21.3443 C30.71005,21.5718 30.71005,21.9463 30.31805,22.1738 L23.36705,26.1883 C23.34605,26.2023 23.32505,26.2128 23.30055,26.2268 L13.88905,31.6623 C13.49705,31.8898 12.85305,31.8898 12.46105,31.6623 L6.85755,28.4213 C6.46555,28.1938 6.46905,27.8228 6.86105,27.5953" id="Fill-31" fill="#2A556F"></path>
                <path d="M14.0903,26.8246 L14.8988,26.3591 C15.0598,26.2646 15.3293,26.2646 15.4868,26.3591 L16.2988,26.8246 C16.4598,26.9191 16.4598,27.0731 16.2953,27.1641 L15.4868,27.6331 C15.3258,27.7241 15.0598,27.7241 14.8953,27.6331 L14.0903,27.1641 C13.9293,27.0696 13.9293,26.9191 14.0903,26.8246" id="Fill-33" fill="#1C3C50"></path>
                <path d="M10.91825,28.65475 L10.11325,29.12025 C9.94875,29.21475 9.94875,29.36875 10.11325,29.46325 L10.91825,29.92875 C11.08275,30.02325 11.34525,30.02325 11.50975,29.92875 L12.31475,29.46325 C12.47925,29.36875 12.47925,29.21475 12.31475,29.12025 L11.50975,28.65475 C11.34875,28.56025 11.08275,28.56025 10.91825,28.65475" id="Fill-35" fill="#1C3C50"></path>
                <path d="M12.90765,29.8052 L12.10265,30.2707 C11.93815,30.3652 11.93815,30.5192 12.09915,30.6137 L12.90765,31.0792 C13.06865,31.1737 13.33465,31.1737 13.49565,31.0792 L14.30415,30.6137 C14.46515,30.5192 14.46515,30.3652 14.30415,30.2707 L13.49915,29.8052 C13.33465,29.7107 13.07215,29.7107 12.90765,29.8052" id="Fill-37" fill="#1C3C50"></path>
                <path d="M11.50975,27.63135 L12.31825,27.16585 C12.47925,27.07135 12.47925,26.91735 12.31825,26.82635 L11.51325,26.35735 C11.34875,26.26285 11.08275,26.26285 10.92175,26.35735 L10.11675,26.82285 C9.95225,26.91735 9.95225,27.07135 10.11325,27.16585 L10.92175,27.63135 C11.08275,27.72585 11.34875,27.72585 11.50975,27.63135" id="Fill-39" fill="#1C3C50"></path>
                <path d="M13.4988,26.48265 L14.3073,26.01365 C14.4683,25.92265 14.4683,25.76865 14.3073,25.67415 L13.5023,25.20865 C13.3378,25.11415 13.0718,25.11415 12.9108,25.20865 L12.1058,25.67415 C11.9413,25.76865 11.9413,25.91915 12.1058,26.01365 L12.9108,26.48265 C13.0718,26.57365 13.3378,26.57365 13.4988,26.48265" id="Fill-41" fill="#1C3C50"></path>
                <path d="M10.33025,28.31315 L9.52175,28.77865 C9.36075,28.87315 9.09125,28.87315 8.93375,28.77865 L8.12175,28.31315 C7.96075,28.21865 7.96075,28.06465 8.12175,27.97015 L8.93375,27.50465 C9.09125,27.41015 9.36075,27.41015 9.52525,27.50465 L10.33025,27.97015 C10.49125,28.06465 10.49125,28.21865 10.33025,28.31315" id="Fill-43" fill="#1C3C50"></path>
                <path d="M12.1009,27.97295 L12.9094,27.50745 C13.0704,27.41295 13.3399,27.41295 13.4974,27.50745 L14.3059,27.97295 C14.4704,28.06745 14.4704,28.22145 14.3059,28.31245 L13.4974,28.78145 C13.3364,28.87245 13.0704,28.87245 12.9059,28.77795 L12.1009,28.31245 C11.9364,28.21795 11.9364,28.06745 12.1009,27.97295" id="Fill-45" fill="#1C3C50"></path>
                <path d="M18.06875,24.52615 L18.87725,24.06065 C19.03825,23.96615 19.30775,23.96615 19.46525,24.06065 L20.27375,24.52615 C20.43825,24.62065 20.43825,24.77465 20.27375,24.86915 L19.46525,25.33465 C19.30775,25.42915 19.03825,25.42915 18.87375,25.33465 L18.06875,24.86915 C17.90775,24.77115 17.90775,24.62065 18.06875,24.52615" id="Fill-47" fill="#1C3C50"></path>
                <path d="M20.0578,25.67625 L20.8628,25.21075 C21.0273,25.11625 21.2933,25.11625 21.4543,25.21075 L22.2628,25.67625 C22.4238,25.77075 22.4238,25.92475 22.2628,26.01925 L21.4543,26.48475 C21.2933,26.57925 21.0273,26.57925 20.8628,26.48475 L20.0578,26.01925 C19.8933,25.92125 19.8933,25.77075 20.0578,25.67625" id="Fill-49" fill="#1C3C50"></path>
                <path d="M15.49135,25.3343 L16.29635,24.8653 C16.45735,24.7708 16.45735,24.6203 16.29635,24.5258 L15.49135,24.0568 C15.32685,23.9623 15.06435,23.9623 14.89985,24.0568 L14.09485,24.5258 C13.93035,24.6203 13.93035,24.7708 14.09485,24.8653 L14.89985,25.3343 C15.06085,25.4253 15.32685,25.4253 15.49135,25.3343" id="Fill-51" fill="#1C3C50"></path>
                <path d="M17.47725,24.1842 L18.28575,23.7187 C18.44675,23.6242 18.44675,23.4702 18.28575,23.3792 L17.48075,22.9102 C17.31625,22.8157 17.05375,22.8157 16.88925,22.9102 L16.08425,23.3757 C15.91975,23.4702 15.91975,23.6242 16.08075,23.7187 L16.88925,24.1842 C17.05025,24.2787 17.31625,24.2787 17.47725,24.1842" id="Fill-53" fill="#1C3C50"></path>
                <path d="M16.07935,25.6745 L16.88785,25.209 C17.04885,25.1145 17.31835,25.1145 17.47585,25.209 L18.28785,25.6745 C18.44885,25.769 18.44885,25.923 18.28785,26.0175 L17.47585,26.483 C17.31485,26.5775 17.04885,26.5775 16.88435,26.483 L16.07935,26.0175 C15.91835,25.923 15.91835,25.769 16.07935,25.6745" id="Fill-55" fill="#1C3C50"></path>
                <path d="M14.0903,29.12305 L18.8748,26.35805 C19.0393,26.26355 19.3018,26.26355 19.4663,26.35805 L20.2748,26.82705 C20.4358,26.91805 20.4358,27.07205 20.2748,27.16655 L15.4833,29.93155 C15.3258,30.02255 15.0563,30.02255 14.8953,29.92805 L14.0868,29.46255 C13.9258,29.36805 13.9258,29.21755 14.0903,29.12305" id="Fill-57" fill="#1C3C50"></path>
                <path d="M24.68235,20.70485 L25.48735,20.23935 C25.65185,20.14485 25.92135,20.14485 26.07885,20.23935 L26.88735,20.70485 C27.05185,20.79935 27.05185,20.95335 26.88735,21.04785 L26.07885,21.51335 C25.91785,21.60435 25.64835,21.60435 25.48735,21.51335 L24.68235,21.04785 C24.51785,20.94985 24.51785,20.79935 24.68235,20.70485" id="Fill-59" fill="#1C3C50"></path>
                <path d="M26.67175,21.85495 L27.47675,21.38945 C27.63775,21.29495 27.90725,21.29495 28.06825,21.38945 L28.87675,21.85495 C29.03775,21.94945 29.03775,22.10345 28.87675,22.19445 L28.06475,22.66345 C27.90725,22.75445 27.63775,22.75445 27.47675,22.66345 L26.66825,22.19445 C26.50725,22.09995 26.50725,21.94945 26.67175,21.85495" id="Fill-61" fill="#1C3C50"></path>
                <path d="M24.0912,20.3629 L24.8962,19.8974 C25.0607,19.8029 25.0607,19.6489 24.8997,19.5579 L24.0912,19.0889 C23.9302,18.9944 23.6642,18.9944 23.5032,19.0889 L22.6947,19.5544 C22.5337,19.6489 22.5337,19.7994 22.6947,19.8974 L23.4997,20.3629 C23.6642,20.4574 23.9302,20.4574 24.0912,20.3629" id="Fill-63" fill="#1C3C50"></path>
                <path d="M22.6933,21.8532 L23.4983,21.3877 C23.6628,21.2932 23.9323,21.2932 24.0898,21.3877 L24.8983,21.8532 C25.0628,21.9477 25.0628,22.1017 24.8983,22.1962 L24.0898,22.6617 C23.9288,22.7562 23.6628,22.7562 23.4983,22.6617 L22.6933,22.1962 C22.5323,22.1017 22.5323,21.9477 22.6933,21.8532" id="Fill-65" fill="#1C3C50"></path>
                <path d="M24.68235,23.0033 L25.48735,22.5378 C25.65185,22.4433 25.91785,22.4433 26.07885,22.5378 L26.88735,23.0033 C27.04835,23.0978 27.04835,23.2518 26.88735,23.3463 L26.07885,23.8118 C25.91785,23.9063 25.64835,23.9063 25.48735,23.8118 L24.68235,23.3428 C24.51785,23.2518 24.51785,23.0978 24.68235,23.0033" id="Fill-67" fill="#1C3C50"></path>
                <path d="M20.11275,22.66135 L20.92125,22.19585 C21.08225,22.10135 21.08225,21.94735 20.92125,21.85285 L20.11275,21.38735 C19.95175,21.29285 19.68575,21.29285 19.52475,21.38735 L18.71625,21.85285 C18.55525,21.94735 18.55525,22.09785 18.71625,22.19235 L19.52475,22.66135 C19.68575,22.75585 19.95175,22.75585 20.11275,22.66135" id="Fill-69" fill="#1C3C50"></path>
                <path d="M22.1018,21.51125 L22.9103,21.04575 C23.0713,20.95125 23.0713,20.79725 22.9103,20.70625 L22.1018,20.23725 C21.9408,20.14275 21.6783,20.14275 21.5138,20.23725 L20.7088,20.70625 C20.5443,20.79725 20.5443,20.95125 20.7088,21.04575 L21.5138,21.51125 C21.6748,21.60575 21.9408,21.60575 22.1018,21.51125" id="Fill-71" fill="#1C3C50"></path>
                <path d="M20.7039,23.0033 L21.5124,22.5378 C21.6734,22.4433 21.9429,22.4433 22.1004,22.5378 L22.9089,23.0033 C23.0734,23.0978 23.0734,23.2518 22.9089,23.3428 L22.1004,23.8118 C21.9429,23.9063 21.6734,23.9063 21.5089,23.8083 L20.7039,23.3428 C20.5429,23.2483 20.5429,23.0978 20.7039,23.0033" id="Fill-73" fill="#1C3C50"></path>
                <path d="M22.6933,24.1534 L23.4983,23.6879 C23.6628,23.5934 23.9288,23.5934 24.0898,23.6879 L24.8983,24.1534 C25.0628,24.2479 25.0628,24.4019 24.8983,24.4929 L24.0898,24.9619 C23.9288,25.0529 23.6593,25.0529 23.4983,24.9619 L22.6933,24.4929 C22.5288,24.3984 22.5288,24.2479 22.6933,24.1534" id="Fill-75" fill="#1C3C50"></path>
                <path d="M14.06965,26.686 L14.87815,26.2205 C15.04265,26.126 15.30865,26.126 15.46965,26.2205 L16.27815,26.686 C16.43915,26.7805 16.43915,26.9345 16.27815,27.029 L15.46615,27.4945 C15.30865,27.589 15.03915,27.589 14.87815,27.4945 L14.06965,27.029 C13.90865,26.9345 13.90865,26.7805 14.06965,26.686" id="Fill-77" fill="#E5EBEC"></path>
                <path d="M10.9011,28.51825 L10.0961,28.98375 C9.9316,29.07825 9.9316,29.23225 10.0961,29.32675 L10.8976,29.79225 C11.0621,29.88675 11.3281,29.88675 11.4891,29.79225 L12.2976,29.32675 C12.4586,29.23225 12.4586,29.07825 12.2976,28.98375 L11.4926,28.51825 C11.3281,28.42375 11.0621,28.42375 10.9011,28.51825" id="Fill-79" fill="#E5EBEC"></path>
                <path d="M12.8905,29.66835 L12.082,30.13385 C11.921,30.22835 11.9175,30.38235 12.082,30.47335 L12.887,30.94235 C13.0515,31.03685 13.314,31.03685 13.4785,30.94235 L14.2835,30.47685 C14.448,30.38235 14.448,30.22835 14.2835,30.13385 L13.4785,29.66835 C13.3175,29.57385 13.0515,29.57385 12.8905,29.66835" id="Fill-81" fill="#E5EBEC"></path>
                <path d="M11.4926,27.4945 L12.2976,27.029 C12.4621,26.9345 12.4621,26.7805 12.2976,26.686 L11.4926,26.2205 C11.3281,26.126 11.0656,26.126 10.9011,26.2205 L10.0961,26.686 C9.9316,26.7805 9.9316,26.931 10.0961,27.029 L10.9011,27.4945 C11.0656,27.589 11.3281,27.589 11.4926,27.4945" id="Fill-83" fill="#E5EBEC"></path>
                <path d="M13.48165,26.34615 L14.28665,25.88065 C14.45115,25.78615 14.45115,25.63215 14.28665,25.53765 L13.48165,25.07215 C13.31715,24.97415 13.05465,24.97415 12.89015,25.07215 L12.08515,25.53765 C11.92065,25.63215 11.92065,25.78265 12.08515,25.87715 L12.89015,26.34615 C13.05465,26.44065 13.31715,26.44065 13.48165,26.34615" id="Fill-85" fill="#E5EBEC"></path>
                <path d="M10.30995,28.1763 L9.50495,28.6418 C9.34045,28.7363 9.07445,28.7363 8.91345,28.6418 L8.10495,28.1763 C7.94045,28.0818 7.94045,27.9278 8.10495,27.8333 L8.91345,27.3678 C9.07445,27.2733 9.34045,27.2733 9.50495,27.3678 L10.30995,27.8368 C10.47445,27.9278 10.47445,28.0818 10.30995,28.1763" id="Fill-87" fill="#E5EBEC"></path>
                <path d="M12.08025,27.83645 L12.88875,27.37095 C13.04975,27.27645 13.31925,27.27645 13.47675,27.37095 L14.28875,27.83645 C14.44975,27.93095 14.44975,28.08495 14.28875,28.17945 L13.47675,28.64495 C13.31925,28.73945 13.04975,28.73595 12.88875,28.64495 L12.08025,28.17595 C11.91925,28.08145 11.91925,27.93095 12.08025,27.83645" id="Fill-89" fill="#E5EBEC"></path>
                <path d="M18.0516,24.3893 L18.8566,23.9238 C19.0211,23.8293 19.2871,23.8293 19.4481,23.9238 L20.2566,24.3893 C20.4211,24.4838 20.4211,24.6378 20.2566,24.7323 L19.4446,25.1978 C19.2871,25.2923 19.0176,25.2923 18.8566,25.1978 L18.0516,24.7288 C17.8871,24.6378 17.8871,24.4838 18.0516,24.3893" id="Fill-91" fill="#E5EBEC"></path>
                <path d="M20.0375,25.5394 L20.846,25.0739 C21.007,24.9794 21.2765,24.9794 21.434,25.0739 L22.246,25.5394 C22.407,25.6339 22.407,25.7879 22.2425,25.8824 L21.434,26.3479 C21.273,26.4424 21.007,26.4424 20.8425,26.3479 L20.0375,25.8789 C19.8765,25.7879 19.8765,25.6339 20.0375,25.5394" id="Fill-93" fill="#E5EBEC"></path>
                <path d="M15.47105,25.19605 L16.27605,24.73055 C16.44055,24.63605 16.44055,24.48205 16.27605,24.39105 L15.47105,23.92205 C15.31005,23.82755 15.04405,23.82755 14.88305,23.92205 L14.07455,24.38755 C13.91005,24.48205 13.91005,24.63605 14.07455,24.73055 L14.87955,25.19605 C15.04405,25.29055 15.30655,25.29055 15.47105,25.19605" id="Fill-95" fill="#E5EBEC"></path>
                <path d="M17.4601,24.04735 L18.2651,23.58185 C18.4296,23.48735 18.4296,23.33335 18.2686,23.24235 L17.4601,22.77335 C17.2991,22.67885 17.0331,22.67885 16.8721,22.77335 L16.0636,23.23885 C15.9026,23.33335 15.9026,23.48735 16.0636,23.58185 L16.8686,24.04735 C17.0331,24.14185 17.2956,24.14185 17.4601,24.04735" id="Fill-97" fill="#E5EBEC"></path>
                <path d="M16.0622,25.53765 L16.8672,25.07215 C17.0317,24.97765 17.2977,24.97765 17.4587,25.07215 L18.2672,25.53765 C18.4317,25.63215 18.4282,25.78615 18.2672,25.88065 L17.4552,26.34615 C17.2977,26.44065 17.0282,26.44065 16.8672,26.34615 L16.0587,25.88065 C15.8977,25.78615 15.8977,25.63215 16.0622,25.53765" id="Fill-99" fill="#E5EBEC"></path>
                <path d="M14.06965,28.9848 L18.85765,26.2198 C19.01865,26.1288 19.28465,26.1288 19.44565,26.2198 L20.25765,26.6888 C20.41515,26.7833 20.41515,26.9373 20.25415,27.0283 L15.46615,29.7933 C15.30515,29.8878 15.03915,29.8878 14.87465,29.7933 L14.06965,29.3278 C13.90865,29.2333 13.90865,29.0793 14.06965,28.9848" id="Fill-101" fill="#E5EBEC"></path>
                <path d="M24.66205,20.568 L25.47055,20.1025 C25.63155,20.008 25.90105,20.008 26.05855,20.1025 L26.87055,20.568 C27.03155,20.6625 27.03155,20.8165 26.87055,20.911 L26.05855,21.3765 C25.90105,21.471 25.63155,21.471 25.47055,21.3765 L24.66205,20.9075 C24.50105,20.8165 24.50105,20.6625 24.66205,20.568" id="Fill-103" fill="#E5EBEC"></path>
                <path d="M26.6511,21.7181 L27.4561,21.2526 C27.6206,21.1581 27.8866,21.1581 28.0476,21.2526 L28.8561,21.7181 C29.0206,21.8126 29.0206,21.9666 28.8561,22.0611 L28.0476,22.5266 C27.8866,22.6211 27.6206,22.6211 27.4561,22.5266 L26.6511,22.0576 C26.4866,21.9631 26.4866,21.8126 26.6511,21.7181" id="Fill-105" fill="#E5EBEC"></path>
                <path d="M24.07405,20.22605 L24.87905,19.76055 C25.04355,19.66605 25.04355,19.51205 24.87905,19.41755 L24.07405,18.95205 C23.90955,18.85755 23.64705,18.85755 23.48255,18.95205 L22.67755,19.41755 C22.51305,19.51205 22.51305,19.66255 22.67755,19.76055 L23.48255,20.22605 C23.64705,20.32055 23.90955,20.32055 24.07405,20.22605" id="Fill-107" fill="#E5EBEC"></path>
                <path d="M22.67615,21.7181 L23.48115,21.2526 C23.64565,21.1546 23.91165,21.1546 24.07265,21.2526 L24.88115,21.7181 C25.04215,21.8126 25.04215,21.9666 24.88115,22.0576 L24.06915,22.5231 C23.91165,22.6176 23.64215,22.6176 23.48115,22.5231 L22.67265,22.0576 C22.51165,21.9631 22.51165,21.8091 22.67615,21.7181" id="Fill-109" fill="#E5EBEC"></path>
                <path d="M24.66205,22.86645 L25.47055,22.40095 C25.63155,22.30645 25.90105,22.30645 26.05855,22.40095 L26.86705,22.86645 C27.03155,22.96095 27.03155,23.11495 26.86705,23.20945 L26.05855,23.67495 C25.89755,23.76945 25.63155,23.76945 25.46705,23.67495 L24.66205,23.20945 C24.49755,23.11495 24.50105,22.96095 24.66205,22.86645" id="Fill-111" fill="#E5EBEC"></path>
                <path d="M20.0956,22.5231 L20.9006,22.0576 C21.0651,21.9631 21.0651,21.8091 20.9006,21.7181 L20.0956,21.2491 C19.9311,21.1546 19.6686,21.1546 19.5041,21.2491 L18.6991,21.7181 C18.5346,21.8091 18.5346,21.9631 18.6991,22.0576 L19.5041,22.5231 C19.6686,22.6176 19.9311,22.6176 20.0956,22.5231" id="Fill-113" fill="#E5EBEC"></path>
                <path d="M22.08465,21.37475 L22.88965,20.90925 C23.05415,20.81475 23.05415,20.66075 22.88965,20.56975 L22.08465,20.10075 C21.92365,20.00625 21.65765,20.00625 21.49665,20.10075 L20.68815,20.56975 C20.52365,20.66075 20.52365,20.81475 20.68815,20.90925 L21.49315,21.37475 C21.65765,21.46925 21.92015,21.46925 22.08465,21.37475" id="Fill-115" fill="#E5EBEC"></path>
                <path d="M20.68675,22.86645 L21.49175,22.40095 C21.65625,22.30645 21.92225,22.30645 22.08325,22.40095 L22.89175,22.86645 C23.05625,22.96095 23.05625,23.11495 22.89175,23.20945 L22.08325,23.67495 C21.92225,23.76945 21.65625,23.76945 21.49175,23.67495 L20.68675,23.20595 C20.52225,23.11145 20.52225,22.96095 20.68675,22.86645" id="Fill-117" fill="#E5EBEC"></path>
                <path d="M22.67265,24.01655 L23.48115,23.55105 C23.64215,23.45655 23.91165,23.45655 24.06915,23.55105 L24.88115,24.01655 C25.04215,24.11105 25.04215,24.26505 24.88115,24.35955 L24.06915,24.82505 C23.90815,24.91955 23.64215,24.91955 23.48115,24.82505 L22.67265,24.35605 C22.51165,24.26155 22.51165,24.11105 22.67265,24.01655" id="Fill-119" fill="#E5EBEC"></path>
                <g id="Group-123" transform="translate(0.000000, 8.500000)">
                    <mask id="mask-4" fill="white">
                        <use xlink:href="#path-3"></use>
                    </mask>
                    <g id="Clip-122"></g>
                    <polygon id="Fill-121" fill="#1C3C50" mask="url(#mask-4)" points="4.1062 18.2357 3.6617 17.7912 3.6302 17.7387 3.6022 17.6862 3.5812 17.6302 3.5602 17.5707 3.5427 17.5077 3.5287 17.4412 3.5147 17.3747 3.5042 17.3012 3.5007 17.2242 3.5007 17.1472 3.5042 4.3722 3.5042 4.2917 3.5112 4.2112 3.5182 4.1272 3.5322 4.0432 3.5462 3.9627 3.5672 3.8787 3.5882 3.7947 3.6092 3.7107 3.6372 3.6267 3.6652 3.5427 3.7002 3.4622 3.7352 3.3782 3.7702 3.2942 3.8122 3.2137 3.8367 3.1682 4.3582 3.4727 4.3407 3.5007 4.2987 3.5812 4.2567 3.6582 4.2182 3.7422 4.1797 3.8227 4.1447 3.9067 4.1132 3.9907 4.0817 4.0747 4.0537 4.1587 4.0327 4.2392 4.0117 4.3232 3.9942 4.4072 3.9802 4.4912 3.9662 4.5752 3.9557 4.6557 3.9522 4.7362 3.9487 4.8167 3.9452 17.5952 3.9487 17.6722 3.9522 17.7457 3.9592 17.8192 3.9732 17.8892 3.9872 17.9557 4.0082 18.0187 4.0292 18.0782 4.0502 18.1342 4.0782 18.1867"></polygon>
                </g>
                <polygon id="Fill-124" fill="#1C3C50" points="17.13915 36.49755 17.13915 35.52105 17.12515 35.52105 17.03415 35.52455 16.93965 35.52105 16.85215 35.51755 16.76115 35.51055 16.67015 35.50355 16.58265 35.48955 16.49165 35.47555 16.40415 35.46155 16.32015 35.44405 16.23265 35.42305 16.15215 35.39855 16.06815 35.37055 15.99115 35.34255 15.91065 35.31105 15.83715 35.27605 15.76015 35.24105 15.69365 35.20255 4.59515 28.78355 4.52865 28.74155 4.46565 28.69955 4.40615 28.65755 4.35365 28.61205 4.30465 28.56655 4.25915 28.51755 4.22065 28.47205 4.18215 28.41955 4.14715 28.37055 4.11915 28.32155 4.09465 28.26905 4.08065 28.21655 4.06315 28.16755 4.06315 29.14405 4.08065 29.19655 4.09465 29.24555 4.11915 29.29805 4.14715 29.35055 4.18215 29.39955 4.22065 29.44855 4.25915 29.49755 4.30465 29.54305 4.35365 29.58855 4.40615 29.63405 4.46565 29.67955 4.52865 29.71805 4.59515 29.76005 15.69365 36.17905 15.76015 36.21755 15.83715 36.25605 15.91065 36.28755 15.99115 36.31905 16.06815 36.35055 16.15215 36.37505 16.23265 36.39955 16.32015 36.42055 16.40415 36.43805 16.49165 36.45555 16.58265 36.46955 16.67015 36.48005 16.76115 36.49055 16.85215 36.49755 16.93965 36.49755 17.03415 36.49755 17.12515 36.49755"></polygon>
            </g>
        </g>
    </g>
</svg>