<?xml version="1.0" encoding="UTF-8"?>
<svg width="40px" height="40px" viewBox="0 0 40 40" version="1.1" xmlns="http://www.w3.org/2000/svg" xmlns:xlink="http://www.w3.org/1999/xlink">
    <!-- Generator: Sketch 52.5 (67469) - http://www.bohemiancoding.com/sketch -->
    <title>Icon/Category/Travel</title>
    <desc>Created with Sketch.</desc>
    <defs>
        <polygon id="path-1" points="0.835636364 0.843636364 32.7192727 0.843636364 32.7192727 32.7265455 0.835636364 32.7265455"></polygon>
        <linearGradient x1="1.11022302e-14%" y1="-2.22044605e-14%" x2="100%" y2="100%" id="linearGradient-3">
            <stop stop-color="#39C3E0" offset="0%"></stop>
            <stop stop-color="#3C59FC" offset="100%"></stop>
        </linearGradient>
        <polygon id="path-4" points="3.63636364 0.579636364 6.92618182 0.579636364 6.92618182 4.216 3.63636364 4.216"></polygon>
        <polygon id="path-6" points="3.63636364 0.0178181818 6.71236364 0.0178181818 6.71236364 3.65418182 3.63636364 3.65418182"></polygon>
        <polygon id="path-8" points="3.63636364 3.56 6.22327273 3.56 6.22327273 7.19636364 3.63636364 7.19636364"></polygon>
        <polygon id="path-10" points="3.63636364 3.324 5.72690909 3.324 5.72690909 6.96036364 3.63636364 6.96036364"></polygon>
        <polygon id="path-12" points="0 2.56760333 4.87563636 2.56760333 4.87563636 6.20396697 0 6.20396697"></polygon>
        <polygon id="path-14" points="0.454181818 0.843636364 4.09054545 0.843636364 4.09054545 4.18 0.454181818 4.18"></polygon>
    </defs>
    <g id="Icon/Category/Travel" stroke="none" stroke-width="1" fill="none" fill-rule="evenodd">
        <g id="Group-138" transform="translate(-3.000000, 3.000000)">
            <g id="Group-3" transform="translate(7.272727, 0.792364)">
                <mask id="mask-2" fill="white">
                    <use xlink:href="#path-1"></use>
                </mask>
                <g id="Clip-2"></g>
                <path d="M28.0501818,5.512 C26.5810909,4.04290909 24.8247273,2.85745455 22.8756364,2.05018182 C20.9992727,1.272 18.9374545,0.842909091 16.7738182,0.842909091 C14.6174545,0.842909091 12.5556364,1.272 10.6829091,2.05018182 C8.73381818,2.85745455 6.97745455,4.04290909 5.50472727,5.512 C4.03563636,6.98472727 2.84654545,8.74109091 2.04290909,10.6865455 C1.26472727,12.5629091 0.835636364,14.6247273 0.835636364,16.7847273 C0.835636364,18.9483636 1.26472727,21.0065455 2.04290909,22.8829091 C2.84654545,24.832 4.03563636,26.5883636 5.50472727,28.0574545 C6.97745455,29.5265455 8.73381818,30.7156364 10.6829091,31.5192727 C12.5556364,32.3010909 14.6174545,32.7265455 16.7738182,32.7265455 C18.9374545,32.7265455 20.9992727,32.3010909 22.8756364,31.5192727 C24.8247273,30.7156364 26.5810909,29.5265455 28.0501818,28.0574545 C29.5192727,26.5883636 30.7047273,24.832 31.512,22.8829091 C32.2901818,21.0065455 32.7192727,18.9483636 32.7192727,16.7847273 C32.7192727,14.6247273 32.2901818,12.5629091 31.512,10.6865455 C30.7047273,8.74109091 29.5192727,6.98472727 28.0501818,5.512" id="Fill-1" fill="url(#linearGradient-3)" mask="url(#mask-2)"></path>
            </g>
            <path d="M34.3392727,7.28981818 C32.9974545,5.94436364 31.3938182,4.86436364 29.6156364,4.12618182 C27.9029091,3.42072727 26.0229091,3.028 24.0483636,3.028 C22.0774545,3.028 20.1974545,3.42072727 18.4847273,4.12618182 C16.7065455,4.86436364 15.1065455,5.94436364 13.7610909,7.28981818 C12.4192727,8.63163636 11.3392727,10.2352727 10.6047273,12.0134545 C9.892,13.7261818 9.49927273,15.6061818 9.49927273,17.5770909 C9.49927273,19.5516364 9.892,21.4316364 10.6047273,23.1443636 C11.3392727,24.9225455 12.4192727,26.5261818 13.7610909,27.868 C15.1065455,29.2098182 16.7065455,30.2898182 18.4847273,31.028 C20.1974545,31.7370909 22.0774545,32.1298182 24.0483636,32.1298182 C26.0229091,32.1298182 27.9029091,31.7370909 29.6156364,31.028 C31.3938182,30.2898182 32.9974545,29.2098182 34.3392727,27.868 C35.6810909,26.5261818 36.7610909,24.9225455 37.4992727,23.1443636 C38.2083636,21.4316364 38.6010909,19.5516364 38.6010909,17.5770909 C38.6010909,15.6061818 38.2083636,13.7261818 37.4992727,12.0134545 C36.7610909,10.2352727 35.6810909,8.63163636 34.3392727,7.28981818" id="Fill-4" fill="#3C59FC"></path>
            <path d="M35.1170909,8.11563636 C35.6443636,8.73018182 36.9861818,10.712 37.5643636,12.1447273 C38.2807273,13.9338182 38.6298182,15.8356364 38.608,17.7374545 C38.5861818,19.6356364 38.2007273,21.5301818 37.4443636,23.2974545 C36.7134545,25.0065455 35.648,26.5992727 34.2334545,27.9810909 C32.8189091,29.3629091 31.2043636,30.3992727 29.4807273,31.0901818 C28.7643636,31.3774545 30.8007273,28.9665455 29.5425455,27.6392727 C28.2807273,26.312 22.9389091,27.8538182 23.088,25.1265455 C23.2370909,22.3956364 24.4298182,22.4101818 25.0552727,20.9847273 C25.6807273,19.5592727 26.4334545,20.712 29.1098182,19.7992727 C31.7752727,18.8865455 35.3316364,19.0247273 36.4916364,17.8101818 C37.648,16.5992727 32.0589091,18.0465455 31.0298182,17.7883636 C30.0043636,17.5301818 29.7934545,16.2974545 29.0516364,16.3374545 C28.3134545,16.3774545 28.7316364,17.712 27.9098182,17.9629091 C27.0843636,18.2174545 24.8698182,18.6029091 24.7389091,17.6610909 C24.2152727,14.0501818 27.0007273,15.192 27.168,14.9956364 C27.9061818,14.1447273 26.2952727,13.472 27.2916364,12.2647273 C28.2843636,11.0610909 29.2734545,10.8465455 29.7934545,10.0101818 C30.3170909,9.16654545 28.5716364,8.52290909 29.3752727,7.86836364 C30.1789091,7.21381818 34.5607273,7.46836364 35.1170909,8.11563636" id="Fill-6" fill="#78D289"></path>
            <path d="M23.0749091,3.05345455 C19.6785455,3.27890909 16.3476364,4.68981818 13.7549091,7.28618182 C12.3621818,8.67890909 11.3076364,10.2861818 10.5949091,11.9989091 C9.12218182,15.5589091 9.12218182,19.5952727 10.5949091,23.1589091 C11.1876364,24.5843636 12.0167273,25.9370909 13.0894545,27.1552727 C13.1658182,27.2498182 13.2712727,27.2970909 13.3876364,27.3007273 C13.5076364,27.3043636 13.6203636,27.268 13.7003636,27.1770909 C14.6676364,26.0607273 17.4712727,25.2898182 17.664,23.8207273 C17.8058182,22.7261818 15.9949091,22.2970909 15.5185455,21.3007273 C14.9803636,20.1734545 15.4094545,18.6752727 14.7076364,17.6425455 C13.9803636,16.5698182 11.2130909,16.4716364 10.464,15.4134545 C10.0530909,14.8352727 10.3549091,13.9625455 10.5730909,13.2898182 C10.6676364,12.9952727 11.0276364,12.8243636 11.3258182,12.748 C11.7512727,12.6389091 12.2021818,12.7589091 12.6385455,12.7625455 C12.6712727,12.7625455 16.7876364,12.1407273 18.0567273,11.5916364 C19.3221818,11.0425455 18.624,10.3189091 19.184,10.0898182 C19.7403636,9.86072727 20.6130909,11.5407273 21.4712727,10.7989091 C22.3294545,10.0570909 22.9985455,6.46436364 23.304,5.63527273 C23.6130909,4.80618182 24.7512727,5.61709091 25.0494545,5.79163636 C25.3476364,5.96618182 24.5185455,7.57345455 24.904,7.868 C25.2858182,8.15890909 26.9003636,7.14436364 27.1003636,6.94072727 C28.3076364,5.74436364 28.0058182,4.64254545 27.3330909,4.10436364 C26.6530909,3.56254545 24.5803636,4.27890909 23.3876364,3.16618182 C23.3003636,3.08254545 23.1949091,3.04618182 23.0749091,3.05345455" id="Fill-8" fill="#78D289"></path>
            <path d="M29.3465455,4.01927273 C27.7065455,3.37927273 25.9210909,3.03018182 24.0483636,3.03018182 C22.0774545,3.03018182 20.1974545,3.41927273 18.4883636,4.12836364 C16.7065455,4.86290909 15.1065455,5.94654545 13.7610909,7.28836364 C12.4192727,8.63018182 11.3392727,10.2338182 10.6047273,12.012 C9.892,13.7247273 9.49927273,15.6047273 9.49927273,17.5792727 C9.49927273,19.5501818 9.892,21.4301818 10.6047273,23.1429091 C11.3392727,24.9210909 12.4192727,26.5247273 13.7610909,27.8665455 C15.1065455,29.2083636 16.7065455,30.292 18.4883636,31.0265455 C20.1974545,31.7392727 22.0774545,32.1283636 24.0483636,32.1283636 C26.0229091,32.1283636 27.9065455,31.7392727 29.6156364,31.0265455 C31.3938182,30.292 32.9974545,29.2083636 34.3392727,27.8665455 C34.7283636,27.4738182 35.1029091,27.0592727 35.4483636,26.6229091 C33.0301818,28.9901818 29.7210909,30.4483636 26.0738182,30.4483636 C18.6629091,30.4483636 12.6556364,24.4410909 12.6556364,17.0301818 C12.6556364,9.62290909 18.6629091,3.61563636 26.0738182,3.61563636 C27.2010909,3.61563636 28.2992727,3.75745455 29.3465455,4.01927273" id="Fill-10" fill-opacity="0.1" fill="#1E1E1E"></path>
            <path d="M23.0749091,3.05345455 C19.6785455,3.27890909 16.3476364,4.68981818 13.7549091,7.28618182 C12.3621818,8.67890909 11.3076364,10.2861818 10.5949091,11.9989091 C9.12218182,15.5589091 9.12218182,19.5952727 10.5949091,23.1589091 C11.1876364,24.5843636 12.0167273,25.9370909 13.0894545,27.1552727 C13.1658182,27.2498182 13.2712727,27.2970909 13.3876364,27.3007273 C13.5076364,27.3043636 13.6203636,27.268 13.7003636,27.1770909 C14.1585455,26.6461818 15.0312727,26.1952727 15.8421818,25.708 C13.8530909,23.3698182 12.6567273,20.3407273 12.6567273,17.0316364 C12.6567273,16.868 12.6603636,16.708 12.6676364,16.5443636 C11.7658182,16.2461818 10.8494545,15.9589091 10.464,15.4134545 C10.0530909,14.8352727 10.3549091,13.9625455 10.5730909,13.2898182 C10.6676364,12.9952727 11.0276364,12.8243636 11.3258182,12.748 C11.7512727,12.6389091 12.2021818,12.7589091 12.6385455,12.7625455 C12.6494545,12.7625455 12.9403636,12.7189091 13.3912727,12.6461818 C15.0349091,7.88254545 19.2930909,4.33709091 24.4494545,3.71527273 C24.0603636,3.61709091 23.6967273,3.45345455 23.3876364,3.16618182 C23.3003636,3.08254545 23.1949091,3.04618182 23.0749091,3.05345455" id="Fill-12" fill-opacity="0.1" fill="#1E1E1E"></path>
            <path d="M35.4934545,26.5778182 C35.1116364,27.0650909 34.6898182,27.5341818 34.2316364,27.9814545 C32.8207273,29.3632727 31.2025455,30.3996364 29.4825455,31.0905455 C29.1189091,31.236 29.4607273,30.6905455 29.7225455,29.9414545 C31.9334545,29.3196364 33.9043636,28.1450909 35.4934545,26.5778182" id="Fill-14" fill-opacity="0.1" fill="#1E1E1E"></path>
            <polygon id="Fill-16" fill="#DCE2E2" points="11.0189091 6.34363636 11.0189091 6.44909091 11.0152727 6.48909091 11.008 6.52909091 10.9970909 6.56909091 10.9970909 6.46 11.008 6.42 11.0152727 6.38363636"></polygon>
            <polygon id="Fill-18" fill="#DCE2E2" points="10.9978182 6.46072727 10.9978182 6.56981818 10.3032727 8.62072727 10.3032727 8.51163636"></polygon>
            <polygon id="Fill-20" fill="#DCE2E2" points="10.3014545 8.51309091 10.3014545 8.61854545 9.85781818 8.41490909 9.85781818 8.30945455"></polygon>
            <path d="M9.85781818,8.30909091 L7.396,7.17454545 L10.156,5.58181818 L10.6941818,5.89454545 C10.8323636,5.97090909 10.9232727,6.06181818 10.9778182,6.15636364 C11.0250909,6.25090909 11.0323636,6.35272727 10.996,6.46181818 L10.3014545,8.51272727 L9.85781818,8.30909091 Z" id="Fill-22" fill="#F3F3F3"></path>
            <polygon id="Fill-24" fill="#E5EBEC" points="23.164 12.2367273 21.0258182 11.004 21.0076364 10.9967273 20.9821818 10.9894545 20.964 10.9858182 20.9421818 10.9858182 20.9167273 10.9858182 20.8912727 10.9858182 20.8658182 10.9894545 20.8403636 10.9930909 20.8149091 11.0003636 20.7894545 11.0076364 20.7603636 11.0185455 20.7312727 11.0294545 20.7058182 11.044 20.6730909 11.0585455 20.6512727 11.0767273 20.6185455 11.0985455 20.5930909 11.1167273 20.564 11.1385455 20.5349091 11.1603636 20.5130909 11.1821818 20.4876364 11.2076364 20.4621818 11.2330909 20.4367273 11.2585455 20.4112727 11.2876364 20.3894545 11.3167273 20.364 11.3458182 20.3458182 11.3785455 20.324 11.4076364 20.3058182 11.4403636 20.284 11.4730909 20.2658182 11.5058182 20.2476364 11.5385455 20.2330909 11.5712727 20.2149091 11.6076364 20.204 11.6403636 20.1894545 11.6767273 20.1785455 11.7094545 20.1676364 11.7458182 20.1567273 11.7785455 20.1494545 11.8149091 20.1385455 11.8476364 20.1349091 11.884 20.1312727 11.9167273 20.124 11.9494545 20.124 11.9858182 20.124 12.0185455 20.124 12.0512727 20.124 12.084 20.1312727 12.1094545 20.1349091 12.1421818 20.1385455 12.1676364 20.1494545 12.1930909 20.1567273 12.2185455 20.1676364 12.2403636 20.1785455 12.2621818 20.1894545 12.284 20.204 12.3021818 20.2149091 12.3203636 20.2330909 12.3385455 20.2476364 12.3530909 22.3858182 13.5858182 22.3676364 13.5712727 22.3530909 13.5530909 22.3385455 13.5349091 22.3276364 13.5203636 22.3167273 13.4985455 22.3058182 13.4730909 22.2949091 13.4512727 22.2876364 13.4294545 22.2767273 13.4003636 22.2730909 13.3712727 22.2658182 13.3458182 22.2621818 13.3167273 22.2621818 13.284 22.2621818 13.2512727 22.2621818 13.2185455 22.2621818 13.1858182 22.2658182 13.1494545 22.2730909 13.1167273 22.2767273 13.0803636 22.2876364 13.0476364 22.2949091 13.0112727 22.3058182 12.9785455 22.3167273 12.9421818 22.3276364 12.9094545 22.3385455 12.8730909 22.3530909 12.8403636 22.3676364 12.8076364 22.3858182 12.7712727 22.404 12.7385455 22.4221818 12.7058182 22.444 12.6730909 22.4621818 12.6403636 22.484 12.6149091 22.5021818 12.5821818 22.524 12.5494545 22.5494545 12.524 22.5749091 12.4949091 22.6003636 12.4658182 22.6258182 12.444 22.6476364 12.4185455 22.6730909 12.3930909 22.7021818 12.3712727 22.7312727 12.3494545 22.7567273 12.3312727 22.7858182 12.3130909 22.8112727 12.2949091 22.8403636 12.2767273 22.8694545 12.2621818 22.8985455 12.2512727 22.9276364 12.2403636 22.9494545 12.2330909 22.9785455 12.2258182 23.004 12.2221818 23.0294545 12.2185455 23.0549091 12.2185455 23.0767273 12.2185455 23.0985455 12.2221818 23.124 12.2258182 23.1458182 12.2294545"></polygon>
            <path d="M22.7661818,13.5592727 C23.0825455,13.3774545 23.3370909,12.9338182 23.3370909,12.5701818 C23.3370909,12.2065455 23.0825455,12.0574545 22.7661818,12.2429091 C22.4534545,12.4247273 22.1989091,12.8647273 22.1989091,13.2283636 C22.1989091,13.592 22.4534545,13.7410909 22.7661818,13.5592727" id="Fill-26" fill="#E5EBEC"></path>
            <polygon id="Fill-28" fill="#A0AEB7" points="23.1283636 12.1832727 23.0592727 12.1432727 23.0410909 12.136 23.0192727 12.1287273 22.9938182 12.1250909 22.9683636 12.1214545 22.9465455 12.1214545 22.9174545 12.1250909 22.8956364 12.1287273 22.8701818 12.1323636 22.8410909 12.1396364 22.812 12.1469091 22.7829091 12.1578182 22.7538182 12.1723636 22.7283636 12.1832727 22.6992727 12.2014545 22.6665455 12.2196364 22.6374545 12.2378182 22.6083636 12.2596364 22.5829091 12.2814545 22.5574545 12.3069091 22.5283636 12.3287273 22.4992727 12.3541818 22.4738182 12.3832727 22.4483636 12.4087273 22.4265455 12.4378182 22.4047273 12.4669091 22.3792727 12.496 22.3574545 12.5287273 22.332 12.5614545 22.3138182 12.5941818 22.2956364 12.6269091 22.2774545 12.6596364 22.2592727 12.696 22.2410909 12.7287273 22.2265455 12.7650909 22.2083636 12.8014545 22.1974545 12.8378182 22.1829091 12.8705455 22.172 12.9069091 22.1610909 12.9432727 22.1501818 12.9796364 22.1429091 13.016 22.1392727 13.0487273 22.1356364 13.0887273 22.132 13.1214545 22.1283636 13.1541818 22.1283636 13.1905455 22.1283636 13.2232727 22.132 13.256 22.1356364 13.2850909 22.1392727 13.3178182 22.1429091 13.3432727 22.1501818 13.3723636 22.1610909 13.3941818 22.172 13.4196364 22.1829091 13.4414545 22.1974545 13.4669091 22.2083636 13.4850909 22.2265455 13.5032727 22.2410909 13.5178182 22.2592727 13.536 22.3247273 13.5723636 22.3065455 13.5578182 22.2956364 13.5432727 22.2810909 13.5250909 22.2665455 13.5032727 22.252 13.4814545 22.2410909 13.4596364 22.2301818 13.4378182 22.2229091 13.4087273 22.212 13.3832727 22.2083636 13.3541818 22.2010909 13.3250909 22.1974545 13.296 22.1974545 13.2632727 22.1974545 13.2305455 22.1974545 13.1941818 22.1974545 13.1614545 22.2010909 13.1250909 22.2083636 13.0923636 22.212 13.056 22.2229091 13.016 22.2301818 12.9832727 22.2410909 12.9469091 22.252 12.9105455 22.2665455 12.8741818 22.2810909 12.8414545 22.2956364 12.8050909 22.3065455 12.7687273 22.3247273 12.736 22.3429091 12.6996364 22.3647273 12.6669091 22.3829091 12.6341818 22.4047273 12.6014545 22.4265455 12.5687273 22.4483636 12.5396364 22.4701818 12.5069091 22.492 12.4778182 22.5174545 12.4487273 22.5465455 12.4196364 22.572 12.3941818 22.5974545 12.3687273 22.6229091 12.3432727 22.652 12.3214545 22.6810909 12.2996364 22.7101818 12.2778182 22.7392727 12.2596364 22.7647273 12.2414545 22.7974545 12.2232727 22.8265455 12.2123636 22.852 12.1978182 22.8847273 12.1869091 22.9065455 12.1796364 22.9356364 12.1723636 22.9610909 12.1687273 22.9901818 12.1650909 23.0156364 12.1650909 23.0410909 12.1650909 23.0592727 12.1650909 23.0847273 12.1723636 23.1065455 12.176"></polygon>
            <path d="M22.7661818,13.5450909 C23.0752727,13.3669091 23.3225455,12.9341818 23.3225455,12.5778182 C23.3225455,12.2214545 23.0752727,12.076 22.7661818,12.2541818 C22.4570909,12.4323636 22.2098182,12.8650909 22.2098182,13.2214545 C22.2098182,13.5778182 22.4570909,13.7232727 22.7661818,13.5450909" id="Fill-30" fill="#C4CDD2"></path>
            <path d="M22.7661818,13.3763636 C22.9952727,13.2454545 23.1770909,12.9254545 23.1770909,12.66 C23.1770909,12.3981818 22.9952727,12.2927273 22.7661818,12.4236364 C22.5407273,12.5545455 22.3552727,12.8745455 22.3552727,13.14 C22.3552727,13.4018182 22.5407273,13.5109091 22.7661818,13.3763636" id="Fill-32" fill="#5F6E76"></path>
            <path d="M22.6843636,12.4814545 C22.5207273,12.616 22.3934545,12.8341818 22.3607273,13.0378182 L22.608,13.1832727 L22.6043636,13.176 L22.5970909,13.1687273 L22.5898182,13.1614545 L22.5861818,13.1541818 L22.5825455,13.1469091 L22.5752727,13.1396364 L22.5716364,13.1287273 L22.568,13.1178182 L22.5643636,13.1069091 L22.5643636,13.096 L22.5607273,13.0850909 L22.5607273,13.0741818 L22.5570909,13.0596364 L22.5570909,13.0450909 L22.5570909,13.0305455 L22.5607273,13.016 L22.5607273,13.0050909 L22.5643636,12.9905455 L22.5643636,12.976 L22.568,12.9614545 L22.5716364,12.9469091 L22.5752727,12.9323636 L22.5825455,12.9178182 L22.5861818,12.9032727 L22.5898182,12.8887273 L22.5970909,12.8741818 L22.6043636,12.8596364 L22.608,12.8487273 L22.6152727,12.8341818 L22.6225455,12.8196364 L22.6298182,12.8050909 L22.6407273,12.7941818 L22.648,12.7832727 L22.6589091,12.7687273 L22.6661818,12.7578182 L22.6770909,12.7432727 L22.688,12.7323636 L22.6989091,12.7214545 L22.7098182,12.7105455 L22.7170909,12.6996364 L22.7316364,12.6923636 L22.7425455,12.6814545 L22.7534545,12.6741818 L22.7607273,12.6632727 L22.7716364,12.656 L22.7861818,12.6487273 L22.7970909,12.6414545 L22.808,12.6378182 L22.8189091,12.6341818 L22.8334545,12.6305455 L22.8443636,12.6269091 L22.8552727,12.6232727 L22.8661818,12.6196364 L22.8770909,12.6196364 L22.8843636,12.6196364 L22.8952727,12.6196364 L22.9061818,12.6196364 L22.9134545,12.6196364 L22.9207273,12.6232727 L22.928,12.6269091 L22.6843636,12.4814545 Z" id="Fill-34" fill="#B73333"></path>
            <path d="M22.7661818,13.16 C22.8898182,13.0872727 22.9916364,12.9163636 22.9916364,12.7709091 C22.9916364,12.6290909 22.8898182,12.5672727 22.7661818,12.64 C22.6425455,12.7127273 22.5407273,12.8872727 22.5407273,13.0290909 C22.5407273,13.1709091 22.6425455,13.2327273 22.7661818,13.16" id="Fill-36" fill="#FF4B38"></path>
            <polygon id="Fill-38" fill="#DCE2E2" points="20.8876364 14.0389091 20.8876364 14.3698182 24.6694545 8.34072727 24.6694545 8.01345455"></polygon>
            <polygon id="Fill-40" fill="#BDC8CA" points="16.5552727 11.8869091 16.5552727 12.4614545 20.8025455 14.916 20.8025455 14.3378182"></polygon>
            <path d="M20.8236364,14.1436364 L21.38,13.2563636 L21.38,13.2527273 L22.1036364,12.1 C22.1109091,12.0927273 22.1145455,12.0818182 22.1218182,12.0709091 L24.6709091,8.01272727 C24.7545455,7.87090909 24.7727273,7.72909091 24.7181818,7.59818182 C24.6709091,7.46727273 24.5472727,7.34 24.3690909,7.23454545 L23.0127273,6.44909091 L16.8018182,11.82 L20.8236364,14.1436364 Z" id="Fill-42" fill="#F3F3F3"></path>
            <polygon id="Fill-44" fill="#DCE2E2" points="24.6694545 8.01236364 24.6694545 8.33963636 24.6985455 8.28872727 24.7203636 8.23781818 24.7385455 8.18327273 24.7458182 8.13236364 24.7494545 8.08145455 24.7494545 7.75054545 24.7458182 7.80145455 24.7385455 7.856 24.7203636 7.90690909 24.6985455 7.95781818"></polygon>
            <path d="M24.4989091,20.184 L24.2843636,20.1258182 L24.088,20.0712727 L23.888,20.0167273 L23.6952727,19.9621818 L23.4989091,19.904 L23.2916364,19.8421818 L23.0661818,19.7767273 L22.9134545,19.7258182 L22.7643636,19.6749091 L22.6225455,19.6203636 L22.4843636,19.5658182 L22.3534545,19.504 L22.2225455,19.4421818 L22.0952727,19.3767273 L21.968,19.3076364 L17.7461818,16.864 L13.2770909,14.2858182 L12.7934545,13.9403636 L12.3098182,13.5912727 L11.8334545,13.2421818 L11.3498182,12.8930909 L10.8661818,12.544 L10.3861818,12.1949091 L9.90254545,11.8458182 L9.42254545,11.4967273 L5.90254545,8.28581818 C5.25163636,8.07854545 5.58981818,6.47127273 6.72072727,6.864 L13.9461818,10.1876364 L18.6989091,12.6894545 L20.5061818,13.7330909 L21.6698182,14.424 L24.2552727,15.9549091 C24.8807273,16.3294545 25.168,16.8494545 25.3934545,17.1003636 C26.5498182,18.3767273 26.4661818,18.5585455 26.4661818,19.5803636 L26.4552727,19.6603636 L26.4261818,19.7367273 L26.3825455,19.8130909 L26.3170909,19.8858182 L26.2370909,19.9549091 L26.1389091,20.0167273 L25.9643636,20.1149091 L25.8552727,20.1730909 L25.7352727,20.2203636 L25.608,20.2567273 L25.4734545,20.2858182 L25.3316364,20.3003636 L25.1898182,20.304 L25.048,20.2967273 C24.8261818,20.2712727 24.7243636,20.2421818 24.4989091,20.184" id="Fill-46" fill="#EBECEC"></path>
            <path d="M24.4989091,20.184 L24.2843636,20.1258182 L24.088,20.0712727 L23.888,20.0167273 L23.6952727,19.9621818 L23.4989091,19.904 L23.2916364,19.8421818 L23.0661818,19.7767273 L22.9134545,19.7258182 L22.7643636,19.6749091 L22.6225455,19.6203636 L22.4843636,19.5658182 L22.3534545,19.504 L22.2225455,19.4421818 L22.0952727,19.3767273 L21.968,19.3076364 L17.7461818,16.864 L13.2770909,14.2858182 L12.7934545,13.9403636 L12.3098182,13.5912727 L11.8334545,13.2421818 L11.3498182,12.8930909 L10.8661818,12.544 L10.3861818,12.1949091 L9.90254545,11.8458182 L9.42254545,11.4967273 L5.90254545,8.28581818 C5.57527273,8.184 5.49527273,7.72945455 5.64072727,7.35127273 C6.39345455,8.384 9.98618182,11.3112727 13.5934545,13.5876364 C18.7752727,16.8458182 24.528,20.3658182 26.1607273,19.4530909 C26.3316364,19.3403636 26.3425455,19.3149091 26.4661818,19.144 L26.4661818,19.5803636 L26.4552727,19.6603636 L26.4261818,19.7367273 L26.3825455,19.8130909 L26.3170909,19.8858182 L26.2370909,19.9549091 L26.1389091,20.0167273 L25.9643636,20.1149091 L25.8552727,20.1730909 L25.7352727,20.2203636 L25.608,20.2567273 L25.4734545,20.2858182 L25.3316364,20.3003636 L25.1898182,20.304 L25.048,20.2967273 C24.8261818,20.2712727 24.7243636,20.2421818 24.4989091,20.184" id="Fill-48" fill="#DCE2E2"></path>
            <path d="M5.93745455,6.94727273 C6.00654545,6.9 6.07927273,6.86 6.16290909,6.83454545 C6.22109091,6.84545455 6.28290909,6.86363636 6.34836364,6.88545455 L13.7883636,10.3072727 L18.6901818,12.8854545 L20.552,13.9618182 L21.752,14.6709091 L24.4101818,16.2527273 C25.0574545,16.6345455 25.352,17.1727273 25.5847273,17.4272727 C25.912,17.7872727 26.1410909,18.0672727 26.3047273,18.2963636 C26.4029091,18.5072727 26.4429091,18.6890909 26.4610909,18.9072727 C26.232,18.7 25.952,18.5036364 25.6683636,18.2527273 C25.3047273,17.9327273 25.0865455,17.3436364 24.2647273,16.8054545 C19.4683636,13.6636364 7.82109091,7.64909091 5.93745455,6.94727273" id="Fill-50" fill="#F3F3F3"></path>
            <path d="M20.44,16.3167273 L20.3781818,16.2803636 C20.2836364,16.2258182 20.2109091,16.2694545 20.2109091,16.3785455 L20.2109091,16.6076364 C20.2109091,16.7130909 20.2836364,16.8476364 20.3781818,16.9021818 L20.44,16.9349091 C20.5309091,16.9894545 20.6072727,16.9458182 20.6072727,16.8403636 L20.6072727,16.6076364 C20.6072727,16.4985455 20.5309091,16.3712727 20.44,16.3167273" id="Fill-52" fill="#5AD3EE"></path>
            <path d="M19.3818182,15.7061818 C19.36,15.6952727 19.3418182,15.6807273 19.32,15.6698182 C19.2290909,15.6152727 19.1527273,15.6589091 19.1527273,15.768 L19.1527273,16.0007273 C19.1527273,16.1061818 19.2290909,16.2370909 19.32,16.2916364 C19.3418182,16.3025455 19.36,16.3134545 19.3818182,16.3243636 C19.4727273,16.3789091 19.5527273,16.3352727 19.5527273,16.2298182 L19.5527273,16.0007273 C19.5527273,15.8916364 19.4727273,15.7607273 19.3818182,15.7061818" id="Fill-54" fill="#5AD3EE"></path>
            <path d="M18.3272727,15.0952727 C18.3054545,15.0843636 18.2836364,15.0734545 18.2618182,15.0589091 C18.1709091,15.008 18.0981818,15.0516364 18.0981818,15.1570909 L18.0981818,15.3898182 C18.0981818,15.4952727 18.1709091,15.6261818 18.2618182,15.6807273 L18.3272727,15.7170909 C18.4181818,15.7716364 18.4945455,15.7243636 18.4945455,15.6189091 L18.4945455,15.3898182 C18.4945455,15.2807273 18.4181818,15.1498182 18.3272727,15.0952727" id="Fill-56" fill="#5AD3EE"></path>
            <path d="M17.2690909,14.4843636 C17.2472727,14.4734545 17.2254545,14.4625455 17.2072727,14.4516364 C17.1163636,14.3970909 17.04,14.4407273 17.04,14.5461818 L17.04,14.7789091 C17.04,14.8843636 17.1163636,15.0152727 17.2072727,15.0698182 C17.2254545,15.0807273 17.2472727,15.0916364 17.2690909,15.1061818 C17.36,15.1607273 17.44,15.1134545 17.44,15.008 L17.44,14.7789091 C17.44,14.6698182 17.36,14.5389091 17.2690909,14.4843636" id="Fill-58" fill="#5AD3EE"></path>
            <path d="M16.2141818,13.8752727 C16.1923636,13.8643636 16.1705455,13.8498182 16.1487273,13.8389091 C16.0578182,13.788 15.9850909,13.8316364 15.9850909,13.9370909 L15.9850909,14.1698182 C15.9850909,14.2752727 16.0578182,14.4061818 16.1487273,14.4607273 C16.1705455,14.4716364 16.1923636,14.4825455 16.2141818,14.4934545 C16.3050909,14.548 16.3814545,14.5043636 16.3814545,14.3989091 L16.3814545,14.1698182 C16.3814545,14.0607273 16.3050909,13.9298182 16.2141818,13.8752727" id="Fill-60" fill="#5AD3EE"></path>
            <path d="M15.156,13.2647273 L15.0941818,13.2283636 C14.9996364,13.1774545 14.9269091,13.2210909 14.9269091,13.3265455 L14.9269091,13.5592727 C14.9269091,13.6647273 14.9996364,13.7956364 15.0941818,13.8501818 L15.156,13.8829091 C15.2469091,13.9410909 15.3269091,13.8938182 15.3269091,13.7883636 L15.3269091,13.5592727 C15.3269091,13.4501818 15.2469091,13.3192727 15.156,13.2647273" id="Fill-62" fill="#5AD3EE"></path>
            <path d="M14.1298182,12.6734545 C14.108,12.6625455 14.0898182,12.6516364 14.068,12.6370909 C13.9770909,12.5825455 13.9007273,12.6261818 13.9007273,12.7352727 L13.9007273,12.9643636 C13.9007273,13.0734545 13.9770909,13.2043636 14.068,13.2589091 C14.0898182,13.2698182 14.108,13.2807273 14.1298182,13.2916364 C14.2207273,13.3461818 14.3007273,13.3025455 14.3007273,13.1970909 L14.3007273,12.9643636 C14.3007273,12.8589091 14.2207273,12.728 14.1298182,12.6734545" id="Fill-64" fill="#5AD3EE"></path>
            <path d="M13.0749091,12.0625455 C13.0530909,12.0516364 13.0312727,12.0407273 13.0094545,12.0261818 C12.9185455,11.9752727 12.8458182,12.0189091 12.8458182,12.1243636 L12.8458182,12.3534545 C12.8458182,12.4625455 12.9185455,12.5934545 13.0094545,12.648 C13.0312727,12.6589091 13.0530909,12.6698182 13.0749091,12.6807273 C13.1658182,12.7352727 13.2421818,12.6916364 13.2421818,12.5861818 L13.2421818,12.3534545 C13.2421818,12.248 13.1658182,12.1170909 13.0749091,12.0625455" id="Fill-66" fill="#5AD3EE"></path>
            <path d="M24.5025455,17.9930909 C23.6807273,18.4621818 23.0516364,18.0294545 22.2843636,17.644 L22.6116364,17.6694545 C23.6370909,17.7458182 24.9825455,16.9130909 24.7316364,16.3603636 C25.1825455,17.004 25.4770909,17.4330909 24.5025455,17.9930909" id="Fill-68" fill="#0093FF"></path>
            <path d="M22.2832727,17.6432727 L22.6141818,17.6687273 C23.636,17.7450909 24.9814545,16.9123636 24.7341818,16.3596364 C25.5669091,17.6978182 23.6650909,18.2869091 22.2832727,17.6432727" id="Fill-70" fill="#5AD3EE"></path>
            <path d="M24.5061818,16.9774545 C24.6661818,16.8210909 24.7643636,16.6538182 24.7643636,16.5010909 C24.8261818,16.552 24.8843636,16.6029091 24.9352727,16.6538182 C25.1352727,16.9701818 25.2370909,17.2392727 25.0625455,17.5192727 C24.9170909,17.3447273 24.7389091,17.1592727 24.5061818,16.9774545" id="Fill-72" fill="#82DEF3"></path>
            <path d="M20.44,16.3167273 L20.3781818,16.2803636 C20.3563636,16.2658182 20.3345455,16.2585455 20.3127273,16.2585455 C20.3054545,16.2730909 20.3054545,16.2949091 20.3054545,16.3167273 L20.3054545,16.5458182 C20.3054545,16.6549091 20.3781818,16.7858182 20.4727273,16.8403636 L20.5309091,16.8730909 C20.5563636,16.8876364 20.5781818,16.8949091 20.6,16.8985455 C20.6036364,16.8803636 20.6072727,16.8621818 20.6072727,16.8403636 L20.6072727,16.6076364 C20.6072727,16.4985455 20.5309091,16.3712727 20.44,16.3167273" id="Fill-74" fill="#0093FF"></path>
            <path d="M19.3818182,15.7061818 C19.36,15.6952727 19.3418182,15.6807273 19.32,15.6698182 C19.3018182,15.6552727 19.2763636,15.648 19.2581818,15.648 C19.2509091,15.6625455 19.2472727,15.6843636 19.2472727,15.7061818 L19.2472727,15.9352727 C19.2472727,16.0443636 19.32,16.1752727 19.4145455,16.2298182 C19.4363636,16.2407273 19.4581818,16.2516364 19.4763636,16.2625455 C19.4981818,16.2770909 19.5236364,16.2843636 19.5418182,16.288 C19.5490909,16.2698182 19.5527273,16.2516364 19.5527273,16.2298182 L19.5527273,16.0007273 C19.5527273,15.8916364 19.4727273,15.7607273 19.3818182,15.7061818" id="Fill-76" fill="#0093FF"></path>
            <path d="M18.3272727,15.0952727 C18.3054545,15.0843636 18.2836364,15.0734545 18.2618182,15.0589091 C18.2436364,15.048 18.2218182,15.0407273 18.2,15.0370909 C18.1927273,15.0552727 18.1927273,15.0734545 18.1927273,15.0952727 L18.1927273,15.328 C18.1927273,15.4334545 18.2654545,15.5643636 18.36,15.6189091 C18.3818182,15.6298182 18.4,15.6407273 18.4181818,15.6552727 C18.4436364,15.6661818 18.4654545,15.6770909 18.4872727,15.6770909 C18.4909091,15.6589091 18.4945455,15.6407273 18.4945455,15.6189091 L18.4945455,15.3898182 C18.4945455,15.2807273 18.4181818,15.1498182 18.3272727,15.0952727" id="Fill-78" fill="#0093FF"></path>
            <path d="M17.2690909,14.4843636 C17.2472727,14.4734545 17.2254545,14.4625455 17.2072727,14.4516364 C17.1854545,14.4370909 17.1636364,14.4298182 17.1418182,14.4261818 C17.1381818,14.4443636 17.1345455,14.4625455 17.1345455,14.4843636 L17.1345455,14.7170909 C17.1345455,14.8225455 17.2072727,14.9534545 17.3018182,15.008 L17.3636364,15.0443636 C17.3854545,15.0589091 17.4072727,15.0661818 17.4290909,15.0661818 C17.4363636,15.0516364 17.44,15.0298182 17.44,15.008 L17.44,14.7789091 C17.44,14.6698182 17.36,14.5389091 17.2690909,14.4843636" id="Fill-80" fill="#0093FF"></path>
            <path d="M16.2141818,13.8752727 C16.1923636,13.8643636 16.1705455,13.8498182 16.1487273,13.8389091 C16.1305455,13.8243636 16.1087273,13.8170909 16.0869091,13.8170909 C16.0796364,13.8352727 16.076,13.8534545 16.076,13.8752727 L16.076,14.1043636 C16.076,14.2134545 16.1523636,14.3443636 16.2469091,14.3989091 C16.2687273,14.4098182 16.2869091,14.4207273 16.3050909,14.4352727 C16.3305455,14.4461818 16.3523636,14.4570909 16.3741818,14.4570909 C16.3778182,14.4389091 16.3814545,14.4207273 16.3814545,14.3989091 L16.3814545,14.1698182 C16.3814545,14.0607273 16.3050909,13.9298182 16.2141818,13.8752727" id="Fill-82" fill="#0093FF"></path>
            <path d="M15.156,13.2665455 L15.0941818,13.2301818 C15.0723636,13.2156364 15.0505455,13.2083636 15.0287273,13.2047273 C15.0250909,13.2229091 15.0214545,13.2447273 15.0214545,13.2665455 L15.0214545,13.4956364 C15.0214545,13.6047273 15.0941818,13.7356364 15.1887273,13.7901818 L15.2469091,13.8229091 C15.2723636,13.8374545 15.2941818,13.8447273 15.316,13.8483636 C15.3196364,13.8301818 15.3269091,13.812 15.3269091,13.7901818 L15.3269091,13.5574545 C15.3269091,13.4483636 15.2469091,13.3210909 15.156,13.2665455" id="Fill-84" fill="#0093FF"></path>
            <path d="M14.1298182,12.6734545 C14.108,12.6625455 14.0898182,12.6516364 14.068,12.6370909 C14.0461818,12.6225455 14.0243636,12.6152727 14.0025455,12.6152727 C13.9989091,12.6298182 13.9952727,12.6516364 13.9952727,12.6734545 L13.9952727,12.9025455 C13.9952727,13.0116364 14.068,13.1425455 14.1661818,13.1970909 C14.1843636,13.208 14.2061818,13.2189091 14.2243636,13.2298182 C14.2461818,13.2443636 14.268,13.2516364 14.2898182,13.2552727 C14.2970909,13.2370909 14.3007273,13.2189091 14.3007273,13.1970909 L14.3007273,12.9643636 C14.3007273,12.8589091 14.2207273,12.728 14.1298182,12.6734545" id="Fill-86" fill="#0093FF"></path>
            <path d="M13.0749091,12.0625455 C13.0530909,12.0516364 13.0312727,12.0407273 13.0094545,12.0261818 C12.9912727,12.0116364 12.9694545,12.0043636 12.9476364,12.0043636 C12.9403636,12.0225455 12.9367273,12.0407273 12.9367273,12.0625455 L12.9367273,12.2916364 C12.9367273,12.4007273 13.0130909,12.5316364 13.1076364,12.5861818 C13.1294545,12.5970909 13.1476364,12.608 13.1658182,12.6225455 C13.1912727,12.6334545 13.2130909,12.6407273 13.2312727,12.6443636 C13.2385455,12.6261818 13.2421818,12.608 13.2421818,12.5861818 L13.2421818,12.3534545 C13.2421818,12.248 13.1658182,12.1170909 13.0749091,12.0625455" id="Fill-88" fill="#0093FF"></path>
            <polygon id="Fill-90" fill="#E5EBEC" points="14.712 17.1530909 12.5738182 15.9203636 12.552 15.9130909 12.5301818 15.9094545 12.512 15.9058182 12.4865455 15.9021818 12.4647273 15.9021818 12.4392727 15.9021818 12.4138182 15.9058182 12.3847273 15.9094545 12.3629091 15.9167273 12.3374545 15.9276364 12.3083636 15.9385455 12.2792727 15.9458182 12.2501818 15.9603636 12.2210909 15.9785455 12.1956364 15.9967273 12.1665455 16.0149091 12.1374545 16.0330909 12.112 16.0549091 12.0829091 16.0767273 12.0610909 16.1021818 12.0356364 16.1276364 12.0101818 16.1530909 11.9847273 16.1785455 11.9592727 16.2076364 11.9338182 16.2367273 11.912 16.2658182 11.8938182 16.2949091 11.872 16.324 11.8501818 16.3567273 11.832 16.3894545 11.8138182 16.4221818 11.7956364 16.4585455 11.7774545 16.4912727 11.7629091 16.524 11.752 16.5567273 11.7374545 16.5930909 11.7265455 16.6258182 11.7156364 16.6621818 11.7047273 16.6985455 11.6938182 16.7312727 11.6865455 16.7676364 11.6829091 16.8003636 11.6756364 16.8330909 11.672 16.8694545 11.672 16.9021818 11.6683636 16.9349091 11.672 16.9676364 11.672 17.0003636 11.6756364 17.0294545 11.6829091 17.0585455 11.6865455 17.084 11.6938182 17.1130909 11.7047273 17.1385455 11.7156364 17.1567273 11.7265455 17.1821818 11.7374545 17.204 11.752 17.2221818 11.7629091 17.2367273 11.7774545 17.2549091 11.7956364 17.2694545 13.9338182 18.5021818 13.9156364 18.4876364 13.9010909 18.4730909 13.8865455 18.4549091 13.8756364 18.4367273 13.8610909 18.4149091 13.8501818 18.3930909 13.8429091 18.3676364 13.832 18.3458182 13.8247273 18.3203636 13.8174545 18.2912727 13.8138182 18.2621818 13.8101818 18.2330909 13.8065455 18.204 13.8065455 18.1712727 13.8065455 18.1385455 13.8101818 18.1021818 13.8138182 18.0694545 13.8174545 18.0330909 13.8247273 18.0003636 13.832 17.964 13.8429091 17.9312727 13.8501818 17.8949091 13.8610909 17.8621818 13.8756364 17.8258182 13.8865455 17.7930909 13.9010909 17.7603636 13.9156364 17.724 13.9338182 17.6912727 13.952 17.6585455 13.9701818 17.6258182 13.9883636 17.5930909 14.0101818 17.5603636 14.032 17.5312727 14.0501818 17.4985455 14.072 17.4694545 14.0974545 17.4403636 14.1192727 17.4112727 14.1447273 17.3858182 14.1701818 17.3603636 14.1956364 17.3349091 14.2210909 17.3094545 14.2501818 17.2876364 14.2756364 17.2658182 14.3047273 17.2476364 14.3338182 17.2294545 14.3592727 17.2112727 14.3883636 17.1967273 14.4174545 17.1821818 14.4465455 17.1712727 14.472 17.1603636 14.4974545 17.1530909 14.5229091 17.1458182 14.5483636 17.1421818 14.5774545 17.1385455 14.5992727 17.1385455 14.6247273 17.1385455 14.6465455 17.1385455 14.6683636 17.1421818 14.6901818 17.1494545"></polygon>
            <path d="M14.3145455,18.4778182 C14.6272727,18.296 14.8818182,17.8523636 14.8818182,17.4887273 C14.8818182,17.1250909 14.6272727,16.976 14.3145455,17.1578182 C13.9981818,17.3432727 13.7436364,17.7832727 13.7436364,18.1469091 C13.7436364,18.5105455 13.9981818,18.6596364 14.3145455,18.4778182" id="Fill-92" fill="#E5EBEC"></path>
            <polygon id="Fill-94" fill="#A0AEB7" points="14.6767273 17.1 14.6076364 17.06 14.5894545 17.0527273 14.564 17.0490909 14.5421818 17.0454545 14.5167273 17.0418182 14.4912727 17.0418182 14.4658182 17.0418182 14.444 17.0454545 14.4149091 17.0490909 14.3894545 17.0563636 14.3603636 17.0672727 14.3312727 17.0781818 14.3021818 17.0890909 14.2767273 17.1036364 14.244 17.1181818 14.2149091 17.1363636 14.1858182 17.1581818 14.1567273 17.1763636 14.1312727 17.1981818 14.1021818 17.2236364 14.0767273 17.2490909 14.0476364 17.2709091 14.0221818 17.3 13.9967273 17.3254545 13.9749091 17.3545455 13.9494545 17.3872727 13.9276364 17.4163636 13.9021818 17.4490909 13.8803636 17.4781818 13.8585455 17.5145455 13.844 17.5472727 13.8221818 17.58 13.804 17.6127273 13.7894545 17.6490909 13.7712727 17.6854545 13.7567273 17.7181818 13.7421818 17.7545455 13.7312727 17.7909091 13.7167273 17.8272727 13.7094545 17.86 13.6985455 17.8963636 13.6912727 17.9327273 13.6876364 17.9690909 13.684 18.0054545 13.6803636 18.0381818 13.6767273 18.0745455 13.6767273 18.1072727 13.6767273 18.1436364 13.6803636 18.1727273 13.684 18.2054545 13.6876364 18.2345455 13.6912727 18.26 13.6985455 18.2890909 13.7094545 18.3145455 13.7167273 18.3363636 13.7312727 18.3618182 13.7421818 18.3836364 13.7567273 18.4018182 13.7712727 18.42 13.7894545 18.4381818 13.804 18.4527273 13.8730909 18.4927273 13.8549091 18.4745455 13.8403636 18.46 13.8258182 18.4418182 13.8149091 18.4236364 13.8003636 18.4018182 13.7894545 18.38 13.7785455 18.3545455 13.7676364 18.3290909 13.7603636 18.3036364 13.7530909 18.2745455 13.7494545 18.2454545 13.7458182 18.2127273 13.7421818 18.18 13.7421818 18.1472727 13.7421818 18.1145455 13.7458182 18.0781818 13.7494545 18.0418182 13.7530909 18.0090909 13.7603636 17.9727273 13.7676364 17.9363636 13.7785455 17.9 13.7894545 17.8636364 13.8003636 17.8309091 13.8149091 17.7945455 13.8258182 17.7581818 13.8403636 17.7218182 13.8549091 17.6890909 13.8730909 17.6527273 13.8912727 17.62 13.9094545 17.5836364 13.9312727 17.5509091 13.9494545 17.5181818 13.9749091 17.4854545 13.9967273 17.4563636 14.0185455 17.4236364 14.0403636 17.3981818 14.0658182 17.3690909 14.0912727 17.34 14.1167273 17.3145455 14.1458182 17.2854545 14.1712727 17.26 14.1967273 17.2418182 14.2258182 17.2163636 14.2549091 17.1945455 14.284 17.1763636 14.3130909 17.1581818 14.3421818 17.1436364 14.3712727 17.1290909 14.4003636 17.1145455 14.4294545 17.1072727 14.4549091 17.0963636 14.484 17.0927273 14.5094545 17.0854545 14.5349091 17.0818182 14.564 17.0818182 14.5858182 17.0818182 14.6076364 17.0854545 14.6330909 17.0890909 14.6549091 17.0927273"></polygon>
            <path d="M14.3145455,18.4636364 C14.6236364,18.2854545 14.8709091,17.8527273 14.8709091,17.4963636 C14.8709091,17.14 14.6236364,16.9945455 14.3145455,17.1727273 C14.0054545,17.3509091 13.7581818,17.7836364 13.7581818,18.1436364 C13.7581818,18.4963636 14.0054545,18.6418182 14.3145455,18.4636364" id="Fill-96" fill="#C4CDD2"></path>
            <path d="M14.3145455,18.2949091 C14.54,18.164 14.7254545,17.844 14.7254545,17.5785455 C14.7254545,17.3167273 14.54,17.2112727 14.3145455,17.3421818 C14.0854545,17.4730909 13.9,17.7930909 13.9,18.0585455 C13.9,18.3203636 14.0854545,18.4258182 14.3145455,18.2949091" id="Fill-98" fill="#5F6E76"></path>
            <path d="M14.2290909,17.4 C14.0654545,17.5309091 13.9418182,17.7527273 13.9090909,17.9563636 L14.1527273,18.1018182 L14.1527273,18.0945455 L14.1454545,18.0872727 L14.1381818,18.08 L14.1345455,18.0727273 L14.1272727,18.0654545 L14.1236364,18.0545455 L14.12,18.0472727 L14.1163636,18.0363636 L14.1127273,18.0254545 L14.1090909,18.0145455 L14.1090909,18.0036364 L14.1054545,17.9890909 L14.1054545,17.9781818 L14.1054545,17.9636364 L14.1054545,17.9490909 L14.1054545,17.9345455 L14.1090909,17.9236364 L14.1090909,17.9090909 L14.1127273,17.8945455 L14.1163636,17.88 L14.12,17.8654545 L14.1236364,17.8509091 L14.1272727,17.8363636 L14.1345455,17.8218182 L14.1381818,17.8072727 L14.1454545,17.7927273 L14.1527273,17.7781818 L14.1527273,17.7672727 L14.1636364,17.7527273 L14.1709091,17.7381818 L14.1781818,17.7236364 L14.1854545,17.7127273 L14.1963636,17.7018182 L14.2036364,17.6872727 L14.2145455,17.6763636 L14.2254545,17.6618182 L14.2327273,17.6509091 L14.2436364,17.64 L14.2545455,17.6290909 L14.2654545,17.6181818 L14.2763636,17.6109091 L14.2872727,17.6 L14.2981818,17.5927273 L14.3090909,17.5818182 L14.32,17.5745455 L14.3309091,17.5672727 L14.3454545,17.56 L14.3563636,17.5563636 L14.3672727,17.5527273 L14.3781818,17.5490909 L14.3890909,17.5418182 L14.4,17.5381818 L14.4109091,17.5381818 L14.4218182,17.5381818 L14.4327273,17.5381818 L14.4436364,17.5381818 L14.4545455,17.5381818 L14.4581818,17.5381818 L14.4690909,17.5418182 L14.4763636,17.5454545 L14.2290909,17.4 Z" id="Fill-100" fill="#B73333"></path>
            <path d="M14.3145455,18.0781818 C14.4381818,18.0054545 14.54,17.8309091 14.54,17.6890909 C14.54,17.5472727 14.4381818,17.4854545 14.3145455,17.5581818 C14.1909091,17.6309091 14.0890909,17.8054545 14.0890909,17.9472727 C14.0890909,18.0890909 14.1909091,18.1509091 14.3145455,18.0781818" id="Fill-102" fill="#FF4B38"></path>
            <polygon id="Fill-104" fill="#DCE2E2" points="17.7556364 15.9156364 17.7556364 16.2429091 7.13381818 18.4647273 7.13381818 18.1338182"></polygon>
            <polygon id="Fill-106" fill="#DCE2E2" points="7.13418182 18.1349091 7.13418182 18.4658182 7.04327273 18.4803636 6.95236364 18.4949091 6.86145455 18.5058182 6.77054545 18.5094545 6.67963636 18.5130909 6.59236364 18.5094545 6.50145455 18.5058182 6.41781818 18.4949091 6.41781818 18.164 6.50145455 18.1749091 6.59236364 18.1821818 6.67963636 18.1821818 6.77054545 18.1821818 6.86145455 18.1749091 6.95236364 18.164 7.04327273 18.1530909"></polygon>
            <polygon id="Fill-108" fill="#DCE2E2" points="6.41672727 18.1650909 6.41672727 18.496 6.33309091 18.4814545 6.24581818 18.4669091 6.16581818 18.4450909 6.08218182 18.4232727 6.00945455 18.3941818 5.92945455 18.3614545 5.86036364 18.3287273 5.78763636 18.2923636 5.78763636 17.9614545 5.86036364 17.9978182 5.92945455 18.0341818 6.00945455 18.0669091 6.08218182 18.0923636 6.16581818 18.1141818 6.24581818 18.136 6.33309091 18.1541818"></polygon>
            <g id="Group-112" transform="translate(0.000000, 15.337818)">
                <mask id="mask-5" fill="white">
                    <use xlink:href="#path-4"></use>
                </mask>
                <g id="Clip-111"></g>
                <polygon id="Fill-110" fill="#DCE2E2" mask="url(#mask-5)" points="5.788 2.62327273 5.788 2.95418182 4.428 2.16872727 4.428 1.84145455"></polygon>
            </g>
            <path d="M17.7556364,15.9156364 L16.2174545,16.2356364 L16.2101818,16.2356364 L14.2174545,16.6538182 L14.1665455,16.6647273 L7.13381818,18.1338182 C6.89381818,18.1883636 6.64654545,18.1956364 6.41745455,18.1665455 C6.18472727,18.1374545 5.97018182,18.0683636 5.78836364,17.9592727 L4.42836364,17.1774545 L13.7338182,13.592 L17.7556364,15.9156364 Z" id="Fill-113" fill="#F3F3F3"></path>
            <polygon id="Fill-115" fill="#DCE2E2" points="8.512 9.34945455 8.512 9.45490909 5.15927273 9.95672727 5.15927273 9.84763636"></polygon>
            <g id="Group-119" transform="translate(0.000000, 8.065091)">
                <mask id="mask-7" fill="white">
                    <use xlink:href="#path-6"></use>
                </mask>
                <g id="Clip-118"></g>
                <polygon id="Fill-117" fill="#DCE2E2" mask="url(#mask-7)" points="5.15963636 1.78327273 5.15963636 1.88872727 5.09054545 1.896 5.02509091 1.89963636 4.956 1.90327273 4.89054545 1.90327273 4.82145455 1.89963636 4.75963636 1.89236364 4.69418182 1.88509091 4.62872727 1.87418182 4.62872727 1.76872727 4.69418182 1.77963636 4.75963636 1.78690909 4.82145455 1.79054545 4.89054545 1.79418182 4.956 1.79418182 5.02509091 1.79054545 5.09054545 1.78690909"></polygon>
            </g>
            <g id="Group-122" transform="translate(0.000000, 4.428727)">
                <mask id="mask-9" fill="white">
                    <use xlink:href="#path-8"></use>
                </mask>
                <g id="Clip-121"></g>
                <polygon id="Fill-120" fill="#DCE2E2" mask="url(#mask-9)" points="4.63054545 5.40545455 4.63054545 5.51090909 4.56872727 5.5 4.51054545 5.48545455 4.44872727 5.47090909 4.39418182 5.45272727 4.336 5.42727273 4.28145455 5.40545455 4.23054545 5.38 4.17963636 5.35090909 4.17963636 5.24545455 4.23054545 5.27090909 4.28145455 5.3 4.336 5.32181818 4.39418182 5.34363636 4.44872727 5.36181818 4.51054545 5.38 4.56872727 5.39454545"></polygon>
            </g>
            <g id="Group-125" transform="translate(0.000000, 4.428727)">
                <mask id="mask-11" fill="white">
                    <use xlink:href="#path-10"></use>
                </mask>
                <g id="Clip-124"></g>
                <polygon id="Fill-123" fill="#DCE2E2" mask="url(#mask-11)" points="4.17963636 5.244 4.17963636 5.35309091 3.63781818 5.04036364 3.63781818 4.93127273"></polygon>
            </g>
            <g id="Group-128" transform="translate(3.636364, 4.428727)">
                <mask id="mask-13" fill="white">
                    <use xlink:href="#path-12"></use>
                </mask>
                <g id="Clip-127"></g>
                <path d="M4.87563636,4.92072727 L1.52290909,5.41890909 C1.33745455,5.44072727 1.16290909,5.43709091 0.995636364,5.40436364 C0.832,5.37527273 0.675636364,5.32072727 0.544727273,5.24436364 L-0.000727272727,4.93163636 L2.75927273,3.33890909 L4.87563636,4.92072727 Z" id="Fill-126" fill="#F3F3F3" mask="url(#mask-13)"></path>
            </g>
            <polygon id="Fill-129" fill="#F3F3F3" points="9.15818182 8.52036364 6.39818182 3.54945455 6.59090909 3.43672727 9.35090909 8.40763636"></polygon>
            <polygon id="Fill-131" fill="#EBECEC" points="5.98690909 6.91345455 5.22690909 2.87345455 6.39781818 3.54981818 9.15781818 8.52072727"></polygon>
            <g id="Group-135" transform="translate(3.636364, 0.792364)">
                <mask id="mask-15" fill="white">
                    <use xlink:href="#path-14"></use>
                </mask>
                <g id="Clip-134"></g>
                <polygon id="Fill-133" fill="#F3F3F3" mask="url(#mask-15)" points="1.59054545 2.08 1.78690909 1.96727273 2.95418182 2.64363636 2.76145455 2.75636364"></polygon>
            </g>
            <path d="M24.5061818,16.9774545 L24.5134545,16.9701818 L24.528,16.9556364 L24.5316364,16.952 L24.5352727,16.9483636 L24.5498182,16.9338182 L24.5570909,16.9265455 L24.5607273,16.9229091 L24.5643636,16.9192727 L24.5716364,16.9083636 L24.5789091,16.9010909 L24.5934545,16.8829091 L24.6007273,16.872 L24.608,16.8647273 L24.6152727,16.8574545 L24.6189091,16.8501818 L24.6261818,16.8429091 L24.6298182,16.8356364 L24.6370909,16.8283636 L24.6516364,16.8101818 L24.6552727,16.8065455 L24.6589091,16.7992727 L24.6625455,16.792 L24.6698182,16.7810909 L24.6734545,16.7738182 L24.6770909,16.7665455 L24.6843636,16.7592727 L24.688,16.752 L24.6916364,16.7483636 L24.6952727,16.7374545 L24.6989091,16.7301818 L24.7025455,16.7229091 L24.7061818,16.7229091 L24.7098182,16.7156364 L24.7170909,16.7010909 L24.7207273,16.6938182 L24.7207273,16.6901818 L24.7243636,16.6865455 L24.728,16.6756364 L24.728,16.672 L24.7316364,16.6647273 L24.7316364,16.6538182 L24.7352727,16.6465455 L24.7389091,16.6392727 L24.7389091,16.6356364 L24.7389091,16.632 L24.7425455,16.6247273 L24.7461818,16.6174545 L24.7461818,16.6101818 L24.7498182,16.6065455 L24.7498182,16.6029091 L24.7498182,16.5956364 L24.7534545,16.5883636 L24.7534545,16.5810909 L24.7570909,16.5774545 L24.7570909,16.5738182 L24.7570909,16.5665455 L24.7570909,16.5592727 L24.7607273,16.552 L24.7607273,16.5483636 L24.7607273,16.5447273 L24.7607273,16.5374545 L24.7607273,16.5301818 L24.7643636,16.5229091 L24.7643636,16.5156364 L24.7643636,16.5083636 L24.7643636,16.5010909 C24.7934545,16.5229091 24.8189091,16.5483636 24.848,16.5738182 C24.968,16.8538182 24.9607273,17.0974545 24.8625455,17.2938182 C24.7570909,17.192 24.6443636,17.0829091 24.5061818,16.9774545" id="Fill-136" fill="#90E6FB"></path>
        </g>
    </g>
</svg>