<?xml version="1.0" encoding="UTF-8"?>
<svg width="40px" height="40px" viewBox="0 0 40 40" version="1.1" xmlns="http://www.w3.org/2000/svg" xmlns:xlink="http://www.w3.org/1999/xlink">
    <!-- Generator: Sketch 52.5 (67469) - http://www.bohemiancoding.com/sketch -->
    <title>Icon/Category/Wearable</title>
    <desc>Created with Sketch.</desc>
    <defs>
        <path d="M3.26029851,5.20955224 C1.56656716,6.19343284 0.505671642,8.22208955 0.496119403,11.5952239 C0.471641791,20.1576119 7.24895522,27.9092537 13.9779104,31.7940299 C15.4602985,32.6495522 18.761194,34.4835821 20.0597015,35.0549254 C20.3934328,35.2435821 20.6316418,35.6143284 20.6620896,35.9540299 C20.6835821,36.1635821 20.6208955,36.3146269 20.5080597,36.3808955 L28.6465672,31.6507463 C28.76,31.5844776 28.8226866,31.4340299 28.801791,31.2244776 C28.7701493,30.8847761 28.5331343,30.5134328 28.199403,30.3241791 C26.8997015,29.7534328 23.599403,27.919403 22.1176119,27.0644776 C15.3880597,23.1791045 8.61074627,15.4274627 8.63522388,6.86507463 C8.64477612,3.49253731 9.70626866,1.4638806 11.399403,0.48 L3.26029851,5.20955224 Z" id="path-1"></path>
        <path d="M8.46328358,0.105671642 L0.324179104,4.83522388 C0.426865672,4.77552239 0.566567164,4.79044776 0.711641791,4.87343284 C0.789253731,4.91820896 0.866865672,4.98208955 0.941492537,5.06507463 C1.44,5.61791045 1.94029851,6.1361194 2.42507463,6.60238806 C4.12776119,8.23462687 5.98328358,9.64238806 7.91343284,10.7570149 C10.6340299,12.32 12.6674627,13.4226866 13.7020896,13.8943284 C16.0877612,14.9832836 17.92,15.1570149 19.2131343,14.4053731 L27.3522388,9.6758209 C26.0591045,10.4268657 24.2262687,10.2531343 21.840597,9.1641791 C20.8059701,8.69253731 18.7731343,7.59044776 16.0525373,6.02686567 C14.121791,4.91223881 12.2662687,3.50507463 10.5647761,1.87283582 C10.078806,1.40597015 9.57850746,0.887761194 9.08119403,0.335522388 C9.00656716,0.251940299 8.92776119,0.188656716 8.85134328,0.143880597 C8.76537313,0.0943283582 8.68119403,0.0692537313 8.60597015,0.0692537313 C8.55343284,0.0692537313 8.50507463,0.0817910448 8.46328358,0.105671642" id="path-3"></path>
        <path d="M0.0214925373,5.20119403 C5.17552239,10.1695522 8.34208955,16.56 8.32537313,22.5635821 C8.31402985,26.4973134 7.39402985,29.001791 5.61970149,30.0328358 L13.758806,25.3032836 C15.5170149,24.281194 16.4364179,21.8131343 16.4638806,17.9397015 L16.4638806,17.6477612 C16.4155224,11.6985075 13.2614925,5.3880597 8.16059701,0.471044776 L0.0214925373,5.20119403 Z" id="path-5"></path>
    </defs>
    <g id="Icon/Category/Wearable" stroke="none" stroke-width="1" fill="none" fill-rule="evenodd">
        <g id="Group-82" transform="translate(1.000000, 0.000000)">
            <g id="Group-9" transform="translate(10.149254, 25.706388)">
                <path d="M11.0799403,5.4118806 L9.01725373,4.21307463 C9.13904478,4.14322388 9.23516418,3.97307463 9.23456716,3.83635821 L11.2966567,5.03516418 C11.2972537,5.17128358 11.2011343,5.34143284 11.0799403,5.4118806" id="Fill-1" fill="#EDEDED"></path>
                <polygon id="Fill-3" fill="#757575" points="11.2968358 5.03528358 9.23474627 3.83647761 9.224 0.226328358 11.3798209 1.06692537"></polygon>
                <path d="M9.01719403,4.21319403 L0.635104478,9.05259701 C0.57361194,9.0878209 0.519880597,9.09080597 0.479880597,9.0681194 L2.456,10.4173731 C2.49540299,10.4400597 2.67749254,10.413791 2.73779104,10.3785672 L11.0798806,5.412 L9.01719403,4.21319403 Z" id="Fill-5" fill="#DBDBDB"></path>
                <path d="M11.6326567,1.22579104 C11.6320597,1.06638806 11.5795224,0.952955224 11.4959403,0.888477612 C11.4225075,1.01922388 11.3114627,1.15116418 11.2075821,1.28310448 C11.2129552,1.28489552 11.2201194,1.28370149 11.2242985,1.28668657 C11.2631045,1.30997015 11.2863881,1.35832836 11.2869851,1.42519403 L11.2971343,5.03534328 C11.2971343,5.17086567 11.2010149,5.34161194 11.0798209,5.4120597 L2.69713433,10.2514627 C2.65832836,10.2735522 2.62310448,10.2789254 2.59146269,10.2765373 C2.56997015,10.3547463 2.45414925,10.4054925 2.44101493,10.4854925 C2.42967164,10.5535522 2.52041791,10.6514627 2.50967164,10.7171343 C2.56877612,10.7075821 2.6320597,10.6872836 2.69832836,10.6484776 L11.0810149,5.80907463 C11.3926567,5.62877612 11.644,5.19355224 11.642806,4.8359403 L11.6326567,1.22579104 Z" id="Fill-7" fill="#A9A9A9"></path>
            </g>
            <g id="Group-12" transform="translate(0.597015, 3.019821)">
                <mask id="mask-2" fill="white">
                    <use xlink:href="#path-1"></use>
                </mask>
                <g id="Clip-11"></g>
                <path d="M3.26029851,5.20955224 C1.56656716,6.19343284 0.505671642,8.22208955 0.496119403,11.5952239 C0.471641791,20.1576119 7.24895522,27.9092537 13.9779104,31.7940299 C15.4602985,32.6495522 18.761194,34.4835821 20.0597015,35.0549254 C20.3934328,35.2435821 20.6316418,35.6143284 20.6620896,35.9540299 C20.6835821,36.1635821 20.6208955,36.3146269 20.5080597,36.3808955 L28.6465672,31.6507463 C28.76,31.5844776 28.8226866,31.4340299 28.801791,31.2244776 C28.7701493,30.8847761 28.5331343,30.5134328 28.199403,30.3241791 C26.8997015,29.7534328 23.599403,27.919403 22.1176119,27.0644776 C15.3880597,23.1791045 8.61074627,15.4274627 8.63522388,6.86507463 C8.64477612,3.49253731 9.70626866,1.4638806 11.399403,0.48 L3.26029851,5.20955224 Z" id="Fill-10" fill="#24465C" mask="url(#mask-2)"></path>
            </g>
            <g id="Group-32" transform="translate(0.000000, 0.034746)">
                <path d="M11.2758209,2.08925373 L3.13671642,6.81880597 C4.50328358,6.02477612 6.27701493,5.81402985 8.37492537,6.21522388 L16.5134328,1.48507463 C14.4161194,1.0838806 12.6429851,1.29462687 11.2758209,2.08925373" id="Fill-13" fill="#24465C"></path>
                <g id="Group-17" transform="translate(0.000000, 5.970149)" fill="#142B39">
                    <path d="M21.2595224,32.9690149 C21.2284776,32.6299104 20.9908657,32.2585672 20.6571343,32.0693134 C19.3580299,31.4985672 16.0571343,29.6645373 14.5753433,28.8084179 C7.84579104,24.9236418 1.06907463,17.172597 1.09295522,8.60961194 C1.10967164,2.7958806 4.25235821,0.976179104 8.37056716,1.61558209 L8.37474627,0.244835821 C3.21235821,-0.742626866 0.0171343284,1.97498507 0.000417910448,7.97916418 C-0.0228656716,16.1439403 5.83385075,25.0203582 14.5717612,30.0645373 C16.0756418,30.933194 19.4386269,32.7994627 20.7813134,33.3917015 C21.0804179,33.5218507 21.2965373,33.333791 21.2595224,32.9690149" id="Fill-15"></path>
                </g>
                <polygon id="Fill-18" fill="#322E2E" points="8.37468657 6.21528358 8.37050746 7.58602985 16.5096119 2.8558806 16.513791 1.48513433"></polygon>
                <path d="M7.87504478,7.70722388 L7.86907463,9.69468657 C7.48877612,9.47498507 7.29832836,9.18662687 7.29892537,8.89826866 L7.30489552,6.91080597 C7.30370149,7.19856716 7.49414925,7.48752239 7.87504478,7.70722388" id="Fill-20" fill="#A9A9A9"></path>
                <path d="M29.9786269,7.34579104 L29.9726567,9.33385075 C29.9720597,9.61862687 29.785194,9.90220896 29.4114627,10.1195224 L29.4174328,8.13146269 C29.7911642,7.91414925 29.9774328,7.63056716 29.9786269,7.34579104" id="Fill-22" fill="#A9A9A9"></path>
                <polygon id="Fill-24" fill="#888888" points="29.4171343 8.13170149 29.4111642 10.1191642 20.402806 15.3543881 20.4087761 13.3669254"></polygon>
                <polygon id="Fill-26" fill="#888888" points="17.6774328 13.3666269 17.6714627 15.3546866 7.86907463 9.69498507 7.87504478 7.70752239"></polygon>
                <path d="M20.4088955,13.3666269 L20.4029254,15.3540896 C19.6506866,15.7917015 18.428597,15.7917015 17.6715821,15.3546866 L17.6775522,13.3666269 C18.4339701,13.8030448 19.6566567,13.8030448 20.4088955,13.3666269" id="Fill-28" fill="#A9A9A9"></path>
                <path d="M29.4084179,6.54937313 C30.1654328,6.98579104 30.1684179,7.69444776 29.4173731,8.13146269 L20.4090149,13.3666866 C19.6567761,13.8031045 18.4340896,13.8031045 17.6776716,13.3666866 L7.87528358,7.70698507 C7.11826866,7.27056716 7.11408955,6.56191045 7.86573134,6.12489552 L16.8746866,0.890268657 C17.6263284,0.453253731 18.8490149,0.453253731 19.6060299,0.890268657 L29.4084179,6.54937313 Z" id="Fill-30" fill="#DBDBDB"></path>
            </g>
            <g id="Group-35" transform="translate(6.567164, 22.721313)">
                <mask id="mask-4" fill="white">
                    <use xlink:href="#path-3"></use>
                </mask>
                <g id="Clip-34"></g>
                <path d="M8.46328358,0.105671642 L0.324179104,4.83522388 C0.426865672,4.77552239 0.566567164,4.79044776 0.711641791,4.87343284 C0.789253731,4.91820896 0.866865672,4.98208955 0.941492537,5.06507463 C1.44,5.61791045 1.94029851,6.1361194 2.42507463,6.60238806 C4.12776119,8.23462687 5.98328358,9.64238806 7.91343284,10.7570149 C10.6340299,12.32 12.6674627,13.4226866 13.7020896,13.8943284 C16.0877612,14.9832836 17.92,15.1570149 19.2131343,14.4053731 L27.3522388,9.6758209 C26.0591045,10.4268657 24.2262687,10.2531343 21.840597,9.1641791 C20.8059701,8.69253731 18.7731343,7.59044776 16.0525373,6.02686567 C14.121791,4.91223881 12.2662687,3.50507463 10.5647761,1.87283582 C10.078806,1.40597015 9.57850746,0.887761194 9.08119403,0.335522388 C9.00656716,0.251940299 8.92776119,0.188656716 8.85134328,0.143880597 C8.76537313,0.0943283582 8.68119403,0.0692537313 8.60597015,0.0692537313 C8.55343284,0.0692537313 8.50507463,0.0817910448 8.46328358,0.105671642" id="Fill-33" fill="#1C3C50" mask="url(#mask-4)"></path>
            </g>
            <g id="Group-38" transform="translate(20.895522, 8.392955)">
                <mask id="mask-6" fill="white">
                    <use xlink:href="#path-5"></use>
                </mask>
                <g id="Clip-37"></g>
                <path d="M0.0214925373,5.20119403 C5.17552239,10.1695522 8.34208955,16.56 8.32537313,22.5635821 C8.31402985,26.4973134 7.39402985,29.001791 5.61970149,30.0328358 L13.758806,25.3032836 C15.5170149,24.281194 16.4364179,21.8131343 16.4638806,17.9397015 L16.4638806,17.6477612 C16.4155224,11.6985075 13.2614925,5.3880597 8.16059701,0.471044776 L0.0214925373,5.20119403 Z" id="Fill-36" fill="#24465C" mask="url(#mask-6)"></path>
            </g>
            <g id="Group-81" transform="translate(6.567164, 1.228776)">
                <path d="M14.3500896,12.3650149 L14.3459104,13.7357612 C18.4575522,17.848 21.5763582,23.2826269 21.5602388,29.0969552 C21.5417313,35.7345672 18.9715821,37.7918806 13.7017313,35.3871045 C12.6677015,34.9148657 10.6336716,33.8127761 7.91367164,32.249791 C5.98292537,31.1345672 4.12740299,29.726806 2.42531343,28.0951642 C1.9399403,27.6282985 1.43964179,27.1100896 0.941731343,26.5572537 C0.867104478,26.4748657 0.788895522,26.4103881 0.711880597,26.366209 C0.504716418,26.246806 0.307104478,26.2694925 0.215164179,26.446806 C0.0868059701,26.687403 0.207402985,27.129791 0.481432836,27.4348657 C1.01576119,28.0265075 1.55367164,28.5811343 2.07904478,29.089194 C3.89874627,30.8348657 5.86889552,32.327403 7.97397015,33.5423284 C9.88023881,34.6354627 12.4426269,36.0754627 13.8133731,36.7023284 C19.5757612,39.3339701 22.6330746,36.9202388 22.6533731,29.728 C22.6706866,23.7238209 19.5041194,17.3333731 14.3500896,12.3650149" id="Fill-39" fill="#142B39"></path>
                <polygon id="Fill-41" fill="#142B39" points="13.0890149 0.227044776 22.0388657 5.39420896 11.1391642 11.6873433 2.18931343 6.5201791"></polygon>
                <path d="M3.72567164,9.1840597 L4.47074627,8.75122388 C4.55791045,8.85032836 4.6319403,8.96734328 4.68507463,9.08973134 L3.94059701,9.52197015 C3.88686567,9.4001791 3.81283582,9.28316418 3.72567164,9.1840597" id="Fill-43" fill="#F1F1F1"></path>
                <path d="M4.68537313,9.08961194 L3.94089552,9.52244776 C4.00238806,9.66155224 4.03820896,9.80841791 4.03761194,9.94453731 C4.03701493,10.1230448 3.97492537,10.2490149 3.87343284,10.3081194 L4.61850746,9.87468657 C4.72,9.8161791 4.78208955,9.69020896 4.78268657,9.51170149 C4.78268657,9.37558209 4.74746269,9.22871642 4.68537313,9.08961194 M4.47104478,8.75170149 L3.72597015,9.1839403 C3.6519403,9.09976119 3.56776119,9.0281194 3.47880597,8.97737313 C3.32179104,8.88602985 3.17910448,8.87707463 3.07641791,8.93677612 L3.82149254,8.5039403 C3.9241791,8.44423881 4.06626866,8.45319403 4.2238806,8.5439403 C4.31283582,8.59528358 4.39641791,8.66692537 4.47104478,8.75170149" id="Fill-45" fill="#DBDBDB"></path>
                <path d="M3.47910448,8.97707463 C3.79014925,9.15677612 4.03850746,9.58662687 4.03791045,9.94423881 C4.03671642,10.3024478 3.78716418,10.4481194 3.47552239,10.2684179 C3.16447761,10.0887164 2.91253731,9.65349254 2.91373134,9.29528358 C2.91492537,8.93826866 3.1680597,8.79677612 3.47910448,8.97707463" id="Fill-47" fill="#A0A0A0"></path>
                <path d="M6.84483582,11.0030448 L7.58991045,10.570209 C7.67707463,10.6693134 7.75110448,10.7863284 7.80483582,10.9087164 L7.05976119,11.3409552 C7.00662687,11.2185672 6.932,11.1021493 6.84483582,11.0030448" id="Fill-49" fill="#F1F1F1"></path>
                <path d="M7.80507463,10.908597 L7.06,11.3414328 C7.12149254,11.4805373 7.15731343,11.626806 7.15731343,11.7635224 C7.15671642,11.9414328 7.09402985,12.067403 6.99313433,12.1265075 L7.73761194,11.6936716 C7.83910448,11.6351642 7.90119403,11.509194 7.90179104,11.3306866 C7.90238806,11.1945672 7.86656716,11.0477015 7.80507463,10.908597 M7.59014925,10.5706866 L6.84507463,11.0029254 C6.77104478,10.9187463 6.68746269,10.8465075 6.59850746,10.7957612 C6.44089552,10.7044179 6.29880597,10.6960597 6.1961194,10.7551642 L6.94059701,10.3229254 C7.04328358,10.2632239 7.18597015,10.2721791 7.34358209,10.3629254 C7.4319403,10.4142687 7.5161194,10.4859104 7.59014925,10.5706866" id="Fill-51" fill="#DBDBDB"></path>
                <path d="M6.59826866,10.7955224 C6.90931343,10.9758209 7.15767164,11.4050746 7.15767164,11.7632836 C7.15647761,12.1214925 6.90632836,12.2671642 6.59468657,12.0874627 C6.28364179,11.9071642 6.03229851,11.4719403 6.03289552,11.1143284 C6.03408955,10.7567164 6.28722388,10.6158209 6.59826866,10.7955224" id="Fill-53" fill="#A0A0A0"></path>
                <polygon id="Fill-55" fill="#EAEAEA" points="7.02907463 6.00656716 6.90310448 6.08 6.68579104 6.7319403 6.9359403 6.76238806 7.09773134 6.27164179 8.80997015 7.26029851 8.24937313 7.5838806 8.42847761 7.68656716 9.74191045 6.92895522 9.56280597 6.82567164 9.00579104 7.14746269"></polygon>
                <path d="M8.67086567,5.03701493 C8.20698507,5.30447761 8.2481791,5.56716418 8.6798209,5.8161194 L8.74549254,5.85373134 L8.9401194,5.74149254 C8.5359403,5.5080597 8.5281791,5.32238806 8.83862687,5.14328358 L8.85534328,5.13373134 C9.13235821,4.97373134 9.484,4.95701493 9.74847761,5.10985075 L9.7759403,5.12537313 C9.93235821,5.2161194 9.98728358,5.31104478 9.99325373,5.50447761 L10.0511642,6.60776119 L10.1747463,6.67880597 L11.5156418,5.90447761 L11.3371343,5.80119403 L10.5007164,6.2841791 L10.2983284,6.40477612 L10.2487761,5.46208955 C10.2374328,5.23343284 10.1663881,5.12537313 9.94668657,4.99880597 L9.91325373,4.97970149 C9.57534328,4.78447761 9.10549254,4.78626866 8.67086567,5.03701493" id="Fill-57" fill="#EAEAEA"></path>
                <polygon id="Fill-59" fill="#EAEAEA" points="11.9807164 5.63576119 12.2278806 5.49307463 11.9807164 5.34979104 11.7335522 5.49307463"></polygon>
                <polygon id="Fill-61" fill="#EAEAEA" points="11.0327164 5.08829851 11.2798806 4.94620896 11.0327164 4.80292537 10.7855522 4.94561194"></polygon>
                <polygon id="Fill-63" fill="#EAEAEA" points="11.3352836 3.52053731 11.2087164 3.59337313 10.992 4.24591045 11.2421493 4.27576119 11.4039403 3.78561194 13.1161791 4.77426866 12.5555821 5.09785075 12.7346866 5.20053731 14.0481194 4.44232836 13.8690149 4.33904478 13.311403 4.66143284"></polygon>
                <path d="M13.7985672,3.01856716 C13.6093134,3.12841791 13.5048358,3.25498507 13.4857313,3.37737313 L12.7603582,2.91707463 L13.8427463,2.292 L13.6636418,2.18871642 L12.392,2.92364179 L13.5430448,3.64901493 L13.7579701,3.58155224 C13.6445373,3.42214925 13.7549851,3.24722388 13.952597,3.13259701 L13.9776716,3.11886567 C14.2278209,2.97438806 14.6039403,2.92543284 14.950209,3.12543284 L14.9997612,3.15408955 C15.3460299,3.35408955 15.2636418,3.57259701 15.0188657,3.71349254 L14.991403,3.72901493 C14.6946866,3.90095522 14.3484179,3.90692537 13.9746866,3.69140299 L13.7794627,3.80364179 L13.8099104,3.82155224 C14.233194,4.06573134 14.713791,4.09319403 15.1806567,3.82334328 C15.5746866,3.59647761 15.6290149,3.29140299 15.1866269,3.0358806 L15.153791,3.01737313 C14.713791,2.76304478 14.1860299,2.79468657 13.7985672,3.01856716" id="Fill-65" fill="#EAEAEA"></path>
                <path d="M8.75074627,28.3946269 C8.42835821,28.3946269 8.12626866,28.3229851 7.90059701,28.1922388 C7.69223881,28.0722388 7.57761194,27.9176119 7.57761194,27.758806 C7.57761194,27.599403 7.69223881,27.4447761 7.90059701,27.3247761 C8.12626866,27.1940299 8.42835821,27.1223881 8.75074627,27.1223881 C9.07253731,27.1223881 9.37462687,27.1940299 9.59970149,27.3247761 C9.8080597,27.4447761 9.92328358,27.599403 9.92328358,27.758806 C9.92328358,27.9176119 9.8080597,28.0722388 9.59970149,28.1922388 C9.37462687,28.3229851 9.07253731,28.3946269 8.75074627,28.3946269 M12.5835821,30.6949254 C12.261194,30.6949254 11.9597015,30.6226866 11.7346269,30.4931343 C11.5256716,30.3725373 11.4110448,30.2185075 11.4110448,30.0585075 C11.4110448,29.8991045 11.5262687,29.7450746 11.7346269,29.6250746 C11.9597015,29.4943284 12.261791,29.4226866 12.5835821,29.4226866 C12.9059701,29.4226866 13.2080597,29.4943284 13.4331343,29.6250746 C13.6408955,29.7450746 13.7567164,29.8991045 13.7567164,30.0585075 C13.7567164,30.2185075 13.6414925,30.3725373 13.4331343,30.4931343 C13.2080597,30.6226866 12.9065672,30.6949254 12.5835821,30.6949254 M16.378806,32.6877612 C16.0564179,32.6877612 15.7549254,32.6161194 15.5292537,32.4865672 C15.3214925,32.3659701 15.2062687,32.2119403 15.2062687,32.0519403 C15.2062687,31.8925373 15.3214925,31.7385075 15.5292537,31.6179104 C15.7549254,31.4883582 16.0564179,31.4167164 16.378806,31.4167164 C16.701194,31.4167164 17.0026866,31.4883582 17.2283582,31.6179104 C17.4367164,31.7385075 17.5513433,31.8925373 17.5513433,32.0519403 C17.5513433,32.2119403 17.4367164,32.3659701 17.2283582,32.4865672 C17.0026866,32.6161194 16.701194,32.6877612 16.378806,32.6877612" id="Fill-67" fill="#142B39"></path>
                <path d="M14.649194,25.3810149 L12.5865075,24.182209 C12.7435224,24.0920597 12.8850149,24.0831045 12.9877015,24.143403 L15.0503881,25.3416119 C14.9477015,25.2819104 14.806209,25.2908657 14.649194,25.3810149" id="Fill-69" fill="#EDEDED"></path>
                <path d="M5.87940299,35.1652537 L3.81731343,33.9670448 C3.7158209,33.9085373 3.65313433,33.7831642 3.65313433,33.6052537 L5.71522388,34.8040597 C5.7158209,34.9813731 5.77791045,35.1061493 5.87940299,35.1652537" id="Fill-71" fill="#6D6D6D"></path>
                <polygon id="Fill-73" fill="#888888" points="5.71498507 34.8038209 3.65289552 33.6050149 3.64214925 29.9948657 5.70483582 31.1936716"></polygon>
                <polygon id="Fill-75" fill="#DBDBDB" points="6.26650746 30.2206567 4.20441791 29.0218507 12.5865075 24.1824478 14.649194 25.3812537"></polygon>
                <path d="M6.06071642,34.6044179 L6.04997015,30.9942687 C6.04997015,30.8581493 6.14668657,30.687403 6.2678806,30.6175522 L14.6505672,25.7781493 C14.7048955,25.7465075 14.7520597,25.7447164 14.7896716,25.7608358 C14.8463881,25.688 14.9765373,25.7148657 15.0302687,25.6432239 C15.0750448,25.5841194 15.045194,25.4253134 15.0780299,25.3656119 C15.0750448,25.3632239 15.0732537,25.3566567 15.0690746,25.3536716 C14.965791,25.2814328 14.8159403,25.2850149 14.6493731,25.3811343 L6.26668657,30.2205373 C5.95504478,30.4002388 5.70370149,30.8360597 5.70489552,31.1936716 L5.71504478,34.8038209 C5.71564179,35.0856119 5.87385075,35.2318806 6.09176119,35.1948657 C6.11564179,35.0509851 6.13414925,34.8987463 6.17355224,34.7542687 C6.10728358,34.7488955 6.06071642,34.6963582 6.06071642,34.6044179" id="Fill-77" fill="#A9A9A9"></path>
                <path d="M5.70507463,31.1937313 L3.64238806,29.9949254 C3.64119403,29.6373134 3.89313433,29.2014925 4.2041791,29.021791 L6.26626866,30.220597 C5.95522388,30.4002985 5.7038806,30.8355224 5.70507463,31.1937313" id="Fill-79" fill="#EDEDED"></path>
            </g>
        </g>
    </g>
</svg>