<?xml version="1.0" encoding="UTF-8"?>
<svg width="40px" height="40px" viewBox="0 0 40 40" version="1.1" xmlns="http://www.w3.org/2000/svg" xmlns:xlink="http://www.w3.org/1999/xlink">
    <!-- Generator: Sketch 52.5 (67469) - http://www.bohemiancoding.com/sketch -->
    <title>Icon/Category/Transportation</title>
    <desc>Created with Sketch.</desc>
    <defs>
        <polygon id="path-1" points="0.838701754 0.541894737 9.75063158 0.541894737 9.75063158 3.85964912 0.838701754 3.85964912"></polygon>
        <polygon id="path-3" points="1.57473684 2.06105263 7.31017544 2.06105263 7.31017544 5.67870175 1.57473684 5.67870175"></polygon>
        <polygon id="path-5" points="0 0.903157895 26.0294737 0.903157895 26.0294737 26.9318596 0 26.9318596"></polygon>
    </defs>
    <g id="Icon/Category/Transportation" stroke="none" stroke-width="1" fill="none" fill-rule="evenodd">
        <g id="Group-56" transform="translate(7.000000, -2.000000)">
            <path d="M18.5328772,30.9906281 L17.4444561,36.5871193 C16.5567368,39.7327333 9.27357895,39.6632596 8.55954386,36.4597509 L7.43252632,30.9906281 L7.46340351,31.145014 L7.5097193,31.2955404 L7.56375439,31.4499263 L7.63708772,31.596593 L7.71814035,31.7471193 L7.81463158,31.893786 L7.92270175,32.036593 L8.04235088,32.1794 L8.1774386,32.3183474 L8.32024561,32.4534351 L8.48235088,32.5846632 L8.65217544,32.7120316 L8.84129825,32.8394 L9.03814035,32.9590491 L9.2465614,33.0709789 L9.45884211,33.1790491 L9.6865614,33.2794 L9.9142807,33.3720316 L10.1497193,33.4569439 L10.3890175,33.5341368 L10.6321754,33.6036105 L10.8869123,33.6653649 L11.1377895,33.7232596 L11.3925263,33.7695754 L11.6472632,33.8081719 C12.5234035,33.642207 13.4690175,33.642207 14.3490175,33.8043123 L14.5728772,33.7695754 L14.827614,33.7194 L15.0784912,33.6653649 L15.3293684,33.6036105 L15.5725263,33.5341368 L15.8156842,33.4569439 L16.0472632,33.3720316 L16.2788421,33.2794 L16.5027018,33.1790491 L16.7149825,33.0709789 L16.9234035,32.9590491 L17.1241053,32.8394 L17.3093684,32.7120316 L17.4830526,32.5846632 L17.6412982,32.4534351 L17.7879649,32.3183474 L17.919193,32.1794 L18.0427018,32.036593 L18.1469123,31.893786 L18.2472632,31.7471193 L18.3283158,31.596593 L18.3977895,31.4499263 L18.4518246,31.2955404 L18.4981404,31.145014 L18.5328772,30.9906281 Z" id="Fill-1" fill="#D6BE0D"></path>
            <g id="Group-5" transform="translate(7.719298, 35.377505)">
                <mask id="mask-2" fill="white">
                    <use xlink:href="#path-1"></use>
                </mask>
                <g id="Clip-4"></g>
                <polygon id="Fill-3" fill="#C3AF1A" mask="url(#mask-2)" points="9.75063158 1.08417544 9.75063158 1.52417544 9.72361404 1.64768421 9.68887719 1.76733333 9.64642105 1.89084211 9.58852632 2.01049123 9.51905263 2.13014035 9.4457193 2.24978947 9.35694737 2.36557895 9.26045614 2.47750877 9.15238596 2.5894386 9.03273684 2.69750877 8.90536842 2.80557895 8.76642105 2.90592982 8.61975439 3.0062807 8.46150877 3.10277193 8.29168421 3.19540351 8.12185965 3.28031579 7.94045614 3.36136842 7.75519298 3.43470175 7.57378947 3.50031579 7.37694737 3.56592982 7.18010526 3.61996491 6.97940351 3.67014035 6.77484211 3.71645614 6.5702807 3.75119298 6.36185965 3.78592982 6.14957895 3.81294737 5.93729825 3.83224561 5.72501754 3.84768421 5.50887719 3.85540351 5.29659649 3.85926316 5.08045614 3.85540351 4.86431579 3.84768421 4.65203509 3.83224561 4.43975439 3.81294737 4.22747368 3.78592982 4.02291228 3.75119298 3.81449123 3.71645614 3.60992982 3.67014035 3.40922807 3.61996491 3.21238596 3.56592982 3.01940351 3.50031579 2.8302807 3.43470175 2.64501754 3.36136842 2.46747368 3.28031579 2.29378947 3.19540351 2.12782456 3.10277193 1.96957895 3.0062807 1.81905263 2.90592982 1.68396491 2.80557895 1.55659649 2.69750877 1.43694737 2.5894386 1.32887719 2.47750877 1.23238596 2.36557895 1.14747368 2.24978947 1.0702807 2.13014035 1.00080702 2.01049123 0.94677193 1.89084211 0.90045614 1.76733333 0.861859649 1.64768421 0.838701754 1.52417544 0.838701754 1.08417544 0.861859649 1.20768421 0.90045614 1.32733333 0.94677193 1.45084211 1.00080702 1.57049123 1.0702807 1.69014035 1.14747368 1.80592982 1.23238596 1.92557895 1.32887719 2.03750877 1.43694737 2.1494386 1.55659649 2.25750877 1.68396491 2.36557895 1.81905263 2.46592982 1.96957895 2.5662807 2.12782456 2.66277193 2.29378947 2.75540351 2.46747368 2.84031579 2.64501754 2.92136842 2.8302807 2.99470175 3.01940351 3.06417544 3.21238596 3.12592982 3.40922807 3.17996491 3.60992982 3.23014035 3.81449123 3.27645614 4.02291228 3.31505263 4.22747368 3.34592982 4.43975439 3.37294737 4.65203509 3.39224561 4.86431579 3.40768421 5.08045614 3.41540351 5.29659649 3.41926316 5.50887719 3.41540351 5.72501754 3.40768421 5.93729825 3.39224561 6.14957895 3.37294737 6.36185965 3.34592982 6.5702807 3.31505263 6.77484211 3.27645614 6.97940351 3.23014035 7.18010526 3.17996491 7.37694737 3.12592982 7.57378947 3.06417544 7.75519298 2.99470175 7.94045614 2.92136842 8.12185965 2.84031579 8.29168421 2.75540351 8.46150877 2.66277193 8.61975439 2.5662807 8.76642105 2.46592982 8.90536842 2.36557895 9.03273684 2.25750877 9.15238596 2.1494386 9.26045614 2.03750877 9.35694737 1.92557895 9.4457193 1.80592982 9.51905263 1.69014035 9.58852632 1.57049123 9.64642105 1.45084211 9.68887719 1.32733333 9.72361404 1.20768421"></polygon>
            </g>
            <path d="M17.255614,36.8091228 L17.6531579,32 L17.6261404,32.0192982 L17.4408772,32.142807 L17.2401754,32.2624561 L17.0317544,32.3782456 L16.8194737,32.4824561 L16.595614,32.582807 L16.3678947,32.6754386 L16.1324561,32.7603509 L15.8892982,32.8375439 L15.6461404,32.9070175 L15.3991228,32.9687719 L15.144386,33.0266667 L14.8896491,33.0729825 L14.6657895,33.1077193 C14.5229825,33.0807018 14.3763158,33.0575439 14.2296491,33.0382456 L14.2064912,38.16 C15.4454386,38.017193 16.5917544,37.5694737 17.255614,36.8091228" id="Fill-6" fill="#EDD109"></path>
            <path d="M9.01961404,37.4076807 L8.47926316,32.5831193 L8.48312281,32.5831193 L8.65294737,32.7143474 L8.84207018,32.8378561 L9.03891228,32.9575053 L9.24733333,33.0694351 L9.45961404,33.1775053 L9.68733333,33.2778561 L9.91119298,33.3704877 L10.1504912,33.4554 L10.3859298,33.532593 L10.6329474,33.6020667 L10.8838246,33.6638211 L11.1385614,33.7217158 L11.3932982,33.7680316 L11.6480351,33.8066281 C11.748386,33.7911895 11.8487368,33.7718912 11.9529474,33.7564526 L12.1266316,38.8511895 C10.8452281,38.6968035 9.66417544,38.2143474 9.01961404,37.4076807" id="Fill-8" fill="#C3AF1A"></path>
            <path d="M8.94782456,28.736593 C11.1941404,27.4397509 14.8299298,27.4397509 17.0762456,28.736593 C19.3225614,30.0334351 19.3264211,32.1330842 17.0801053,33.4299263 C14.8337895,34.7267684 11.1941404,34.7267684 8.94782456,33.4299263 C6.69764912,32.1330842 6.70150877,30.0334351 8.94782456,28.736593" id="Fill-10" fill="#D6BE0D"></path>
            <polygon id="Fill-12" fill="#C3AF1A" points="18.7401404 31.4036105 18.7401404 31.9671193 18.7054035 32.1253649 18.6590877 32.2836105 18.601193 32.4418561 18.5278596 32.5962421 18.4429474 32.7506281 18.3425965 32.9011544 18.2306667 33.0478211 18.1071579 33.1944877 17.9720702 33.3372947 17.8176842 33.4762421 17.6555789 33.6113298 17.4780351 33.7425579 17.2850526 33.873786 17.0804912 33.9972947 16.8682105 34.1169439 16.6443509 34.225014 16.4127719 34.3292246 16.181193 34.4218561 15.9341754 34.5106281 15.6910175 34.5916807 15.4362807 34.6611544 15.1776842 34.7267684 14.9190877 34.7846632 14.6489123 34.8348386 14.3825965 34.8734351 14.1162807 34.9081719 13.838386 34.9390491 13.5643509 34.9544877 13.2903158 34.9660667 13.0162807 34.9699263 12.738386 34.9660667 12.4643509 34.9544877 12.1903158 34.9390491 11.9124211 34.9081719 11.6461053 34.8734351 11.3759298 34.8348386 11.109614 34.7846632 10.8510175 34.7267684 10.5924211 34.6611544 10.3376842 34.5916807 10.0906667 34.5106281 9.84750877 34.4218561 9.61207018 34.3292246 9.38435088 34.225014 9.16435088 34.1169439 8.94821053 33.9972947 8.74364912 33.873786 8.55066667 33.7425579 8.37312281 33.6113298 8.20715789 33.4762421 8.05663158 33.3372947 7.91768421 33.1944877 7.79417544 33.0478211 7.68610526 32.9011544 7.58575439 32.7506281 7.50084211 32.5962421 7.42364912 32.4418561 7.36961404 32.2836105 7.32329825 32.1253649 7.2885614 31.9671193 7.2885614 31.4036105 7.32329825 31.5618561 7.36961404 31.7201018 7.42364912 31.8744877 7.50084211 32.0327333 7.58575439 32.1832596 7.68610526 32.333786 7.79417544 32.4843123 7.91768421 32.6271193 8.05663158 32.7699263 8.20715789 32.9127333 8.37312281 33.0478211 8.55066667 33.1790491 8.74364912 33.3102772 8.94821053 33.433786 9.16435088 33.5534351 9.38435088 33.6615053 9.61207018 33.7618561 9.84750877 33.8583474 10.0906667 33.9471193 10.3376842 34.0281719 10.5924211 34.0976456 10.8510175 34.1632596 11.109614 34.2172947 11.3759298 34.2713298 11.6461053 34.3099263 11.9124211 34.3446632 12.1903158 34.3716807 12.4643509 34.3909789 12.738386 34.4025579 13.0162807 34.4064175 13.2903158 34.4025579 13.5643509 34.3909789 13.838386 34.3716807 14.1162807 34.3446632 14.3825965 34.3099263 14.6489123 34.2713298 14.9190877 34.2172947 15.1776842 34.1632596 15.4362807 34.0976456 15.6910175 34.0281719 15.9341754 33.9471193 16.181193 33.8583474 16.4127719 33.7618561 16.6443509 33.6615053 16.8682105 33.5534351 17.0804912 33.433786 17.2850526 33.3102772 17.4780351 33.1790491 17.6555789 33.0478211 17.8176842 32.9127333 17.9720702 32.7699263 18.1071579 32.6271193 18.2306667 32.4843123 18.3425965 32.333786 18.4429474 32.1832596 18.5278596 32.0327333 18.601193 31.8783474 18.6590877 31.7201018 18.7054035 31.5618561"></polygon>
            <path d="M9.03466667,28.7840667 C11.230807,27.5142421 14.7932632,27.5142421 16.9971228,28.7840667 C19.1971228,30.0538912 19.1971228,32.1149439 16.9971228,33.3809088 C14.7971228,34.654593 11.2269474,34.654593 9.03080702,33.3809088 C6.83080702,32.1110842 6.83466667,30.0538912 9.03466667,28.7840667" id="Fill-14" fill="#C3AF1A"></path>
            <path d="M9.30214035,28.9403825 C11.351614,27.7554702 14.6747719,27.7554702 16.7242456,28.9403825 C18.7737193,30.1252947 18.7775789,32.0435404 16.7281053,33.224593 C14.6786316,34.4095053 11.351614,34.4095053 9.30214035,33.224593 C7.25266667,32.0435404 7.25266667,30.1252947 9.30214035,28.9403825" id="Fill-16" fill="#D6BE0D"></path>
            <path d="M14.6844211,28.2109088 C15.4293333,28.3537158 16.1317895,28.5968737 16.7223158,28.9403825 C18.7756491,30.1252947 18.7795088,32.0435404 16.7261754,33.224593 C16.1317895,33.5719614 15.4293333,33.8112596 14.6844211,33.9579263 L14.6844211,28.2109088 Z" id="Fill-18" fill="#C6B00E"></path>
            <path d="M21.5217895,25.0016105 C21.5642456,24.9282772 21.6530175,24.9051193 21.7302105,24.9437158 C21.7996842,24.9861719 21.8228421,25.0788035 21.780386,25.1521368 L17.0445965,33.3577509 C17.0021404,33.4310842 16.9133684,33.4542421 16.8400351,33.411786 C16.7667018,33.3731895 16.7435439,33.2805579 16.7821404,33.2072246 L21.5217895,25.0016105 Z" id="Fill-20" fill="#3C59FC"></path>
            <path d="M18.0805263,27.4177509 C18.1229825,27.3444175 18.215614,27.3212596 18.2889474,27.3598561 C18.3584211,27.4061719 18.3815789,27.4988035 18.3391228,27.5682772 L17.4745614,29.0696807 C17.4321053,29.143014 17.3394737,29.1661719 17.2661404,29.1237158 C17.1966667,29.0851193 17.1696491,28.9924877 17.2082456,28.9191544 L18.0805263,27.4177509 Z" id="Fill-22" fill="#3C59FC"></path>
            <path d="M12.8603509,28.0526632 C12.8603509,27.9716105 12.9298246,27.8982772 13.0147368,27.8982772 C13.0996491,27.8982772 13.1652632,27.9716105 13.1652632,28.0526632 L13.1652632,34.1663474 C13.1652632,34.2474 13.0996491,34.3168737 13.0147368,34.3168737 C12.9298246,34.3168737 12.8603509,34.2474 12.8603509,34.1663474 L12.8603509,28.0526632 Z" id="Fill-24" fill="#3C59FC"></path>
            <path d="M4.24407018,25.150593 C4.20161404,25.0772596 4.22863158,24.9884877 4.30196491,24.9460316 C4.3714386,24.9035754 4.46407018,24.930593 4.50266667,25.0000667 L9.24617544,33.2056807 C9.28863158,33.279014 9.26161404,33.3716456 9.1882807,33.4141018 C9.11880702,33.4565579 9.02231579,33.4295404 8.9837193,33.356207 L4.24407018,25.150593 Z" id="Fill-26" fill="#3C59FC"></path>
            <path d="M7.68533333,27.5682772 C7.64287719,27.4949439 7.66989474,27.4061719 7.74322807,27.3598561 C7.81270175,27.3212596 7.90919298,27.3444175 7.94778947,27.4177509 L8.81621053,28.9191544 C8.85866667,28.9924877 8.83164912,29.0851193 8.75831579,29.1237158 C8.68884211,29.1661719 8.59235088,29.143014 8.55375439,29.0696807 L7.68533333,27.5682772 Z" id="Fill-28" fill="#3C59FC"></path>
            <g id="Group-32" transform="translate(11.578947, 0.640663)">
                <mask id="mask-4" fill="white">
                    <use xlink:href="#path-3"></use>
                </mask>
                <g id="Clip-31"></g>
                <path d="M1.59403509,2.38449123 C1.59017544,2.54659649 1.58631579,2.78203509 1.58631579,3.12554386 C1.58245614,3.57326316 1.57859649,4.20624561 1.57473684,5.11326316 C3.18421053,4.22554386 4.70491228,3.77782456 6.03649123,3.73536842 C6.48421053,3.71992982 6.91263158,3.75080702 7.31017544,3.82414035 C5.60035088,2.92484211 3.65508772,2.40764912 1.59403509,2.38449123" id="Fill-30" fill="#85C3D3" mask="url(#mask-4)"></path>
            </g>
            <path d="M12.8452982,28.5389789 C12.8452982,28.3691544 12.8414386,27.9870491 12.8414386,27.6435404 C12.8375789,27.0452947 12.8337193,26.1498561 12.8298596,24.8684526 C12.8221404,22.1744175 12.8182807,18.8744175 12.8182807,15.7172246 C12.8182807,12.5561719 12.8221404,9.25617193 12.8298596,6.56213684 L12.8298596,6.31125965 C10.2747719,7.84354035 7.95898246,10.2365228 6.27231579,12.8881018 C4.53547368,15.6207333 3.45863158,18.6312596 3.45863158,21.2674 C3.45863158,22.4098561 3.66319298,23.3863474 4.0337193,24.1814351 C5.32284211,27.0452947 10.1358246,28.5698561 12.8452982,28.5389789" id="Fill-33" fill="#85C3D3"></path>
            <path d="M0.768842105,12.3670491 C1.42884211,10.9852947 2.48252632,9.75020702 3.82954386,8.73125965 C6.04884211,7.05617193 9.06708772,5.98704912 12.4172632,5.87125965 C10.9583158,5.10704912 9.58814035,4.72494386 8.38392982,4.68248772 C7.44989474,4.65161053 6.61621053,4.82915439 5.90989474,5.1996807 C5.23831579,5.65125965 4.61305263,6.17231228 4.04182456,6.7396807 C2.50182456,8.2796807 1.35550877,10.2095053 0.768842105,12.3670491" id="Fill-35" fill="#85C3D3"></path>
            <path d="M25.7056491,15.5840667 C25.6554737,13.0135404 24.2544211,10.6823123 22.0042456,8.99178596 C19.8389825,7.35529474 16.8940702,6.30932982 13.6210877,6.19354035 C16.1144211,7.75669825 18.3530175,10.1072246 20.0049474,12.7047684 C21.7726667,15.4875754 22.8726667,18.5559965 22.8726667,21.2538912 C22.8726667,22.4426632 22.6565263,23.4654702 22.2667018,24.303014 C22.2396842,24.3724877 22.2049474,24.4381018 22.1663509,24.5075754 C24.3586316,22.2265228 25.7056491,19.1272246 25.7056491,15.7152947 L25.7056491,15.5840667 Z" id="Fill-37" fill="#85C3D3"></path>
            <g id="Group-41" transform="translate(0.000000, 1.798558)">
                <mask id="mask-6" fill="white">
                    <use xlink:href="#path-5"></use>
                </mask>
                <g id="Clip-40"></g>
                <path d="M13.1729825,1.22659649 C15.2340351,1.24975439 17.1792982,1.76694737 18.8891228,2.66624561 C18.5031579,2.59291228 18.0940351,2.56589474 17.6617544,2.57361404 L17.6578947,2.57361404 L17.6347368,2.57747368 L17.6154386,2.57747368 C16.2838596,2.61992982 14.7631579,3.06764912 13.1536842,3.95536842 C13.1575439,3.04835088 13.1614035,2.41536842 13.1652632,1.96764912 C13.1652632,1.62414035 13.1691228,1.38870175 13.1729825,1.22659649 Z M12.8449123,26.6076491 C10.78,26.5806316 8.83087719,26.0595789 7.11333333,25.1564211 C5.87824561,24.508 4.63929825,23.6858947 4.03333333,22.3813333 C3.66280702,21.5862456 3.45824561,20.6097544 3.45824561,19.4672982 C3.45824561,16.8311579 4.53508772,13.8206316 6.27192982,11.0918596 C7.95859649,8.43642105 10.274386,6.04729825 12.8294737,4.51115789 L12.8294737,4.76203509 C12.8217544,7.45607018 12.8178947,10.7560702 12.8178947,13.9171228 C12.8178947,17.0743158 12.8217544,20.3743158 12.8294737,23.0722105 C12.8333333,24.353614 12.837193,25.245193 12.8410526,25.8434386 C12.8410526,26.190807 12.8449123,26.4378246 12.8449123,26.6076491 Z M22.22,23.1185263 C27.2992982,18.0353684 27.2992982,9.79501754 22.22,4.7157193 C21.8919298,4.38764912 21.5445614,4.07887719 21.185614,3.78940351 C20.9733333,3.58870175 20.7378947,3.41115789 20.4870175,3.26063158 C18.3719298,1.77466667 15.7975439,0.902385965 13.0147368,0.902385965 C10.3207018,0.902385965 7.81578947,1.72063158 5.73929825,3.12168421 C5.38035088,3.31466667 5.0522807,3.55010526 4.75894737,3.83185965 L4.77052632,3.84729825 C4.43473684,4.12133333 4.11438596,4.41080702 3.80947368,4.7157193 C1.45894737,7.07010526 0,10.3237895 0,13.9171228 C0,17.5104561 1.45894737,20.7641404 3.80947368,23.1185263 C6.1677193,25.4729123 9.42140351,26.9318596 13.0147368,26.9318596 C16.6080702,26.9318596 19.8617544,25.4729123 22.22,23.1185263 Z M0.768070175,10.5669474 C1.42807018,9.18905263 2.48175439,7.95010526 3.82877193,6.93501754 C6.04807018,5.25607018 9.07017544,4.18694737 12.4164912,4.07115789 C10.9575439,3.31080702 9.58736842,2.92484211 8.38315789,2.88624561 C7.45298246,2.85536842 6.6154386,3.02905263 5.90912281,3.39957895 C5.23754386,3.85115789 4.6122807,4.37221053 4.04105263,4.9434386 C2.50105263,6.47957895 1.35473684,8.40940351 0.768070175,10.5669474 Z M25.7052632,13.7858947 C25.6550877,11.2153684 24.2540351,8.88414035 22.0038596,7.18975439 C19.8424561,5.55712281 16.8936842,4.51115789 13.6207018,4.39536842 C16.1140351,5.95852632 18.3526316,8.30905263 20.0084211,10.9065965 C21.7761404,13.6894035 22.8722807,16.7578246 22.8722807,19.4557193 C22.8722807,20.6444912 22.6561404,21.6672982 22.2663158,22.5048421 C22.2392982,22.5743158 22.2045614,22.6399298 22.1659649,22.7055439 C24.3582456,20.4283509 25.7052632,17.3290526 25.7052632,13.9171228 L25.7052632,13.7858947 Z" id="Fill-39" fill="#3C59FC" mask="url(#mask-6)"></path>
            </g>
            <path d="M13.1617895,4.2899614 L13.1540702,5.75276842 C14.223193,5.16610175 15.2537193,4.76855789 16.2147719,4.55627719 C15.4158246,4.37101404 14.586,4.27452281 13.7291579,4.27452281 C13.5400351,4.27452281 13.3509123,4.27838246 13.1617895,4.2899614" id="Fill-42" fill="#98E0F1"></path>
            <path d="M12.8337193,26.1641368 L12.8298596,24.8711544 C12.8221404,22.1732596 12.8182807,18.8732596 12.8182807,15.7160667 C12.8182807,12.555014 12.8221404,9.25501404 12.8298596,6.56097895 L12.8298596,6.31010175 C10.2747719,7.84238246 7.95898246,10.2353649 6.27231579,12.8908035 C4.91757895,15.0136105 3.96810526,17.3101018 3.61301754,19.4676456 C5.16073684,23.1613298 8.66915789,25.8283474 12.8337193,26.1641368" id="Fill-44" fill="#98E0F1"></path>
            <path d="M6.10596491,7.35992632 C7.95087719,6.48378596 10.1045614,5.95115439 12.4164912,5.87010175 C11.5750877,5.43010175 10.7684211,5.11747018 10.0042105,4.92448772 C8.53368421,5.4571193 7.20596491,6.29466316 6.10596491,7.35992632" id="Fill-46" fill="#98E0F1"></path>
            <path d="M23.5986667,10.4580667 C23.1316491,9.92929474 22.5990175,9.43525965 22.0046316,8.9914 C19.8393684,7.35490877 16.8944561,6.30894386 13.6214737,6.19315439 C16.114807,7.75631228 18.3534035,10.1068386 20.0053333,12.7043825 C21.7730526,15.4871895 22.8730526,18.5556105 22.8730526,21.2535053 L22.8730526,21.2959614 C24.0232281,19.5591193 24.694807,17.4749088 24.694807,15.2363123 C24.694807,13.5226281 24.3011228,11.9015754 23.5986667,10.4580667" id="Fill-48" fill="#98E0F1"></path>
            <path d="M13.7322456,26.2031193 C17.5455789,26.2031193 20.9073333,24.2501368 22.8718947,21.2936456 L22.8718947,21.2550491 C22.8718947,18.5571544 21.7757544,15.4848737 20.0080351,12.7020667 C18.3522456,10.1083825 16.1136491,7.75785614 13.6203158,6.19469825 C16.8932982,6.31048772 19.8420702,7.35645263 22.0034737,8.98908421 C22.6017193,9.43680351 23.1304912,9.92697895 23.5975088,10.4557509 C22.1732982,7.51855789 19.4715439,5.3108386 16.214,4.55820702 C15.2529474,4.77048772 14.2262807,5.16417193 13.1532982,5.7508386 L13.1610175,4.29189123 C12.0571579,4.34592632 10.999614,4.56592632 10.0038246,4.92487368 C10.7680351,5.11785614 11.5747018,5.43048772 12.4161053,5.87048772 C10.1041754,5.95154035 7.95049123,6.48417193 6.10557895,7.36031228 C4.04838596,9.35575088 2.76698246,12.1462772 2.76698246,15.2378561 C2.76698246,16.7354 3.06803509,18.1673298 3.61610526,19.4680316 C3.96733333,17.3104877 4.91680702,15.0139965 6.27154386,12.8911895 C7.96207018,10.2357509 10.274,7.84276842 12.8290877,6.31048772 L12.8290877,6.56136491 C12.8213684,9.2554 12.8175088,12.5554 12.8175088,15.7164526 C12.8175088,18.8736456 12.8213684,22.1736456 12.8290877,24.8715404 L12.8329474,26.1645228 C13.1301404,26.1876807 13.431193,26.2031193 13.7322456,26.2031193" id="Fill-50" fill="#4C66FA"></path>
            <path d="M21.450386,8.59424211 C20.5395088,7.98441754 19.5128421,7.47494386 18.3974035,7.08125965 C17.5096842,7.03494386 16.6875789,7.32055789 16.0468772,7.91108421 L15.9812632,7.96897895 C17.5174035,9.32757544 18.8952982,10.960207 20.0068772,12.7047684 C20.6900351,13.7777509 21.2689825,14.8931895 21.7282807,16.0124877 C24.1482807,14.8854702 23.7700351,11.5352947 22.0949474,9.33915439 C21.8865263,9.0651193 21.6742456,8.81810175 21.450386,8.59424211" id="Fill-52" fill="#ADF3FF"></path>
            <path d="M18.3974035,7.08087368 C19.4009123,7.13490877 20.481614,7.62508421 21.450386,8.59385614 C20.5433684,7.98403158 19.5128421,7.47455789 18.3974035,7.08087368 M21.7282807,16.0121018 C21.2728421,14.8928035 20.6900351,13.7773649 20.0068772,12.7043825 C18.8952982,10.9598211 17.5174035,9.32718947 15.9812632,7.96859298 C15.2247719,8.70192632 14.7384561,9.86754035 14.7384561,11.4075404 C14.7384561,14.1633298 16.9770526,16.4019263 19.7367018,16.4019263 C20.4391579,16.4019263 21.0374035,16.2938561 21.5275789,16.1008737 C21.5970526,16.0738561 21.6626667,16.0429789 21.7282807,16.0121018" id="Fill-54" fill="#5E75FB"></path>
        </g>
    </g>
</svg>