<?xml version="1.0" encoding="UTF-8"?>
<svg width="40px" height="40px" viewBox="0 0 40 40" version="1.1" xmlns="http://www.w3.org/2000/svg" xmlns:xlink="http://www.w3.org/1999/xlink">
    <!-- Generator: Sketch 52.5 (67469) - http://www.bohemiancoding.com/sketch -->
    <title>Icon/Category/Home</title>
    <desc>Created with Sketch.</desc>
    <defs>
        <polygon id="path-1" points="0.638181818 0.217818182 22.4727273 0.217818182 22.4727273 19.2032727 0.638181818 19.2032727"></polygon>
    </defs>
    <g id="Icon/Category/Home" stroke="none" stroke-width="1" fill="none" fill-rule="evenodd">
        <g id="Group-28" transform="translate(2.000000, 3.000000)">
            <g id="Group-27">
                <polygon id="Fill-1" fill="#1C3C50" points="0 26.6912364 15.4145455 35.5930545 34.0654545 24.8403273 18.6472727 15.9385091"></polygon>
                <polygon id="Fill-2" fill="#1C3C50" points="0 27.8366909 15.4145455 36.7348727 15.4145455 35.5930545 0 26.6912364"></polygon>
                <polygon id="Fill-3" fill="#2A556F" points="15.4145455 35.5930545 15.4145455 36.7348727 34.0618182 25.9785091 34.0654545 24.8403273"></polygon>
                <polygon id="Fill-4" fill="#CFD2D2" points="4.58836364 27.0643273 15.3774545 33.2934182 15.3847273 23.7770545 4.59563636 17.5479636"></polygon>
                <polygon id="Fill-5" fill="#CFD2D2" points="3.03054545 18.4505091 13.8232727 24.6832364 22.7069091 9.18505455 11.9141818 2.95596364"></polygon>
                <polygon id="Fill-6" fill="#E5EBEC" points="13.824 24.6817818 15.384 23.7799636 15.3767273 33.2926909 30.0821818 24.8126909 30.0821818 15.2999636 31.6458182 14.4017818 22.7076364 9.1836"></polygon>
                <polygon id="Fill-7" fill="#9A9A9A" points="20.208 30.5094182 25.0261818 27.7312364 25.0261818 18.6148727 20.208 21.3894182"></polygon>
                <polygon id="Fill-8" fill="#676565" points="20.6534545 30.2537818 24.5807273 27.9883273 24.5807273 19.4756 20.6534545 21.7374182"></polygon>
                <polygon id="Fill-9" fill="#EDD109" points="20.6541818 21.7396 20.6541818 29.6741455 24.076 27.6959636 24.076 19.7614182"></polygon>
                <path d="M9.11054545,22.9559636 L7.19781818,21.8505091 L7.18327273,21.8432364 L7.17236364,21.8323273 L7.16145455,21.8214182 L7.15418182,21.8068727 L7.14327273,21.7923273 L7.13963636,21.7777818 L7.136,21.7596 L7.136,21.7450545 L7.136,20.2541455 L7.136,20.2396 L7.13963636,20.2286909 L7.14327273,20.2214182 L7.15418182,20.2141455 L6.82690909,20.4068727 L6.816,20.4105091 L6.81236364,20.4214182 L6.80872727,20.4323273 L6.80509091,20.4468727 L6.80509091,21.9341455 L6.80872727,21.9523273 L6.81236364,21.9668727 L6.816,21.9777818 L6.82690909,21.9959636 L6.83418182,22.0068727 L6.84509091,22.0214182 L6.856,22.0323273 L6.87054545,22.0432364 L8.78327273,23.1486909 L8.79418182,23.1523273 L8.80872727,23.1559636 L8.816,23.1559636 L8.82690909,23.1523273 L9.15418182,22.9632364 L9.14327273,22.9668727 L9.136,22.9668727 L9.12145455,22.9632364 L9.11054545,22.9559636 Z M9.11054545,26.4032364 L7.19781818,25.2977818 L7.18327273,25.2905091 L7.17236364,25.2796 L7.16145455,25.2650545 L7.15418182,25.2505091 L7.14327273,25.2359636 L7.13963636,25.2214182 L7.136,25.2032364 L7.136,25.1886909 L7.136,22.2614182 L7.136,22.2505091 L7.13963636,22.2359636 L7.14327273,22.2286909 L7.15418182,22.2214182 L6.82690909,22.4105091 L6.816,22.4177818 L6.81236364,22.4250545 L6.80872727,22.4359636 L6.80509091,22.4505091 L6.80509091,25.3814182 L6.80872727,25.3959636 L6.81236364,25.4105091 L6.816,25.4250545 L6.82690909,25.4432364 L6.83418182,25.4541455 L6.84509091,25.4650545 L6.856,25.4796 L6.87054545,25.4868727 L8.78327273,26.5923273 L8.79418182,26.5959636 L8.80872727,26.5996 L8.816,26.5996 L8.82690909,26.5959636 L9.15418182,26.4068727 L9.14327273,26.4105091 L9.136,26.4105091 L9.12145455,26.4068727 L9.11054545,26.4032364 Z M9.18690909,21.7668727 L9.17963636,21.7741455 L9.17236364,21.7850545 L9.16872727,21.7959636 L9.16872727,21.8105091 L9.16872727,26.7414182 L9.16872727,26.7559636 L9.17236364,26.7741455 L9.17963636,26.7886909 L9.18690909,26.8032364 L9.19418182,26.8177818 L9.20509091,26.8286909 L9.216,26.8396 L9.23054545,26.8505091 L11.1432727,27.9559636 L11.1541818,27.9596 L11.1650909,27.9632364 L11.176,27.9632364 L11.1869091,27.9596 L11.5141818,27.7668727 L11.5069091,27.7741455 L11.496,27.7741455 L11.4850909,27.7705091 L11.4705455,27.7632364 L9.55781818,26.6614182 L9.54690909,26.6541455 L9.53236364,26.6432364 L9.52509091,26.6286909 L9.51418182,26.6141455 L9.50690909,26.5996 L9.49963636,26.5850545 L9.496,26.5668727 L9.496,26.5523273 L9.496,21.6177818 L9.496,21.6032364 L9.49963636,21.5923273 L9.50690909,21.5850545 L9.51418182,21.5777818 L9.18690909,21.7668727 Z M9.55781818,21.2105091 L11.6087273,22.3923273 L11.6341818,22.4105091 L11.6596364,22.4250545 L11.6814545,22.4468727 L11.7032727,22.4686909 L11.7250909,22.4941455 L11.7469091,22.5232364 L11.7650909,22.5523273 L11.7832727,22.5777818 L11.7978182,22.6068727 L11.8123636,22.6396 L11.8269091,22.6686909 L11.8378182,22.7014182 L11.8450909,22.7305091 L11.8487273,22.7596 L11.856,22.7923273 L11.856,22.8214182 L11.856,28.0723273 L11.856,28.1014182 L11.8487273,28.1305091 L11.8450909,28.1523273 L11.8378182,28.1777818 L11.8269091,28.1923273 L11.8123636,28.2068727 L11.7978182,28.2214182 L11.7832727,28.2323273 L11.456,28.4250545 L11.4705455,28.4141455 L11.4850909,28.3996 L11.496,28.3814182 L11.5105455,28.3632364 L11.5178182,28.3414182 L11.5250909,28.3196 L11.5250909,28.2941455 L11.5287273,28.2650545 L11.5287273,23.0141455 L11.5250909,22.9814182 L11.5250909,22.9523273 L11.5178182,22.9196 L11.5105455,22.8868727 L11.496,22.8614182 L11.4850909,22.8286909 L11.4705455,22.7959636 L11.456,22.7668727 L11.4378182,22.7377818 L11.4196364,22.7123273 L11.3978182,22.6868727 L11.376,22.6614182 L11.3541818,22.6396 L11.3287273,22.6177818 L11.3069091,22.5996 L11.2814545,22.5814182 L9.23054545,21.3959636 L8.78327273,21.1414182 L6.73236364,19.9559636 L6.70690909,19.9450545 L6.68145455,19.9341455 L6.65963636,19.9268727 L6.63418182,19.9232364 L6.61236364,19.9232364 L6.59418182,19.9268727 L6.576,19.9305091 L6.55781818,19.9414182 L6.88509091,19.7486909 L6.90327273,19.7414182 L6.92145455,19.7341455 L6.93963636,19.7341455 L6.96509091,19.7341455 L6.98690909,19.7377818 L7.00872727,19.7414182 L7.03418182,19.7523273 L7.05963636,19.7668727 L9.11054545,20.9486909 L9.55781818,21.2105091 Z" id="Fill-10" fill="#D6BE0D"></path>
                <g id="Group-26" transform="translate(0.000000, 0.371600)">
                    <path d="M9.384,21.3094545 L9.384,26.244 C9.384,26.284 9.40945455,26.3349091 9.44581818,26.3530909 L11.3585455,27.4585455 C11.3949091,27.4767273 11.4203636,27.4621818 11.4203636,27.4221818 L11.4203636,22.4876364 C11.4203636,22.4476364 11.3949091,22.4003636 11.3585455,22.3785455 L9.44581818,21.2730909 C9.40945455,21.2549091 9.384,21.2694545 9.384,21.3094545" id="Fill-11" fill="#0093FF"></path>
                    <path d="M9.05927273,26.0610909 L9.05927273,23.1301818 C9.05927273,23.0938182 9.03381818,23.0429091 8.99745455,23.0247273 L7.08472727,21.9156364 C7.052,21.8974545 7.02290909,21.9156364 7.02290909,21.9556364 L7.02290909,24.8865455 C7.02290909,24.9265455 7.052,24.9701818 7.08472727,24.992 L8.99745455,26.0974545 C9.03381818,26.1156364 9.05927273,26.1010909 9.05927273,26.0610909" id="Fill-13" fill="#0093FF"></path>
                    <path d="M9.05927273,22.6163636 L9.05927273,21.1254545 C9.05927273,21.0854545 9.03381818,21.0345455 8.99745455,21.02 L7.08472727,19.9145455 C7.052,19.8927273 7.02290909,19.9072727 7.02290909,19.9509091 L7.02290909,21.4381818 C7.02290909,21.4781818 7.052,21.5254545 7.08472727,21.5472727 L8.99745455,22.6527273 C9.03381818,22.6709091 9.05927273,22.6563636 9.05927273,22.6163636" id="Fill-15" fill="#0093FF"></path>
                    <path d="M9.16763636,21.4374545 L9.16763636,26.3683636 C9.16763636,26.4083636 9.19309091,26.4592727 9.22945455,26.4810909 L11.1421818,27.5829091 C11.1785455,27.6010909 11.204,27.5865455 11.204,27.5501818 L11.204,22.612 C11.204,22.572 11.1785455,22.5247273 11.1421818,22.5065455 L9.22945455,21.3974545 C9.19309091,21.3792727 9.16763636,21.3938182 9.16763636,21.4374545 Z M8.844,26.1865455 L8.844,23.2556364 C8.844,23.2156364 8.81490909,23.1683636 8.78218182,23.1501818 L6.86945455,22.0447273 C6.83309091,22.0229091 6.80763636,22.0410909 6.80763636,22.0810909 L6.80763636,25.0083636 C6.80763636,25.0483636 6.83309091,25.0956364 6.86945455,25.1174545 L8.78218182,26.2192727 C8.81490909,26.2374545 8.844,26.2229091 8.844,26.1865455 Z M8.844,22.7392727 L8.844,21.2483636 C8.844,21.212 8.81490909,21.1610909 8.78218182,21.1429091 L6.86945455,20.0374545 C6.83309091,20.0156364 6.80763636,20.0338182 6.80763636,20.0738182 L6.80763636,21.5610909 C6.80763636,21.6047273 6.83309091,21.652 6.86945455,21.6701818 L8.78218182,22.7756364 C8.81490909,22.7938182 8.844,22.7792727 8.844,22.7392727 Z M9.22945455,21.0265455 L11.2803636,22.212 C11.3494545,22.252 11.4112727,22.3174545 11.4549091,22.3974545 C11.5021818,22.4738182 11.5276364,22.5647273 11.5276364,22.6410909 L11.5276364,27.892 C11.5276364,27.972 11.4985455,28.0265455 11.4549091,28.052 C11.4112727,28.0774545 11.3494545,28.0738182 11.2803636,28.0338182 L9.22945455,26.852 L8.78218182,26.5938182 L6.73127273,25.412 C6.66581818,25.372 6.60036364,25.2992727 6.55672727,25.2265455 L6.55672727,25.2229091 C6.51309091,25.1501818 6.484,25.0592727 6.484,24.9792727 L6.484,19.7283636 C6.484,19.652 6.51309091,19.5938182 6.55672727,19.5683636 C6.60036364,19.5429091 6.66581818,19.5429091 6.73127273,19.5829091 L8.78218182,20.7683636 L9.22945455,21.0265455 Z" id="Fill-17" fill="#EDD109"></path>
                    <polygon id="Fill-19" fill="#F1402D" points="23.4341818 9.40618182 10.9178182 2.18072727 20.216 7.60254545 32.7323636 14.8316364"></polygon>
                    <polygon id="Fill-21" fill="#FF3440" points="23.4305455 7.492 10.9141818 0.266545455 0.0269090909 19.2483636 12.5469091 26.4774545"></polygon>
                    <g id="Group-25" transform="translate(11.909091, 7.272727)">
                        <mask id="mask-2" fill="white">
                            <use xlink:href="#path-1"></use>
                        </mask>
                        <g id="Clip-24"></g>
                        <polygon id="Fill-23" fill="#C2231D" mask="url(#mask-2)" points="20.8236364 7.55963636 22.4745455 6.60690909 11.5181818 0.217818182 0.638181818 19.2032727 2.28545455 18.2505455 11.5254545 2.13418182"></polygon>
                    </g>
                </g>
            </g>
        </g>
    </g>
</svg>