<?xml version="1.0" encoding="UTF-8"?>
<svg width="40px" height="40px" viewBox="0 0 40 40" version="1.1" xmlns="http://www.w3.org/2000/svg" xmlns:xlink="http://www.w3.org/1999/xlink">
    <!-- Generator: Sketch 52.5 (67469) - http://www.bohemiancoding.com/sketch -->
    <title>Icon/Category/Photo</title>
    <desc>Created with Sketch.</desc>
    <defs>
        <polygon id="path-1" points="1.3884255 1.631 10.6365105 1.631 10.6365105 7.01855 1.3884255 7.01855"></polygon>
        <polygon id="path-3" points="0 3.493 10.1119095 3.493 10.1119095 19.929 0 19.929"></polygon>
        <polygon id="path-5" points="0 -0.0004 7.069986 -0.0004 7.069986 15.4311 0 15.4311"></polygon>
    </defs>
    <g id="Icon/Category/Photo" stroke="none" stroke-width="1" fill="none" fill-rule="evenodd">
        <g id="Group-84" transform="translate(4.000000, -1.000000)">
            <path d="M2.685375,19.66785 L20.204415,9.46185 L20.47122,9.33585 L20.7207,9.28335 L20.94939,9.29385 L21.14343,9.37085 L26.649315,12.58385 L26.45181,12.50685 L26.226585,12.49635 L25.977105,12.54885 L25.7103,12.67135 L8.19126,22.88085 L8.09424,22.94035 L8.000685,23.00685 L7.90713,23.08035 L7.81704,23.16085 L7.730415,23.24485 L7.647255,23.33585 L7.56063,23.43035 L7.4844,23.53185 L7.40817,23.63335 L7.33887,23.74185 L7.26957,23.85035 L7.2072,23.96235 L7.148295,24.07785 L7.092855,24.19335 L7.044345,24.31235 L6.9993,24.43135 L6.99237,39.00535 L7.08939,39.13485 L7.20027,39.23635 L1.694385,36.02335 L1.58004,35.92535 L1.486485,35.79585 L1.493415,21.73635 C1.493415,20.82985 1.930005,20.14035 2.685375,19.66785" id="Fill-1" fill="#24465C"></path>
            <path d="M8.1673515,22.89625 L25.6863915,12.69025 C26.4209715,12.26325 27.0169515,12.61325 27.0169515,13.47075 L27.0100215,26.64825 C27.0100215,27.50225 26.4140415,28.55225 25.6794615,28.97925 L8.1604215,39.18525 C7.6441365,39.48975 7.1902215,39.40225 6.9684615,39.02425 L6.9753915,24.44675 C7.1971515,23.81325 7.6510665,23.19725 8.1673515,22.89625" id="Fill-3" fill="#142B39"></path>
            <polygon id="Fill-5" fill="#D6BE0D" points="9.1181475 19.2405 9.1181475 20.056 9.1077525 20.112 9.0904275 20.1645 9.0731025 20.2135 9.0488475 20.266 9.0211275 20.315 8.9899425 20.3675 8.9518275 20.4165 8.9102475 20.4655 8.8652025 20.511 8.8166925 20.5565 8.7612525 20.602 8.7023475 20.6475 8.6399775 20.6895 8.5741425 20.7315 8.5013775 20.77 8.4286125 20.805 8.3523825 20.8435 8.2761525 20.8715 8.1964575 20.903 8.1167625 20.9275 8.0336025 20.952 7.9469775 20.973 7.8638175 20.9905 7.7737275 21.008 7.6871025 21.022 7.6004775 21.0325 7.5069225 21.043 7.4168325 21.05 7.3267425 21.0535 7.2366525 21.0535 7.1465625 21.0535 7.0530075 21.05 6.9663825 21.043 6.8762925 21.0325 6.7862025 21.022 6.6995775 21.008 6.6094875 20.9905 6.5263275 20.973 6.4397025 20.952 6.3565425 20.9275 6.2768475 20.903 6.1936875 20.8715 6.1174575 20.8435 6.0412275 20.805 5.9684625 20.77 5.8991625 20.7315 5.8333275 20.6895 5.7674925 20.6475 5.7120525 20.602 5.6566125 20.5565 5.6046375 20.511 5.5630575 20.4655 5.5214775 20.4165 5.4833625 20.3675 5.4487125 20.315 5.4244575 20.266 5.4002025 20.2135 5.3794125 20.1645 5.3655525 20.112 5.3551575 20.056 5.3551575 19.2405 5.3655525 19.293 5.3794125 19.3455 5.4002025 19.398 5.4244575 19.4505 5.4487125 19.4995 5.4833625 19.5485 5.5214775 19.601 5.5630575 19.65 5.6046375 19.6955 5.6566125 19.741 5.7120525 19.7865 5.7674925 19.832 5.8333275 19.874 5.8991625 19.916 5.9684625 19.9545 6.0412275 19.9895 6.1174575 20.0245 6.1936875 20.056 6.2768475 20.084 6.3565425 20.112 6.4397025 20.1365 6.5263275 20.1575 6.6094875 20.1785 6.6995775 20.1925 6.7862025 20.2065 6.8762925 20.217 6.9663825 20.2275 7.0530075 20.2345 7.1465625 20.238 7.2366525 20.238 7.3267425 20.238 7.4168325 20.2345 7.5069225 20.2275 7.6004775 20.217 7.6871025 20.2065 7.7737275 20.1925 7.8638175 20.1785 7.9469775 20.1575 8.0336025 20.1365 8.1167625 20.112 8.1964575 20.084 8.2761525 20.056 8.3523825 20.0245 8.4286125 19.9895 8.5013775 19.9545 8.5741425 19.916 8.6399775 19.874 8.7023475 19.832 8.7612525 19.7865 8.8166925 19.741 8.8652025 19.6955 8.9102475 19.65 8.9518275 19.601 8.9899425 19.5485 9.0211275 19.4995 9.0488475 19.4505 9.0731025 19.398 9.0904275 19.3455 9.1077525 19.293"></polygon>
            <path d="M5.900202,18.35535 C6.638247,17.92485 7.837137,17.92485 8.571717,18.35535 C9.309762,18.78585 9.309762,19.48585 8.571717,19.91635 C7.837137,20.34685 6.638247,20.34685 5.900202,19.91635 C5.158692,19.48235 5.158692,18.78585 5.900202,18.35535" id="Fill-7" fill="#EDD109"></path>
            <polygon id="Fill-9" fill="#C4CDD2" points="23.33331 6.67095 21.729015 5.73645 16.41717 8.83395 18.021465 9.76845"></polygon>
            <polygon id="Fill-11" fill="#818181" points="22.7480715 6.67095 21.7293615 6.07945 17.0031015 8.83395 18.0218115 9.42545"></polygon>
            <polygon id="Fill-13" fill="#1C3C50" points="17.218971 9.29945 15.936921 8.55395 15.936921 13.99295 17.215506 14.74195"></polygon>
            <polygon id="Fill-15" fill="#142B39" points="22.531509 6.20265 17.219664 9.30015 17.216199 14.73915 22.528044 11.64515"></polygon>
            <polygon id="Fill-17" fill="#ABA4A4" points="22.7480715 6.67095 21.7293615 6.07945 21.7293615 7.26245"></polygon>
            <polygon id="Fill-19" fill="#131313" points="22.5990765 6.75985 22.5990765 6.72835 22.1139765 6.44835 17.6337315 9.05585 17.6337315 9.19935 18.0218115 9.42685"></polygon>
            <polygon id="Fill-21" fill="#4C4C4C" points="22.5990765 6.7273 22.1139765 6.4473 17.6337315 9.0583 18.1153665 9.3383"></polygon>
            <polygon id="Fill-23" fill="#E5EBEC" points="18.1798155 8.98165 15.2484255 7.27365 21.5685855 3.59165 24.4965105 5.30315"></polygon>
            <polygon id="Fill-25" fill="#2243FB" points="18.1798155 12.1348 15.2484255 10.4268 15.2484255 7.2733 18.1798155 8.9813"></polygon>
            <polygon id="Fill-27" fill="#1C3C50" points="18.1798155 8.98165 15.2484255 7.27365 15.2484255 6.17815 18.1798155 7.88965"></polygon>
            <g id="Group-31" transform="translate(13.860000, 0.869350)">
                <mask id="mask-2" fill="white">
                    <use xlink:href="#path-1"></use>
                </mask>
                <g id="Clip-30"></g>
                <polygon id="Fill-29" fill="#24465C" mask="url(#mask-2)" points="4.3198155 7.01855 1.3884255 5.31055 7.7085855 1.62855 10.6365105 3.34005"></polygon>
            </g>
            <polygon id="Fill-32" fill="#3C59FC" points="18.1798155 12.1348 18.1798155 8.9813 24.4965105 5.3028 24.4930455 8.4528"></polygon>
            <polygon id="Fill-34" fill="#142B39" points="18.1798155 7.8879 24.4965105 4.2094 24.4965105 5.3014 18.1798155 8.9799"></polygon>
            <polygon id="Fill-36" fill="#1C3C50" points="16.5588885 11.1793 15.2491185 10.4163 15.2491185 6.1778 16.5588885 6.9443"></polygon>
            <path d="M7.2435825,23.89585 L7.2054675,23.96235 L7.1500275,24.07785 L7.0945875,24.19335 L7.0426125,24.31235 L7.0010325,24.43135 L6.9941025,39.00535 L7.0876575,39.13485 L7.1985375,39.23635 L1.6926525,36.02335 L1.5817725,35.92535 L1.4882175,35.79585 L1.4951475,21.73635 C1.4951475,21.34435 1.5748425,20.99085 1.7307675,20.67935 L7.2435825,23.89585 Z" id="Fill-38" fill="#1C3C50"></path>
            <path d="M7.223139,26.685 C7.153839,26.727 6.679134,27.035 6.634089,27.112 C6.589044,27.1925 6.977124,27.0385 6.977124,27.119 L6.973659,38.1545 C6.973659,38.2315 7.001379,38.2875 7.046424,38.3155 C7.091469,38.34 7.150374,38.3365 7.216209,38.3015 L7.223139,38.2945 L8.110179,37.78 C8.879409,37.332 9.579339,36.562 10.085229,35.687 C10.594584,34.805 10.906434,33.818 10.906434,32.9325 L10.906434,27.756 C10.909899,26.867 10.598049,26.2475 10.088694,25.957 C9.582804,25.67 8.882874,25.719 8.113644,26.167 L7.226604,26.6815 L7.223139,26.685 Z" id="Fill-40" fill="#2A556F"></path>
            <g id="Group-44" transform="translate(0.000000, 18.369350)">
                <mask id="mask-4" fill="white">
                    <use xlink:href="#path-3"></use>
                </mask>
                <g id="Clip-43"></g>
                <polygon id="Fill-42" fill="#24465C" mask="url(#mask-4)" points="1.4944545 3.493 0.8049195 3.8955 0.2574495 4.2175 0.2505195 4.221 0.2262645 4.235 0.2020095 4.2525 0.1777545 4.277 0.1534995 4.298 0.1327095 4.3225 0.1153845 4.347 0.0980595 4.375 0.0772695 4.403 0.0634095 4.4345 0.0460845 4.4625 0.0356895 4.4975 0.0218295 4.5255 0.0148995 4.5605 0.0079695 4.5885 0.0045045 4.62 0.0045045 4.6515 0.0010395 10.416 -0.0024255 15.687 0.0010395 15.715 0.0045045 15.743 0.0114345 15.7675 0.0183645 15.7885 0.0287595 15.8095 0.0426195 15.8235 0.0564795 15.8375 0.0738045 15.848 1.1964645 16.5025 7.0696395 19.929 7.0523145 19.9185 7.0419195 19.9045 7.0280595 19.887 7.0176645 19.8695 7.0072695 19.8485 7.0038045 19.824 7.0003395 19.796 6.9968745 19.768 7.0003395 8.7325 7.0038045 8.701 7.0072695 8.6695 7.0141995 8.638 7.0211295 8.6065 7.0315245 8.5785 7.0453845 8.5435 7.0592445 8.5155 7.0731045 8.484 7.0904295 8.456 7.1112195 8.428 7.1320095 8.4035 7.1527995 8.379 7.1735895 8.3545 7.1978445 8.3335 7.2186345 8.316 7.2463545 8.302 7.2532845 8.295 8.1368595 7.7805 8.2823895 7.7 8.4209895 7.63 8.5630545 7.5705 8.6981895 7.518 8.8333245 7.476 8.9649945 7.441 9.0966645 7.4165 9.2214045 7.4025 9.3496095 7.392 9.4708845 7.3955 9.5852295 7.406 9.6995745 7.42 9.8069895 7.448 9.9144045 7.483 10.0183545 7.5215 10.1119095 7.574 8.9511345 6.895 8.8541145 6.846 8.7536295 6.804 8.6462145 6.769 8.5353345 6.7445 8.4244545 6.7235 8.3066445 6.7165 8.1853695 6.713 8.0640945 6.7235 7.9324245 6.7375 7.8042195 6.7655 7.6725495 6.797 7.5374145 6.8425 7.3988145 6.8915 7.2602145 6.951 7.1181495 7.021 6.9760845 7.1015 8.1368595 7.7805 1.4944545 3.906"></polygon>
            </g>
            <g id="Group-47" transform="translate(0.000000, 22.869350)">
                <mask id="mask-6" fill="white">
                    <use xlink:href="#path-5"></use>
                </mask>
                <g id="Clip-46"></g>
                <polygon id="Fill-45" fill="#1C3C50" mask="url(#mask-6)" points="0.032571 -0.0004 0.022176 0.0276 0.015246 0.0591 0.008316 0.0906 0.004851 0.1221 0.004851 0.1501 0.001386 5.9146 -0.002079 11.1891 0.001386 11.2171 0.004851 11.2416 0.011781 11.2661 0.018711 11.2871 0.029106 11.3081 0.042966 11.3221 0.056826 11.3396 0.074151 11.3501 1.196811 12.0011 7.069986 15.4311 7.052661 15.4171 7.038801 15.4031 7.028406 15.3856 7.018011 15.3681 7.007616 15.3471 7.004151 15.3226 7.000686 15.2981 6.997221 15.2701 7.000686 4.2311 7.004151 4.2031 7.007616 4.1716 7.014546 4.1401 7.021476 4.1086 7.031871 4.0806 0.968121 0.5421"></polygon>
            </g>
            <path d="M28.162134,19.2048 L28.047789,19.1628 L27.929979,19.1278 L27.808704,19.0963 L27.687429,19.0683 L27.566154,19.0473 L27.441414,19.0263 L27.313209,19.0123 L27.185004,19.0053 L27.056799,19.0018 L26.921664,19.0018 L26.789994,19.0053 L26.647929,19.0158 L26.509329,19.0298 L26.370729,19.0508 L26.228664,19.0753 L26.086599,19.1033 L25.941069,19.1383 L25.795539,19.1768 L25.650009,19.2223 L25.501014,19.2713 L25.348554,19.3238 L25.203024,19.3833 L25.047099,19.4463 L24.894639,19.5163 L24.738714,19.5898 L24.582789,19.6703 L24.426864,19.7543 L24.267474,19.8453 L24.111549,19.9363 L23.952159,20.0378 L23.796234,20.1393 L23.640309,20.2443 L23.487849,20.3563 L23.335389,20.4683 L23.182929,20.5873 L23.037399,20.7098 L22.888404,20.8323 L22.739409,20.9618 L22.593879,21.0948 L22.448349,21.2278 L22.306284,21.3643 L22.167684,21.5043 L22.025619,21.6478 L21.883554,21.7948 L21.748419,21.9453 L21.613284,22.0958 L21.481614,22.2498 L21.349944,22.4073 L21.221739,22.5648 L21.093534,22.7293 L20.968794,22.8938 L20.847519,23.0583 L20.726244,23.2263 L20.604969,23.3978 L20.490624,23.5728 L20.376279,23.7443 L20.265399,23.9193 L20.151054,24.0978 L20.043639,24.2798 L19.939689,24.4583 L19.839204,24.6403 L19.738719,24.8223 L19.641699,25.0078 L19.548144,25.1968 L19.451124,25.3823 L19.364499,25.5713 L19.281339,25.7638 L19.194714,25.9493 L19.111554,26.1418 L19.035324,26.3343 L18.959094,26.5268 L18.886329,26.7193 L18.817029,26.9118 L18.751194,27.1043 L18.688824,27.3003 L18.629919,27.4928 L18.571014,27.6853 L18.519039,27.8813 L18.470529,28.0738 L18.422019,28.2698 L18.380439,28.4623 L18.342324,28.6548 L18.304209,28.8473 L18.273024,29.0398 L18.245304,29.2323 L18.221049,29.4248 L18.196794,29.6138 L18.179469,29.8028 L18.165609,29.9918 L18.155214,30.1808 L18.148284,30.3663 L18.148284,30.5518 L18.148284,30.7338 L18.155214,30.9158 L18.165609,31.0908 L18.179469,31.2623 L18.196794,31.4338 L18.221049,31.5983 L18.245304,31.7593 L18.273024,31.9168 L18.304209,32.0708 L18.342324,32.2248 L18.380439,32.3683 L18.422019,32.5153 L18.470529,32.6518 L18.519039,32.7883 L18.571014,32.9213 L18.629919,33.0508 L18.688824,33.1733 L18.751194,33.2923 L18.817029,33.4113 L18.886329,33.5233 L18.959094,33.6318 L19.035324,33.7368 L19.111554,33.8348 L19.194714,33.9328 L19.281339,34.0238 L19.364499,34.1113 L19.451124,34.1988 C17.545374,33.0823 17.036019,32.7848 15.126804,31.6753 L15.036714,31.5878 L14.950089,31.5003 L14.866929,31.4093 L14.787234,31.3113 L14.707539,31.2133 L14.634774,31.1083 L14.558544,30.9998 L14.492709,30.8843 L14.423409,30.7723 L14.361039,30.6498 L14.302134,30.5238 L14.243229,30.3978 L14.191254,30.2648 L14.142744,30.1318 L14.094234,29.9918 L14.052654,29.8483 L14.014539,29.7013 L13.976424,29.5473 L13.945239,29.3933 L13.917519,29.2358 L13.893264,29.0748 L13.869009,28.9068 L13.851684,28.7388 L13.837824,28.5673 L13.827429,28.3923 L13.820499,28.2103 L13.820499,28.0283 L13.820499,27.8428 L13.827429,27.6573 L13.837824,27.4683 L13.851684,27.2793 L13.869009,27.0903 L13.893264,26.8978 L13.917519,26.7088 L13.945239,26.5163 L13.976424,26.3238 L14.014539,26.1313 L14.052654,25.9388 L14.094234,25.7463 L14.142744,25.5503 L14.191254,25.3578 L14.243229,25.1618 L14.302134,24.9693 L14.361039,24.7733 L14.423409,24.5808 L14.492709,24.3848 L14.558544,24.1958 L14.634774,24.0033 L14.707539,23.8108 L14.787234,23.6183 L14.866929,23.4293 L14.950089,23.2368 L15.036714,23.0478 L15.126804,22.8588 L15.220359,22.6733 L15.313914,22.4843 L15.410934,22.2988 L15.511419,22.1168 L15.615369,21.9348 L15.719319,21.7563 L15.823269,21.5743 L15.937614,21.3958 L16.048494,21.2208 L16.162839,21.0458 L16.277184,20.8743 L16.394994,20.7028 L16.519734,20.5348 L16.644474,20.3703 L16.769214,20.2058 L16.893954,20.0413 L17.022159,19.8838 L17.153829,19.7263 L17.285499,19.5688 L17.420634,19.4218 L17.559234,19.2713 L17.694369,19.1243 L17.839899,18.9808 L17.978499,18.8408 L18.120564,18.7008 L18.266094,18.5678 L18.411624,18.4383 L18.560619,18.3088 L18.706149,18.1828 L18.855144,18.0638 L19.007604,17.9483 L19.160064,17.8328 L19.312524,17.7208 L19.468449,17.6158 L19.624374,17.5143 L19.783764,17.4128 L19.939689,17.3183 L20.099079,17.2308 L20.255004,17.1468 L20.410929,17.0663 L20.566854,16.9928 L20.722779,16.9228 L20.871774,16.8598 L21.024234,16.8003 L21.173229,16.7443 L21.322224,16.6988 L21.467754,16.6533 L21.613284,16.6148 L21.758814,16.5798 L21.900879,16.5518 L22.042944,16.5273 L22.181544,16.5063 L22.320144,16.4923 L22.458744,16.4818 L22.593879,16.4783 L22.729014,16.4783 L22.860684,16.4818 L22.985424,16.4888 L23.113629,16.5063 L23.238369,16.5203 L23.359644,16.5448 L23.480919,16.5728 L23.605659,16.6043 L23.720004,16.6393 L23.834349,16.6813 C25.743564,17.7943 26.249454,18.0918 28.162134,19.2048" id="Fill-48" fill="#2A556F"></path>
            <polygon id="Fill-50" fill="#1C3C50" points="13.9400415 29.36985 18.2678265 31.89335 18.2435715 31.76035 18.2158515 31.59585 18.1985265 31.43135 18.1812015 31.26335 18.1673415 31.09185 18.1569465 30.91335 18.1500165 30.73485 18.1500165 30.54935 18.1500165 30.36735 18.1569465 30.17835 18.1673415 29.99285 18.1812015 29.80385 18.1985265 29.61485 18.2158515 29.42235 18.2435715 29.23335 18.2712915 29.04085 18.3059415 28.84835 18.3440565 28.65585 18.3787065 28.46335 18.4237515 28.27085 18.4722615 28.07485 18.5173065 27.88235 18.5727465 27.68635 18.6316515 27.49035 18.6870915 27.29785 18.7529265 27.10535 18.8152965 26.91285 18.8880615 26.72035 18.9573615 26.52785 19.0370565 26.33185 19.1132865 26.14285 19.1964465 25.95035 19.2761415 25.76135 19.3627665 25.57235 19.4528565 25.38335 19.4944365 25.30285 15.1666515 22.77935 15.1285365 22.85985 15.0349815 23.04885 14.9518215 23.23785 14.8686615 23.42685 14.7855015 23.61935 14.7092715 23.81185 14.6330415 24.00085 14.5602765 24.19335 14.4909765 24.38585 14.4251415 24.58185 14.3593065 24.77435 14.3004015 24.97035 14.2449615 25.16285 14.1895215 25.35885 14.1444765 25.55135 14.0959665 25.74385 14.0509215 25.93985 14.0128065 26.13235 13.9781565 26.32485 13.9469715 26.51735 13.9157865 26.70985 13.8915315 26.89885 13.8672765 27.09135 13.8534165 27.28035 13.8395565 27.46935 13.8291615 27.65485 13.8222315 27.84035 13.8222315 28.02585 13.8222315 28.21135 13.8291615 28.38985 13.8395565 28.56835 13.8534165 28.73985 13.8672765 28.90785 13.8915315 29.07585 13.9157865 29.23685"></polygon>
            <polygon id="Fill-52" fill="#3A7291" points="26.575164 19.02525 26.509329 19.02875 26.370729 19.04975 26.228664 19.07425 26.086599 19.10225 25.941069 19.13725 25.795539 19.17575 25.650009 19.22125 25.501014 19.27025 25.348554 19.32275 25.203024 19.38225 25.047099 19.44875 24.894639 19.51525 24.738714 19.59225 24.582789 19.66925 24.426864 19.75325 24.267474 19.84425 24.111549 19.93875 23.952159 20.03675 23.796234 20.13825 23.640309 20.24675 23.487849 20.35525 23.335389 20.47075 23.182929 20.58625 23.103234 20.65275 18.775449 18.12925 18.855144 18.06275 19.007604 17.94725 19.160064 17.83175 19.312524 17.71975 19.468449 17.61475 19.624374 17.51325 19.783764 17.41525 19.939689 17.32075 20.099079 17.22975 20.255004 17.14575 20.410929 17.06525 20.566854 16.99175 20.722779 16.92175 20.871774 16.85875 21.020769 16.79925 21.173229 16.74675 21.322224 16.69775 21.467754 16.65225 21.613284 16.61375 21.758814 16.57875 21.900879 16.55075 22.042944 16.52625 22.181544 16.50525 22.247379 16.49825"></polygon>
            <path d="M24.057495,22.03805 C26.39637,20.67305 28.29519,21.77905 28.29519,24.50905 C28.29519,27.23905 26.39637,30.56405 24.057495,31.92555 C21.715155,33.29055 19.816335,32.18455 19.816335,29.45455 C19.816335,26.72455 21.715155,23.40305 24.057495,22.03805 M24.133725,19.79805 C20.751885,21.77205 18.007605,26.57055 18.007605,30.51505 C18.00414,34.46305 20.744955,36.06605 24.13026,34.09555 C27.5121,32.12155 30.25638,27.32305 30.259845,23.37505 C30.259845,19.43055 27.51903,17.82755 24.133725,19.79805" id="Fill-54" fill="#142B39"></path>
            <polygon id="Fill-56" fill="#E83C3C" points="24.1860465 20.2198 24.3385065 20.1323 24.4909665 20.0518 24.6434265 19.9748 24.7958865 19.9013 24.9448815 19.8348 25.0938765 19.7718 25.2394065 19.7123 25.3849365 19.6598 25.5304665 19.6143 25.6759965 19.5688 25.8145965 19.5338 25.9566615 19.4988 26.0952615 19.4708 26.2338615 19.4498 26.3689965 19.4288 26.5041315 19.4148 26.6358015 19.4043 26.7674715 19.4008 26.8956765 19.4008 27.0238815 19.4043 27.1486215 19.4148 27.2733615 19.4253 27.3981015 19.4428 27.5159115 19.4638 27.6337215 19.4918 27.7480665 19.5233 27.8624115 19.5583 27.9767565 19.5968 29.9864565 20.7693 29.8755765 20.7308 29.7612315 20.6958 29.6434215 20.6643 29.5290765 20.6398 29.4078015 20.6153 29.2865265 20.5978 29.1652515 20.5838 29.0370465 20.5768 28.9088415 20.5733 28.7806365 20.5733 28.6489665 20.5803 28.5138315 20.5873 28.3821615 20.6013 28.2470265 20.6223 28.1084265 20.6468 27.9698265 20.6748 27.8277615 20.7063 27.6856965 20.7448 27.5436315 20.7868 27.3981015 20.8358 27.2525715 20.8883 27.1035765 20.9443 26.9545815 21.0073 26.8055865 21.0738 26.6565915 21.1473 26.5041315 21.2243 26.3516715 21.3083 26.1957465 21.3923 26.0432865 21.4868 25.8908265 21.5813 25.7383665 21.6793 25.5859065 21.7843 25.4369115 21.8928 25.2879165 22.0013 25.1423865 22.1168 24.9968565 22.2358 24.8513265 22.3548 24.7057965 22.4808 24.5671965 22.6068 24.4251315 22.7398 24.2865315 22.8728 24.1479315 23.0093 24.0127965 23.1493 23.8776615 23.2893 23.7459915 23.4363 23.6143215 23.5833 23.4861165 23.7338 23.3579115 23.8878 23.2331715 24.0453 23.1084315 24.1993 22.9836915 24.3603 22.8658815 24.5213 22.7515365 24.6858 22.6337265 24.8538 22.5228465 25.0218 22.4085015 25.1898 22.2976215 25.3613 22.1936715 25.5363 22.0897215 25.7078 21.9857715 25.8863 21.8852865 26.0613 21.7882665 26.2433 21.6947115 26.4218 21.6011565 26.6038 21.5145315 26.7858 21.4244415 26.9678 21.3412815 27.1498 21.2581215 27.3388 21.1784265 27.5243 21.1021965 27.7098 21.0294315 27.8953 20.9601315 28.0843 20.8942965 28.2733 20.8284615 28.4588 20.7695565 28.6478 20.7071865 28.8368 20.6517465 29.0293 20.6032365 29.2148 20.5547265 29.4073 20.5062165 29.5928 20.4681015 29.7818 20.4265215 29.9708 20.3918715 30.1563 20.3606865 30.3453 20.3364315 30.5308 20.3087115 30.7198 20.2879215 30.9018 20.2705965 31.0873 20.2567365 31.2728 20.2463415 31.4513 20.2428765 31.6368 20.2394115 31.8153 20.2428765 31.9938 20.2463415 32.1688 20.2567365 32.3403 20.2705965 32.5083 20.2879215 32.6728 20.3087115 32.8338 20.3364315 32.9913 20.3606865 33.1453 20.3918715 33.2958 20.4265215 33.4428 20.4681015 33.5863 20.5062165 33.7228 20.5547265 33.8593 20.6032365 33.9923 20.6517465 34.1218 20.7071865 34.2478 20.7695565 34.3668 20.8284615 34.4858 20.8942965 34.5978 20.9601315 34.7063 21.0294315 34.8113 21.1021965 34.9128 21.1784265 35.0143 21.2581215 35.1053 21.3412815 35.1963 21.4244415 35.2803 21.5145315 35.3643 19.4979015 34.1918 19.4112765 34.1078 19.3281165 34.0238 19.2449565 33.9328 19.1687265 33.8383 19.0890315 33.7403 19.0197315 33.6388 18.9469665 33.5338 18.8811315 33.4218 18.8152965 33.3098 18.7563915 33.1943 18.6974865 33.0718 18.6385815 32.9493 18.5900715 32.8198 18.5415615 32.6868 18.4930515 32.5503 18.4549365 32.4103 18.4168215 32.2668 18.3787065 32.1198 18.3475215 31.9693 18.3232665 31.8153 18.2990115 31.6613 18.2747565 31.5003 18.2574315 31.3323 18.2435715 31.1643 18.2366415 30.9963 18.2297115 30.8213 18.2262465 30.6428 18.2297115 30.4608 18.2366415 30.2823 18.2435715 30.0968 18.2574315 29.9148 18.2747565 29.7293 18.2990115 29.5438 18.3232665 29.3583 18.3475215 29.1728 18.3787065 28.9838 18.4168215 28.7948 18.4549365 28.6093 18.4930515 28.4203 18.5415615 28.2313 18.5900715 28.0423 18.6385815 27.8533 18.6974865 27.6643 18.7563915 27.4753 18.8152965 27.2863 18.8811315 27.1008 18.9469665 26.9118 19.0197315 26.7228 19.0890315 26.5373 19.1687265 26.3483 19.2449565 26.1628 19.3281165 25.9808 19.4112765 25.7953 19.4979015 25.6133 19.5879915 25.4278 19.6815465 25.2493 19.7785665 25.0673 19.8755865 24.8888 19.9726065 24.7103 20.0730915 24.5353 20.1805065 24.3603 20.2879215 24.1888 20.3953365 24.0173 20.5062165 23.8493 20.6240265 23.6778 20.7383715 23.5133 20.8561815 23.3488 20.9739915 23.1878 21.0952665 23.0268 21.2234715 22.8693 21.3482115 22.7153 21.4764165 22.5613 21.6046215 22.4108 21.7328265 22.2638 21.8679615 22.1168 21.9996315 21.9768 22.1347665 21.8368 22.2733665 21.7003 22.4119665 21.5638 22.5540315 21.4343 22.6960965 21.3083 22.8381615 21.1823 22.9836915 21.0598 23.1292215 20.9443 23.2782165 20.8288 23.4272115 20.7203 23.5762065 20.6118 23.7252015 20.5068 23.8776615 20.4088 24.0301215 20.3108"></polygon>
            <polygon id="Fill-58" fill="#FF4545" points="24.1860465 20.2198 24.3385065 20.1323 24.4909665 20.0518 24.6434265 19.9748 24.7958865 19.9013 24.9448815 19.8348 25.0938765 19.7718 25.2394065 19.7123 25.3849365 19.6598 25.5304665 19.6143 25.6759965 19.5688 25.8145965 19.5338 25.9566615 19.4988 26.0952615 19.4708 26.2338615 19.4498 26.3308815 19.4323 28.3405815 20.6083 28.2470265 20.6223 28.1084265 20.6468 27.9698265 20.6748 27.8277615 20.7063 27.6856965 20.7448 27.5436315 20.7868 27.3981015 20.8358 27.2525715 20.8883 27.1070415 20.9443 26.9545815 21.0073 26.8055865 21.0738 26.6565915 21.1473 26.5041315 21.2243 26.3516715 21.3083 26.1957465 21.3923 26.0432865 21.4868 25.8908265 21.5813 25.7730165 21.6583 23.7598515 20.4858 23.8776615 20.4088 24.0301215 20.3108"></polygon>
            <polygon id="Fill-60" fill="#C32D2D" points="21.4757235 26.8593 21.4237485 26.9678 21.3405885 27.1498 21.2608935 27.3388 21.1777335 27.5243 21.1049685 27.7098 21.0287385 27.8953 20.9629035 28.0843 20.8936035 28.2733 20.8277685 28.4623 20.7688635 28.6478 20.7064935 28.8368 20.6545185 29.0293 20.6025435 29.2148 20.5540335 29.4073 20.5089885 29.5928 20.4674085 29.7818 20.4258285 29.9708 20.3946435 30.1563 20.3634585 30.3453 20.3357385 30.5308 20.3080185 30.7198 20.2872285 30.9018 20.2699035 31.0873 20.2560435 31.2728 20.2491135 31.4548 20.2421835 31.6368 20.2421835 31.8153 20.2421835 31.9938 20.2491135 32.1688 20.2560435 32.3403 20.2699035 32.5083 20.2872285 32.6728 18.2740635 31.5003 18.2567385 31.3323 18.2463435 31.1643 18.2324835 30.9963 18.2290185 30.8213 18.2290185 30.6428 18.2290185 30.4608 18.2324835 30.2823 18.2463435 30.0968 18.2567385 29.9148 18.2740635 29.7293 18.2983185 29.5438 18.3225735 29.3583 18.3502935 29.1728 18.3780135 28.9838 18.4161285 28.7948 18.4542435 28.6093 18.4958235 28.4203 18.5408685 28.2313 18.5893785 28.0423 18.6413535 27.8533 18.6967935 27.6643 18.7556985 27.4753 18.8146035 27.2863 18.8804385 27.1008 18.9497385 26.9118 19.0190385 26.7228 19.0918035 26.5373 19.1680335 26.3483 19.2442635 26.1628 19.3274235 25.9808 19.4105835 25.7953 19.4660235 25.6868"></polygon>
            <polygon id="Fill-62" fill="#2A556F" points="24.9878475 20.4522 25.1472375 20.3612 25.3031625 20.2772 25.4590875 20.1967 25.6150125 20.1232 25.7674725 20.0532 25.9233975 19.9902 26.0689275 19.9307 26.2179225 19.8782 26.3703825 19.8292 26.5159125 19.7837 26.6614425 19.7452 26.8069725 19.7137 26.9490375 19.6822 27.0911025 19.6577 27.2297025 19.6402 27.3683025 19.6227 27.5069025 19.6122 27.6420375 19.6087 27.7737075 19.6087 27.9053775 19.6122 28.0335825 19.6227 28.1617875 19.6367 28.2865275 19.6542 28.4078025 19.6752 28.5290775 19.7032 28.6503525 19.7347 28.7681625 19.7732 28.8790425 19.8117 30.9476475 21.0192 30.8333025 20.9772 30.7154925 20.9422 30.5976825 20.9072 30.4764075 20.8827 30.3551325 20.8582 30.2303925 20.8407 30.1021875 20.8267 29.9705175 20.8162 29.8388475 20.8162 29.7071775 20.8162 29.5720425 20.8197 29.4369075 20.8302 29.2983075 20.8442 29.1597075 20.8652 29.0176425 20.8897 28.8755775 20.9177 28.7300475 20.9527 28.5845175 20.9912 28.4389875 21.0367 28.2865275 21.0822 28.1375325 21.1382 27.9885375 21.1942 27.8326125 21.2607 27.6801525 21.3272 27.5242275 21.4042 27.3683025 21.4812 27.2158425 21.5687 27.0564525 21.6562 26.8970625 21.7542 26.7411375 21.8487 26.5852125 21.9537 26.4292875 22.0587 26.2768275 22.1707 26.1243675 22.2827 25.9719075 22.4017 25.8229125 22.5207 25.6739175 22.6467 25.5249225 22.7762 25.3793925 22.9057 25.2338625 23.0387 25.0917975 23.1787 24.9497325 23.3187 24.8111325 23.4622 24.6725325 23.6092 24.5373975 23.7562 24.4022625 23.9102 24.2705925 24.0642 24.1389225 24.2217 24.0107175 24.3792 23.8825125 24.5402 23.7577725 24.7047 23.6330325 24.8727 23.5117575 25.0407 23.3939475 25.2122 23.2761375 25.3837 23.1652575 25.5587 23.0474475 25.7337 22.9400325 25.9122 22.8326175 26.0907 22.7286675 26.2727 22.6247175 26.4547 22.5242325 26.6402 22.4272125 26.8222 22.3301925 27.0112 22.2401025 27.1967 22.1534775 27.3857 22.0633875 27.5747 21.9802275 27.7637 21.8970675 27.9562 21.8208375 28.1487 21.7446075 28.3377 21.6753075 28.5337 21.6025425 28.7262 21.5401725 28.9187 21.4743375 29.1112 21.4188975 29.3072 21.3599925 29.4997 21.3080175 29.6957 21.2560425 29.8882 21.2109975 30.0807 21.1659525 30.2767 21.1278375 30.4692 21.0931875 30.6617 21.0585375 30.8542 21.0308175 31.0467 21.0065625 31.2357 20.9857725 31.4282 20.9684475 31.6172 20.9545875 31.8062 20.9441925 31.9917 20.9372625 32.1807 20.9337975 32.3627 20.9372625 32.5482 20.9441925 32.7267 20.9545875 32.9052 20.9684475 33.0767 20.9857725 33.2447 21.0065625 33.4092 21.0308175 33.5737 21.0585375 33.7312 21.0931875 33.8852 21.1278375 34.0357 21.1659525 34.1827 21.2109975 34.3262 21.2560425 34.4662 21.3080175 34.6027 21.3599925 34.7357 21.4188975 34.8617 21.4743375 34.9877 21.5401725 35.1067 21.6025425 35.2257 21.6753075 35.3342 21.7446075 35.4462 21.8208375 35.5477 21.8970675 35.6492 21.9802275 35.7472 22.0633875 35.8382 22.1534775 35.9257 22.2401025 36.0097 20.1714975 34.8057 20.0848725 34.7217 19.9982475 34.6342 19.9116225 34.5397 19.8319275 34.4452 19.7522325 34.3437 19.6794675 34.2387 19.6067025 34.1302 19.5374025 34.0182 19.4715675 33.9027 19.4091975 33.7802 19.3502925 33.6577 19.2913875 33.5282 19.2394125 33.3952 19.1874375 33.2622 19.1423925 33.1222 19.1008125 32.9787 19.0592325 32.8317 19.0245825 32.6812 18.9933975 32.5272 18.9656775 32.3662 18.9379575 32.2052 18.9171675 32.0407 18.8998425 31.8692 18.8859825 31.6977 18.8755875 31.5227 18.8686575 31.3407 18.8651925 31.1587 18.8686575 30.9732 18.8755875 30.7877 18.8859825 30.5987 18.8998425 30.4132 18.9171675 30.2242 18.9379575 30.0317 18.9656775 29.8392 18.9933975 29.6467 19.0245825 29.4542 19.0592325 29.2652 19.1008125 29.0692 19.1423925 28.8767 19.1874375 28.6842 19.2394125 28.4882 19.2913875 28.2922 19.3502925 28.0997 19.4091975 27.9072 19.4715675 27.7112 19.5374025 27.5187 19.6067025 27.3262 19.6794675 27.1337 19.7522325 26.9412 19.8319275 26.7487 19.9116225 26.5597 19.9982475 26.3672 20.0848725 26.1782 20.1714975 25.9927 20.2650525 25.8037 20.3586075 25.6182 20.4556275 25.4327 20.5595775 25.2472 20.6600625 25.0652 20.7640125 24.8867 20.8748925 24.7047 20.9823075 24.5297 21.0966525 24.3512 21.2075325 24.1762 21.3253425 24.0047 21.4466175 23.8367 21.5678925 23.6652 21.6891675 23.5007 21.8139075 23.3362 21.9421125 23.1752 22.0703175 23.0142 22.2019875 22.8567 22.3336575 22.7027 22.4687925 22.5522 22.6073925 22.4017 22.7459925 22.2547 22.8845925 22.1112 23.0266575 21.9712 23.1687225 21.8347 23.3142525 21.6982 23.4597825 21.5687 23.6087775 21.4392 23.7577725 21.3167 23.9067675 21.1942 24.0557625 21.0787 24.2082225 20.9632 24.3606825 20.8547 24.5166075 20.7462 24.6725325 20.6447 24.8284575 20.5467"></polygon>
            <polygon id="Fill-64" fill="#1C3C50" points="22.352022 26.97025 22.331232 27.00875 22.241142 27.19425 22.151052 27.38675 22.064427 27.57575 21.981267 27.76475 21.898107 27.95725 21.821877 28.14625 21.745647 28.33875 21.676347 28.53125 21.603582 28.72375 21.541212 28.91975 21.475377 29.11225 21.413007 29.30475 21.361032 29.50075 21.305592 29.69325 21.257082 29.88925 21.212037 30.08175 21.166992 30.27425 21.125412 30.47025 21.094227 30.66275 21.059577 30.85175 21.031857 31.04775 21.004137 31.23675 20.983347 31.42575 20.969487 31.61825 20.955627 31.80375 20.945232 31.99275 20.938302 32.18175 20.934837 32.36375 20.938302 32.54925 20.945232 32.72775 20.955627 32.90275 20.969487 33.07775 20.983347 33.24575 21.004137 33.41025 21.017997 33.49775 18.952857 32.29375 18.938997 32.20625 18.918207 32.03825 18.900882 31.87025 18.887022 31.69875 18.876627 31.52375 18.869697 31.34175 18.866232 31.15975 18.869697 30.97425 18.876627 30.78525 18.887022 30.59975 18.900882 30.41075 18.918207 30.22175 18.938997 30.03275 18.963252 29.84025 18.990972 29.64775 19.025622 29.45525 19.060272 29.26275 19.101852 29.07025 19.143432 28.87425 19.188477 28.68175 19.240452 28.48925 19.292427 28.29325 19.351332 28.10075 19.406772 27.90825 19.472607 27.71225 19.538442 27.51975 19.607742 27.32725 19.680507 27.13125 19.753272 26.94225 19.829502 26.74975 19.912662 26.55725 19.995822 26.36825 20.085912 26.17925 20.172537 25.99025 20.262627 25.80475 20.283417 25.76625"></polygon>
            <polygon id="Fill-66" fill="#3A7291" points="24.9878475 20.4522 25.1472375 20.3612 25.3031625 20.2772 25.4590875 20.1967 25.6150125 20.1232 25.7674725 20.0532 25.9233975 19.9902 26.0689275 19.9307 26.2179225 19.8782 26.3703825 19.8292 26.5159125 19.7872 26.6614425 19.7452 26.8069725 19.7137 26.9490375 19.6822 27.0911025 19.6577 27.2297025 19.6402 27.3683025 19.6227 27.5069025 19.6122 27.5796675 19.6122 29.6482725 20.8162 29.5720425 20.8197 29.4369075 20.8302 29.2983075 20.8442 29.1597075 20.8652 29.0176425 20.8897 28.8755775 20.9177 28.7300475 20.9527 28.5845175 20.9912 28.4389875 21.0367 28.2865275 21.0822 28.1375325 21.1382 27.9850725 21.1942 27.8326125 21.2607 27.6801525 21.3272 27.5242275 21.4042 27.3683025 21.4812 27.2158425 21.5687 27.0564525 21.6562 26.8970625 21.7542 26.7411375 21.8522 26.5852125 21.9537 26.4292875 22.0587 26.2768275 22.1707 26.1243675 22.2827 26.0273475 22.3597 23.9587425 21.1557 24.0557625 21.0787 24.2082225 20.9632 24.3606825 20.8547 24.5166075 20.7462 24.6725325 20.6447 24.8284575 20.5467"></polygon>
            <path d="M26.8423155,23.8514 C24.4999755,25.2164 22.6046205,28.5379 22.6046205,31.2679 C22.6046205,33.9979 24.4999755,35.1039 26.8423155,33.7389 C29.1846555,32.3739 31.0834755,29.0524 31.0834755,26.3259 C31.0834755,23.5924 29.1846555,22.4864 26.8423155,23.8514" id="Fill-68" fill="#3C59FC"></path>
            <path d="M26.8423155,27.7854 C25.3870155,28.8599 24.2401005,30.4104 23.6857005,31.8944 C23.5644255,31.7544 23.4639405,31.5759 23.4050355,31.3204 C22.9268655,29.3814 24.4757205,26.3784 26.8423155,24.6319 L26.8423155,27.7854 Z" id="Fill-70" fill="#4C66FA"></path>
            <path d="M29.8391253,30.543105 L29.7702405,30.66835 L29.6940105,30.79435 L29.6177805,30.91685 L29.5380855,31.03935 L29.4618555,31.15835 L29.3786955,31.27735 L29.2990005,31.39635 L29.2158405,31.51185 L29.1292155,31.62735 L29.0425905,31.74285 L28.9525005,31.85485 L28.8658755,31.96685 L28.7757855,32.07185 L28.6822305,32.18035 L28.5886755,32.28535 L28.4951205,32.39035 L28.3981005,32.49185 L28.3010805,32.58985 L28.2040605,32.68785 L28.1035755,32.78235 L28.0030905,32.87685 L27.9060705,32.96785 L27.7986555,33.05535 L27.6981705,33.14285 L27.5942205,33.22685 L27.4902705,33.30735 L27.3828555,33.38435 L27.2754405,33.46135 L27.1714905,33.53485 L27.0606105,33.60485 L26.9531955,33.67485 L26.8423155,33.74135 L24.792298,32.5447 L26.841276,33.74275 L26.733861,33.80225 L26.626446,33.86175 L26.519031,33.91425 L26.408151,33.96675 L26.304201,34.01575 L26.200251,34.06125 L26.092836,34.10325 L25.988886,34.13825 L25.884936,34.17325 L25.784451,34.20125 L25.680501,34.22925 L25.583481,34.25375 L25.486461,34.27125 L25.385976,34.28875 L25.288956,34.30625 L25.195401,34.31325 L25.098381,34.32025 L25.004826,34.32725 L24.914736,34.32725 L24.821181,34.32375 L24.734556,34.31675 L24.644466,34.30625 L24.557841,34.29575 L24.474681,34.27825 L24.388056,34.25725 L24.308361,34.23975 L24.225201,34.21175 L24.145506,34.18375 L24.065811,34.15225 L23.993046,34.11725 L23.920281,34.08225 L23.847516,34.04025 L21.778911,32.83625 L21.851676,32.87475 L21.924441,32.91325 L22.000671,32.94825 L22.076901,32.97975 L22.160061,33.00775 L22.239756,33.03225 L22.322916,33.05325 L22.406076,33.07425 L22.489236,33.08825 L22.579326,33.09875 L22.665951,33.10925 L22.756041,33.11625 L22.846131,33.11975 L22.936221,33.11975 L23.033241,33.11625 L23.126796,33.10925 L23.220351,33.09875 L23.320836,33.08475 L23.417856,33.06725 L23.514876,33.04625 L23.615361,33.02175 L23.715846,32.99725 L23.816331,32.96575 L23.920281,32.93075 L24.027696,32.89575 L24.131646,32.85375 L24.235596,32.80825 L24.343011,32.76275 L24.450426,32.71025 L24.557841,32.65425 L24.665256,32.59475 L24.7761219,32.5352576 L24.7737105,32.53385 L24.8880555,32.46735 L24.9954705,32.40085 L25.1028855,32.33085 L25.2103005,32.25735 L25.3177155,32.18035 L25.4216655,32.09985 L25.5256155,32.01935 L25.6295655,31.93535 L25.7335155,31.84785 L25.8374655,31.76035 L25.9379505,31.66935 L26.0384355,31.57485 L26.1354555,31.48035 L26.2324755,31.38585 L26.3329605,31.28435 L26.4265155,31.18635 L26.5200705,31.08135 L26.6170905,30.97285 L26.7071805,30.86785 L26.7972705,30.75935 L26.8873605,30.64735 L26.9739855,30.53535 L27.0606105,30.42335 L27.1472355,30.30785 L27.2303955,30.18885 L27.3135555,30.07335 L27.3932505,29.95435 L27.4729455,29.83185 L27.5491755,29.71285 L27.6288705,29.58685 L27.7016355,29.46435 L27.773098,29.3406053 L27.7716285,29.33975 L27.8443935,29.21375 L27.9136935,29.08425 L27.9829935,28.95475 L28.0453635,28.82875 L28.1111985,28.69925 L28.1735685,28.56975 L28.2324735,28.43675 L28.2913785,28.30375 L28.3468185,28.17425 L28.4022585,28.04125 L28.4542335,27.90825 L28.5027435,27.77175 L28.5512535,27.63875 L28.5997635,27.50575 L28.6413435,27.37275 L28.6829235,27.23625 L28.7210385,27.10325 L28.7591535,26.97025 L28.7903385,26.83375 L28.8249885,26.70075 L28.8561735,26.56425 L28.8838935,26.43125 L28.9046835,26.29825 L28.9289385,26.16525 L28.9497285,26.03225 L28.9670535,25.89925 L28.9809135,25.76625 L28.9947735,25.63675 L29.0051685,25.50725 L29.0120985,25.37425 L29.0155635,25.24475 L29.0155635,25.11875 L29.765406,25.5559167 L29.0134845,25.117 L29.0134845,24.991 L29.0100195,24.865 L29.0030895,24.7425 L28.9926945,24.627 L28.9822995,24.508 L28.9684395,24.3925 L28.9511145,24.2805 L28.9303245,24.172 L28.9060695,24.0635 L28.8818145,23.9585 L28.8540945,23.857 L28.8263745,23.759 L28.7917245,23.661 L28.7570745,23.5665 L28.7189595,23.4755 L28.6843095,23.388 L28.6427295,23.3005 L28.5976845,23.2165 L28.5526395,23.136 L28.5041295,23.059 L28.4521545,22.982 L28.4036445,22.912 L28.3482045,22.842 L28.2892995,22.7755 L28.2338595,22.7125 L28.1714895,22.6495 L28.1125845,22.5935 L28.0467495,22.5375 L27.9809145,22.485 L27.9150795,22.436 L27.8423145,22.387 L27.7730145,22.345 L29.8416195,23.5525 L29.9109195,23.5945 L29.9836845,23.64 L30.0495195,23.6925 L30.1153545,23.7415 L30.1777245,23.7975 L30.2400945,23.8535 L30.2989995,23.9165 L30.3579045,23.983 L30.4168095,24.0495 L30.4687845,24.1195 L30.5207595,24.1895 L30.5727345,24.2665 L30.6177795,24.3435 L30.6662895,24.424 L30.7113345,24.508 L30.7494495,24.592 L30.7875645,24.683 L30.8256795,24.774 L30.8603295,24.865 L30.8915145,24.963 L30.9226995,25.0645 L30.9504195,25.166 L30.9746745,25.271 L30.9989295,25.376 L31.0162545,25.488 L31.0335795,25.5965 L31.0474395,25.7155 L31.0612995,25.831 L31.0716945,25.95 L31.0786245,26.0725 L31.0820895,26.195 L31.0820895,26.3245 L31.0807035,26.323691 L31.0807035,26.45225 L31.0772385,26.58175 L31.0703085,26.71125 L31.0633785,26.84075 L31.0495185,26.97375 L31.0356585,27.10675 L31.0183335,27.23625 L30.9975435,27.36925 L30.9732885,27.50225 L30.9490335,27.63525 L30.9213135,27.77175 L30.8935935,27.90475 L30.8589435,28.03775 L30.8242935,28.17425 L30.7861785,28.30725 L30.7515285,28.44375 L30.7099485,28.57675 L30.6649035,28.71325 L30.6198585,28.84625 L30.5713485,28.97925 L30.5193735,29.11225 L30.4708635,29.24525 L30.4154235,29.37825 L30.3565185,29.51125 L30.3010785,29.64425 L30.2387085,29.77375 L30.1798035,29.90325 L30.1139685,30.03275 L30.0515985,30.16225 L29.9822985,30.29175 L29.9129985,30.41775 L29.8402335,30.54375 L29.8391253,30.543105 Z" id="Combined-Shape" fill="#2243FB"></path>
            <polygon id="Fill-80" fill="#7BB1D6" points="29.8402335 23.55075 27.7716285 22.34675 27.7023285 22.30475 27.6260985 22.26625 27.5498685 22.23475 29.6184735 23.43875 29.6947035 23.47375 29.7674685 23.50875"></polygon>
            <path d="M26.8423155,23.8514 C29.1846555,22.4864 31.0834755,23.5924 31.0834755,26.3259 C31.0834755,29.0524 29.1846555,32.3739 26.8423155,33.7424 C24.5034405,35.1039 22.6046205,33.9979 22.6046205,31.2679 C22.6046205,28.5379 24.5034405,25.2164 26.8423155,23.8514 M26.9220105,21.6114 C23.5401705,23.5854 20.7958905,28.3804 20.7924255,32.3284 C20.7924255,36.2764 23.5332405,37.8794 26.9150805,35.9089 C30.3003855,33.9349 33.0446655,29.1399 33.0446655,25.1919 C33.0481305,21.2439 30.3073155,19.6409 26.9220105,21.6114" id="Fill-82" fill="#142B39"></path>
        </g>
    </g>
</svg>