<?xml version="1.0" encoding="UTF-8"?>
<svg width="40px" height="40px" viewBox="0 0 40 40" version="1.1" xmlns="http://www.w3.org/2000/svg" xmlns:xlink="http://www.w3.org/1999/xlink">
    <!-- Generator: Sketch 52.5 (67469) - http://www.bohemiancoding.com/sketch -->
    <title>Icon/Category/Printer</title>
    <desc>Created with Sketch.</desc>
    <defs>
        <polygon id="path-1" points="3.31555 2.45185779 26.5125 2.45185779 26.5125 24.5 3.31555 24.5"></polygon>
        <polygon id="path-3" points="0 2.485 13.98215 2.485 13.98215 19.838 0 19.838"></polygon>
    </defs>
    <g id="Icon/Category/Printer" stroke="none" stroke-width="1" fill="none" fill-rule="evenodd">
        <g id="Group-42" transform="translate(3.000000, 2.000000)">
            <polygon id="Fill-1" fill="#142B39" points="21.33705 9.2556 19.57305 8.2336 3.65855 17.4141 5.42605 18.4326"></polygon>
            <polygon id="Fill-2" fill="#1C3C50" points="6.0165 16.0526 7.784 17.0711 7.784 10.3196 6.0165 9.3011"></polygon>
            <polygon id="Fill-3" fill="#142B39" points="19.64515 3.4827 17.87765 2.4607 6.01615 9.3032 7.78365 10.3217"></polygon>
            <polygon id="Fill-4" fill="#2A556F" points="7.7847 18.57155 19.6427 11.72905 19.6427 3.48305 7.7847 10.32205"></polygon>
            <polygon id="Fill-5" fill="#2A556F" points="14.34055 25.9457 4.02605 19.9887 19.17755 11.2492 29.49205 17.2062"></polygon>
            <polygon id="Fill-6" fill="#2A556F" points="29.4924 17.20585 19.1779 11.24885 19.5559 11.03185 29.8704 16.98885"></polygon>
            <polygon id="Fill-7" fill="#2A556F" points="29.8718 16.9871 19.5573 11.0301 19.5573 8.2546 29.8718 14.2116"></polygon>
            <polygon id="Fill-8" fill="#1C3C50" points="20.6451 7.9319 20.3511 7.9704 20.0606 8.0334 19.7771 8.1209 19.7491 8.1349 19.7176 8.1454 19.6931 8.1594 19.6651 8.1734 19.6371 8.1944 19.6126 8.2119 19.5846 8.2329 19.5566 8.2539 29.8711 14.2109 29.8991 14.1864 29.9236 14.1689 29.9551 14.1514 29.9831 14.1304 30.0076 14.1164 30.0356 14.0989 30.0636 14.0919 30.0951 14.0779 30.3786 13.9904 30.6691 13.9274 30.9596 13.8889 31.2571 13.8784 31.5476 13.8994 31.8276 13.9484 32.1041 14.0324 32.3596 14.1549 22.0451 8.2014 21.7861 8.0789 21.5131 7.9914 21.2296 7.9424 20.9426 7.9214"></polygon>
            <polygon id="Fill-9" fill="#1C3C50" points="0.0315 29.16605 0.1295 29.46355 0.28 29.69805 0.476 29.86255 10.7905 35.81605 10.5945 35.65155 10.444 35.41705 10.346 35.12305 10.3145 34.76255 0 28.80905"></polygon>
            <polygon id="Fill-10" fill="#2A556F" points="13.96115 26.16445 3.64665 20.20745 4.02465 19.99045 14.33915 25.94745"></polygon>
            <g id="Group-41" transform="translate(0.000000, 0.425950)">
                <g id="Group-13" transform="translate(7.000000, 11.000000)">
                    <mask id="mask-2" fill="white">
                        <use xlink:href="#path-1"></use>
                    </mask>
                    <g id="Clip-12"></g>
                    <path d="M7.34055,14.51975 L22.49205,5.78025 L22.87005,5.55975 L22.87005,2.78425 C22.94355,2.72125 23.01705,2.67925 23.09405,2.65125 C24.58155,2.12625 26.51705,2.52175 26.51355,5.25175 L26.51355,9.95925 C26.51005,10.99175 25.77855,12.26225 24.88255,12.77675 L4.93955,24.28125 C4.05055,24.79575 3.31555,24.37225 3.31555,23.33975 C3.31905,21.92925 3.31905,19.43725 3.31905,18.63225 C3.31905,16.14375 4.96055,13.41375 6.75955,12.05225 C6.81205,12.01375 7.05355,11.90175 6.96255,11.95775 L6.96255,14.73675 L7.34055,14.51975 Z" id="Fill-11" fill="#2A556F" mask="url(#mask-2)"></path>
                </g>
                <polygon id="Fill-14" fill="#142B39" points="14.33705 32.2464 29.48855 23.5069 29.48855 22.4009 14.33705 31.1404"></polygon>
                <polygon id="Fill-16" fill="#78D289" points="28.30275 19.6786 29.49275 18.9926 29.49275 20.3646 28.30275 21.0506"></polygon>
                <polygon id="Fill-18" fill="#E5EBEC" points="26.69625 20.6047 27.88625 19.9187 27.88275 21.2942 26.69275 21.9802"></polygon>
                <polygon id="Fill-20" fill="#E5EBEC" points="25.0901 21.53115 26.2766 20.84515 26.2766 22.22065 25.0866 22.90665"></polygon>
                <polygon id="Fill-22" fill="#2A556F" points="5.4264 20.7909 21.3374 11.6104 21.3374 8.8314 5.4264 18.0084"></polygon>
                <path d="M6.6192,6.41325 L6.6192,7.02925 C6.6227,10.23875 6.6367,17.24225 6.6857,17.35075 C6.7207,17.42775 6.7697,17.49425 6.8292,17.53975 L6.6787,24.35425 C6.8222,24.67275 7.3822,25.50575 8.0647,25.98525 L20.4617,18.83475 C20.9762,18.54075 21.3997,17.81275 21.3997,17.21775 L21.4032,3.69725 L17.9662,1.05475 L17.7037,1.00225 L13.9797,0.93925 L7.7042,4.54075 C7.4067,4.71225 7.1442,4.98175 6.9377,5.34575 C6.7242,5.71325 6.6192,6.07025 6.6192,6.41325" id="Fill-24" fill="#E5EBEC"></path>
                <path d="M19.23495,6.1553 L20.96395,5.1578 C21.81795,4.6923 22.29045,4.2793 21.42945,3.6108 L17.77895,0.7653 L19.23845,2.9843 L19.23495,6.1553 Z" id="Fill-26" fill="#E5EBEC"></path>
                <path d="M8.06155,25.98455 L6.96255,25.34755 L6.84005,25.25305 L6.75255,25.11305 L6.69655,24.93805 L6.67555,24.72455 L6.68255,6.26205 L6.68955,6.14655 L6.70355,6.02405 L6.72805,5.90505 L6.75955,5.78605 L6.80155,5.66355 L6.84705,5.54455 L6.90655,5.42555 L6.96955,5.31355 L7.03605,5.20155 L7.11305,5.09305 L7.19005,4.99155 L7.27405,4.89705 L7.36155,4.80955 L7.45605,4.72555 L7.55055,4.65555 L7.64855,4.59255 L14.44905,0.66905 C15.45355,0.09855 16.01005,-0.18495 17.19655,0.38205 C18.16255,0.84405 19.02355,1.80655 19.23705,2.98605 L19.23355,6.15355 L18.05055,5.47105 L18.05055,3.82255 L18.05055,3.11205 C18.07505,2.03405 16.86055,0.66905 15.18405,1.51605 L8.75105,5.22955 L8.65305,5.29255 L8.55855,5.36255 L8.46405,5.44305 L8.37655,5.53405 L8.28905,5.62855 L8.21205,5.73005 L8.13505,5.83855 L8.06855,5.94705 L8.00555,6.06255 L7.95305,6.18155 L7.90405,6.30055 L7.86205,6.42305 L7.83055,6.54205 L7.80955,6.66105 L7.79205,6.78355 L7.78855,6.89905 L7.78155,25.36155 L7.79905,25.57155 L7.85505,25.75005 L7.94605,25.89005 L8.06155,25.98455 Z" id="Fill-28" fill="#BCC4C8"></path>
                <polygon id="Fill-30" fill="#142B39" points="29.8718 13.77725 22.6513 9.60875 6.7368 18.78575 13.9608 22.95775"></polygon>
                <polygon id="Fill-32" fill="#1C3C50" points="13.96115 25.7385 29.87215 16.5615 29.87215 13.779 13.96115 22.9595"></polygon>
                <g id="Group-36" transform="translate(0.000000, 14.500000)">
                    <mask id="mask-4" fill="white">
                        <use xlink:href="#path-3"></use>
                    </mask>
                    <g id="Clip-35"></g>
                    <polygon id="Fill-34" fill="#24465C" mask="url(#mask-4)" points="10.31415 19.838 -0.00035 13.8845 -0.00035 13.608 -0.00035 13.307 -0.00035 12.992 0.00315 12.6665 0.00315 12.327 0.00315 11.9875 0.00315 11.6445 0.00315 11.305 0.00315 10.969 0.00315 10.647 0.00315 10.3425 0.00315 10.052 0.00315 9.7895 0.00315 9.5515 0.00315 9.345 0.00315 9.177 0.00665 8.9425 0.02415 8.7045 0.04165 8.47 0.07665 8.2355 0.11865 7.9975 0.16765 7.763 0.22015 7.525 0.29015 7.2905 0.35665 7.056 0.44065 6.8215 0.52465 6.5905 0.61565 6.3595 0.71715 6.132 0.82215 5.908 0.93065 5.684 1.04965 5.4635 1.17215 5.25 1.29815 5.0365 1.43115 4.8265 1.56415 4.62 1.70415 4.4205 1.84765 4.228 1.99815 4.0355 2.14865 3.85 2.30265 3.668 2.46015 3.5 2.61765 3.3285 2.78215 3.1675 2.94665 3.0135 3.10765 2.87 3.27565 2.73 3.44365 2.6005 3.47165 2.5795 3.51015 2.5585 3.55215 2.5375 3.59765 2.513 3.63965 2.4955 3.66065 2.485 3.66765 2.4885 13.98215 8.4455 13.97515 8.4455 13.95065 8.4525 13.91215 8.47 13.87365 8.491 13.82815 8.5155 13.78615 8.5365 13.75815 8.554 13.59365 8.687 13.42565 8.827 13.25765 8.9705 13.09665 9.1245 12.93215 9.2855 12.77465 9.4535 12.61715 9.6285 12.46315 9.807 12.31265 9.9925 12.16215 10.1815 12.01865 10.374 11.87865 10.577 11.74565 10.7835 11.61265 10.99 11.48665 11.2035 11.36415 11.4205 11.24865 11.641 11.13665 11.8615 11.03165 12.089 10.93365 12.3165 10.83915 12.5475 10.75515 12.7785 10.67815 13.0095 10.60115 13.244 10.53815 13.482 10.48215 13.7165 10.43315 13.9545 10.39115 14.189 10.35965 14.427 10.33515 14.6615 10.32115 14.896 10.31765 15.1305 10.31765 15.302 10.31765 15.5085 10.31765 15.7465 10.31765 16.009 10.31765 16.296 10.31765 16.604 10.31765 16.9225 10.31765 17.2585 10.31765 17.598 10.31765 17.941 10.31765 18.284 10.31765 18.62 10.31765 18.949 10.31765 19.264 10.31765 19.5615"></polygon>
                </g>
                <polygon id="Fill-37" fill="#1C3C50" points="29.4889 22.4009 28.5334 22.9539 29.4889 23.5069"></polygon>
                <polygon id="Fill-39" fill="#142B39" points="11.466 25.7385 1.1515 19.7815 1.0465 19.9635 0.931 20.184 0.8225 20.408 0.7175 20.632 0.616 20.8595 0.525 21.0905 0.441 21.3215 0.357 21.556 0.2905 21.7905 0.2205 22.025 0.1645 22.263 0.119 22.4975 0.077 22.7355 0.042 22.97 0.021 23.208 0.007 23.4425 0.0035 23.677 0.0035 23.845 0.0035 24.0515 0.0035 24.2895 0.0035 24.552 0.0035 24.8425 0.0035 25.147 0.0035 25.469 0.0035 25.805 0.0035 26.1445 0.0035 26.4875 0.0035 26.8305 0.0035 27.1665 0.0035 27.492 0 27.807 0 28.108 0 28.3845 10.3145 34.338 10.318 34.0615 10.318 33.764 10.318 33.449 10.318 33.12 10.318 32.784 10.318 32.4445 10.318 32.098 10.318 31.7585 10.318 31.426 10.318 31.104 10.318 30.796 10.318 30.509 10.318 30.2465 10.318 30.0085 10.318 29.802 10.318 29.6305 10.3215 29.396 10.3355 29.1615 10.36 28.927 10.3915 28.6925 10.4335 28.4545 10.4825 28.2165 10.5385 27.982 10.6015 27.744 10.675 27.5095 10.7555 27.2785 10.8395 27.0475 10.934 26.8165 11.032 26.589 11.137 26.3615 11.249 26.141 11.3645 25.9205"></polygon>
            </g>
        </g>
    </g>
</svg>