<?xml version="1.0" encoding="UTF-8"?>
<svg width="40px" height="40px" viewBox="0 0 40 40" version="1.1" xmlns="http://www.w3.org/2000/svg" xmlns:xlink="http://www.w3.org/1999/xlink">
    <!-- Generator: Sketch 52.5 (67469) - http://www.bohemiancoding.com/sketch -->
    <title>Icon/Category/Audio</title>
    <desc>Created with Sketch.</desc>
    <defs>
        <polygon id="path-1" points="3.10135 1.68657774 25.739 1.68657774 25.739 31.4996477 3.10135 31.4996477"></polygon>
        <polygon id="path-3" points="1.1368 0.7245 4.6368 0.7245 4.6368 4.1201125 1.1368 4.1201125"></polygon>
        <polygon id="path-5" points="1.1368 0.7245 4.6368 0.7245 4.6368 4.1188 1.1368 4.1188"></polygon>
        <polygon id="path-7" points="1.1368 0.7245 4.6368 0.7245 4.6368 3.3376875 1.1368 3.3376875"></polygon>
        <polygon id="path-9" points="2.2603 0.7245 5.7603 0.7245 5.7603 4.1517 2.2603 4.1517"></polygon>
    </defs>
    <g id="Icon/Category/Audio" stroke="none" stroke-width="1" fill="none" fill-rule="evenodd">
        <g id="Group-96" transform="translate(6.000000, 0.000000)">
            <polygon id="Fill-1" fill="#1C3C50" points="1.1025 17.474 0.8435 17.74 0.609 18.0375 0.406 18.3665 0.238 18.713 0.112 19.0665 0.035 19.4235 0.0035 19.77 0 34.3965 0.0315 34.722 0.1155 35.002 0.259 35.212 0.4375 35.3625 7.042 39.174 6.8565 39.0235 6.7235 38.8135 6.629 38.537 6.601 38.208 6.608 23.5815 6.6325 23.235 6.713 22.878 6.8425 22.5245 7.007 22.178 7.2135 21.849 7.448 21.5515 7.7035 21.2855 7.9835 21.0685 1.3825 17.257"></polygon>
            <g id="Group-95" transform="translate(0.000000, 0.775150)">
                <g id="Group-4" transform="translate(3.500000, 7.000000)">
                    <mask id="mask-2" fill="white">
                        <use xlink:href="#path-1"></use>
                    </mask>
                    <g id="Clip-3"></g>
                    <path d="M24.24135,1.8893 L7.78435,11.3813 L4.48385,13.2853 L4.48385,13.2923 C3.71735,13.8033 3.10835,14.9023 3.10835,15.8088 L3.10135,30.4318 C3.10135,31.3838 3.77335,31.7723 4.59585,31.2963 L24.23435,19.9703 C25.05685,19.4943 25.73235,18.3288 25.73235,17.3803 L25.73935,2.7538 C25.73935,1.8053 25.06385,1.4133 24.24135,1.8893" id="Fill-2" fill="#2A556F" mask="url(#mask-2)"></path>
                </g>
                <polygon id="Fill-5" fill="#BEBEBE" points="9.1546 26.355 26.6966 16.2365 26.6966 11.718 9.1546 21.8365"></polygon>
                <polygon id="Fill-7" fill="#9D9E9D" points="26.69555 16.2344 26.69555 11.7194 25.96405 12.1429 25.96755 15.8109"></polygon>
                <polygon id="Fill-9" fill="#E5EBEC" points="25.96405 12.14325 9.15355 21.83825 9.15355 25.50975 25.96405 15.81125"></polygon>
                <polygon id="Fill-11" fill="#9D9E9D" points="9.3765 24.90425 10.563 24.22175 10.563 23.14375 9.38 23.82275"></polygon>
                <path d="M16.8994,20.5632 C17.2949,20.3357 17.6904,20.1082 18.0859,19.8807 L18.0859,18.8027 C17.6904,19.0302 17.2949,19.2577 16.8994,19.4852 L16.8994,20.5632 Z" id="Fill-13" fill="#9D9E9D"></path>
                <path d="M14.3941,22.0108 C14.7861,21.7833 15.1851,21.5558 15.5771,21.3283 L15.5771,20.2503 C15.1851,20.4778 14.7861,20.7053 14.3941,20.9293 L14.3941,22.0108 Z" id="Fill-15" fill="#9D9E9D"></path>
                <path d="M21.91385,17.67185 C22.30935,17.44435 22.70485,17.21685 23.10035,16.98935 L23.10035,15.91135 C22.70485,16.13885 22.30935,16.36635 21.91735,16.59385 C21.91385,16.95085 21.91385,17.31135 21.91385,17.67185" id="Fill-17" fill="#9D9E9D"></path>
                <path d="M19.4082,19.11735 C19.8002,18.88985 20.1992,18.66235 20.5912,18.43485 L20.5912,17.35685 C20.1992,17.58435 19.8002,17.81185 19.4082,18.03935 L19.4082,19.11735 Z" id="Fill-19" fill="#9D9E9D"></path>
                <polygon id="Fill-21" fill="#9D9E9D" points="24.42265 16.226 25.60565 15.5435 25.60565 14.4655 24.42265 15.148"></polygon>
                <path d="M11.8853,23.45665 C12.2808,23.22915 12.6763,23.00165 13.0683,22.77415 C13.0718,22.41365 13.0718,22.05665 13.0718,21.69615 C12.6763,21.92365 12.2808,22.15115 11.8853,22.37865 L11.8853,23.45665 Z" id="Fill-23" fill="#9D9E9D"></path>
                <polygon id="Fill-25" fill="#FF2323" points="14.29155 18.87305 15.13855 18.38655 15.13855 22.61105 14.29155 23.09755"></polygon>
                <path d="M12.85935,26.24895 C14.51485,25.29695 15.84835,26.07045 15.84835,27.97795 C15.84835,29.88545 14.51135,32.20595 12.85935,33.15795 C11.20735,34.10995 9.87035,33.33645 9.87035,31.42895 C9.87035,29.52145 11.20735,27.20095 12.85935,26.24895" id="Fill-27" fill="#DBDEDF"></path>
                <polygon id="Fill-29" fill="#24465C" points="28.79765 8.78675 22.19665 4.97525 21.97615 4.89125 21.72415 4.88075 21.44065 4.94025 21.13965 5.07675 4.68265 14.56875 1.38565 16.47275 1.38215 16.47975 1.10215 16.69675 0.84665 16.96275 0.60865 17.26375 0.40915 17.59275 7.00665 21.40075 7.21315 21.07525 7.44415 20.77425 7.70665 20.51175 7.98665 20.29125 7.98665 20.28775 11.28365 18.38375 27.74065 8.88825 28.04165 8.75175 28.32165 8.69225 28.58065 8.70275"></polygon>
                <polygon id="Fill-31" fill="#C51616" points="14.2884 18.87305 13.9664 19.06205 13.9664 22.91205 14.2919 23.09755"></polygon>
                <path d="M20.01685,26.9087 L26.63185,23.0902 C26.66335,23.0657 26.69485,23.0132 26.69485,22.9712 L26.69485,21.9842 L19.97835,25.8622 L19.98185,26.8422 C19.98185,26.8772 19.99235,26.9017 20.01685,26.9087" id="Fill-33" fill="#1C3C50"></path>
                <polygon id="Fill-35" fill="#1C3C50" points="26.69555 20.2538 19.97905 24.1318 19.97905 25.1958 26.69555 21.3178"></polygon>
                <polygon id="Fill-37" fill="#1C3C50" points="26.69905 23.71635 19.98255 27.59435 19.98255 28.65835 26.69905 24.78035"></polygon>
                <polygon id="Fill-39" fill="#24465C" points="19.97905 25.1965 19.97905 24.1325 25.77505 20.7865 26.69555 21.3185"></polygon>
                <polygon id="Fill-41" fill="#24465C" points="19.98255 26.9276 19.97905 25.8636 25.77505 22.5176 26.69555 23.0496"></polygon>
                <polygon id="Fill-43" fill="#24465C" points="19.98255 28.6587 19.98255 27.5947 25.77505 24.2487 26.69905 24.7807"></polygon>
                <path d="M5.4768,16.62395 C5.9808,16.33345 6.7963,16.33345 7.3003,16.62395 C7.7973,16.91445 7.7973,17.38345 7.3003,17.67395 C6.7963,17.96445 5.9808,17.96445 5.4768,17.67395 C4.9763,17.38345 4.9763,16.91445 5.4768,16.62395" id="Fill-45" fill="#1C3C50"></path>
                <path d="M7.2849,10.9641 L7.2849,17.6806 C6.7844,17.9606 5.9934,17.9606 5.4929,17.6806 L5.4929,10.9641 L5.4964,10.9886 L5.5069,11.0131 L5.5139,11.0376 L5.5244,11.0621 L5.5384,11.0866 L5.5559,11.1111 L5.5734,11.1321 L5.5944,11.1566 L5.6119,11.1776 L5.6364,11.1986 L5.6644,11.2231 L5.6924,11.2406 L5.7204,11.2616 L5.7554,11.2826 L5.7834,11.3001 L5.8219,11.3176 L5.8569,11.3316 L5.8954,11.3491 L5.9304,11.3631 L5.9689,11.3736 L6.0109,11.3876 L6.0494,11.3946 L6.0914,11.4051 L6.1334,11.4121 L6.1754,11.4191 L6.2139,11.4226 L6.2594,11.4296 L6.3014,11.4296 L6.3434,11.4331 L6.3889,11.4331 L6.4309,11.4331 L6.4764,11.4296 L6.5149,11.4296 L6.5604,11.4226 L6.6024,11.4191 L6.6444,11.4121 L6.6864,11.4051 L6.7284,11.3946 L6.7669,11.3876 L6.8054,11.3736 L6.8439,11.3631 L6.8824,11.3491 L6.9209,11.3316 L6.9559,11.3176 L6.9909,11.3001 L7.0224,11.2826 L7.0574,11.2616 L7.0854,11.2406 L7.1134,11.2231 L7.1379,11.1986 L7.1624,11.1776 L7.1834,11.1566 L7.2044,11.1321 L7.2184,11.1111 L7.2359,11.0866 L7.2499,11.0621 L7.2604,11.0376 L7.2709,11.0131 L7.2779,10.9886 L7.2849,10.9641 Z" id="Fill-47" fill="#CED8DA"></path>
                <path d="M5.75365,10.5469 C6.10365,10.3439 6.67415,10.3439 7.02415,10.5469 C7.37415,10.7499 7.37415,11.0789 7.02065,11.2819 C6.67415,11.4849 6.10365,11.4849 5.75365,11.2819 C5.40015,11.0789 5.40015,10.7499 5.75365,10.5469" id="Fill-49" fill="#BEBEBE"></path>
                <polygon id="Fill-51" fill="#CED8DA" points="7.0217 6.2265 7.0217 10.948 7.0182 10.9655 7.0112 10.9795 7.0042 11.0005 6.9972 11.018 6.9867 11.0355 6.9762 11.0495 6.9622 11.067 6.9482 11.0845 6.9377 11.0985 6.9202 11.1125 6.9027 11.13 6.8817 11.144 6.8607 11.158 6.8362 11.172 6.8117 11.186 6.7907 11.1965 6.7662 11.207 6.7382 11.2175 6.7102 11.228 6.6822 11.2385 6.6577 11.2455 6.6297 11.2525 6.5982 11.256 6.5702 11.263 6.5387 11.2665 6.5107 11.27 6.4792 11.2735 6.4477 11.277 6.4197 11.277 6.3882 11.277 6.3602 11.277 6.3287 11.277 6.2972 11.2735 6.2657 11.27 6.2342 11.2665 6.2097 11.263 6.1782 11.256 6.1502 11.2525 6.1187 11.2455 6.0907 11.2385 6.0662 11.228 6.0382 11.2175 6.0137 11.207 5.9857 11.1965 5.9612 11.186 5.9367 11.172 5.9192 11.158 5.8947 11.144 5.8772 11.13 5.8562 11.1125 5.8387 11.0985 5.8247 11.0845 5.8107 11.067 5.7967 11.0495 5.7862 11.0355 5.7792 11.018 5.7722 11.0005 5.7652 10.9795 5.7617 10.9655 5.7547 10.948 5.7547 6.2265 5.7617 6.244 5.7652 6.2615 5.7722 6.279 5.7792 6.2965 5.7862 6.314 5.7967 6.3315 5.8107 6.349 5.8247 6.363 5.8387 6.377 5.8562 6.3945 5.8772 6.4085 5.8947 6.4225 5.9192 6.44 5.9367 6.4505 5.9612 6.4645 5.9857 6.4785 6.0137 6.489 6.0382 6.4995 6.0662 6.51 6.0907 6.517 6.1187 6.524 6.1502 6.531 6.1782 6.538 6.2097 6.545 6.2342 6.5485 6.2657 6.552 6.2972 6.5555 6.3287 6.559 6.3602 6.559 6.3882 6.559 6.4197 6.559 6.4477 6.559 6.4792 6.5555 6.5107 6.552 6.5387 6.5485 6.5702 6.545 6.5982 6.538 6.6297 6.531 6.6577 6.524 6.6822 6.517 6.7102 6.51 6.7382 6.4995 6.7662 6.489 6.7907 6.4785 6.8117 6.4645 6.8362 6.4505 6.8607 6.44 6.8817 6.4225 6.9027 6.4085 6.9202 6.3945 6.9377 6.377 6.9482 6.363 6.9622 6.349 6.9762 6.3315 6.9867 6.314 6.9972 6.2965 7.0042 6.279 7.0112 6.2615 7.0182 6.244"></polygon>
                <path d="M5.9381,5.93285 C6.1866,5.78935 6.5926,5.78935 6.8376,5.93285 C7.0861,6.07635 7.0861,6.30735 6.8376,6.45085 C6.5926,6.59435 6.1866,6.59435 5.9381,6.45085 C5.6931,6.30735 5.6931,6.07635 5.9381,5.93285" id="Fill-53" fill="#BEBEBE"></path>
                <polygon id="Fill-55" fill="#CED8DA" points="6.8509 2.39505 6.8509 6.18205 6.8474 6.19255 6.8474 6.20655 6.8404 6.22055 6.8334 6.23105 6.8264 6.24505 6.8194 6.25555 6.8089 6.26605 6.7984 6.28005 6.7879 6.29055 6.7774 6.30455 6.7669 6.31505 6.7494 6.32555 6.7354 6.33605 6.7179 6.34305 6.7004 6.35355 6.6829 6.36405 6.6619 6.37105 6.6444 6.37805 6.6269 6.38855 6.6059 6.39205 6.5849 6.39905 6.5639 6.40605 6.5429 6.40955 6.5219 6.41305 6.4974 6.41655 6.4764 6.41655 6.4554 6.42005 6.4344 6.42355 6.4099 6.42355 6.3889 6.42355 6.3644 6.42355 6.3434 6.42355 6.3224 6.42005 6.3014 6.41655 6.2769 6.41655 6.2559 6.41305 6.2349 6.40955 6.2104 6.40605 6.1929 6.39905 6.1719 6.39205 6.1509 6.38855 6.1334 6.37805 6.1124 6.37105 6.0914 6.36405 6.0739 6.35355 6.0564 6.34305 6.0424 6.33605 6.0284 6.32555 6.0144 6.31505 6.0004 6.30455 5.9864 6.29055 5.9759 6.28005 5.9654 6.26605 5.9549 6.25555 5.9479 6.24505 5.9409 6.23105 5.9339 6.22055 5.9304 6.20655 5.9269 6.19255 5.9234 6.18205 5.9234 2.39505 5.9269 2.40905 5.9304 2.41955 5.9339 2.43355 5.9409 2.44755 5.9479 2.45805 5.9549 2.46855 5.9654 2.48255 5.9759 2.49305 5.9864 2.50705 6.0004 2.51755 6.0144 2.52805 6.0284 2.54205 6.0424 2.54905 6.0564 2.55955 6.0739 2.57005 6.0914 2.57705 6.1124 2.58755 6.1334 2.59455 6.1509 2.60155 6.1719 2.60855 6.1929 2.61205 6.2104 2.61905 6.2349 2.62255 6.2559 2.62605 6.2769 2.62955 6.3014 2.63305 6.3224 2.63655 6.3434 2.63655 6.3644 2.63655 6.3889 2.64005 6.4099 2.63655 6.4344 2.63655 6.4554 2.63655 6.4764 2.63305 6.4974 2.62955 6.5219 2.62605 6.5429 2.62255 6.5639 2.61905 6.5849 2.61205 6.6059 2.60855 6.6269 2.60155 6.6444 2.59455 6.6619 2.58755 6.6829 2.57705 6.7004 2.57005 6.7179 2.55955 6.7354 2.54905 6.7494 2.54205 6.7669 2.52805 6.7774 2.51755 6.7879 2.50705 6.7984 2.49305 6.8089 2.48255 6.8194 2.46855 6.8264 2.45805 6.8334 2.44755 6.8404 2.43355 6.8474 2.41955 6.8474 2.40905"></polygon>
                <path d="M12.4978,33.65495 L12.4943,33.65145 L11.0593,32.82195 L10.7478,32.56645 L10.5133,32.20245 L10.3628,31.73345 L10.3138,31.17345 L10.3278,30.86195 L10.3628,30.55045 L10.4293,30.23195 L10.5133,29.91345 L10.6218,29.59495 L10.7478,29.27645 L10.8948,28.96495 L11.0628,28.66045 L11.2378,28.36645 L11.4338,28.08645 L11.6473,27.81695 L11.8678,27.56495 L12.1058,27.33395 L12.3473,27.12045 L12.5993,26.92795 L12.8583,26.75995 L13.3728,26.52545 L13.8523,26.42045 L14.2863,26.44495 L14.6608,26.58495 L16.0923,27.41445 L16.1028,27.41795 C16.5613,27.68395 16.8483,28.25445 16.8448,29.06645 C16.8448,30.69045 15.7073,32.66445 14.3003,33.47645 C13.5933,33.88245 12.9598,33.91745 12.4978,33.65495 Z" id="Fill-57" fill="#1C3C50"></path>
                <path d="M14.30205,27.594 C15.70555,26.7855 16.85005,27.4435 16.84655,29.064 C16.84655,30.6915 15.70555,32.6655 14.29855,33.4775 C12.89505,34.286 11.75055,33.628 11.75055,32.004 C11.75405,30.38 12.89855,28.406 14.30205,27.594" id="Fill-59" fill="#24465C"></path>
                <path d="M14.30205,28.2744 C15.38355,27.6479 16.26205,28.1554 16.26205,29.4049 C16.26205,30.6544 15.38355,32.1734 14.29855,32.7964 C13.21705,33.4229 12.33855,32.9154 12.34205,31.6659 C12.34205,30.4164 13.21705,28.8974 14.30205,28.2744" id="Fill-61" fill="#2A556F"></path>
                <polygon id="Fill-63" fill="#1C3C50" points="12.4971 33.6525 11.0586 32.823 10.7471 32.564 10.5126 32.2 10.3656 31.7345 10.3131 31.1745 10.3271 30.863 10.3656 30.548 10.4286 30.2295 10.5161 29.9145 10.6211 29.5925 10.7471 29.2775 10.8941 28.966 11.0621 28.6615 11.2406 28.3675 11.4366 28.0875 11.6466 27.818 11.8671 27.566 12.1051 27.3315 12.3466 27.118 12.5986 26.929 12.8611 26.761 13.3721 26.5265 13.8516 26.4215 14.2856 26.4425 14.6601 26.586 16.1021 27.419 15.7241 27.2755 15.2936 27.2545 14.8141 27.3595 14.3031 27.594 14.0406 27.7585 13.7886 27.951 13.5436 28.1645 13.3091 28.399 13.0886 28.651 12.8751 28.917 12.6826 29.2005 12.5006 29.4945 12.3361 29.7955 12.1891 30.1105 12.0631 30.4255 11.9546 30.744 11.8671 31.0625 11.8076 31.381 11.7656 31.696 11.7516 32.004 11.8076 32.5675 11.9546 33.033 12.1891 33.397"></polygon>
                <polygon id="Fill-65" fill="#1E4157" points="11.49925 28.00945 11.64625 27.81695 11.86675 27.56495 12.10475 27.33395 12.34625 27.12045 12.59825 26.92795 12.86075 26.76345 13.37175 26.52545 13.52575 26.49395 14.96425 27.32695 14.81375 27.35845 14.30275 27.59295 14.04375 27.76095 13.78825 27.94995 13.54325 28.16345 13.31225 28.39795 13.08825 28.64995 12.87825 28.91595 12.75925 29.08395 11.32075 28.25445 11.36975 28.18445 11.47125 28.04095"></polygon>
                <polygon id="Fill-67" fill="#1A3649" points="10.47725 32.08695 10.36525 31.73345 10.31275 31.17345 10.32675 30.86195 10.36525 30.55045 10.37225 30.50845 11.81425 31.34145 11.80725 31.37995 11.76525 31.69495 11.75125 32.00295 11.80725 32.56645 11.91575 32.91995"></polygon>
                <path d="M5.593,17.73135 L5.593,11.15835 L5.614,11.17585 L5.6385,11.20035 L5.6665,11.22135 L5.691,11.24235 L5.719,11.26335 L5.754,11.28085 L5.7855,11.30185 L5.8205,11.31585 L5.8555,11.33335 L5.894,11.34735 L5.9325,11.36135 L5.9675,11.37535 L6.0095,11.38585 L6.0515,11.39285 L6.0935,11.40335 L6.132,11.41035 L6.174,11.41735 L6.216,11.42435 L6.258,11.42785 L6.265,11.69735 L6.265,17.88885 C6.027,17.87485 5.7925,17.82235 5.593,17.73135" id="Fill-69" fill="#E5EBEC"></path>
                <path d="M7.2233,17.7128 C7.1218,17.7653 7.0063,17.8038 6.8838,17.8353 L6.8838,11.3463 L6.9188,11.3323 L6.9573,11.3183 L6.9923,11.3008 L7.0203,11.2833 L7.0553,11.2623 L7.0868,11.2413 L7.1148,11.2238 L7.1393,11.1993 L7.1603,11.1783 L7.1813,11.1538 L7.2023,11.1328 L7.2198,11.1083 L7.2233,11.1083 L7.2233,17.7128 Z" id="Fill-71" fill="#B6C2C3"></path>
                <polygon id="Fill-73" fill="#E5EBEC" points="5.81525 11.07155 5.81525 6.35355 5.82575 6.36405 5.83975 6.37805 5.85725 6.39555 5.87825 6.40955 5.89225 6.42355 5.91675 6.43755 5.93775 6.45155 5.96225 6.46555 5.98675 6.47955 6.01475 6.48655 6.03575 6.50055 6.06375 6.50755 6.09175 6.51805 6.11975 6.52505 6.15125 6.53205 6.17925 6.53905 6.20725 6.54605 6.23525 6.54955 6.26675 6.55305 6.29125 6.55305 6.29475 6.73505 6.29475 11.27455 6.26675 11.27105 6.23525 11.26755 6.20725 11.26405 6.17925 11.25705 6.15125 11.25355 6.11975 11.24655 6.09175 11.23605 6.06375 11.22905 6.03575 11.21855 6.01475 11.20805 5.98675 11.19755 5.96225 11.18355 5.93775 11.16955 5.91675 11.15555 5.89225 11.14505 5.87825 11.13105 5.85725 11.11355 5.83975 11.09955 5.82575 11.08205"></polygon>
                <polygon id="Fill-75" fill="#B6C2C3" points="6.73435 11.2203 6.73435 6.4988 6.73785 6.4988 6.76585 6.4883 6.79035 6.4778 6.81135 6.4673 6.83585 6.4533 6.86035 6.4393 6.88135 6.4218 6.90235 6.4078 6.91985 6.3973 6.93735 6.3798 6.95135 6.3623 6.96185 6.3483 6.97235 6.3343 6.97235 11.0558 6.96185 11.0663 6.95135 11.0838 6.93735 11.0978 6.91985 11.1153 6.90235 11.1293 6.88135 11.1433 6.86035 11.1573 6.83585 11.1713 6.81135 11.1853 6.79035 11.1958 6.76585 11.2098 6.73785 11.2203"></polygon>
                <polygon id="Fill-77" fill="#E5EBEC" points="6.01335 6.3154 6.01335 2.6649 6.01685 2.6684 6.02385 2.6719 6.03085 2.6789 6.03785 2.6824 6.04485 2.6894 6.05185 2.6929 6.06235 2.6964 6.06935 2.7034 6.07635 2.7069 6.08685 2.7139 6.09035 2.7174 6.10085 2.7209 6.10785 2.7244 6.11485 2.7279 6.12535 2.7314 6.13585 2.7349 6.14285 2.7384 6.15335 2.7419 6.16385 2.7454 6.17085 2.7454 6.18135 2.7489 6.19185 2.7524 6.20235 2.7559 6.21285 2.7559 6.22335 2.7594 6.23035 2.7629 6.23735 2.7629 6.24785 2.7664 6.25835 2.7664 6.26885 2.7699 6.27935 2.7699 6.28985 2.7699 6.30035 2.7734 6.31085 2.7734 6.32135 2.7734 6.32485 6.4204 6.32135 6.4204 6.30035 6.4169 6.27585 6.4169 6.25485 6.4134 6.23385 6.4099 6.21285 6.4029 6.19185 6.3994 6.17085 6.3924 6.14985 6.3889 6.13235 6.3784 6.11135 6.3714 6.09035 6.3644 6.07635 6.3539 6.05885 6.3434 6.04135 6.3329 6.02735 6.3224"></polygon>
                <polygon id="Fill-79" fill="#B6C2C3" points="6.615 6.39065 6.615 2.78215 6.622 2.78215 6.629 2.77515 6.6395 2.77165 6.6465 2.76815 6.657 2.76465 6.664 2.76115 6.6745 2.75765 6.6815 2.75065 6.6885 2.74715 6.692 2.74365 6.7025 2.74015 6.7095 2.73315 6.7165 2.72965 6.72 2.72265 6.727 2.71915 6.734 2.71215 6.741 2.70865 6.7445 2.70165 6.7515 2.69815 6.7585 2.69115 6.762 2.68415 6.7655 2.68065 6.7725 2.67365 6.7725 2.67365 6.7725 6.30665 6.7655 6.31715 6.748 6.32415 6.734 6.33465 6.7165 6.34515 6.699 6.35565 6.685 6.36265 6.664 6.37315 6.6465 6.38015 6.6255 6.38715"></polygon>
                <g id="Group-83" transform="translate(3.500000, 0.000000)">
                    <mask id="mask-4" fill="white">
                        <use xlink:href="#path-3"></use>
                    </mask>
                    <g id="Clip-82"></g>
                    <path d="M2.5578,2.1798 C2.7398,2.0748 3.0373,2.0748 3.2158,2.1798 C3.3978,2.2848 3.3978,2.4563 3.2158,2.5578 C3.0373,2.6663 2.7398,2.6663 2.5578,2.5578 C2.3758,2.4563 2.3758,2.2848 2.5578,2.1798" id="Fill-81" fill="#E0DCDC" mask="url(#mask-4)"></path>
                </g>
                <g id="Group-86" transform="translate(3.500000, 0.000000)">
                    <mask id="mask-6" fill="white">
                        <use xlink:href="#path-5"></use>
                    </mask>
                    <g id="Clip-85"></g>
                    <polygon id="Fill-84" fill="#CED8DA" mask="url(#mask-6)" points="4.37955 1.6723 4.37955 2.2883 4.36905 2.3268 4.35855 2.3688 4.34105 2.4073 4.32005 2.4493 4.30255 2.4878 4.27455 2.5298 4.24655 2.5683 4.21155 2.6068 4.17655 2.6418 4.13805 2.6803 4.09605 2.7153 4.04705 2.7503 4.00155 2.7818 3.94555 2.8133 3.88955 2.8448 3.83355 2.8728 3.77405 2.9008 3.71455 2.9253 3.64805 2.9498 3.58155 2.9673 3.51855 2.9883 3.45205 3.0023 3.38205 3.0198 3.31555 3.0338 3.24555 3.0443 3.17205 3.0513 3.10555 3.0583 3.02855 3.0618 2.96205 3.0653 2.88855 3.0653 2.81855 3.0653 2.74505 3.0618 2.67505 3.0583 2.60155 3.0513 2.53155 3.0443 2.46155 3.0338 2.39505 3.0198 2.32505 3.0058 2.25855 2.9883 2.19205 2.9673 2.12555 2.9498 2.06605 2.9253 2.00305 2.9008 1.94355 2.8728 1.88405 2.8448 1.82805 2.8133 1.77555 2.7818 1.72655 2.7503 1.68105 2.7153 1.63905 2.6803 1.59705 2.6418 1.56205 2.6068 1.53055 2.5683 1.50255 2.5298 1.47455 2.4878 1.45355 2.4493 1.43255 2.4073 1.41855 2.3688 1.40455 2.3268 1.39405 2.2883 1.39405 1.6723 1.40455 1.7143 1.41855 1.7528 1.43255 1.7948 1.45355 1.8333 1.47455 1.8753 1.50255 1.9138 1.53055 1.9558 1.56205 1.9908 1.59705 2.0293 1.63905 2.0643 1.68105 2.1028 1.72655 2.1343 1.77555 2.1693 1.82805 2.2008 1.88405 2.2323 1.94355 2.2603 2.00305 2.2883 2.06605 2.3128 2.12555 2.3338 2.19205 2.3548 2.25855 2.3723 2.32505 2.3898 2.39505 2.4038 2.46155 2.4178 2.53155 2.4283 2.60155 2.4388 2.67505 2.4458 2.74505 2.4493 2.81855 2.4528 2.88855 2.4563 2.96205 2.4528 3.02855 2.4493 3.10555 2.4458 3.17205 2.4388 3.24555 2.4283 3.31555 2.4178 3.38205 2.4038 3.45205 2.3898 3.51855 2.3723 3.58155 2.3548 3.64805 2.3338 3.71455 2.3128 3.77405 2.2883 3.83355 2.2603 3.88955 2.2323 3.94555 2.2008 4.00155 2.1693 4.04705 2.1343 4.09605 2.1028 4.13805 2.0643 4.17655 2.0293 4.21155 1.9908 4.24655 1.9558 4.27455 1.9138 4.30255 1.8753 4.32005 1.8333 4.34105 1.7948 4.35855 1.7528 4.36905 1.7143"></polygon>
                </g>
                <g id="Group-89" transform="translate(3.500000, 0.000000)">
                    <mask id="mask-8" fill="white">
                        <use xlink:href="#path-7"></use>
                    </mask>
                    <g id="Clip-88"></g>
                    <path d="M1.8298,0.97825 C2.4143,0.63875 3.3593,0.63875 3.9438,0.97825 C4.5283,1.31425 4.5283,1.86375 3.9438,2.19975 C3.3593,2.53575 2.4143,2.53575 1.8298,2.19975 C1.2453,1.86375 1.2453,1.31425 1.8298,0.97825" id="Fill-87" fill="#BEBEBE" mask="url(#mask-8)"></path>
                </g>
                <polygon id="Fill-90" fill="#E5EBEC" points="5.04945 2.59 5.04945 1.974 5.06345 1.9915 5.09845 2.03 5.13695 2.065 5.17895 2.1 5.22795 2.135 5.27345 2.17 5.32945 2.2015 5.38545 2.2295 5.44145 2.261 5.50445 2.289 5.56395 2.31 5.62695 2.3345 5.69345 2.3555 5.75645 2.373 5.82645 2.3905 5.88945 2.4045 5.96295 2.4185 6.02945 2.429 6.10295 2.4395 6.17295 2.443 6.17995 2.443 6.17995 3.059 6.17295 3.059 6.10295 3.052 6.02945 3.045 5.96295 3.031 5.88945 3.0205 5.82645 3.0065 5.75645 2.989 5.69345 2.968 5.62695 2.9505 5.56395 2.926 5.50445 2.9015 5.44145 2.8735 5.38545 2.8455 5.32945 2.814 5.27345 2.7825 5.22795 2.7475 5.17895 2.716 5.13695 2.6775 5.09845 2.6425 5.06345 2.604"></polygon>
                <g id="Group-94" transform="translate(3.500000, 0.000000)">
                    <mask id="mask-10" fill="white">
                        <use xlink:href="#path-9"></use>
                    </mask>
                    <g id="Clip-93"></g>
                    <polygon id="Fill-92" fill="#B6C2C3" mask="url(#mask-10)" points="3.7268 2.91795 3.7268 2.30545 3.7758 2.28795 3.8318 2.25995 3.8913 2.23195 3.9438 2.20045 3.9998 2.16895 4.0488 2.13395 4.0943 2.10245 4.1363 2.06395 4.1783 2.02895 4.2133 1.99045 4.2448 1.95545 4.2728 1.91345 4.2938 1.88545 4.2938 2.49795 4.2728 2.52945 4.2448 2.56795 4.2133 2.60645 4.1783 2.64145 4.1363 2.67995 4.0943 2.71495 4.0488 2.74995 3.9998 2.78145 3.9438 2.81295 3.8913 2.84445 3.8318 2.87245 3.7758 2.90045"></polygon>
                </g>
            </g>
        </g>
    </g>
</svg>