<?xml version="1.0" encoding="UTF-8"?>
<svg width="40px" height="40px" viewBox="0 0 40 40" version="1.1" xmlns="http://www.w3.org/2000/svg" xmlns:xlink="http://www.w3.org/1999/xlink">
    <!-- Generator: Sketch 52.5 (67469) - http://www.bohemiancoding.com/sketch -->
    <title>Icon/Category/Software</title>
    <desc>Created with Sketch.</desc>
    <defs>
        <polygon id="path-1" points="2.7044 1.362 25.9044 1.362 25.9044 32 2.7044 32"></polygon>
    </defs>
    <g id="Icon/Category/Software" stroke="none" stroke-width="1" fill="none" fill-rule="evenodd">
        <g id="Group-21" transform="translate(7.000000, 1.000000)">
            <g id="Group-20">
                <polygon id="Fill-1" fill="#9D9E9D" points="1 30.4814 1 35.8214 1.036 36.2014 1.148 36.5454 1.324 36.8134 1.548 37.0014 4.256 38.5654 4.024 38.3774 3.856 38.1094 3.744 37.7654 3.704 37.3494 3.712 21.4374 1.008 19.8734"></polygon>
                <polygon id="Fill-2" fill="#E5EBEC" points="1.0072 19.8734 3.7112 21.4374 26.9072 8.0494 24.1992 6.4894"></polygon>
                <polygon id="Fill-3" fill="#1C3C50" points="23.0536 0.0014 22.6976 0.0774 22.3176 0.2494 2.8896 11.4614 2.6976 11.5774 2.5136 11.7214 2.3296 11.8774 2.1576 12.0494 1.9936 12.2374 1.8416 12.4374 1.6936 12.6494 1.5616 12.8654 1.4376 13.0854 1.3296 13.3174 1.2376 13.5534 1.1576 13.7854 1.0936 14.0214 1.0416 14.2574 1.0176 14.4894 1.0056 14.7174 1.0056 19.8734 3.7096 21.4374 3.7136 16.2814 3.7256 16.0494 3.7496 15.8214 3.7976 15.5854 3.8616 15.3494 3.9416 15.1134 4.0376 14.8814 4.1416 14.6494 4.2696 14.4214 4.4016 14.2054 4.5456 13.9974 4.7016 13.8014 4.8656 13.6134 5.0336 13.4414 5.2136 13.2814 5.4016 13.1414 5.5976 13.0174 25.0256 1.8134 25.4056 1.6414 25.7576 1.5654 26.0776 1.5774 26.3536 1.6814 23.6496 0.1214 23.3696 0.0214"></polygon>
                <g id="Group-19" transform="translate(1.000000, 0.690600)">
                    <path d="M4.5956,12.3288 L24.0236,1.1208 C25.0596,0.5248 25.9076,1.0128 25.9076,2.2088 L25.9036,7.3608 L2.7076,20.7448 L2.7116,15.5888 C2.7116,14.3928 3.5596,12.9288 4.5956,12.3288" id="Fill-4" fill="#2A556F"></path>
                    <g id="Group-8" transform="translate(0.000000, 6.000000)">
                        <mask id="mask-2" fill="white">
                            <use xlink:href="#path-1"></use>
                        </mask>
                        <g id="Clip-7"></g>
                        <path d="M25.9044,1.362 L25.8964,17.278 C25.8964,18.474 25.0524,19.942 24.0164,20.538 C16.8884,24.65 11.7124,27.634 4.5884,31.746 C3.5484,32.342 2.7044,31.854 2.7044,30.658 L2.7084,14.746 L25.9044,1.362 Z" id="Fill-6" fill="#E5EBEC" mask="url(#mask-2)"></path>
                    </g>
                    <path d="M16.9592,7.8448 C17.4632,7.5568 17.8712,7.7888 17.8712,8.3688 C17.8712,8.9488 17.4632,9.6528 16.9592,9.9408 C16.4592,10.2328 16.0512,9.9968 16.0512,9.4208 C16.0512,8.8408 16.4592,8.1328 16.9592,7.8448" id="Fill-9" fill="#E5EBEC"></path>
                    <path d="M20.088,6.038 C20.592,5.75 21,5.982 21,6.562 C21,7.142 20.592,7.846 20.088,8.134 C19.588,8.426 19.18,8.19 19.18,7.614 C19.18,7.034 19.588,6.326 20.088,6.038" id="Fill-11" fill="#EDD109"></path>
                    <path d="M23.2168,4.2312 C23.7208,3.9432 24.1288,4.1752 24.1288,4.7552 C24.1288,5.3352 23.7208,6.0392 23.2168,6.3272 C22.7168,6.6192 22.3088,6.3832 22.3088,5.8072 C22.3088,5.2272 22.7168,4.5232 23.2168,4.2312" id="Fill-13" fill="#C2231D"></path>
                    <polygon id="Fill-15" fill="#2A556F" points="9.9748 24.78 9.9748 23.94 13.8508 21.704 13.8508 22.544"></polygon>
                    <polygon id="Fill-17" fill="#2A556F" points="5.6544 26.3212 5.6544 25.0172 8.4504 22.1292 5.6544 22.4812 5.6544 21.1892 9.6664 20.8812 9.6664 21.9892"></polygon>
                </g>
            </g>
        </g>
    </g>
</svg>