<?xml version="1.0" encoding="UTF-8" standalone="no"?>
<!-- Created with Inkscape (http://www.inkscape.org/) -->

<svg
   version="1.1"
   id="svg48"
   width="316.06723"
   height="316.06699"
   viewBox="0 0 316.06724 316.06699"
   xmlns="http://www.w3.org/2000/svg"
   xmlns:svg="http://www.w3.org/2000/svg">
  <defs
     id="defs52" />
  <g
     id="g56"
     transform="matrix(1.3333333,0,0,-1.3333333,0,486.06667)">
    <g
       id="g58"
       transform="scale(0.1)">
      <path
         d="m 1506.4281,1786.3535 -51.95,29.99 -10.61,10.65 -4.02,21.18 0.06,109.56 51.95,-29.99 -0.06,-109.57 4.02,-21.17 10.61,-10.65"
         style="fill:#f0b11d;fill-opacity:1;fill-rule:evenodd;stroke:none"
         id="path90" />
      <path
         d="m 1491.8581,1927.7435 -51.95,29.99 93.72,54.08 51.95,-30 -93.72,-54.07"
         style="fill:#f0b11d;fill-opacity:1;fill-rule:evenodd;stroke:none"
         id="path92" />
      <path
         d="m 1152.7481,1582.3535 -51.95,29.99 -10.6201,10.65 -4.02,21.16 0.06,109.57 51.9501,-30 -0.05,-109.56 4.01,-21.16 10.62,-10.65"
         style="fill:#f0b11d;fill-opacity:1;fill-rule:evenodd;stroke:none"
         id="path94" />
      <path
         d="m 1138.1681,1723.7235 -51.9501,30 93.7201,54.06 51.95,-30 -93.72,-54.06"
         style="fill:#f0b11d;fill-opacity:1;fill-rule:evenodd;stroke:none"
         id="path96" />
      <path
         d="m 799.058,1378.3425 -51.95,29.992 -10.6,10.648 -4.02,21.161 0.05,109.56 51.95,-29.99 -0.05,-109.559 4.02,-21.172 10.6,-10.64"
         style="fill:#f0b11d;fill-opacity:1;fill-rule:evenodd;stroke:none"
         id="path98" />
      <path
         d="m 784.488,1519.7135 -51.95,29.99 93.72,54.06 51.95,-29.99 -93.72,-54.06"
         style="fill:#f0b11d;fill-opacity:1;fill-rule:evenodd;stroke:none"
         id="path100" />
      <path
         d="m 878.208,1573.7735 -0.04,-109.56 c -0.02,-71.57 -93.76,-125.629 -93.73,-54.059 l 0.05,109.559 93.72,54.06"
         style="fill:#ffcb05;fill-opacity:1;fill-rule:evenodd;stroke:none"
         id="path102" />
      <path
         d="m 1231.8881,1777.7835 -0.05,-109.57 c -0.02,-71.58 -93.74,-125.61 -93.72,-54.05 l 0.05,109.56 93.72,54.06"
         style="fill:#ffcb05;fill-opacity:1;fill-rule:evenodd;stroke:none"
         id="path104" />
      <path
         d="m 1585.5781,1981.8135 -0.04,-109.58 c -0.04,-71.53 -93.76,-125.67 -93.74,-54.06 l 0.06,109.57 93.72,54.07"
         style="fill:#ffcb05;fill-opacity:1;fill-rule:evenodd;stroke:none"
         id="path106" />
      <path
         d="m 1788.2381,3257.2935 -51.95,29.99 94.9,54.71 20.32,7.08 14.52,-3.88 51.95,-30 -14.52,3.89 -20.32,-7.08 -94.9,-54.71"
         style="fill:#f0b11d;fill-opacity:1;fill-rule:evenodd;stroke:none"
         id="path108" />
      <path
         d="m 1788.1981,3149.0235 -51.95,30 0.04,108.26 51.95,-29.99 -0.04,-108.27"
         style="fill:#f0b11d;fill-opacity:1;fill-rule:evenodd;stroke:none"
         id="path110" />
      <path
         d="m 1788.0781,2848.7735 -51.95,29.99 94.9,54.74 20.34,7.08 14.52,-3.89 51.95,-29.99 -14.52,3.89 -20.34,-7.08 -94.9,-54.74"
         style="fill:#f0b11d;fill-opacity:1;fill-rule:evenodd;stroke:none"
         id="path112" />
      <path
         d="m 1788.0381,2740.5335 -51.95,30 0.04,108.23 51.95,-29.99 -0.04,-108.24"
         style="fill:#f0b11d;fill-opacity:1;fill-rule:evenodd;stroke:none"
         id="path114" />
      <path
         d="m 1787.9181,2440.2835 -51.95,29.99 94.9,54.75 20.34,7.08 14.52,-3.88 51.95,-30 -14.52,3.89 -20.34,-7.08 -94.9,-54.75"
         style="fill:#f0b11d;fill-opacity:1;fill-rule:evenodd;stroke:none"
         id="path116" />
      <path
         d="m 1787.8781,2332.0435 -51.95,29.99 0.04,108.24 51.95,-29.99 -0.04,-108.24"
         style="fill:#f0b11d;fill-opacity:1;fill-rule:evenodd;stroke:none"
         id="path118" />
      <path
         d="m 1787.9181,2440.2835 94.9,54.75 c 61.99,35.75 61.89,-72.52 -0.04,-108.25 l -94.9,-54.74 0.04,108.24"
         style="fill:#ffcb05;fill-opacity:1;fill-rule:evenodd;stroke:none"
         id="path120" />
      <path
         d="m 1788.0781,2848.7735 94.9,54.74 c 61.99,35.76 61.9,-72.51 -0.04,-108.23 l -94.9,-54.75 0.04,108.24"
         style="fill:#ffcb05;fill-opacity:1;fill-rule:evenodd;stroke:none"
         id="path122" />
      <path
         d="m 1788.2381,3257.2935 94.9,54.71 c 61.95,35.73 61.94,-72.49 -0.04,-108.24 l -94.9,-54.74 0.04,108.27"
         style="fill:#ffcb05;fill-opacity:1;fill-rule:evenodd;stroke:none"
         id="path124" />
      <path
         d="m 1837.0081,3449.7435 -106.28,61.35 -2.84,1.06 -3.25,0.18 -3.56,-0.78 -3.83,-1.76 -1167.3601,-673.38 -3.83,-2.65 -3.57,-3.35 -3.25,-3.93 -2.82,-4.34 -2.34,-4.61 -1.77,-4.77 -1.12,-4.77 -0.39,-4.65 -0.52,-1348.24 0.38,-4.191 1.12,-3.488 1.76,-2.731 2.33,-1.922 106.28,-61.359 -2.33,1.922 -1.77,2.738 -1.11,3.481 -0.39,4.191 0.52,1348.249 0.4,4.64 1.11,4.78 1.78,4.77 2.33,4.61 2.83,4.34 3.25,3.92 3.57,3.36 3.82,2.65 1167.3601,673.38 3.84,1.75 3.56,0.78 3.25,-0.17 2.84,-1.06"
         style="fill:#34485c;fill-opacity:1;fill-rule:evenodd;stroke:none"
         id="path126" />
      <path
         d="m 1842.0981,2089.1435 0.52,1348.25 c 0,12.15 -8.62,17.09 -19.09,11.05 L 656.168,2775.0635 c -10.47,-6.04 -19.09,-20.97 -19.09,-33.07 l -0.52,-1348.249 c -0.01,-12.09 8.56,-17.121 19.07,-11.051 l 1167.3601,673.37 c 10.52,6.07 19.11,20.93 19.11,33.08"
         style="fill:#3d566e;fill-opacity:1;fill-rule:evenodd;stroke:none"
         id="path128" />
      <path
         d="m 785.018,2912.0835 -51.95,30 0.04,109.58 4.03,25.8 10.64,22.9 15.01,18.74 17.21,13.27 17.21,6.58 15.01,-1.41 51.95,-29.99 -15.01,1.4 -17.21,-6.58 -17.21,-13.27 -15.01,-18.74 -10.63,-22.89 -4.04,-25.81 -0.04,-109.58"
         style="fill:#f0b11d;fill-opacity:1;fill-rule:evenodd;stroke:none"
         id="path130" />
      <path
         d="m 1138.6881,3116.1035 -51.9601,29.99 0.07,109.59 4.03,25.82 10.6201,22.9 15.03,18.71 17.19,13.27 17.21,6.56 15,-1.4 51.95,-29.99 -14.99,1.4 -17.21,-6.56 -17.2,-13.27 -15.03,-18.71 -10.62,-22.9 -4.03,-25.82 -0.06,-109.59"
         style="fill:#f0b11d;fill-opacity:1;fill-rule:evenodd;stroke:none"
         id="path132" />
      <path
         d="m 1492.3781,3320.1135 -51.96,29.99 0.06,109.6 4.03,25.81 10.63,22.9 15.01,18.73 17.21,13.27 17.21,6.57 15.01,-1.41 51.96,-29.99 -15.02,1.4 -17.2,-6.56 -17.22,-13.28 -15.01,-18.72 -10.63,-22.9 -4.03,-25.81 -0.05,-109.6"
         style="fill:#f0b11d;fill-opacity:1;fill-rule:evenodd;stroke:none"
         id="path134" />
      <path
         d="m 1492.3781,3320.1135 0.05,109.6 c 0.03,71.59 93.76,125.61 93.73,54.05 l -0.05,-109.57 -93.73,-54.08"
         style="fill:#ffcb05;fill-opacity:1;fill-rule:evenodd;stroke:none"
         id="path136" />
      <path
         d="m 1138.6881,3116.1035 0.06,109.59 c 0.03,71.6 93.75,125.6 93.71,54.05 l -0.04,-109.58 -93.73,-54.06"
         style="fill:#ffcb05;fill-opacity:1;fill-rule:evenodd;stroke:none"
         id="path138" />
      <path
         d="m 785.018,2912.0835 0.04,109.58 c 0.03,71.57 93.76,125.67 93.73,54.06 l -0.03,-109.56 -93.74,-54.08"
         style="fill:#ffcb05;fill-opacity:1;fill-rule:evenodd;stroke:none"
         id="path140" />
      <path
         d="m 1744.1481,3241.3435 -20.53,11.85 -2.5,0.96 -2.88,0.14 -3.17,-0.69 -3.39,-1.56 -945.8201,-545.57 -3.4,-2.36 -3.17,-2.97 -2.88,-3.48 -2.51,-3.83 -2.07,-4.08 -1.56,-4.23 -1,-4.23 -0.34,-4.14 -0.42,-1092.36 0.34,-3.73 1,-3.1 1.55,-2.41 2.07,-1.7 20.52,-11.85 -2.07,1.69 -1.55,2.42 -0.99,3.1 -0.35,3.72 0.43,1092.37 0.34,4.13 0.99,4.23 1.57,4.23 2.07,4.09 2.5,3.83 2.88,3.47 3.17,2.97 3.41,2.36 945.8101,545.57 3.4,1.57 3.17,0.69 2.87,-0.15 2.51,-0.95"
         style="fill:#bdbdbd;fill-opacity:1;fill-rule:evenodd;stroke:none"
         id="path142" />
      <path
         d="m 1732.1981,3240.1835 -945.8101,-545.57 c -9.32,-5.38 -16.92,-18.53 -16.93,-29.31 l -0.43,-1092.37 c 0,-10.76 7.6,-15.15 16.92,-9.77 l 945.8201,545.57 c 9.32,5.37 16.92,18.54 16.92,29.31 l 0.42,1092.36 c 0,10.76 -7.6,15.15 -16.91,9.78"
         style="fill:#e6eaeb;fill-opacity:1;fill-rule:evenodd;stroke:none"
         id="path144" />
      <path
         d="m 1581.8381,2960.3935 -20.63,11.91 -1.66,0.62 -1.91,0.11 -2.11,-0.47 -2.27,-1.03 -629.3401,-363.02 -2.27,-1.58 -2.11,-1.98 -1.92,-2.31 -1.67,-2.54 -1.37,-2.72 -1.04,-2.81 -0.67,-2.83 -0.22,-2.74 -0.28,-726.86 0.22,-2.48 0.67,-2.06 1.03,-1.61 1.38,-1.14 20.63,-11.91 -1.38,1.14 -1.03,1.61 -0.66,2.07 -0.23,2.48 0.28,726.85 0.23,2.75 0.66,2.82 1.05,2.81 1.36,2.72 1.67,2.55 1.93,2.31 2.1,1.97 2.27,1.58 629.3401,363.02 2.27,1.04 2.11,0.46 1.91,-0.11 1.66,-0.62"
         style="fill:#121220;fill-opacity:1;fill-rule:evenodd;stroke:none"
         id="path146" />
      <path
         d="m 1573.8881,2959.6235 -629.3401,-363.03 c -6.21,-3.58 -11.27,-12.33 -11.27,-19.5 l -0.28,-726.85 c 0,-7.17 5.05,-10.09 11.26,-6.51 l 629.3401,363.02 c 6.2,3.57 11.26,12.33 11.26,19.5 l 0.28,726.85 c 0,7.17 -5.05,10.09 -11.25,6.52"
         style="fill:#2c3e50;fill-opacity:1;fill-rule:evenodd;stroke:none"
         id="path148" />
      <path
         d="m 539.238,2826.4835 -2.82,-4.34 -2.34,-4.61 -1.77,-4.77 -1.12,-4.77 -0.39,-4.65 -0.52,-1348.24 0.38,-4.191 1.12,-3.488 1.76,-2.731 2.33,-1.922 106.28,-61.359 -2.33,1.922 -1.77,2.738 -1.11,3.481 -0.39,4.191 0.52,1348.249 0.4,4.64 1.11,4.78 1.78,4.77 2.33,4.61 -103.45,65.69"
         style="fill:#2c3e50;fill-opacity:1;fill-rule:evenodd;stroke:none"
         id="path150" />
      <path
         d="m 452.618,1578.7335 -51.96,29.99 -8.71,12.31 -2.9,18.19 2.92,21.55 8.71,22.35 14.53,20.64 20.34,16.38 94.87,54.73 51.95,-30 -94.87,-54.72 -20.34,-16.39 -14.53,-20.63 -8.71,-22.36 -2.92,-21.54 2.9,-18.2 8.72,-12.3"
         style="fill:#f0b11d;fill-opacity:1;fill-rule:evenodd;stroke:none"
         id="path152" />
      <path
         d="m 452.768,1987.2135 -51.95,29.99 -8.71,12.31 -2.89,18.2 2.92,21.55 8.71,22.36 14.53,20.64 20.33,16.38 94.87,54.72 51.95,-29.99 -94.87,-54.73 -20.33,-16.37 -14.53,-20.65 -8.71,-22.35 -2.92,-21.55 2.9,-18.21 8.7,-12.3"
         style="fill:#f0b11d;fill-opacity:1;fill-rule:evenodd;stroke:none"
         id="path154" />
      <path
         d="m 452.928,2395.6935 -51.95,29.99 -8.71,12.32 -2.89,18.19 2.9,21.56 8.73,22.35 14.52,20.65 20.32,16.38 94.89,54.72 51.95,-29.99 -94.88,-54.73 -20.33,-16.37 -14.52,-20.65 -8.72,-22.35 -2.91,-21.56 2.89,-18.19 8.71,-12.32"
         style="fill:#f0b11d;fill-opacity:1;fill-rule:evenodd;stroke:none"
         id="path156" />
      <path
         d="m 582.648,2453.6235 -94.87,-54.74 c -61.98,-35.74 -61.91,72.52 0.03,108.25 l 94.88,54.73 -0.04,-108.24"
         style="fill:#ffcb05;fill-opacity:1;fill-rule:evenodd;stroke:none"
         id="path158" />
      <path
         d="m 582.488,2045.1335 -94.87,-54.73 c -61.97,-35.74 -61.91,72.51 0.04,108.24 l 94.87,54.73 -0.04,-108.24"
         style="fill:#ffcb05;fill-opacity:1;fill-rule:evenodd;stroke:none"
         id="path160" />
      <path
         d="m 582.338,1636.6535 -94.88,-54.74 c -61.93,-35.72 -61.96,72.48 0.04,108.24 l 94.87,54.72 -0.03,-108.22"
         style="fill:#ffcb05;fill-opacity:1;fill-rule:evenodd;stroke:none"
         id="path162" />
    </g>
  </g>
</svg>
