<?xml version="1.0" encoding="UTF-8"?>
<svg width="40px" height="40px" viewBox="0 0 40 40" version="1.1" xmlns="http://www.w3.org/2000/svg" xmlns:xlink="http://www.w3.org/1999/xlink">
    <!-- Generator: Sketch 52.5 (67469) - http://www.bohemiancoding.com/sketch -->
    <title>Icon/Category/Food</title>
    <desc>Created with Sketch.</desc>
    <defs>
        <polygon id="path-1" points="0 0.463098814 27.8178462 0.463098814 27.8178462 25.84548 0 25.84548"></polygon>
        <polygon id="path-3" points="0.698584615 0.0372527487 27.8178462 0.0372527487 27.8178462 24.0963823 0.698584615 24.0963823"></polygon>
    </defs>
    <g id="Icon/Category/Food" stroke="none" stroke-width="1" fill="none" fill-rule="evenodd">
        <g id="Group-21" transform="translate(6.000000, 2.000000)">
            <g id="Group-3" transform="translate(0.000000, 9.599742)">
                <mask id="mask-2" fill="white">
                    <use xlink:href="#path-1"></use>
                </mask>
                <g id="Clip-2"></g>
                <path d="M4.07261538,2.70387692 C2.78769231,3.9888 1.75753846,5.52110769 1.056,7.21956923 C0.372923077,8.85526154 0,10.6497231 0,12.5364923 C0,14.4269538 0.372923077,16.2214154 1.056,17.8571077 C1.75753846,19.5555692 2.78769231,21.0878769 4.07261538,22.3728 C5.35753846,23.6577231 6.88984615,24.6915692 8.592,25.3968 C10.2276923,26.0724923 12.0221538,25.7844923 13.9089231,25.7844923 C15.7956923,25.7844923 17.5938462,26.0724923 19.2295385,25.3968 C20.928,24.6915692 22.4603077,23.6577231 23.7452308,22.3728 C25.0301538,21.0878769 26.0603077,19.5555692 26.7655385,17.8571077 C27.4449231,16.2214154 27.8215385,14.4269538 27.8215385,12.5364923 C27.8215385,10.6497231 27.4449231,8.85526154 26.7655385,7.21956923 C26.0603077,5.52110769 25.0301538,3.9888 23.7452308,2.70387692 C20.1563077,-0.888738462 17.5273846,0.9168 14.1193846,0.9168 C10.8664615,0.9168 7.51015385,-0.733661538 4.07261538,2.70387692" id="Fill-1" fill="#C2231D" mask="url(#mask-2)"></path>
            </g>
            <g id="Group-6" transform="translate(0.000000, 10.522818)">
                <mask id="mask-4" fill="white">
                    <use xlink:href="#path-3"></use>
                </mask>
                <g id="Clip-5"></g>
                <path d="M6.3655548,3.25033818 C5.30687543,4.29361399 4.45078285,5.53609132 3.8691627,6.91362053 C3.30714772,8.24388158 3,9.69906563 3,11.2285282 C3,12.7579908 3.30714772,14.2165511 3.8691627,15.5468122 C4.68604493,17.4814304 8.09081007,21.6747914 9.98597686,22.4479634 C11.3387338,22.9949236 13.8449285,22.9510317 15.4035398,22.9510317 C16.9588836,22.9510317 18.4423417,23.1839962 19.7950987,22.6336598 C21.9320626,21.7659514 25.2289993,17.8730809 26.1308373,15.7325085 C26.6928523,14.4090001 27,12.9470634 27,11.4209771 C27,9.89151456 26.6928523,8.43295422 26.1308373,7.10606946 C25.5492172,5.72516395 24.7127297,4.01675762 23.6540504,2.97348182 C19.3082369,-1.41908069 18.2789653,2.89245069 15.6845473,2.89245069 C11.1982301,2.89245069 10.9139551,-0.878873158 6.3655548,3.25033818" id="Fill-4" fill="#FF3440" mask="url(#mask-4)"></path>
            </g>
            <path d="M23.6003692,16.9679877 C20.4323692,12.8067569 15.5806769,14.1433723 15.5806769,19.2202954 C15.5806769,22.2295262 18.0176,24.6664492 21.0268308,24.6664492 C25.9523692,24.6664492 25.8231385,19.8812185 23.6003692,16.9679877" id="Fill-9" fill="#FF5D67"></path>
            <path d="M15.3732923,11.0198031 C15.3511385,11.4850338 15.4729846,11.9133415 15.0668308,12.0647262 C14.8637538,12.1422646 14.4280615,11.9982646 14.4465231,11.7914954 L14.4649846,11.5662646 L14.4612923,11.0751877 L14.4096,10.6136492 L14.3099077,10.1890338 L14.1696,9.80503385 L13.9812923,9.45426462 L13.7560615,9.15149538 L13.6157538,9.01488 C12.8034462,8.46472615 11.6145231,8.37241846 10.2077538,8.87826462 C10.1265231,8.90780308 10.0637538,8.90041846 10.0231385,8.86349538 L9.68344615,8.57918769 L9.6576,8.54595692 L9.63913846,8.50534154 L9.63544615,8.45734154 L9.63913846,8.39826462 L9.65390769,8.33549538 L9.68344615,8.27641846 L9.72036923,8.21364923 L9.76098462,8.16195692 L9.80898462,8.11026462 L9.86436923,8.06226462 L9.91606154,8.02534154 L9.97883077,8.00318769 L10.5954462,7.81118769 L11.1862154,7.68934154 L11.7474462,7.63764923 L12.2680615,7.65241846 L12.7554462,7.72626462 L13.2022154,7.86657231 L13.6046769,8.06595692 L13.9628308,8.32441846 L14.2988308,8.60872615 C14.6717538,8.92626462 14.9597538,9.34349538 15.1443692,9.84934154 L15.8717538,8.81918769 L16.2594462,9.01118769 L16.5954462,9.29180308 L15.3732923,11.0198031 Z" id="Fill-11" fill="#4B3220"></path>
            <path d="M14.7924923,11.8095877 C14.9106462,10.4803569 14.5414154,9.77881846 13.8214154,9.17328 C13.0091077,8.48281846 11.7389538,8.33143385 10.2066462,8.87789538 C10.0478769,8.93697231 9.94818462,8.84835692 9.97403077,8.68220308 C10.0035692,8.51974154 10.1549538,8.34251077 10.3137231,8.28712615 C12.0011077,7.68158769 13.4041846,7.84774154 14.2977231,8.60835692 C14.7998769,9.02928 15.1432615,9.63481846 15.2946462,10.3917415 L16.2066462,9.10681846 L16.5943385,9.29143385 L15.3721846,11.0194338 C15.3869538,11.2889723 15.3832615,11.4994338 15.3537231,11.8022031 C15.3463385,11.8871262 15.3168,11.9425108 15.2688,11.9794338 C15.0177231,12.1640492 14.7666462,12.0680492 14.7924923,11.8095877" id="Fill-13" fill="#814F2C"></path>
            <polygon id="Fill-15" fill="#5DA16A" points="26.0894769 0.617095385 26.1005538 0.594941538 26.1116308 0.569095385 26.1153231 0.543249231 26.1190154 0.517403077 26.1227077 0.491556923 26.1227077 0.465710769 26.1190154 0.439864615 26.1153231 0.417710769 26.1079385 0.395556923 26.1005538 0.380787692 26.0894769 0.366018462 26.0784 0.354941538 26.0636308 0.347556923 26.0488615 0.343864615 24.7750154 0.00048 24.7860923 0.00417230769 24.8008615 0.0115569231 24.8119385 0.0263261538 24.8230154 0.0410953846 24.8340923 0.0595569231 24.8414769 0.0780184615 24.8451692 0.100172308 24.8451692 0.126018462 24.8451692 0.148172308 24.8451692 0.177710769 24.8414769 0.203556923 24.8340923 0.229403077 24.8230154 0.251556923 24.8156308 0.277403077 24.7344 0.48048 24.6420923 0.705710769 24.5497846 0.956787692 24.4500923 1.21894154 24.3356308 1.50324923 24.2248615 1.79863385 24.1067077 2.10878769 23.9848615 2.43001846 23.8187077 2.86571077 23.6488615 3.31248 23.4716308 3.77032615 23.2944 4.23186462 23.1134769 4.69340308 22.9362462 5.15494154 22.7590154 5.60540308 22.5817846 6.04848 22.4082462 6.47678769 22.2384 6.88663385 22.0759385 7.27801846 21.9208615 7.64355692 21.7694769 7.97955692 21.6328615 8.28601846 21.4999385 8.55555692 21.3817846 8.78448 21.2451692 9.03186462 21.1011692 9.27186462 20.9571692 9.48971077 20.8094769 9.70386462 20.6580923 9.90324923 20.5067077 10.0878646 20.3516308 10.2614031 20.1965538 10.4238646 19.9602462 10.6490954 19.7128615 10.84848 19.4728615 11.0146338 19.2291692 11.1549415 18.9817846 11.2657108 18.7380923 11.3506338 18.4980923 11.4060185 18.2617846 11.4355569 18.0254769 11.4355569 17.8002462 11.4060185 17.5750154 11.3469415 18.8525538 11.6903262 19.0740923 11.7457108 19.3030154 11.7715569 19.5356308 11.7715569 19.7719385 11.7494031 20.0119385 11.6940185 20.2593231 11.6090954 20.4993231 11.4946338 20.7467077 11.3543262 20.9904 11.1881723 21.2340923 10.99248 21.4740923 10.7672492 21.6291692 10.6047877 21.7842462 10.4312492 21.9356308 10.2429415 22.0833231 10.0472492 22.2310154 9.83309538 22.3750154 9.61155692 22.5190154 9.37524923 22.6556308 9.12786462 22.7774769 8.89524923 22.9067077 8.62940308 23.0470154 8.32294154 23.1947077 7.98324923 23.3534769 7.61771077 23.5159385 7.23001846 23.6857846 6.81648 23.8593231 6.38817231 24.0328615 5.94509538 24.2100923 5.49463385 24.3910154 5.03309538 24.5682462 4.57155692 24.7491692 4.11001846 24.9227077 3.65586462 25.0925538 3.20909538 25.2587077 2.76971077 25.3842462 2.45217231 25.5024 2.14201846 25.6131692 1.84663385 25.7202462 1.56232615 25.8273231 1.30017231 25.9196308 1.04909538 26.0119385 0.823864615"></polygon>
            <path d="M24.8167385,0.278141538 C24.8462769,0.21168 24.8573538,0.137833846 24.8425846,0.0750646154 C24.8241231,0.01968 24.7835077,-0.00985846154 24.7392,0.00491076923 C24.4068923,0.0307569231 23.9084308,0.0492184615 23.3545846,0.06768 C21.8813538,0.126756923 19.9835077,0.200603077 19.1638154,0.507064615 C18.6653538,0.687987692 18.2038154,1.00552615 17.7865846,1.42644923 C17.1515077,2.06152615 16.6198154,2.92921846 16.2432,3.89660308 C15.8628923,4.87137231 15.6376615,5.94214154 15.6081231,6.99444923 C15.5638154,8.48983385 15.9293538,9.85598769 16.5865846,10.6498338 C17.0481231,11.2073723 17.6352,11.4695262 18.2628923,11.4326031 C18.8905846,11.3993723 19.5625846,11.0633723 20.1976615,10.4246031 C20.6148923,10.0110646 21.0173538,9.46091077 21.3792,8.78521846 C21.9847385,7.66644923 23.1108923,4.71998769 23.9822769,2.43075692 C24.3145846,1.56675692 24.6099692,0.791372308 24.8167385,0.278141538" id="Fill-17" fill="#78D289"></path>
            <path d="M24.8167385,0.278141538 C24.8462769,0.21168 24.8573538,0.137833846 24.8425846,0.0750646154 C24.8241231,0.01968 24.7835077,-0.00985846154 24.7392,0.00491076923 L24.6985846,0.00491076923 L21.3238154,3.37968 L21.6745846,0.148910769 L21.6672,0.148910769 L21.5970462,0.152603077 L21.5232,0.156295385 L21.4493538,0.16368 L21.4198154,0.16368 L21.0395077,3.66398769 L19.2302769,5.47321846 L19.7878154,0.348295385 L19.7693538,0.351987692 L19.5293538,0.396295385 L19.5293538,0.399987692 L18.9459692,5.75752615 L17.1256615,7.57783385 L17.7976615,1.41537231 L17.7865846,1.42644923 L17.7828923,1.43014154 L17.7792,1.43383385 L17.7755077,1.43752615 L17.7681231,1.44121846 L17.7644308,1.44491077 L17.7607385,1.45229538 L17.7570462,1.45229538 L17.7570462,1.45598769 L17.7496615,1.45968 L17.7459692,1.46337231 L17.7422769,1.47075692 L17.7385846,1.47444923 L17.7348923,1.47814154 L17.7275077,1.48183385 L17.7275077,1.48552615 L17.7238154,1.48921846 L17.7201231,1.49291077 L17.7164308,1.49660308 L17.7127385,1.50029538 L17.7090462,1.50768 L17.7016615,1.51137231 L17.6979692,1.51506462 L17.6979692,1.51875692 L17.6942769,1.51875692 L17.6905846,1.52614154 L17.6832,1.52983385 L17.6795077,1.53352615 L17.6758154,1.54091077 L17.6721231,1.54460308 L17.6684308,1.54829538 L17.6647385,1.55198769 L17.6610462,1.55937231 L17.6573538,1.56306462 L17.6536615,1.56675692 L17.6499692,1.57414154 L17.6462769,1.57783385 L17.6425846,1.58152615 L17.6388923,1.58152615 L17.6352,1.58521846 L17.6315077,1.58891077 L17.6278154,1.59260308 L17.6204308,1.59998769 L17.6167385,1.60368 L17.6130462,1.60737231 L17.6130462,1.61106462 L17.6093538,1.61106462 L17.6056615,1.61844923 L17.5982769,1.62214154 L17.5945846,1.62583385 L17.5908923,1.63321846 L17.5872,1.63691077 L17.5835077,1.64060308 L17.5798154,1.64060308 L17.5798154,1.64798769 L17.5724308,1.65168 L17.5687385,1.65537231 L17.5650462,1.66275692 L17.5613538,1.66644923 L17.5576615,1.67014154 L17.5539692,1.67383385 L17.5465846,1.68121846 L17.5428923,1.68491077 L17.5392,1.68860308 L17.5355077,1.69598769 L17.5281231,1.69968 L17.5244308,1.70706462 L17.5207385,1.71075692 L17.5170462,1.71444923 L17.5133538,1.72183385 L17.5096615,1.72552615 L16.8450462,7.86214154 C16.0770462,8.63014154 16.4056615,8.31629538 15.7964308,8.92921846 C15.8185846,9.03260308 15.8444308,9.13598769 15.8776615,9.23568 C16.4942769,8.62275692 16.1619692,8.96983385 16.9336615,8.20183385 L19.9133538,10.6867569 L19.9170462,10.6830646 L19.9244308,10.6793723 L19.9281231,10.67568 L19.9318154,10.6719877 L19.9355077,10.6682954 L19.9392,10.6646031 L19.9465846,10.6646031 L19.9650462,10.6498338 L19.9687385,10.6424492 L19.9724308,10.6387569 L19.9761231,10.6350646 L19.9798154,10.6313723 L19.9835077,10.62768 L19.9872,10.6239877 L19.9908923,10.6202954 L19.9982769,10.6166031 L20.0019692,10.6129108 L20.0056615,10.6092185 L20.0093538,10.6018338 L20.0167385,10.5981415 L20.0204308,10.5944492 L20.0425846,10.5759877 L20.0462769,10.5686031 L20.0499692,10.5686031 L20.0573538,10.5612185 L20.0610462,10.5575262 L20.0647385,10.5538338 L20.0684308,10.5501415 L20.0758154,10.5464492 L20.0795077,10.5427569 L20.0795077,10.5390646 L20.0832,10.5353723 L20.0868923,10.53168 L20.0942769,10.5279877 L20.0979692,10.5242954 L20.1016615,10.5206031 L20.1053538,10.5169108 L20.1090462,10.5095262 L20.1127385,10.5095262 L20.1164308,10.5095262 L20.1201231,10.5058338 L20.1238154,10.5021415 L20.1275077,10.4947569 L20.1312,10.4910646 L20.1348923,10.4873723 L20.1385846,10.4873723 L20.1385846,10.48368 L20.1422769,10.4799877 L20.1496615,10.4762954 L20.1533538,10.4689108 L20.1570462,10.4652185 L20.1607385,10.4615262 L20.1681231,10.4578338 L20.1681231,10.4541415 L20.1718154,10.4541415 L20.1755077,10.4467569 L20.1792,10.4430646 L20.1865846,10.4393723 L20.1902769,10.43568 L20.1939692,10.4319877 L20.1976615,10.4246031 L20.2087385,10.4135262 L17.2142769,7.91383385 L19.0382769,6.09352615 L21.6376615,8.26829538 L21.6413538,8.26460308 L21.6450462,8.26091077 L21.6487385,8.25352615 L21.6487385,8.24614154 L21.6524308,8.24244923 L21.6561231,8.23506462 L21.6561231,8.23137231 L21.6598154,8.22398769 L21.6635077,8.21660308 L21.6635077,8.21291077 L21.7558154,8.01721846 L21.7558154,8.00983385 L21.7595077,8.00614154 L21.7705846,7.98768 L21.7705846,7.98029538 L21.7742769,7.97291077 L21.7779692,7.96921846 L21.7816615,7.96183385 L21.7816615,7.95444923 L21.7853538,7.94706462 L21.7890462,7.94337231 L21.7927385,7.93598769 L21.7927385,7.92860308 L21.7964308,7.92491077 L21.8001231,7.91752615 L21.8038154,7.91014154 L21.8075077,7.90644923 L21.8075077,7.89906462 L21.8112,7.89537231 L19.3225846,5.81291077 L21.1281231,4.00368 L22.8302769,5.42521846 L22.8487385,5.38091077 L22.9816615,5.03752615 L22.9853538,5.03014154 L21.4124308,3.71937231 L24.7872,0.344603077 L24.8167385,0.278141538 Z" id="Fill-19" fill="#5DA16A"></path>
        </g>
    </g>
</svg>