<?xml version="1.0" encoding="UTF-8"?>
<svg width="40px" height="40px" viewBox="0 0 40 40" version="1.1" xmlns="http://www.w3.org/2000/svg" xmlns:xlink="http://www.w3.org/1999/xlink">
    <!-- Generator: Sketch 52.5 (67469) - http://www.bohemiancoding.com/sketch -->
    <title>Icon/Category/Education</title>
    <desc>Created with Sketch.</desc>
    <defs>
        <polygon id="path-1" points="0 0.959538462 25.8419538 0.959538462 25.8419538 35.4570462 0 35.4570462"></polygon>
        <polygon id="path-3" points="0.972138462 1.51992179 26.2044462 1.51992179 26.2044462 35.5384615 0.972138462 35.5384615"></polygon>
        <polygon id="path-5" points="3.23076923 1.61538462 4.84615385 1.61538462 4.84615385 3.23076923 3.23076923 3.23076923"></polygon>
    </defs>
    <g id="Icon/Category/Education" stroke="none" stroke-width="1" fill="none" fill-rule="evenodd">
        <g id="Group-224" transform="translate(4.000000, 1.000000)">
            <g id="Group-3" transform="translate(3.230769, 0.270262)">
                <mask id="mask-2" fill="white">
                    <use xlink:href="#path-1"></use>
                </mask>
                <g id="Clip-2"></g>
                <path d="M-0.000969230769,34.1001231 L0.00549230769,34.2422769 L0.0248769231,34.3715077 L0.0571846154,34.4910462 L0.0959538462,34.5976615 L0.150876923,34.6913538 L0.209030769,34.7721231 L0.283338462,34.8399692 L0.360876923,34.8948923 L1.33010769,35.4570462 L1.25256923,35.3988923 L1.17826154,35.3342769 L1.12010769,35.2502769 L1.06518462,35.1565846 L1.02318462,35.0499692 L0.994107692,34.9336615 L0.977953846,34.8044308 L0.971492308,34.6622769 L0.971492308,16.9641231 L0.977953846,16.8155077 L0.994107692,16.6668923 L1.02318462,16.5118154 L1.06518462,16.3567385 L1.12010769,16.2048923 L1.17826154,16.0498154 L1.24933846,15.9012 C1.30426154,15.7945846 1.35595385,15.7138154 1.41733846,15.6072 L1.51426154,15.4715077 L1.61441538,15.3422769 L1.72103077,15.2227385 L1.83410769,15.1096615 L1.95041538,15.0062769 L2.07641538,14.9158154 L2.20241538,14.8350462 L24.9728769,1.68581538 L25.1021077,1.6212 L25.2216462,1.57273846 L25.3379538,1.54043077 L25.4510308,1.52104615 L25.5576462,1.52104615 L25.6610308,1.53396923 L25.7547231,1.55981538 L25.8419538,1.60181538 L24.8727231,1.04289231 L24.7854923,1.00089231 L24.6918,0.971815385 L24.5884154,0.958892308 L24.4818,0.962123077 L24.3687231,0.978276923 L24.2524154,1.01381538 L24.1296462,1.05904615 L24.0036462,1.12689231 L1.22995385,14.2728923 L1.10395385,14.3536615 L0.984415385,14.4441231 L0.864876923,14.5475077 L0.7518,14.6605846 L0.645184615,14.7833538 L0.5418,14.9158154 L0.448107692,15.0515077 C0.386723077,15.1516615 0.335030769,15.2356615 0.280107692,15.3390462 L0.209030769,15.4908923 L0.147646154,15.6427385 L0.0959538462,15.7978154 L0.0571846154,15.9528923 L0.0248769231,16.1047385 L0.00549230769,16.2598154 L-0.000969230769,16.4052 L-0.000969230769,34.1001231 Z" id="Fill-1" fill="#9D9E9D" mask="url(#mask-2)"></path>
            </g>
            <g id="Group-6" transform="translate(3.230769, 0.270262)">
                <mask id="mask-4" fill="white">
                    <use xlink:href="#path-3"></use>
                </mask>
                <g id="Clip-5"></g>
                <path d="M25.0219846,22.1931231 C25.3450615,21.9928154 25.6293692,21.6729692 25.8426,21.3078923 L25.8458308,21.3046615 C26.0655231,20.9169692 26.2044462,20.4840462 26.2044462,20.0931231 L26.2044462,2.39496923 C26.2044462,2.00727692 26.0655231,1.72943077 25.8426,1.60343077 C25.6196769,1.4742 25.3127538,1.49035385 24.9735231,1.6842 L2.20306154,14.8366615 C1.8606,15.0305077 1.55044615,15.3665077 1.33075385,15.7509692 L1.33075385,15.7542 C1.10783077,16.1386615 0.972138462,16.5748154 0.972138462,16.9657385 L0.972138462,34.6606615 C0.972138462,35.0515846 1.10783077,35.3262 1.33075385,35.4554308 C1.55367692,35.5846615 1.8606,35.5685077 2.20306154,35.3714308 L25.0219846,22.1931231 Z" id="Fill-4" fill="#E5EBEC" mask="url(#mask-4)"></path>
            </g>
            <path d="M8.66298462,18.4940615 C8.49175385,18.5909846 8.35606154,18.5134462 8.35606154,18.3163692 C8.35606154,18.1225231 8.49175385,17.8834462 8.66298462,17.7832923 L24.9719077,8.36883077 C25.1431385,8.27190769 25.2820615,8.34944615 25.2820615,8.54652308 C25.2820615,8.74036923 25.1431385,8.98267692 24.9719077,9.0796 L8.66298462,18.4940615 Z M8.66298462,21.4940615 C8.49175385,21.5909846 8.35606154,21.5134462 8.35606154,21.3163692 C8.35606154,21.1225231 8.49175385,20.8834462 8.66298462,20.7832923 L24.9719077,11.3688308 C25.1431385,11.2719077 25.2820615,11.3494462 25.2820615,11.5465231 C25.2820615,11.7403692 25.1431385,11.9826769 24.9719077,12.0796 L8.66298462,21.4940615 Z M16.8174462,20.1676 L8.66298462,24.8748308 C8.49175385,24.9717538 8.35606154,25.2140615 8.35606154,25.4111385 C8.35606154,25.6082154 8.49175385,25.6889846 8.66298462,25.5888308 L16.8174462,20.8816 C16.9886769,20.7846769 17.1243692,20.5456 17.1243692,20.3485231 C17.1243692,20.1514462 16.9886769,20.0674462 16.8174462,20.1676 Z M8.66298462,28.4383692 C8.49175385,28.5385231 8.35606154,28.4609846 8.35606154,28.2639077 C8.35606154,28.0732923 8.49175385,27.8374462 8.66298462,27.7340615 L16.8174462,23.0268308 C16.9886769,22.9299077 17.1243692,23.0074462 17.1243692,23.2012923 C17.1243692,23.3983692 16.9886769,23.6342154 16.8174462,23.7311385 L8.66298462,28.4383692 Z" id="Fill-7" fill="#283538"></path>
            <polygon id="Fill-9" fill="#F34E3B" points="19.3649077 27.5428 19.1710615 27.4361846 19.1710615 27.4426462 19.1678308 27.4523385 19.1646 27.4588 19.1646 27.4652615 19.1613692 27.4749538 19.1581385 27.4781846 19.1549077 27.4846462 19.1516769 27.4943385 19.3390615 27.6041846 19.3422923 27.5977231 19.3455231 27.5880308 19.3487538 27.5815692 19.3519846 27.5751077 19.3552154 27.5686462 19.3584462 27.5589538 19.3616769 27.5524923"></polygon>
            <polygon id="Fill-11" fill="#C2231D" points="19.3397077 27.6028923 19.1490923 27.4962769 18.6774 28.7175077 18.8680154 28.8241231"></polygon>
            <polygon id="Fill-13" fill="#F34E3B" points="20.4850154 27.6500615 20.2944 27.5434462 20.3202462 27.5692923 20.3364 27.6080615 20.5302462 27.7179077 20.5108615 27.6791385"></polygon>
            <polygon id="Fill-15" fill="#C2231D" points="20.5289538 27.7162923 20.3351077 27.6096769 20.7777231 28.9019846 20.9683385 29.0118308"></polygon>
            <polygon id="Fill-17" fill="#F34E3B" points="22.9174615 23.9934769 22.7268462 23.8836308 22.7236154 23.8868615 22.9142308 23.9934769"></polygon>
            <polygon id="Fill-19" fill="#F34E3B" points="22.9142308 23.9934769 22.7236154 23.8868615 22.7139231 23.8900923 22.9013077 23.9999385"></polygon>
            <polygon id="Fill-21" fill="#F34E3B" points="22.9016308 23.9996154 22.7110154 23.8897692 22.6948615 23.8962308 22.8822462 24.0060769"></polygon>
            <polygon id="Fill-23" fill="#F34E3B" points="22.8825692 24.0060769 22.6919538 23.8962308 22.6822615 23.8994615 22.8728769 24.0093077"></polygon>
            <polygon id="Fill-25" fill="#F34E3B" points="22.8732 24.0093077 22.6825846 23.8994615 22.6632 23.9059231 22.8538154 24.0157692"></polygon>
            <polygon id="Fill-27" fill="#F34E3B" points="22.8544615 24.0154462 22.6606154 23.9056 22.6573846 23.9088308 22.848 24.0154462"></polygon>
            <polygon id="Fill-29" fill="#F34E3B" points="22.848 24.0154462 22.6573846 23.9088308 22.6347692 23.9185231 22.8221538 24.0251385"></polygon>
            <polygon id="Fill-31" fill="#F34E3B" points="22.8228 24.0251385 22.6321846 23.9185231 22.6289538 23.9185231 22.8195692 24.0251385"></polygon>
            <polygon id="Fill-33" fill="#F34E3B" points="22.8195692 24.0251385 22.6289538 23.9185231 22.6031077 23.9249846 22.7904923 24.0348308"></polygon>
            <path d="M22.7911385,24.0345077 L22.6005231,23.9246615 L22.7911385,24.0345077 Z" id="Fill-35" fill="#F34E3B"></path>
            <polygon id="Fill-37" fill="#F34E3B" points="22.7911385 24.0345077 22.6005231 23.9246615 22.5779077 23.9343538 22.7652923 24.0409692"></polygon>
            <polygon id="Fill-39" fill="#F34E3B" points="22.7659385 24.0406462 22.5753231 23.9340308 22.5688615 23.9340308 22.7627077 24.0438769"></polygon>
            <polygon id="Fill-41" fill="#F34E3B" points="22.7627077 24.0438769 22.5688615 23.9340308 22.5494769 23.9404923 22.7368615 24.0503385"></polygon>
            <polygon id="Fill-43" fill="#F34E3B" points="22.7375077 24.0503385 22.5468923 23.9404923 22.5404308 23.9437231 22.7310462 24.0535692"></polygon>
            <polygon id="Fill-45" fill="#F34E3B" points="22.7313692 24.0535692 22.5407538 23.9437231 22.5213692 23.9469538 22.7087538 24.0568"></polygon>
            <polygon id="Fill-47" fill="#F34E3B" points="22.7090769 24.0564769 22.5184615 23.9466308 22.5087692 23.9498615 22.6993846 24.0597077"></polygon>
            <polygon id="Fill-49" fill="#F34E3B" points="22.6997077 24.0597077 22.5090923 23.9498615 22.4509385 23.9660154 22.6383231 24.0726308"></polygon>
            <polygon id="Fill-51" fill="#F34E3B" points="22.6399385 24.0723077 22.4493231 23.9656923 22.4396308 23.9656923 22.6302462 24.0755385"></polygon>
            <polygon id="Fill-53" fill="#F34E3B" points="22.6302462 24.0755385 22.4396308 23.9656923 22.4234769 23.9721538 22.6108615 24.0787692"></polygon>
            <polygon id="Fill-55" fill="#F34E3B" points="22.6115077 24.0787692 22.4208923 23.9721538 22.4112 23.9721538 22.6018154 24.082"></polygon>
            <polygon id="Fill-57" fill="#F34E3B" points="22.6018154 24.0816769 22.4112 23.9718308 22.3950462 23.9750615 22.5824308 24.0849077"></polygon>
            <polygon id="Fill-59" fill="#F34E3B" points="22.5830769 24.0849077 22.3924615 23.9750615 22.386 23.9782923 22.5766154 24.0881385"></polygon>
            <polygon id="Fill-61" fill="#F34E3B" points="22.5766154 24.0881385 22.386 23.9782923 22.3633846 23.9815231 22.5507692 24.0913692"></polygon>
            <polygon id="Fill-63" fill="#F34E3B" points="22.5514154 24.0913692 22.3608 23.9815231 22.5481846 24.0913692"></polygon>
            <polygon id="Fill-65" fill="#F34E3B" points="22.5481846 24.0913692 22.3608 23.9815231 22.3349538 23.9879846 22.5223385 24.0946"></polygon>
            <polygon id="Fill-67" fill="#F34E3B" points="22.5229846 24.0942769 22.3323692 23.9876615 22.3097538 23.9908923 22.4971385 24.1007385"></polygon>
            <polygon id="Fill-69" fill="#F34E3B" points="22.4977846 24.1007385 22.3071692 23.9908923 22.3039385 23.9908923 22.4945538 24.1007385"></polygon>
            <polygon id="Fill-71" fill="#F34E3B" points="22.4945538 24.1007385 22.3039385 23.9908923 22.2845538 23.9941231 22.4719385 24.1007385"></polygon>
            <polygon id="Fill-73" fill="#F34E3B" points="22.4725846 24.1007385 22.2819692 23.9941231 22.2755077 23.9941231 22.4661231 24.1039692"></polygon>
            <polygon id="Fill-75" fill="#F34E3B" points="22.4661231 24.1039692 22.2755077 23.9941231 22.2593538 23.9973538 22.4467385 24.1072"></polygon>
            <polygon id="Fill-77" fill="#F34E3B" points="22.4473846 24.1072 22.2567692 23.9973538 22.2470769 23.9973538 22.4376923 24.1072"></polygon>
            <polygon id="Fill-79" fill="#F34E3B" points="22.4380154 24.1072 22.2474 23.9973538 22.2215538 24.0005846 22.4089385 24.1104308"></polygon>
            <polygon id="Fill-81" fill="#F34E3B" points="22.4095846 24.1101077 22.2189692 24.0002615 22.2060462 24.0034923 22.3934308 24.1101077"></polygon>
            <polygon id="Fill-83" fill="#F34E3B" points="22.3937538 24.1101077 22.2031385 24.0034923 22.1934462 24.0034923 22.3808308 24.1101077"></polygon>
            <polygon id="Fill-85" fill="#F34E3B" points="22.3811538 24.1101077 22.1905385 24.0034923 22.1808462 24.0034923 22.3682308 24.1133385"></polygon>
            <polygon id="Fill-87" fill="#F34E3B" points="22.3685538 24.1133385 22.1779385 24.0034923 22.1650154 24.0034923 22.3524 24.1133385"></polygon>
            <polygon id="Fill-89" fill="#F34E3B" points="22.3527231 24.1133385 22.1621077 24.0034923 22.1524154 24.0034923 22.3430308 24.1133385"></polygon>
            <polygon id="Fill-91" fill="#F34E3B" points="22.3433538 24.1133385 22.1527385 24.0034923 22.1365846 24.0067231 22.3239692 24.1133385"></polygon>
            <polygon id="Fill-93" fill="#F34E3B" points="22.3242923 24.1133385 22.1336769 24.0067231 22.1078308 24.0067231 22.2952154 24.1133385"></polygon>
            <polygon id="Fill-95" fill="#F34E3B" points="22.2958615 24.1133385 22.1052462 24.0067231 22.1020154 24.0067231 22.2926308 24.1133385"></polygon>
            <polygon id="Fill-97" fill="#F34E3B" points="22.2926308 24.1133385 22.1020154 24.0067231 22.0826308 24.0067231 22.2700154 24.1133385"></polygon>
            <polygon id="Fill-99" fill="#F34E3B" points="22.2706615 24.1133385 22.0800462 24.0067231 22.0768154 24.0067231 22.2674308 24.1165692"></polygon>
            <polygon id="Fill-101" fill="#F34E3B" points="22.2674308 24.1165692 22.0768154 24.0067231 22.0574308 24.0067231 22.2448154 24.1133385"></polygon>
            <polygon id="Fill-103" fill="#F34E3B" points="22.2454615 24.1133385 22.0548462 24.0067231 22.0516154 24.0067231 22.2422308 24.1133385"></polygon>
            <polygon id="Fill-105" fill="#F34E3B" points="22.2422308 24.1133385 22.0516154 24.0067231 22.0483846 24.0067231 22.239 24.1133385"></polygon>
            <polygon id="Fill-107" fill="#F34E3B" points="22.239 24.1133385 22.0483846 24.0067231 22.0257692 24.0067231 22.2131538 24.1133385"></polygon>
            <polygon id="Fill-109" fill="#F34E3B" points="22.2138 24.1133385 22.0231846 24.0067231 22.0070308 24.0067231 22.1944154 24.1133385"></polygon>
            <polygon id="Fill-111" fill="#F34E3B" points="22.1950615 24.1133385 22.0044462 24.0067231 21.9979846 24.0067231 22.1886 24.1133385"></polygon>
            <polygon id="Fill-113" fill="#F34E3B" points="22.1886 24.1133385 21.9979846 24.0067231 21.9818308 24.0034923 22.1724462 24.1133385"></polygon>
            <polygon id="Fill-115" fill="#F34E3B" points="22.1727692 24.1133385 21.9789231 24.0034923 21.9724615 24.0034923 22.1598462 24.1133385"></polygon>
            <polygon id="Fill-117" fill="#F34E3B" points="22.1601692 24.1133385 21.9695538 24.0034923 21.9598615 24.0034923 22.1472462 24.1101077"></polygon>
            <polygon id="Fill-119" fill="#F34E3B" points="22.1475692 24.1101077 21.9569538 24.0034923 21.9472615 24.0034923 22.1346462 24.1101077"></polygon>
            <polygon id="Fill-121" fill="#F34E3B" points="22.1349692 24.1101077 21.9443538 24.0034923 21.9346615 24.0002615 22.1220462 24.1101077"></polygon>
            <polygon id="Fill-123" fill="#F34E3B" points="22.1223692 24.1101077 21.9317538 24.0002615 21.9188308 24.0002615 22.1062154 24.1101077"></polygon>
            <polygon id="Fill-125" fill="#F34E3B" points="22.1065385 24.1101077 21.9159231 24.0002615 21.9094615 23.9970308 22.1000769 24.1068769"></polygon>
            <polygon id="Fill-127" fill="#F34E3B" points="22.1004 24.1072 21.9097846 23.9973538 21.8936308 23.9941231 22.0810154 24.1039692"></polygon>
            <polygon id="Fill-129" fill="#F34E3B" points="22.0813385 24.1039692 21.8907231 23.9941231 21.8842615 23.9941231 22.0748769 24.1039692"></polygon>
            <polygon id="Fill-131" fill="#F34E3B" points="22.0748769 24.1039692 21.8842615 23.9941231 21.8681077 23.9941231 22.0554923 24.1007385"></polygon>
            <polygon id="Fill-133" fill="#F34E3B" points="22.0561385 24.1007385 21.8655231 23.9941231 21.8622923 23.9908923 22.0529077 24.1007385"></polygon>
            <polygon id="Fill-135" fill="#F34E3B" points="22.0529077 24.1007385 21.8622923 23.9908923 21.8429077 23.9876615 22.0302923 24.0975077"></polygon>
            <path d="M22.0309385,24.0975077 L21.8403231,23.9876615 L22.0309385,24.0975077 Z" id="Fill-137" fill="#F34E3B"></path>
            <polygon id="Fill-139" fill="#F34E3B" points="22.0309385 24.0975077 21.8403231 23.9876615 21.8177077 23.9844308 22.0050923 24.0942769"></polygon>
            <polygon id="Fill-141" fill="#F34E3B" points="22.0057385 24.0942769 21.8151231 23.9844308 21.7957385 23.9812 21.9831231 24.0878154"></polygon>
            <polygon id="Fill-143" fill="#F34E3B" points="21.9834462 24.0881385 21.7928308 23.9815231 21.7896 23.9782923 21.9802154 24.0881385"></polygon>
            <polygon id="Fill-145" fill="#F34E3B" points="21.9805385 24.0881385 21.7899231 23.9782923 21.7737692 23.9750615 21.9611538 24.0849077"></polygon>
            <polygon id="Fill-147" fill="#F34E3B" points="21.9614769 24.0849077 21.7708615 23.9750615 21.7644 23.9750615 21.9550154 24.0816769"></polygon>
            <polygon id="Fill-149" fill="#F34E3B" points="21.9550154 24.0816769 21.7644 23.9750615 21.7482462 23.9718308 21.9388615 24.0784462"></polygon>
            <polygon id="Fill-151" fill="#F34E3B" points="21.9395077 24.0787692 21.7456615 23.9721538 21.7392 23.9689231 21.9298154 24.0787692"></polygon>
            <polygon id="Fill-153" fill="#F34E3B" points="21.9298154 24.0787692 21.7392 23.9689231 21.7262769 23.9656923 21.9168923 24.0723077"></polygon>
            <polygon id="Fill-155" fill="#F34E3B" points="21.9172154 24.0723077 21.7233692 23.9656923 21.7169077 23.9624615 21.9042923 24.0723077"></polygon>
            <polygon id="Fill-157" fill="#F34E3B" points="21.9046154 24.0723077 21.714 23.9624615 21.7043077 23.9592308 21.8949231 24.0690769"></polygon>
            <polygon id="Fill-159" fill="#F34E3B" points="21.8952462 24.0690769 21.7014 23.9592308 21.6917077 23.956 21.8790923 24.0658462"></polygon>
            <polygon id="Fill-161" fill="#F34E3B" points="21.8794154 24.0661692 21.6888 23.9563231 21.6823385 23.9530923 21.8729538 24.0629385"></polygon>
            <polygon id="Fill-163" fill="#F34E3B" points="21.8729538 24.0629385 21.6823385 23.9530923 21.6694154 23.9498615 21.8568 24.0564769"></polygon>
            <polygon id="Fill-165" fill="#F34E3B" points="21.8574462 24.0564769 21.6668308 23.9498615 21.6603692 23.9466308 21.8509846 24.0532462"></polygon>
            <polygon id="Fill-167" fill="#F34E3B" points="21.8509846 24.0535692 21.6603692 23.9469538 21.6442154 23.9404923 21.8316 24.0503385"></polygon>
            <polygon id="Fill-169" fill="#F34E3B" points="21.8322462 24.0503385 21.6416308 23.9404923 21.6384 23.9404923 21.8290154 24.0471077"></polygon>
            <polygon id="Fill-171" fill="#F34E3B" points="21.8290154 24.0471077 21.6384 23.9404923 21.6222462 23.9308 21.8096308 24.0406462"></polygon>
            <polygon id="Fill-173" fill="#F34E3B" points="21.8099538 24.0406462 21.6193385 23.9308 21.6161077 23.9308 21.8067231 24.0406462"></polygon>
            <polygon id="Fill-175" fill="#F34E3B" points="21.8067231 24.0406462 21.6161077 23.9308 21.5967231 23.9243385 21.7841077 24.0309538"></polygon>
            <g id="Group-179" transform="translate(0.000000, 32.577954)">
                <mask id="mask-6" fill="white">
                    <use xlink:href="#path-5"></use>
                </mask>
                <g id="Clip-178"></g>
                <path d="" id="Fill-177" fill="#F34E3B" mask="url(#mask-6)"></path>
            </g>
            <polygon id="Fill-180" fill="#F34E3B" points="21.7847538 24.0312769 21.5941385 23.9246615 21.5779846 23.9149692 21.7653692 24.0248154"></polygon>
            <polygon id="Fill-182" fill="#F34E3B" points="21.7627846 24.0251385 21.5721692 23.9152923 21.5560154 23.9088308 21.7434 24.0154462"></polygon>
            <polygon id="Fill-184" fill="#F34E3B" points="21.7437231 24.0154462 21.5531077 23.9088308 21.5498769 23.9056 21.7404923 24.0154462"></polygon>
            <polygon id="Fill-186" fill="#F34E3B" points="21.7404923 24.0154462 21.5498769 23.9056 21.5369538 23.8991385 21.7243385 24.0057538"></polygon>
            <polygon id="Fill-188" fill="#F34E3B" points="21.7246615 24.0060769 21.5340462 23.8994615 21.5243538 23.8962308 21.7182 24.0028462"></polygon>
            <polygon id="Fill-190" fill="#F34E3B" points="21.7185231 24.0028462 21.5246769 23.8962308 21.5149846 23.8897692 21.7023692 23.9963846"></polygon>
            <polygon id="Fill-192" fill="#F34E3B" points="21.7026923 23.9967077 21.5120769 23.8900923 21.5023846 23.8868615 21.693 23.9934769"></polygon>
            <polygon id="Fill-194" fill="#F34E3B" points="21.6933231 23.9934769 21.5027077 23.8868615 21.4930154 23.8804 21.6836308 23.9870154"></polygon>
            <polygon id="Fill-196" fill="#F34E3B" points="21.6839538 23.9870154 21.4933385 23.8804 21.4545692 23.8577846 21.6419538 23.9676308"></polygon>
            <polygon id="Fill-198" fill="#F34E3B" points="21.6429231 23.9682769 21.4523077 23.8584308 21.4393846 23.8519692 21.6267692 23.9618154"></polygon>
            <polygon id="Fill-200" fill="#F34E3B" points="21.6206308 23.9556769 21.4300154 23.8490615 21.4170923 23.8393692 21.6044769 23.9492154"></polygon>
            <polygon id="Fill-202" fill="#F34E3B" points="21.6048 23.9459846 21.4141846 23.8393692 21.4109538 23.8361385 21.6015692 23.9459846"></polygon>
            <path d="M21.5828308,23.9333846 L21.3922154,23.8267692 L21.5828308,23.9333846 Z" id="Fill-204" fill="#F34E3B"></path>
            <polygon id="Fill-206" fill="#F34E3B" points="21.5828308 23.9333846 21.3922154 23.8267692 21.3889846 23.8235385 21.5796 23.9333846"></polygon>
            <polygon id="Fill-208" fill="#C2231D" points="21.0306923 23.2520154 20.8368462 23.1421692 19.173 27.4358615 19.3636154 27.5424769"></polygon>
            <polygon id="Fill-210" fill="#C2231D" points="23.8669846 23.4445692 23.6763692 23.3347231 25.6051385 26.0744154 25.7957538 26.1874923"></polygon>
            <polygon id="Fill-212" fill="#F34E3B" points="25.7537538 20.5262154 25.5631385 20.4163692 25.5146769 20.5908308 25.4565231 20.7620615 25.3951385 20.9365231 25.3240615 21.1077538 25.2497538 21.2757538 25.1657538 21.4437538 25.0817538 21.6117538 24.9912923 21.7765231 25.1786769 21.8863692 25.2723692 21.7216 25.3563692 21.5536 25.4371385 21.3888308 25.5146769 21.2176 25.5825231 21.0431385 25.6471385 20.8686769 25.7020615 20.7006769"></polygon>
            <polygon id="Fill-214" fill="#F34E3B" points="25.1796462 21.8860462 24.9890308 21.7762 25.1764154 21.8860462"></polygon>
            <polygon id="Fill-216" fill="#F34E3B" points="25.1764154 21.8860462 24.9890308 21.7762 24.8501077 21.9991231 24.7047231 22.2188154 24.5561077 22.4288154 24.3913385 22.6291231 24.2233385 22.8229692 24.0456462 23.0071231 23.8679538 23.1751231 23.6773385 23.3334308 23.8679538 23.4432769 24.0553385 23.2882 24.2362615 23.1169692 24.4139538 22.9328154 24.5819538 22.7422 24.7434923 22.5386615 24.8953385 22.3286615 25.0407231 22.1089692"></polygon>
            <path d="M19.3649077,27.5428 C19.3584462,27.5654154 19.3487538,27.5848 19.3390615,27.6041846 L18.8673692,28.8221846 L20.2404462,27.6978769 C20.3664462,27.5944923 20.4892154,27.6009538 20.5279846,27.7172615 L20.9673692,29.0128 L22.9187538,23.9921846 L22.9155231,23.9921846 L22.9026,23.9986462 L22.8832154,24.0051077 L22.8735231,24.0083385 L22.8541385,24.0148 L22.8476769,24.0148 L22.8218308,24.0244923 L22.8186,24.0244923 L22.7927538,24.0341846 L22.7669077,24.0406462 L22.7636769,24.0438769 L22.7378308,24.0503385 L22.7313692,24.0535692 L22.7087538,24.0568 L22.6990615,24.0600308 L22.6409077,24.0729538 L22.6312154,24.0761846 L22.6118308,24.0794154 L22.6021385,24.0826462 L22.5827538,24.0858769 L22.5762923,24.0891077 L22.5504462,24.0923385 L22.5472154,24.0923385 L22.5246,24.0955692 L22.4987538,24.1020308 L22.4955231,24.1020308 L22.4729077,24.1020308 L22.4664462,24.1052615 L22.4470615,24.1084923 L22.4373692,24.1084923 L22.4082923,24.1117231 L22.3921385,24.1117231 L22.3824462,24.1117231 L22.3695231,24.1117231 L22.3533692,24.1117231 L22.3436769,24.1117231 L22.3242923,24.1117231 L22.2952154,24.1117231 L22.2919846,24.1117231 L22.2693692,24.1117231 L22.2661385,24.1149538 L22.2467538,24.1117231 L22.2435231,24.1117231 L22.2402923,24.1117231 L22.2144462,24.1117231 L22.1950615,24.1117231 L22.1886,24.1117231 L22.1724462,24.1117231 L22.1595231,24.1117231 L22.1466,24.1117231 L22.1336769,24.1117231 L22.1239846,24.1117231 L22.1078308,24.1117231 L22.1013692,24.1084923 L22.0819846,24.1052615 L22.0755231,24.1052615 L22.0561385,24.1020308 L22.0529077,24.1020308 L22.0302923,24.0988 L22.0044462,24.0955692 L21.9850615,24.0891077 L21.9818308,24.0891077 L21.9624462,24.0858769 L21.9559846,24.0826462 L21.9398308,24.0794154 L21.9301385,24.0794154 L21.9172154,24.0729538 L21.9042923,24.0729538 L21.8946,24.0697231 L21.8784462,24.0664923 L21.8719846,24.0632615 L21.8558308,24.0568 L21.8526,24.0535692 L21.8332154,24.0503385 L21.8299846,24.0471077 L21.8106,24.0406462 L21.8073692,24.0406462 L21.7847538,24.0309538 L21.7653692,24.0244923 L21.7621385,24.0244923 L21.7427538,24.0148 L21.7395231,24.0148 L21.7233692,24.0051077 L21.7201385,24.0018769 L21.7039846,23.9954154 L21.6942923,23.9921846 L21.6846,23.9857231 L21.6426,23.9695692 L21.6264462,23.9631077 L21.6199846,23.9566462 L21.6038308,23.9501846 L21.6038308,23.9469538 L21.6006,23.9469538 L21.5844462,23.9340308 L21.5812154,23.9340308 C21.4002923,23.8241846 21.2484462,23.6658769 21.1321385,23.4623385 L21.1289077,23.4558769 C21.1127538,23.4332615 21.0998308,23.4009538 21.0836769,23.3718769 L21.0772154,23.3589538 L21.0707538,23.3492615 L21.0610615,23.3266462 L21.0513692,23.3040308 L21.0449077,23.2814154 L21.0416769,23.2781846 L21.0319846,23.2555692 L21.0319846,23.2523385 L19.3649077,27.5428 Z M23.8686,23.4429538 L25.7941385,26.1858769 L26.2367538,24.3798769 C26.2755231,24.2215692 26.4015231,24.0697231 26.5210615,24.0309538 L27.8973692,23.5721846 L27.4192154,22.8937231 C27.4127538,22.8872615 27.4062923,22.8775692 27.3998308,22.8678769 L25.7553692,20.5255692 C25.6261385,20.9875692 25.4290615,21.4495692 25.1802923,21.8857231 L25.1770615,21.8857231 C24.8249077,22.4931077 24.3758308,23.0391077 23.8686,23.4429538 Z" id="Fill-218" fill="#FF3440"></path>
            <polygon id="Fill-220" fill="#D6BE0D" points="25.3838308 18.2918154 25.0898308 18.1205846 24.9121385 18.0365846 24.7150615 17.9816615 24.5082923 17.9558154 24.2853692 17.9622769 24.0559846 17.9945846 23.8136769 18.0656615 23.5649077 18.1658154 23.3064462 18.2982769 23.0512154 18.4630462 22.7992154 18.6504308 22.5601385 18.8572 22.3307538 19.0865846 22.1142923 19.3321231 21.9042923 19.5938154 21.7136769 19.8684308 21.5327538 20.1559692 21.5198308 20.1850462 21.4358308 20.3336615 21.3550615 20.4855077 21.2807538 20.6405846 21.2096769 20.7956615 21.1450615 20.9475077 21.0836769 21.1058154 21.0287538 21.2641231 20.9770615 21.4224308 20.9318308 21.5839692 20.8930615 21.7422769 20.8607538 21.8973538 20.8316769 22.0556615 20.8090615 22.2139692 20.7896769 22.3690462 20.7832154 22.5208923 20.7767538 22.6759692 20.7799846 22.7276615 20.7799846 22.7858154 20.7832154 22.8407385 20.7864462 22.8956615 20.7896769 22.9473538 20.7961385 22.9990462 20.8026 23.0507385 20.8090615 23.0992 20.8090615 23.1185846 20.8122923 23.1347385 20.8187538 23.1670462 20.8187538 23.1799692 20.8252154 23.2025846 20.8252154 23.2090462 20.8316769 23.2316615 20.8316769 23.2348923 20.8381385 23.2639692 20.8381385 23.2672 20.8446 23.2962769 20.8510615 23.3285846 20.8575231 23.3512 20.8575231 23.3576615 20.8639846 23.3770462 20.8672154 23.3867385 20.8736769 23.4061231 20.8769077 23.4158154 20.8801385 23.4352 20.8833692 23.4481231 20.8898308 23.4610462 20.8930615 23.4772 20.8962923 23.4901231 20.9027538 23.5030462 20.9059846 23.5127385 20.9124462 23.5321231 20.9124462 23.5385846 20.9221385 23.5612 20.9221385 23.5644308 20.9318308 23.5902769 20.9415231 23.6161231 20.9544462 23.6387385 20.9544462 23.6419692 20.9641385 23.6645846 20.9641385 23.6678154 20.9738308 23.6872 20.9867538 23.7098154 20.9899846 23.7195077 20.9964462 23.7356615 21.0029077 23.7453538 21.0093692 23.7582769 21.0126 23.7679692 21.0190615 23.7776615 21.0255231 23.7873538 21.0319846 23.7970462 21.0384462 23.8099692 21.0449077 23.8196615 21.0449077 23.8261231 21.0901385 23.9004308 21.1386 23.9682769 21.1870615 24.0328923 21.2452154 24.0942769 21.3033692 24.1524308 21.3615231 24.2008923 21.4261385 24.2493538 21.4907538 24.2945846 21.4939846 24.2978154 21.4972154 24.2978154 21.5166 24.3075077 21.5198308 24.3075077 21.8106 24.4787385 21.8106 24.4755077 21.7879846 24.4658154 21.7879846 24.4625846 21.7847538 24.4625846 21.7815231 24.4625846 21.7201385 24.4205846 21.6555231 24.3721231 21.5941385 24.3172 21.5359846 24.2622769 21.4810615 24.2008923 21.4326 24.1362769 21.3809077 24.0652 21.3356769 23.9941231 21.3324462 23.9876615 21.3259846 23.9779692 21.3195231 23.9682769 21.3162923 23.9553538 21.3130615 23.9456615 21.3066 23.9359692 21.3001385 23.9230462 21.2969077 23.9133538 21.2904462 23.9036615 21.2839846 23.8907385 21.2775231 23.8810462 21.2678308 23.8584308 21.2581385 23.8390462 21.2549077 23.8325846 21.2452154 23.8099692 21.2355231 23.7841231 21.2258308 23.7615077 21.2226 23.7582769 21.2161385 23.7356615 21.2129077 23.7292 21.2064462 23.7098154 21.2032154 23.7033538 21.1967538 23.6807385 21.1935231 23.6742769 21.1870615 23.6548923 21.1838308 23.6452 21.1806 23.6322769 21.1773692 23.6161231 21.1741385 23.6032 21.1676769 23.5870462 21.1644462 23.5773538 21.1612154 23.5547385 21.1579846 23.5482769 21.1515231 23.5256615 21.1515231 23.5192 21.1450615 23.4965846 21.1386 23.4642769 21.1353692 23.4642769 21.1321385 23.4352 21.1289077 23.4352 21.1224462 23.4061231 21.1224462 23.3996615 21.1192154 23.3770462 21.1159846 23.3673538 21.1127538 23.3479692 21.1095231 23.3382769 21.1062923 23.3027385 21.1030615 23.2865846 21.0998308 23.2704308 21.0933692 23.2219692 21.0869077 23.1670462 21.0836769 23.1153538 21.0804462 23.0636615 21.0739846 23.0087385 21.0739846 22.9538154 21.0707538 22.8988923 21.0707538 22.8407385 21.0739846 22.6921231 21.0836769 22.5370462 21.0998308 22.3819692 21.1224462 22.2236615 21.1515231 22.0653538 21.1838308 21.9102769 21.2258308 21.7487385 21.2710615 21.5936615 21.3195231 21.4353538 21.3776769 21.2770462 21.4390615 21.1187385 21.5036769 20.9604308 21.5747538 20.8053538 21.6490615 20.6567385 21.7266 20.5016615 21.8106 20.3530462 21.8267538 20.3272 22.0044462 20.0396615 22.1982923 19.7618154 22.4018308 19.5001231 22.6247538 19.2545846 22.8541385 19.0252 23.0932154 18.8152 23.3419846 18.6310462 23.6004462 18.4695077 23.8556769 18.3338154 24.1076769 18.2336615 24.3499846 18.1658154 24.5793692 18.1302769 24.8022923 18.1238154 25.0090615 18.1496615 25.2061385 18.2078154"></polygon>
            <path d="M25.3848,18.2921385 C24.9260308,18.0272154 24.2960308,18.0659846 23.5981846,18.4698308 C22.9035692,18.8672154 22.2800308,19.5489077 21.8244923,20.3275231 L21.8115692,20.3533692 C21.3560308,21.1449077 21.0717231,22.0366 21.0717231,22.8410615 C21.0717231,22.9929077 21.0814154,23.1350615 21.1008,23.2707538 L21.1040308,23.2869077 L21.1072615,23.3030615 L21.1104923,23.3386 L21.1137231,23.3450615 L21.1169538,23.3676769 L21.1201846,23.3773692 L21.1234154,23.3999846 L21.1234154,23.4064462 L21.1298769,23.4355231 L21.1331077,23.4355231 L21.1363385,23.4646 L21.1395692,23.4646 L21.1460308,23.4936769 L21.1492615,23.5195231 L21.1492615,23.5259846 L21.1557231,23.5486 L21.1589538,23.5550615 L21.1621846,23.5776769 L21.1654154,23.5873692 L21.1718769,23.6035231 L21.1751077,23.6132154 L21.1783385,23.6293692 L21.1848,23.6455231 L21.1880308,23.6552154 L21.1944923,23.6746 L21.1977231,23.6810615 L21.2041846,23.7036769 L21.2074154,23.7101385 L21.2138769,23.7327538 L21.2171077,23.7359846 L21.2235692,23.7553692 L21.2268,23.7586 L21.2364923,23.7844462 L21.2461846,23.8102923 L21.2558769,23.8329077 L21.2591077,23.8393692 L21.2688,23.8587538 L21.2784923,23.8781385 L21.2817231,23.8878308 L21.2881846,23.9039846 C21.3011077,23.9298308 21.3172615,23.9621385 21.3334154,23.9879846 L21.3366462,23.9944462 C21.4529538,24.1947538 21.6048,24.3530615 21.7857231,24.4629077 L21.7889538,24.4629077 L21.7889538,24.4661385 L21.8083385,24.4758308 L21.8115692,24.4758308 L21.8115692,24.4790615 L21.8244923,24.4887538 L21.8309538,24.4919846 L21.8471077,24.4984462 L21.8858769,24.5178308 L21.8988,24.5275231 L21.9084923,24.5275231 L21.9214154,24.5372154 L21.9278769,24.5404462 L21.9472615,24.5469077 L21.9504923,24.5469077 L21.9666462,24.5533692 L21.9698769,24.5533692 L21.9892615,24.5630615 L22.0118769,24.5695231 L22.0151077,24.5695231 L22.0344923,24.5792154 L22.0377231,24.5792154 L22.0571077,24.5856769 L22.0635692,24.5889077 L22.0764923,24.5921385 L22.0861846,24.5953692 L22.0958769,24.5986 L22.1088,24.6018308 L22.1184923,24.6050615 L22.1346462,24.6082923 L22.1411077,24.6115231 L22.1604923,24.6147538 L22.1669538,24.6147538 L22.1863385,24.6179846 L22.1895692,24.6179846 L22.2121846,24.6244462 L22.2315692,24.6276769 L22.2348,24.6276769 L22.2574154,24.6309077 L22.2606462,24.6341385 L22.2800308,24.6341385 L22.2864923,24.6341385 L22.3058769,24.6373692 L22.3155692,24.6406 L22.3284923,24.6406 L22.3414154,24.6406 L22.3543385,24.6438308 L22.3640308,24.6438308 L22.3737231,24.6438308 L22.3931077,24.6470615 L22.3995692,24.6470615 L22.4189538,24.6470615 L22.4448,24.6470615 L22.4480308,24.6470615 L22.4512615,24.6470615 L22.4738769,24.6470615 L22.4771077,24.6470615 L22.4964923,24.6470615 L22.4997231,24.6470615 L22.5288,24.6470615 L22.5481846,24.6438308 L22.5578769,24.6438308 L22.5740308,24.6438308 L22.5869538,24.6406 L22.5998769,24.6406 L22.6160308,24.6406 L22.6418769,24.6373692 L22.6483385,24.6373692 L22.6709538,24.6341385 L22.6774154,24.6341385 L22.7000308,24.6309077 L22.7032615,24.6309077 L22.7291077,24.6244462 L22.7549538,24.6212154 L22.7581846,24.6212154 L22.7808,24.6179846 L22.7872615,24.6147538 L22.8066462,24.6115231 L22.8163385,24.6082923 L22.8357231,24.6050615 L22.8454154,24.6050615 L22.9035692,24.5889077 L22.9132615,24.5856769 L22.9358769,24.5824462 L22.9423385,24.5792154 L22.9649538,24.5727538 L22.9714154,24.5727538 L22.9972615,24.5630615 L23.0263385,24.5533692 L23.0295692,24.5533692 L23.0521846,24.5501385 L23.0554154,24.5469077 L23.0812615,24.5404462 L23.0877231,24.5372154 L23.1071077,24.5307538 L23.1200308,24.5275231 L23.1361846,24.5178308 L23.1523385,24.5146 L23.1652615,24.5081385 L23.1781846,24.5016769 L23.1911077,24.4984462 L23.2137231,24.4887538 L23.2201846,24.4855231 L23.2428,24.4758308 L23.2492615,24.4758308 L23.2751077,24.4629077 L23.2783385,24.4629077 L23.3041846,24.4499846 L23.3041846,24.4467538 L23.3332615,24.4370615 L23.3397231,24.4338308 L23.3655692,24.4209077 L23.3720308,24.4176769 L23.3946462,24.4112154 L23.4043385,24.4047538 L23.4237231,24.3950615 L23.4334154,24.3886 L23.4495692,24.3821385 L23.4657231,24.3724462 L23.4786462,24.3659846 L23.4980308,24.3562923 L23.5109538,24.3498308 L23.5335692,24.3369077 L23.5400308,24.3336769 L23.5658769,24.3207538 L23.5691077,24.3175231 L23.5981846,24.2981385 L23.6272615,24.2819846 L23.6304923,24.2819846 L23.6563385,24.2658308 L23.6628,24.2626 L23.6854154,24.2496769 L23.6983385,24.2432154 L23.7144923,24.2302923 L23.7274154,24.2206 L23.7435692,24.2109077 L23.7597231,24.2012154 L23.7726462,24.1915231 L23.7920308,24.1786 L23.8049538,24.1721385 L23.8243385,24.1559846 L23.8308,24.1527538 L23.8534154,24.1366 L23.8889538,24.1139846 L23.9180308,24.0946 L23.9180308,24.0913692 L23.9471077,24.0719846 L23.9535692,24.0687538 L23.9729538,24.0493692 L23.9794154,24.0429077 L24.0020308,24.0299846 L24.0117231,24.0202923 C24.5415692,23.6099846 25.0197231,23.0478308 25.3848,22.4146 C25.6723385,21.9138308 25.8920308,21.3710615 26.0148,20.8379846 L26.0180308,20.8186 L26.0212615,20.8024462 L26.0277231,20.7669077 L26.0341846,20.7410615 L26.0374154,20.7313692 L26.0438769,20.7022923 L26.0438769,20.6926 L26.0503385,20.6602923 L26.0535692,20.6570615 L26.0600308,20.6247538 L26.0600308,20.6215231 C26.0664923,20.5730615 26.0761846,20.5246 26.0826462,20.4793692 L26.0858769,20.4664462 L26.0891077,20.4406 L26.0891077,20.4244462 L26.0923385,20.4050615 L26.0955692,20.3856769 L26.0988,20.3727538 C26.1149538,20.2209077 26.1246462,20.0722923 26.1246462,19.9269077 C26.1246462,19.1224462 25.8403385,18.5538308 25.3848,18.2921385" id="Fill-222" fill="#EDD109"></path>
        </g>
    </g>
</svg>