<?xml version="1.0" encoding="UTF-8"?>
<svg width="40px" height="40px" viewBox="0 0 40 40" version="1.1" xmlns="http://www.w3.org/2000/svg" xmlns:xlink="http://www.w3.org/1999/xlink">
    <!-- Generator: Sketch 52.5 (67469) - http://www.bohemiancoding.com/sketch -->
    <title>Icon/Category/Football</title>
    <desc>Created with Sketch.</desc>
    <g id="Icon/Category/Football" stroke="none" stroke-width="1" fill="none" fill-rule="evenodd">
        <g id="Group" transform="translate(2.000000, 3.000000)">
            <path d="M6.27658508,5.37777774 C9.19675991,2.4609479 13.2274709,0.654654196 17.6829953,0.654654196 C22.1351748,0.654654196 26.1692308,2.4609479 29.0860606,5.37777774 C32.0062354,8.29795256 33.8091841,12.3286635 33.8091841,16.784188 C33.8091841,21.2363675 32.0062354,25.2704234 29.0860606,28.1872533 C26.1692308,31.1074281 22.1351748,32.9137218 17.6829953,32.9137218 C13.2274709,32.9137218 9.19675991,31.1074281 6.27658508,28.1872533 C3.35975524,25.2704234 1.55346154,21.2363675 1.55346154,16.784188 C1.55346154,12.3286635 3.35975524,8.29795256 6.27658508,5.37777774" id="Fill-1" fill="#BEBEBE"></path>
            <path d="M22.9265991,9.2910796 C22.2074266,8.22737331 21.3745245,7.15697704 20.3275431,6.09327075 C18.9795128,6.13341061 17.6381725,6.30735 16.3269371,6.595019 C14.9488019,6.89606795 13.6041166,7.32088147 12.312951,7.84269965 C12.0620769,9.16397005 11.9148974,10.4885854 11.8245828,11.8232358 C11.7342681,13.1545411 11.7041632,14.4925365 11.6840932,15.8271868 C12.5303753,16.1516507 13.3666224,16.4828045 14.2062145,16.8173034 C16.0225431,17.5431659 17.8388718,18.2690283 19.6719254,18.8911962 C20.6653869,17.9311845 21.6220536,16.914308 22.4950956,15.8439118 C23.3681375,14.7735155 24.1542098,13.6495994 24.8064825,12.4788535 C24.2344895,11.4184922 23.6390816,10.3514409 22.9265991,9.2910796" id="Fill-3" fill="#3F5359"></path>
            <path d="M31.1649709,14.1650621 L31.1683159,14.1684071 L31.1816958,14.2185819 L31.1850408,14.2252719 L31.2017657,14.2687568 L31.2051107,14.2754467 L31.2184907,14.3256216 L31.2218357,14.3323115 L31.2352156,14.3757964 L31.2352156,14.3824864 L31.2519406,14.4293162 L31.2552855,14.4393512 L31.2686655,14.482836 L31.2720105,14.492871 L31.2853904,14.5363558 L31.2887354,14.5463908 L31.3021154,14.5898756 L31.3054604,14.6032556 L31.3188403,14.6467404 L31.3221853,14.6534304 L31.3355653,14.6969153 L31.3389103,14.7102952 L31.3522902,14.7504351 L31.3556352,14.76716 L31.3656702,14.8039549 L31.3723601,14.8173348 L31.3823951,14.8574747 L31.3857401,14.8741997 L31.3957751,14.9143395 L31.402465,14.9310645 L31.4125,14.9645143 L31.415845,14.9845843 L31.42588,15.0213791 L31.4325699,15.0381041 L31.4426049,15.074899 L31.4492949,15.0916239 L31.4593298,15.1284188 L31.4626748,15.1484887 L31.4727098,15.1852836 L31.4793998,15.2053535 L31.4894347,15.2388034 L31.4927797,15.2588733 L31.5028147,15.2923232 L31.5095047,15.3157381 L31.5128497,15.349188 L31.5195396,15.3692579 L31.5295746,15.4027078 L31.5362646,15.4261227 L31.5429545,15.4562276 L31.5496445,15.4829875 L31.5563345,15.5097474 L31.5630245,15.5365073 L31.5697145,15.5666122 L31.5830944,15.623477 L31.5897844,15.646892 L31.5964744,15.6769969 L31.6031643,15.7037568 L31.6098543,15.7338617 L31.6165443,15.7606216 L31.6232343,15.7840365 L31.6299242,15.8141414 L31.6399592,15.8409013 L31.6466492,15.8743512 L31.6499942,15.8977661 L31.6533392,15.927871 L31.6600291,15.9512859 L31.6667191,15.9847358 L31.6734091,16.0081507 L31.6800991,16.0416006 L31.686789,16.0616705 L31.693479,16.0951204 L31.696824,16.1185353 L31.706859,16.1553302 L31.710204,16.1754001 L31.7202389,16.20885 L31.7235839,16.2289199 L31.7302739,16.2657148 L31.7336189,16.2857847 L31.7436538,16.3259246 L31.7469988,16.3426495 L31.7536888,16.3794444 L31.7570338,16.3995143 L31.7670688,16.4396542 L31.7704138,16.4563791 L31.7804487,16.493174 L31.7804487,16.509899 L31.7904837,16.5500388 L31.7904837,16.5667638 L31.7971737,16.6069036 L31.8005186,16.6202836 L31.8105536,16.6637684 L31.8138986,16.6804934 L31.8205886,16.7239782 L31.8239336,16.7373582 L31.8306235,16.777498 L31.8339685,16.790878 L31.8440035,16.8377078 L31.8440035,16.8477428 L31.8540385,16.8912276 L31.8540385,16.9046076 L31.8640734,16.9514374 L31.8640734,16.9614724 L31.8741084,17.0083022 L31.8741084,17.0183372 L31.8841434,17.065167 L31.8874883,17.075202 L31.8941783,17.1253768 L31.8941783,17.1320668 L31.9042133,17.1788966 L31.9042133,17.1855866 L31.9142483,17.2391064 L31.9142483,17.2457964 L31.9242832,17.2959712 L31.9242832,17.2993162 L31.9309732,17.352836 L31.9309732,17.359526 L31.9410082,17.4130458 L31.9410082,17.4163908 L31.9510431,17.4699106 L31.9510431,17.4732556 L31.9677681,17.5802952 L31.9677681,17.5836402 L31.9677681,17.5869852 L31.977803,17.64385 L31.984493,17.7040598 L31.994528,17.7575796 L32.0045629,17.8110994 L32.0045629,17.8177894 L32.0112529,17.8679642 L32.0112529,17.8746542 L32.0179429,17.921484 L32.0212879,17.934864 L32.0279779,17.9783488 L32.0279779,17.9950738 L32.0346678,18.0318686 L32.0380128,18.0519386 L32.0447028,18.0887334 L32.0447028,18.1121484 L32.0513928,18.1422533 L32.0547378,18.1690132 L32.0580828,18.1991181 L32.0614277,18.225878 L32.0647727,18.2559829 L32.0681177,18.2827428 L32.0714627,18.3095027 L32.0748077,18.3429526 L32.0748077,18.3663675 L32.0814977,18.4031624 L32.0848427,18.4198873 L32.0881876,18.4600272 L32.0915326,18.4767521 L32.0948776,18.5202369 L32.0982226,18.5336169 L32.1049126,18.5771017 L32.1049126,18.5871367 L32.1116026,18.6373115 L32.1116026,18.6473465 L32.1182925,18.6941763 L32.1182925,18.7008663 L32.1249825,18.7543861 L32.1249825,18.7577311 L32.1316725,18.8145959 L32.1383625,18.8681157 L32.1383625,18.8714607 L32.1450524,18.9249805 L32.1450524,18.9316705 L32.1517424,18.9785003 L32.1517424,18.9918803 L32.1584324,19.0387101 L32.1584324,19.0487451 L32.1651224,19.0955749 L32.1651224,19.1122999 L32.1684674,19.1490948 L32.1718124,19.1691647 L32.1751573,19.2059596 L32.1785023,19.2293745 L32.1818473,19.2594794 L32.1851923,19.2862393 L32.1885373,19.3196892 L32.1885373,19.3464491 L32.1918823,19.376554 L32.1952273,19.4033139 L32.1985723,19.4300738 L32.2019172,19.4668686 L32.2052622,19.4902836 L32.2086072,19.5270784 L32.2086072,19.5438034 L32.2086072,19.5839432 L32.2119522,19.6006682 L32.2152972,19.647498 L32.2219872,19.7010178 L32.2219872,19.7143978 L32.2286772,19.7645726 L32.2286772,19.7712626 L32.2320221,19.8214374 L32.2320221,19.8281274 L32.2387121,19.8816472 L32.2387121,19.8849922 L32.2420571,19.941857 L32.2420571,19.945202 L32.2487471,19.9987218 L32.2487471,20.0020668 L32.2520921,20.0555866 L32.2520921,20.0656216 L32.2587821,20.1124514 L32.2587821,20.1224864 L32.262127,20.1693162 L32.265472,20.1826962 L32.268817,20.226181 L32.268817,20.239561 L32.272162,20.2830458 L32.275507,20.3031157 L32.278852,20.3399106 L32.278852,20.3633255 L32.282197,20.3967754 L32.282197,20.4235353 L32.285542,20.4536402 L32.2888869,20.4837451 L32.2888869,20.510505 L32.2922319,20.5406099 L32.2955769,20.5673698 L32.2989219,20.6041647 L32.2989219,20.6242346 L32.3022669,20.6610295 L32.3022669,20.6810994 L32.3056119,20.7245843 L32.3056119,20.7379642 L32.3123019,20.7847941 L32.3123019,20.794829 L32.3156469,20.8450038 L32.3156469,20.8550388 L32.3189918,20.9052136 L32.3189918,20.9119036 L32.3223368,20.9654234 L32.3290268,21.0256332 L32.3323718,21.082498 L32.3357168,21.1393628 L32.3357168,21.1460528 L32.3390618,21.1995726 L32.3390618,21.2029176 L32.3424068,21.2530924 L32.3424068,21.2664724 L32.3457517,21.3133022 L33.3191434,20.7781041 C33.6402622,19.5003185 33.8142016,18.1623232 33.8142016,16.784188 C33.8142016,14.4059013 33.3024184,12.1480341 32.3758566,10.1176262 C32.282197,10.8735936 32.1350175,11.5526262 31.9476981,12.1747941 C31.7336189,12.9006565 31.4626748,13.5495843 31.1649709,14.1650621" id="Fill-5" fill="#3F5359"></path>
            <path d="M21.4564767,26.2970003 L27.6447051,27.1499724 L27.678155,27.1131775 L27.6815,27.1064875 L27.7182949,27.0696927 L27.7216399,27.0663477 L27.7617797,27.0262078 L27.7985746,26.9860679 L27.7985746,26.982723 L27.8353695,26.9392381 L27.8755093,26.8990983 L27.9156492,26.8556134 L27.9524441,26.8121286 L27.9892389,26.7753337 L27.9925839,26.7719887 L28.0293788,26.7318488 L28.0695186,26.688364 L28.0728636,26.685019 L28.1029685,26.6448791 L28.1063135,26.6415341 L28.1431084,26.6047393 L28.1832483,26.5612544 L28.1865932,26.5545645 L28.2166981,26.5177696 L28.2233881,26.5110796 L28.256838,26.4776297 L28.2936329,26.4341449 L28.3003228,26.4241099 L28.3337727,26.39066 L28.3404627,26.3806251 L28.3672226,26.3505202 L28.3772576,26.3404852 L28.4073625,26.3070353 L28.4173974,26.2970003 L28.4441573,26.2635505 L28.4541923,26.2501705 L28.4809522,26.2234106 L28.5177471,26.1799258 L28.5277821,26.1665458 L28.554542,26.1364409 L28.5913368,26.0929561 L28.6047168,26.0795761 L28.6314767,26.0528162 L28.6415117,26.0360913 L28.6649266,26.0059864 L28.7017214,25.9625015 L28.7418613,25.9223617 L28.7552413,25.9056367 L28.7753112,25.8788768 L28.8121061,25.835392 L28.8489009,25.7952521 L28.8689709,25.7751822 L28.8890408,25.7517672 L28.9057657,25.7283523 L28.9224907,25.7049374 L28.9392156,25.6848675 L28.9592855,25.6647976 L28.9960804,25.6213127 L29.0328753,25.5778279 L29.0663252,25.530998 L29.106465,25.4908582 L29.126535,25.4674432 L29.1432599,25.4473733 L29.1800548,25.4038885 L29.2135047,25.3604036 L29.2469545,25.3169188 L29.2837494,25.2734339 L29.3205443,25.2332941 L29.3439592,25.1998442 L29.3539942,25.1864642 L29.390789,25.1429794 L29.417549,25.1128745 L29.4275839,25.0994945 L29.4543438,25.0693896 L29.4643788,25.0560097 L29.4877937,25.0225598 L29.4978287,25.0125248 L29.5346235,24.96904 L29.5613834,24.9355901 L29.5680734,24.9255551 L29.6048683,24.8787253 L29.6316282,24.8419304 L29.6383182,24.8352404 L29.6684231,24.8017906 L29.6751131,24.7951006 L29.7052179,24.7549607 L29.7085629,24.7482707 L29.7420128,24.7081309 L29.7453578,24.7047859 L29.7788077,24.661301 L29.8156026,24.6178162 L29.8457075,24.5743314 L29.8490524,24.5709864 L29.8825023,24.5341915 L29.8858473,24.5308465 L29.9192972,24.4840167 L29.989542,24.397047 L30.0263368,24.3535621 L30.0564417,24.3067323 L30.0932366,24.2632474 L30.1266865,24.2197626 L30.1300315,24.2164176 L30.1634814,24.1729328 L30.1935862,24.1327929 L30.2303811,24.0859631 L30.2337261,24.0826181 L30.263831,24.0391332 L30.3006259,23.9989934 L30.3307308,23.9521635 L30.3340758,23.9454735 L30.3675256,23.9053337 L30.4009755,23.8585038 L30.4377704,23.818364 L30.4678753,23.7715341 L30.5013252,23.7247043 L30.5080152,23.7180143 L30.53812,23.6845645 L30.5715699,23.6377346 L30.5782599,23.6276997 L30.6016748,23.5909048 L30.6083648,23.5808698 L30.6384697,23.5474199 L30.6451597,23.537385 L30.6719196,23.5005901 L30.7053695,23.4537603 L30.7154044,23.4437253 L30.7388193,23.4102754 L30.7722692,23.3667906 L30.8057191,23.3199607 L30.839169,23.2764759 L30.849204,23.2630959 L30.8726189,23.229646 L30.9060688,23.1828162 L30.9161037,23.1694362 L30.9395186,23.1393314 L30.9495536,23.1259514 L30.9729685,23.0925015 L31.0030734,23.0456717 L31.0164534,23.0322917 L31.0365233,23.0021868 L31.0733182,22.955357 L31.0833531,22.9386321 L31.1067681,22.9085272 L31.120148,22.8918022 L31.1402179,22.8683873 L31.1502529,22.8483174 L31.1703228,22.8215575 L31.1837028,22.8014875 L31.2037727,22.7747276 L31.2171527,22.7546577 L31.2372226,22.7278978 L31.2506026,22.7111728 L31.2706725,22.6844129 L31.2840524,22.660998 L31.3007774,22.6375831 L31.3175023,22.6141682 L31.3342273,22.5907533 L31.3676772,22.5439234 L31.3844021,22.5238535 L31.401127,22.5004386 L31.417852,22.4770237 L31.4814068,22.383364 L31.4981317,22.3599491 L31.5148566,22.3365341 L31.5483065,22.2897043 L31.5616865,22.2696344 L31.5784114,22.2428745 L31.5951364,22.2228045 L31.6118613,22.1960446 L31.6285862,22.1793197 L31.6453112,22.1525598 L31.6586911,22.1324899 L31.6787611,22.102385 L31.692141,22.082315 L31.7222459,22.0388302 L31.7556958,21.9920003 L31.7757657,21.9618955 L31.7891457,21.9451705 L31.8092156,21.9150656 L31.8225956,21.9016857 L31.9062203,21.7745761 L31.9162552,21.7611962 L31.9363252,21.7277463 L31.9497051,21.7143663 L31.9697751,21.6809164 L31.97981,21.6675365 L32.0099149,21.6207066 L32.0333298,21.5872568 L32.0433648,21.5738768 L32.0667797,21.5404269 L32.0734697,21.527047 L32.1002296,21.4935971 L32.1069196,21.4835621 L32.1035746,21.4200073 L32.1002296,21.3597976 L32.0968846,21.3029328 L32.0935396,21.242723 L32.0868497,21.1858582 L32.0835047,21.1223034 L32.0801597,21.0654386 L32.0768147,21.0052288 L32.0701247,20.945019 L32.0667797,20.8881542 L32.0634347,20.8245994 L32.0600897,20.7710796 L32.0567448,20.7075248 L32.0500548,20.65066 L32.0467098,20.5904502 L32.0433648,20.5302404 L32.0366748,20.4733756 L32.0333298,20.4131659 L32.0266399,20.356301 L32.0232949,20.2960913 L32.0166049,20.2358815 L32.0132599,20.1790167 L32.0099149,20.1188069 L32.0032249,20.0619421 L31.996535,20.0017323 L31.99319,19.9448675 L31.9865,19.8846577 L31.983155,19.8244479 L31.97981,19.7675831 L31.976465,19.7073733 L31.9697751,19.6505085 L31.9630851,19.5902987 L31.9563951,19.5334339 L31.9530501,19.4732241 L31.9463601,19.4130143 L31.9396702,19.3561495 L31.9329802,19.2959397 L31.9296352,19.2424199 L31.9229452,19.1822101 L31.9162552,19.1220003 L31.9095653,19.0651355 L31.9028753,19.0049258 L31.8961853,18.948061 L31.8894953,18.8878512 L31.8828054,18.8343314 L31.8761154,18.7741216 L31.8694254,18.7139118 L31.8627354,18.660392 L31.8560455,18.6001822 L31.8493555,18.5433174 L31.8393205,18.4864526 L31.8359755,18.4262428 L31.8292855,18.369378 L31.8225956,18.3091682 L31.8125606,18.2556484 L31.8058706,18.1954386 L31.7991807,18.1419188 L31.7891457,18.081709 L31.7824557,18.0214992 L31.7724207,17.9679794 L31.7657308,17.9077696 L31.7556958,17.8542498 L31.7490058,17.79404 L31.7389709,17.7371752 C31.5616865,16.5329794 31.3041224,15.3655784 30.9328287,14.2550423 L25.0088543,12.626033 C24.3498916,13.8001239 23.5604744,14.927385 22.6874324,16.0011262 C21.8043555,17.0815575 20.8409988,18.1084689 19.8441923,19.0751705 C20.1586212,20.4733756 20.4462902,21.7511612 20.7172343,22.958702 C21.0082483,24.2766274 21.2457424,25.3336437 21.4564767,26.2970003" id="Fill-8" fill="#ECECEC"></path>
            <path d="M32.2393811,21.7270773 L32.2059312,21.7739071 L32.1724814,21.8207369 L32.1624464,21.8441519 L32.1457214,21.8675668 L32.1122716,21.9143966 L32.0955466,21.9344666 L32.0788217,21.9612265 L32.0654417,21.9812964 L32.0453718,22.0080563 L32.0152669,22.0582311 L31.981817,22.101716 L31.9684371,22.1217859 L31.9483671,22.1485458 L31.9349872,22.1686157 L31.9149172,22.1987206 L31.8848124,22.2422055 L31.8513625,22.2890353 L31.8179126,22.3392101 L31.8045326,22.3525901 L31.7844627,22.382695 L31.7510128,22.4295248 L31.7209079,22.4796997 L31.707528,22.4930796 L31.687458,22.5231845 L31.6540082,22.5700143 L31.6205583,22.6168442 L31.5904534,22.663674 L31.5570035,22.7105038 L31.5436235,22.7272288 L31.5202086,22.7573337 L31.4867587,22.8008185 L31.4566538,22.8509934 L31.423204,22.8978232 L31.413169,22.9112031 L31.3897541,22.941308 L31.3529592,22.9881379 L31.3462692,23.0015178 L31.3228543,23.0349677 L31.3161643,23.0483477 L31.2894044,23.0817976 L31.2793695,23.0918325 L31.2559545,23.1286274 L31.2191597,23.1754572 L31.2124697,23.1854922 L31.1890548,23.2189421 L31.1522599,23.2657719 L31.11881,23.3159467 L31.0853601,23.3560866 L31.0519103,23.4062614 L31.0184604,23.4530913 L30.9850105,23.4965761 L30.9783205,23.5032661 L30.9482156,23.5434059 L30.9147657,23.5902358 L30.8813159,23.6337206 L30.847866,23.6805505 L30.8110711,23.7273803 L30.7776212,23.7708652 L30.7742762,23.7775551 L30.7441713,23.82104 L30.7408263,23.824385 L30.7107214,23.8678698 L30.7040315,23.8712148 L30.6739266,23.9113547 L30.6705816,23.9146997 L30.6371317,23.9581845 L30.6371317,23.9615295 L30.6070268,24.0050143 L30.5702319,24.0484992 L30.5668869,24.0518442 L30.5367821,24.095329 L30.4999872,24.1421589 L30.4665373,24.1856437 L30.4297424,24.2324735 L30.3962925,24.2759584 L30.3594977,24.3194432 L30.3594977,24.3227882 L30.3260478,24.3662731 L30.2892529,24.4131029 L30.252458,24.4565878 L30.2190082,24.5034176 L30.1855583,24.5502474 L30.1487634,24.5937323 L30.1119685,24.6405621 L30.0785186,24.684047 L30.0785186,24.687392 L30.0417238,24.7275318 L30.0417238,24.7308768 L30.0082739,24.7743617 L30.0049289,24.7743617 L29.971479,24.8211915 L29.968134,24.8211915 L29.9380291,24.8613314 L29.9346841,24.8646763 L29.9012343,24.9081612 L29.8978893,24.9115062 L29.8610944,24.958336 L29.8242995,25.0018209 L29.7908497,25.0453057 L29.7573998,25.0887906 L29.7540548,25.0921355 L29.7172599,25.1356204 L29.680465,25.1791052 L29.6503601,25.2225901 L29.6470152,25.2259351 L29.6102203,25.2727649 L29.5700804,25.3129048 L29.5332855,25.3597346 L29.4998357,25.4065645 L29.4663858,25.4433593 L29.4630408,25.4467043 L29.4295909,25.4868442 L29.4262459,25.4935341 L29.3861061,25.540364 L29.3560012,25.5738139 L29.3526562,25.5805038 L29.3158613,25.6273337 L29.2757214,25.6708185 L29.2422716,25.7143034 L29.2054767,25.7577882 L29.1720268,25.7979281 L29.1653368,25.8046181 L29.128542,25.8447579 L29.0984371,25.8848978 L29.0917471,25.8915878 L29.0549522,25.9350726 L29.0248473,25.9752125 L29.0181573,25.9785575 L28.9780175,26.0220423 L28.9445676,26.0688721 L28.9044277,26.112357 L28.8743228,26.1458069 L28.8676329,26.1558418 L28.834183,26.1926367 L28.827493,26.1993267 L28.8007331,26.2361216 L28.7906981,26.2428115 L28.7539033,26.2862964 L28.7137634,26.3331262 L28.6803135,26.3766111 L28.6468636,26.406716 L28.6401737,26.4167509 L28.6100688,26.4535458 L28.6000338,26.4635808 L28.5264441,26.5472055 L28.4963392,26.5806554 L28.4863042,26.5906903 L28.4461643,26.6375202 L28.4160594,26.67097 L28.4060245,26.67766 L28.3725746,26.7211449 L28.3324347,26.7646297 L28.2922949,26.8114596 L28.2555,26.8515994 L28.2253951,26.8850493 L28.2153601,26.8950843 L28.1886002,26.9285341 L28.1752203,26.9385691 L28.1484604,26.968674 L28.1350804,26.982054 L28.0982855,27.0255388 L28.0715256,27.0556437 L28.0581457,27.0690237 L28.0313858,27.0957836 L28.0180058,27.1091635 L27.981211,27.1526484 L27.954451,27.1827533 L27.9410711,27.1961332 L27.9143112,27.2262381 L27.9009312,27.2362731 L27.8607914,27.2797579 L27.8373765,27.3098628 L27.8239965,27.3232428 L27.7972366,27.3533477 L26.3555466,30.3905971 C27.3456632,29.7550493 28.265535,29.0191519 29.0917471,28.1929397 C31.0284953,26.2561915 32.4735303,23.82773 33.2294977,21.1082544 L32.3196608,21.6100027 L32.3062809,21.6334176 L32.2895559,21.6568325 L32.272831,21.6769024 L32.2561061,21.7036624 L32.2393811,21.7270773 Z" id="Fill-10" fill="#ECECEC"></path>
            <path d="M18.2911142,32.9053593 C21.0908695,32.8016647 23.7066503,31.9854875 25.9678625,30.6274223 L27.5065571,27.3827836 C25.4794942,27.1051495 23.4524312,26.8241705 21.4253683,26.5465365 L21.3919184,26.5398465 C20.5255664,27.2790889 19.6190746,27.9848815 18.6824779,28.6471892 C17.769296,29.2860819 16.8226643,29.8915248 15.8325478,30.4501379 C16.1871166,30.8749514 16.5550653,31.2930749 16.9430839,31.6944735 C17.3578625,32.1226321 17.7994009,32.5307206 18.2911142,32.9053593" id="Fill-12" fill="#3F5359"></path>
            <path d="M15.6191375,30.2822195 C16.632669,29.7135714 17.6060606,29.0980936 18.5393124,28.4391309 C19.4658741,27.7902031 20.358986,27.0944456 21.215303,26.3618931 C20.9610839,25.1944922 20.7068648,24.0538512 20.4727156,23.0102148 C20.2118065,21.8361239 19.9241375,20.5616833 19.5963287,19.1300283 C17.769965,18.5045155 15.9369114,17.775308 14.1138928,17.0494456 C13.2642657,16.7116017 12.4179837,16.3771029 11.5817366,16.052639 L9.4844289,17.8488978 L6.42041958,20.4713686 C6.64787879,21.795984 6.95561772,23.0068698 7.3034965,24.1675808 C7.65137529,25.3316367 8.04273893,26.4354829 8.44413753,27.5292941 C9.48108392,28.124702 10.594965,28.6565551 11.7857809,29.1114735 C12.9832867,29.5697369 14.2610723,29.9611006 15.6191375,30.2822195" id="Fill-14" fill="#ECECEC"></path>
            <path d="M6.21771329,28.1360749 L6.27457809,28.1929397 C9.19475291,31.1131146 13.2288089,32.9194083 17.6843333,32.9194083 C17.7545781,32.9194083 17.8281678,32.9160633 17.9017576,32.9160633 C17.493669,32.5849094 17.1190303,32.2336857 16.7644615,31.8657369 C16.342993,31.4308885 15.9516294,30.98266 15.5703007,30.5277416 C14.2022005,30.2032777 12.911035,29.8085691 11.7001492,29.3436157 C10.4959534,28.8820073 9.3720373,28.3501542 8.33174592,27.7480563 C8.04407692,27.8484059 7.68950816,27.9253407 7.29814452,27.9888955 C6.96364569,28.0457603 6.59569697,28.0925901 6.21771329,28.1360749" id="Fill-16" fill="#ECECEC"></path>
            <path d="M6.2702296,20.2766903 L11.4348916,15.8546157 C11.4549615,14.4965505 11.4850664,13.1451752 11.5753811,11.8071798 C11.6656958,10.4725295 11.8128753,9.14456911 12.0637494,7.81995373 C11.7192156,7.67277424 10.9164184,7.25799569 10.0968963,6.83318217 C9.0566049,6.29798403 8.00962354,5.74606096 8.00293357,5.74606096 C7.21017133,6.01366002 6.4140641,6.58230804 5.66144172,7.32155047 C4.77167483,8.19459242 3.93877273,9.30512855 3.23298019,10.4256997 C2.7981317,11.6834153 2.53053263,12.8708861 2.38000816,14.0215621 C2.23282867,15.1588582 2.19937879,16.2560143 2.23617366,17.3397906 C2.75464685,17.8850237 3.38015967,18.4235668 4.07257226,18.932005 C4.74825991,19.4170283 5.48750233,19.8786367 6.2702296,20.2766903" id="Fill-19" fill="#ECECEC"></path>
            <path d="M9.64130886,2.79711923 C8.40700816,3.50625676 7.2764021,4.37929872 6.27290559,5.37610524 C4.95498019,6.69737564 3.861169,8.24610524 3.06171678,9.96208427 L3.13530653,10.1159537 C3.82771911,9.03886748 4.63051632,7.98519615 5.48683333,7.14560408 C6.24614569,6.39967168 7.05228788,5.82098869 7.86177506,5.5333197 C8.01229953,4.99477657 8.33007343,4.43281853 8.738162,3.87755047 C9.01245105,3.51294674 9.31684499,3.14499802 9.64130886,2.79711923" id="Fill-21" fill="#3F5359"></path>
            <path d="M20.4406037,0.886127389 C21.0828415,1.14703648 21.8187389,1.53840012 22.4074569,2.14384301 C22.8523403,2.07025326 23.517993,2.16725793 24.2538904,2.35457727 C24.7723636,2.49172179 25.3242867,2.67569615 25.8594848,2.87639545 C24.2170956,1.90969382 22.3873869,1.22397121 20.4406037,0.886127389" id="Fill-23" fill="#3F5359"></path>
            <path d="M22.2111061,2.30072296 C21.2510944,1.32398636 19.8595793,0.925932751 19.2173415,0.741958392 L19.1303718,0.715198485 C18.6553834,0.675058625 18.1703601,0.651643706 17.6819918,0.651643706 C15.042796,0.651643706 12.5507797,1.28719149 10.3531224,2.41110758 C9.85137413,2.92289079 9.34962587,3.47146888 8.93819231,4.02673695 C8.55686364,4.54521014 8.25581469,5.06702832 8.1086352,5.56877657 C8.48327389,5.71930105 9.35297086,6.17087448 10.2092879,6.61241294 C11.1793345,7.11416119 12.1259662,7.60921946 12.172796,7.63263438 C13.4907214,7.09743625 14.8655117,6.65924277 16.2770967,6.35150385 C17.5916772,6.06383485 18.9397075,5.88655047 20.3044627,5.84641061 L22.2111061,2.30072296 Z" id="Fill-26" fill="#ECECEC"></path>
            <path d="M1.76887879,19.4437882 L1.76887879,19.2899188 C1.77891375,18.661061 1.84581352,18.0221682 1.98630303,17.3799304 C1.95285315,16.2727393 1.97961305,15.1521682 2.13348252,13.9881122 C2.280662,12.8307463 2.55160606,11.6399304 2.98645455,10.3822148 L2.92958974,10.2551052 C2.04316783,12.2520633 1.55145455,14.4631006 1.55145455,16.7845225 C1.55145455,17.6910143 1.62504429,18.5774362 1.76887879,19.4437882" id="Fill-28" fill="#ECECEC"></path>
            <path d="M2.18700233,17.64385 C2.0799627,18.1991181 2.02644289,18.7476962 2.01640793,19.2929293 C2.00971795,19.9084071 2.05654779,20.517195 2.14017249,21.1259829 C2.85934499,23.7049689 4.20737529,26.0230458 6.00028904,27.9062742 C6.44182751,27.8627894 6.86998601,27.8092696 7.26134965,27.7457148 C7.60922844,27.68885 7.92365734,27.6186052 8.18456643,27.5349805 C7.7932028,26.4645843 7.40852914,25.380808 7.06399534,24.240167 C6.71611655,23.0694211 6.40837762,21.8418104 6.17422844,20.50716 C5.37143124,20.0957265 4.61546387,19.6307731 3.92974126,19.1290248 C3.27746853,18.6607265 2.69209557,18.1556332 2.18700233,17.64385" id="Fill-31" fill="#3F5359"></path>
            <path d="M20.5319219,5.94609126 C21.5755583,7.01314254 22.4118054,8.0868838 23.1309779,9.15393508 C23.8534953,10.2276763 24.4555932,11.3047626 25.0342762,12.3751589 L29.8042296,13.6897393 L30.9649406,14.0075132 C31.2459196,13.4221402 31.5034837,12.7999724 31.710873,12.1042148 C31.9249522,11.3816973 32.0888566,10.5889351 32.1724814,9.68578823 C31.3864091,8.08353881 30.3394277,6.62846888 29.0917471,5.37744324 C28.4461643,4.73520548 27.7470618,4.14648753 27.0078193,3.61797937 C26.1715723,3.2366507 25.1179009,2.84194207 24.1913392,2.59775793 C23.4822016,2.41378357 22.8466538,2.3167789 22.4452552,2.39036865 L20.5319219,5.94609126 Z" id="Fill-33" fill="#ECECEC"></path>
            <path d="M27.9340466,27.2051647 L27.9139767,27.2252346 L27.9005967,27.2386146 L27.8638019,27.2787544 L27.837042,27.3088593 L27.823662,27.3222393 L27.7969021,27.3523442 L26.3552121,30.3895936 C27.3453287,29.7573908 28.2652005,29.0181484 29.0914126,28.1919362 C31.0281608,26.255188 32.4731958,23.8267265 33.2291632,21.1105959 L32.4330559,21.5487894 C31.4429394,23.8033115 29.8841748,25.7500948 27.9340466,27.2051647" id="Fill-38" fill="#D8D8D8"></path>
            <path d="M18.2911142,32.9053593 C21.0908695,32.8016647 23.7066503,31.9854875 25.9678625,30.6274223 L27.4195874,27.5701029 C25.1684103,29.0954176 22.4522797,29.9851845 19.5321049,29.9851845 C18.6657529,29.9851845 17.8161259,29.9082498 16.9966037,29.7610703 C16.6152751,29.9952195 16.2272564,30.2260237 15.8325478,30.4501379 C16.1871166,30.8749514 16.5550653,31.2930749 16.9430839,31.6944735 C17.3578625,32.1226321 17.7994009,32.5307206 18.2911142,32.9053593" id="Fill-40" fill="#283E43"></path>
            <path d="M15.6191375,30.2822195 C15.9636713,30.0882101 16.3015152,29.8908558 16.639359,29.6868115 C12.1303147,28.7468698 8.42072261,25.6494106 6.62446387,21.52504 C6.81847319,22.4482568 7.04927739,23.3212987 7.3034965,24.1675808 C7.65137529,25.3316367 8.04273893,26.4354829 8.44413753,27.5292941 C9.48108392,28.124702 10.594965,28.6565551 11.7857809,29.1114735 C12.9832867,29.5697369 14.2610723,29.9611006 15.6191375,30.2822195" id="Fill-42" fill="#D8D8D8"></path>
            <path d="M6.21771329,28.1360749 L6.27457809,28.1929397 C9.19475291,31.1131146 13.2288089,32.9194083 17.6843333,32.9194083 C17.7545781,32.9194083 17.8281678,32.9160633 17.9017576,32.9160633 C17.493669,32.5849094 17.1190303,32.2336857 16.7644615,31.8657369 C16.342993,31.4308885 15.9516294,30.98266 15.5703007,30.5277416 C14.2022005,30.2032777 12.911035,29.8085691 11.7001492,29.3436157 C10.4959534,28.8820073 9.3720373,28.3501542 8.33174592,27.7480563 C8.04407692,27.8484059 7.68950816,27.9253407 7.29814452,27.9888955 C6.96364569,28.0457603 6.59569697,28.0925901 6.21771329,28.1360749" id="Fill-44" fill="#D8D8D8"></path>
            <path d="M9.19374942,6.36755979 C8.52809674,6.019681 8.00627855,5.74539196 8.00293357,5.74539196 C7.21017133,6.01633601 6.4140641,6.58163904 5.66144172,7.32088147 C4.77167483,8.19392343 3.93877273,9.30445956 3.23298019,10.4250307 C2.7981317,11.6827463 2.53053263,12.8702171 2.38000816,14.0208931 C2.23282867,15.1581892 2.19937879,16.2553453 2.23617366,17.3391216 C2.75464685,17.8843547 3.38015967,18.4228978 4.07257226,18.931336 C4.70477506,19.3895994 5.39718765,19.8211029 6.1263951,20.2057766 C5.69154662,18.8510563 5.46074242,17.4093663 5.46074242,15.9141565 C5.46074242,12.2279794 6.87901748,8.87630105 9.19374942,6.36755979" id="Fill-47" fill="#D8D8D8"></path>
            <path d="M9.64130886,2.79711923 C8.40700816,3.50625676 7.2764021,4.37929872 6.27290559,5.37610524 C4.95498019,6.69737564 3.861169,8.24610524 3.06171678,9.96208427 L3.13530653,10.1159537 C3.82771911,9.03886748 4.63051632,7.98519615 5.48683333,7.14560408 C6.24614569,6.39967168 7.05228788,5.82098869 7.86177506,5.5333197 C8.01229953,4.99477657 8.33007343,4.43281853 8.738162,3.87755047 C9.01245105,3.51294674 9.31684499,3.14499802 9.64130886,2.79711923" id="Fill-49" fill="#283E43"></path>
            <path d="M20.4406037,0.886127389 C21.0794965,1.14703648 21.812049,1.53505513 22.3974219,2.13380804 L22.4308718,2.14049802 C22.8724103,2.07025326 23.528028,2.17060291 24.2538904,2.35457727 C24.7723636,2.49172179 25.3242867,2.67569615 25.8594848,2.87639545 C24.2170956,1.90969382 22.3873869,1.22397121 20.4406037,0.886127389" id="Fill-51" fill="#283E43"></path>
            <path d="M21.9398275,2.04583485 C21.0032308,1.25307261 19.799035,0.908538811 19.220352,0.741289394 L19.1300373,0.717874476 C18.655049,0.674389627 18.1700256,0.650974709 17.6850023,0.650974709 C15.0424615,0.650974709 12.5504452,1.28652249 10.3527879,2.41043858 C9.85103963,2.92222179 9.34929138,3.47079988 8.93785781,4.02606795 C8.55652914,4.54454114 8.25548019,5.06635932 8.1083007,5.56810758 C8.35917483,5.66845723 8.83081818,5.90260641 9.36936131,6.18024044 C11.9316224,3.50759476 15.5375198,1.83844557 19.5314359,1.83844557 C20.350958,1.83844557 21.1571002,1.91203531 21.9398275,2.04583485" id="Fill-54" fill="#D8D8D8"></path>
            <path d="M1.76887879,19.4437882 L1.76887879,19.2899188 C1.77891375,18.661061 1.84581352,18.0221682 1.98630303,17.3799304 C1.95285315,16.2727393 1.97961305,15.1521682 2.13348252,13.9881122 C2.280662,12.8307463 2.55160606,11.6399304 2.98645455,10.3822148 L2.92958974,10.2551052 C2.04316783,12.2520633 1.55145455,14.4631006 1.55145455,16.7845225 C1.55145455,17.6910143 1.62504429,18.5774362 1.76887879,19.4437882" id="Fill-57" fill="#D8D8D8"></path>
            <path d="M2.18700233,17.64385 C2.0799627,18.1991181 2.02644289,18.7476962 2.01640793,19.2929293 C2.00971795,19.9084071 2.05654779,20.517195 2.14017249,21.1259829 C2.85934499,23.7049689 4.20737529,26.0230458 6.00028904,27.9062742 C6.44182751,27.8627894 6.86998601,27.8092696 7.26134965,27.7457148 C7.60922844,27.68885 7.92365734,27.6186052 8.18456643,27.5349805 C7.7932028,26.4645843 7.40852914,25.380808 7.06399534,24.240167 C6.71611655,23.0694211 6.40837762,21.8418104 6.17422844,20.50716 C5.37143124,20.0957265 4.61546387,19.6307731 3.92974126,19.1290248 C3.27746853,18.6607265 2.69209557,18.1556332 2.18700233,17.64385" id="Fill-60" fill="#283E43"></path>
            <path d="M32.1708089,9.71589312 L32.1741538,9.68578823 C31.3880816,8.08353881 30.3377552,6.62846888 29.0900746,5.37744324 C28.4478368,4.73520548 27.7487343,4.14648753 27.0061469,3.61797937 C26.1698998,3.2366507 25.1195734,2.84194207 24.1896667,2.59775793 C24.0659021,2.56430804 23.9454825,2.53754814 23.8317529,2.51078823 C27.4911702,3.68153415 30.4983147,6.31069499 32.1708089,9.71589312" id="Fill-62" fill="#D8D8D8"></path>
            <path d="M22.9265991,9.2910796 C22.5419254,8.7190866 22.1204569,8.1437486 21.6521585,7.57175559 C21.1336853,8.45817751 20.8259464,9.6088535 20.8259464,10.9936787 C20.8259464,12.7765575 21.5551538,14.3888418 22.7292448,15.5528978 C23.508627,14.5694712 24.2144196,13.5425598 24.8064825,12.4788535 C24.2344895,11.4184922 23.6390816,10.3514409 22.9265991,9.2910796" id="Fill-64" fill="#4C6065"></path>
            <path d="M31.1649709,14.1650621 L31.1683159,14.1684071 L31.1816958,14.2185819 L31.1850408,14.2252719 L31.2017657,14.2687568 L31.2051107,14.2754467 L31.2184907,14.3256216 L31.2218357,14.3323115 L31.2352156,14.3757964 L31.2352156,14.3824864 L31.2519406,14.4293162 L31.2552855,14.4393512 L31.2686655,14.482836 L31.2720105,14.492871 L31.2853904,14.5363558 L31.2887354,14.5463908 L31.3021154,14.5898756 L31.3054604,14.6032556 L31.3188403,14.6467404 L31.3221853,14.6534304 L31.3355653,14.6969153 L31.3389103,14.7102952 L31.3522902,14.7504351 L31.3556352,14.76716 L31.3656702,14.8039549 L31.3723601,14.8173348 L31.3823951,14.8574747 L31.3857401,14.8741997 L31.3957751,14.9143395 L31.402465,14.9310645 L31.4125,14.9645143 L31.415845,14.9845843 L31.42588,15.0213791 L31.4325699,15.0381041 L31.4426049,15.074899 L31.4492949,15.0916239 L31.4593298,15.1284188 L31.4626748,15.1484887 L31.4727098,15.1852836 L31.4793998,15.2053535 L31.4894347,15.2388034 L31.4927797,15.2588733 L31.5028147,15.2923232 L31.5095047,15.3157381 L31.5095047,15.3190831 C31.981148,14.4293162 32.0982226,13.342195 31.9343182,12.2182789 C31.7235839,12.9274164 31.4559848,13.5629642 31.1649709,14.1650621" id="Fill-66" fill="#4C6065"></path>
            <path d="M31.3282063,15.6184596 C31.2144767,15.1568512 31.0840221,14.7052777 30.9334977,14.2570493 L25.0095233,12.624695 C24.4107704,13.7017812 23.6949429,14.7353826 22.9088706,15.7254992 C24.0495117,16.7691355 25.5681364,17.4046833 27.2372855,17.4046833 C29.3044883,17.4046833 30.6123788,16.6922008 31.3282063,15.6184596" id="Fill-68" fill="#F7F7F7"></path>
            <path d="M21.7896375,7.34764138 C22.2846958,7.95308427 22.7262343,8.55183718 23.1309779,9.15393508 C23.8534953,10.2276763 24.4555932,11.3047626 25.0342762,12.3751589 L29.8042296,13.6897393 L30.9649406,14.0075132 C31.2459196,13.4221402 31.5034837,12.7999724 31.710873,12.1042148 C31.7543578,11.9603803 31.7944977,11.8132008 31.8346375,11.6660213 C31.5737284,10.4986204 31.0251503,9.33121946 30.269183,8.34110291 C27.4761177,4.67499569 23.5792063,4.63485583 21.7896375,7.34764138" id="Fill-70" fill="#F7F7F7"></path>
        </g>
    </g>
</svg>