<?xml version="1.0" encoding="UTF-8"?>
<svg width="40px" height="40px" viewBox="0 0 40 40" version="1.1" xmlns="http://www.w3.org/2000/svg" xmlns:xlink="http://www.w3.org/1999/xlink">
    <!-- Generator: Sketch 52.5 (67469) - http://www.bohemiancoding.com/sketch -->
    <title>Icon/Category/VR</title>
    <desc>Created with Sketch.</desc>
    <defs>
        <polygon id="path-1" points="2.12145455 0.294181818 5.03272727 0.294181818 5.03272727 5.53781818 2.12145455 5.53781818"></polygon>
        <polygon id="path-3" points="1.59454545 0.0465454545 5.03272727 0.0465454545 5.03272727 10.2901818 1.59454545 10.2901818"></polygon>
        <polygon id="path-5" points="3.55636364 2.36084602 23.2145455 2.36084602 23.2145455 25.4545455 3.55636364 25.4545455"></polygon>
        <polygon id="path-7" points="1.61418182 0.0574545455 5.03272727 0.0574545455 5.03272727 10.2974545 1.61418182 10.2974545"></polygon>
    </defs>
    <g id="Icon/Category/VR" stroke="none" stroke-width="1" fill="none" fill-rule="evenodd">
        <g id="Group-56" transform="translate(1.000000, 6.000000)">
            <g id="Group-55">
                <path d="M26.0385455,16.8253455 L26.0349091,16.8253455 L26.0058182,16.8108 L26.0021818,16.8108 L25.9985455,16.8071636 L25.9694545,16.7998909 L25.9658182,16.7998909 L25.9621818,16.7962545 L25.9549091,16.7962545 L25.9512727,16.7926182 L25.9476364,16.7926182 L25.944,16.7926182 L25.9367273,16.7889818 L25.9330909,16.7889818 L25.9294545,16.7889818 L25.9221818,16.7889818 L25.9185455,16.7853455 L25.9003636,16.7853455 L25.8967273,16.7853455 L25.8894545,16.7853455 L25.8858182,16.7853455 L25.8821818,16.7817091 L25.8749091,16.7817091 L25.8712727,16.7817091 L25.8676364,16.7817091 L25.8603636,16.7817091 L25.8567273,16.7817091 L25.824,16.7817091 L25.8167273,16.7817091 L25.8130909,16.7817091 L25.8094545,16.7817091 L25.784,16.7853455 L25.7694545,16.7853455 L25.7658182,16.7853455 L25.7585455,16.7889818 L25.7549091,16.7889818 L25.7476364,16.7889818 L25.744,16.7889818 L25.7367273,16.7926182 L25.7330909,16.7926182 L25.7294545,16.7926182 L25.7258182,16.7926182 L25.7221818,16.7926182 L25.7112727,16.7962545 L25.704,16.7962545 L25.6967273,16.7998909 L25.6930909,16.7998909 L25.6894545,16.7998909 L25.6858182,16.8035273 L25.6821818,16.8035273 L25.6712727,16.8071636 L25.664,16.8071636 L25.6567273,16.8108 L25.6530909,16.8108 L25.6494545,16.8144364 L25.6458182,16.8144364 L25.6385455,16.8180727 L25.624,16.8217091 L25.6167273,16.8253455 L25.6094545,16.8253455 L25.6058182,16.8253455 L25.5985455,16.8289818 L25.5949091,16.8326182 L25.5694545,16.8398909 L25.5258182,16.8617091 L25.4858182,16.8835273 L25.4421818,16.9053455 L23.1730909,18.2144364 L23.1294545,18.2398909 L23.0858182,18.2689818 L23.0494545,18.2980727 L23.0058182,18.3308 L22.9658182,18.3635273 L22.9258182,18.3998909 L22.8858182,18.4326182 L22.8458182,18.4726182 L22.8312727,18.4908 L22.7912727,18.5308 L22.7549091,18.5744364 L22.7185455,18.6217091 L22.6785455,18.6726182 L22.6421818,18.7198909 L22.6130909,18.7744364 L22.5767273,18.8253455 L22.544,18.8798909 L21.1658182,21.2689818 L21.1512727,21.2944364 L21.1330909,21.3162545 L21.1185455,21.3417091 L21.1076364,21.3635273 L21.0930909,21.3853455 L21.0749091,21.4071636 L21.0603636,21.4253455 L21.0458182,21.4435273 L21.0276364,21.4617091 L21.0130909,21.4798909 L20.9949091,21.4944364 L20.9767273,21.5126182 L20.9621818,21.5235273 L20.9403636,21.5380727 L20.9221818,21.5526182 L20.9003636,21.5671636 L20.8821818,21.5780727 L15.9985455,24.3998909 L15.9621818,24.4180727 L15.9221818,24.4326182 L15.8858182,24.4435273 L15.8494545,24.4471636 L15.8130909,24.4471636 L15.7876364,24.4435273 L15.7549091,24.4362545 L15.7294545,24.4217091 L12.5658182,22.5926182 L12.5949091,22.5998909 L12.6276364,22.6035273 L12.6567273,22.6035273 L12.6930909,22.5998909 L12.7294545,22.5889818 L12.7694545,22.5744364 L12.8058182,22.5526182 L17.6894545,19.7344364 L17.7112727,19.7235273 L17.7294545,19.7089818 L17.7512727,19.6980727 L17.7694545,19.6835273 L17.784,19.6689818 L17.8021818,19.6508 L17.8203636,19.6362545 L17.8349091,19.6180727 L17.8530909,19.5998909 L17.8676364,19.5817091 L17.8858182,19.5635273 L17.9003636,19.5417091 L17.9149091,19.5198909 L17.9330909,19.4980727 L17.944,19.4762545 L17.9585455,19.4508 L17.9730909,19.4253455 L19.3512727,17.0362545 L19.384,16.9817091 L19.4203636,16.9308 L19.4494545,16.8798909 L19.4894545,16.8289818 L19.5258182,16.7780727 L19.5621818,16.7344364 L19.5985455,16.6871636 L19.6385455,16.6471636 L19.6567273,16.6289818 L19.6967273,16.5926182 L19.7367273,16.5562545 L19.7730909,16.5198909 L19.8130909,16.4871636 L19.8567273,16.4544364 L19.9003636,16.4253455 L19.9367273,16.3962545 L19.9803636,16.3708 L22.2494545,15.0617091 L22.2930909,15.0398909 L22.3367273,15.0180727 L22.3767273,14.9998909 L22.4203636,14.9817091 L22.4603636,14.9671636 L22.4967273,14.9562545 L22.5367273,14.9489818 L22.5803636,14.9417091 L22.5912727,14.9417091 L22.6312727,14.9380727 L22.6712727,14.9380727 L22.7076364,14.9417091 L22.7476364,14.9453455 L22.7803636,14.9562545 L22.8130909,14.9671636 L22.8458182,14.9817091 L22.8821818,14.9998909 L24.3003636,15.8180727 L24.3876364,15.8689818 L24.424,15.8471636 L28.5767273,13.4471636 L29.4276364,12.9598909 L29.464,12.9344364 L29.504,12.9053455 L29.5403636,12.8726182 L29.5767273,12.8362545 L29.6058182,12.7998909 L29.6385455,12.7598909 L29.6712727,12.7162545 L29.6967273,12.6726182 L29.7221818,12.6289818 L29.744,12.5817091 L29.7621818,12.5344364 L29.7767273,12.4871636 L29.7912727,12.4362545 L29.7985455,12.3926182 L29.8058182,12.3453455 L29.8058182,12.2980727 L29.8058182,3.16716364 L29.8058182,3.11989091 L29.7985455,3.08352727 L29.7912727,3.04352727 L29.7767273,3.0108 L29.7621818,2.98170909 L29.744,2.95625455 L29.7221818,2.93443636 L32.8894545,4.76352727 L32.9149091,4.77807273 L32.9330909,4.79989091 L32.9512727,4.82534545 L32.9694545,4.85443636 L32.9803636,4.88716364 L32.9912727,4.92716364 L32.9985455,4.96352727 L32.9985455,5.00716364 L32.9985455,14.1417091 L32.9985455,14.1853455 L32.9912727,14.2326182 L32.9803636,14.2798909 L32.9694545,14.3271636 L32.9512727,14.3780727 L32.9330909,14.4253455 L32.9149091,14.4726182 L32.8894545,14.5162545 L32.8603636,14.5598909 L32.8312727,14.6035273 L32.7985455,14.6435273 L32.7694545,14.6798909 L32.7330909,14.7162545 L32.6930909,14.7489818 L32.6567273,14.7780727 L32.6203636,14.7998909 L31.5258182,15.4326182 L27.7367273,17.6217091 C27.6458182,17.6689818 27.5585455,17.7017091 27.4676364,17.6471636 L26.0712727,16.8435273 L26.0385455,16.8253455 Z" id="Fill-1" fill="#BDC8CA"></path>
                <g id="Group-5" transform="translate(32.727273, 6.443527)">
                    <mask id="mask-2" fill="white">
                        <use xlink:href="#path-1"></use>
                    </mask>
                    <g id="Clip-4"></g>
                    <polygon id="Fill-3" fill="#BDC8CA" mask="url(#mask-2)" points="4.48690909 0.923272727 3.39236364 0.294181818 3.39236364 4.90872727 4.48690909 5.53781818"></polygon>
                </g>
                <polygon id="Fill-6" fill="#BDC8CA" points="35.0265455 4.41589091 33.5901818 5.24498182 33.5901818 9.85952727 35.0265455 9.03043636"></polygon>
                <polygon id="Fill-8" fill="#BDC8CA" points="36.5109091 6.88389091 33.3218182 5.04025455 33.3436364 5.05843636 33.3654545 5.08025455 33.3872727 5.10570909 33.4018182 5.1348 33.4127273 5.16752727 33.4236364 5.20389091 33.4272727 5.24389091 33.4309091 5.28752727 36.6236364 7.13116364 36.62 7.08752727 36.6127273 7.04389091 36.6054545 7.01116364 36.5909091 6.9748 36.58 6.94934545 36.5581818 6.92389091 36.5363636 6.89843636"></polygon>
                <path d="M29.6821818,18.9558909 L29.6785455,18.9558909 L29.6458182,18.9413455 L29.6421818,18.9413455 L29.6385455,18.9377091 L29.6130909,18.9304364 L29.6094545,18.9268 L29.6058182,18.9268 L29.6021818,18.9268 L29.5985455,18.9268 L29.5949091,18.9231636 L29.5876364,18.9231636 L29.584,18.9231636 L29.5803636,18.9195273 L29.5767273,18.9195273 L29.5694545,18.9195273 L29.5658182,18.9195273 L29.5621818,18.9158909 L29.544,18.9158909 L29.5367273,18.9158909 L29.5330909,18.9122545 L29.5294545,18.9122545 L29.5221818,18.9122545 L29.5185455,18.9122545 L29.5149091,18.9122545 L29.5076364,18.9122545 L29.504,18.9122545 L29.5003636,18.9122545 L29.464,18.9122545 L29.4603636,18.9122545 L29.4567273,18.9122545 L29.4530909,18.9122545 L29.4276364,18.9158909 L29.4130909,18.9158909 L29.4058182,18.9158909 L29.4021818,18.9158909 L29.3949091,18.9195273 L29.3912727,18.9195273 L29.384,18.9195273 L29.3803636,18.9231636 L29.3730909,18.9231636 L29.3694545,18.9231636 L29.3621818,18.9231636 L29.3512727,18.9268 L29.3476364,18.9268 L29.3403636,18.9304364 L29.3367273,18.9304364 L29.3330909,18.9304364 L29.3294545,18.9304364 L29.3258182,18.9340727 L29.3112727,18.9377091 L29.3076364,18.9377091 L29.3003636,18.9413455 L29.2967273,18.9413455 L29.2930909,18.9413455 L29.2894545,18.9449818 L29.2821818,18.9486182 L29.264,18.9522545 L29.2603636,18.9558909 L29.2530909,18.9558909 L29.2494545,18.9558909 L29.2421818,18.9595273 L29.2349091,18.9595273 L29.2094545,18.9704364 L29.1694545,18.9922545 L29.1294545,19.0104364 L29.0858182,19.0358909 L26.8167273,20.3449818 L26.7730909,20.3704364 L26.7294545,20.3995273 L26.6894545,20.4286182 L26.6494545,20.4613455 L26.6058182,20.4904364 L26.5694545,20.5268 L26.5294545,20.5631636 L26.4894545,20.6031636 L26.4749091,20.6177091 L26.4312727,20.6613455 L26.3985455,20.7049818 L26.3585455,20.7522545 L26.3221818,20.7995273 L26.2858182,20.8504364 L26.2530909,20.9013455 L26.2203636,20.9558909 L26.1876364,21.0104364 L24.8058182,23.3995273 L24.7912727,23.4249818 L24.7767273,23.4468 L24.7621818,23.4722545 L24.7512727,23.4940727 L24.7330909,23.5158909 L24.7185455,23.5340727 L24.704,23.5558909 L24.6858182,23.5740727 L24.6712727,23.5922545 L24.6530909,23.6104364 L24.6349091,23.6249818 L24.6167273,23.6395273 L24.6021818,23.6540727 L24.584,23.6686182 L24.5658182,23.6831636 L24.544,23.6977091 L24.5221818,23.7086182 L19.6385455,26.5268 L19.6021818,26.5486182 L19.5658182,26.5631636 L19.5258182,26.5740727 L19.4894545,26.5777091 L19.4567273,26.5777091 L19.4276364,26.5740727 L19.3985455,26.5668 L19.3694545,26.5522545 L16.2058182,24.7231636 L16.2349091,24.7304364 L16.2676364,24.7340727 L16.3003636,24.7340727 L16.3367273,24.7304364 L16.3730909,24.7195273 L16.4094545,24.7049818 L16.4458182,24.6831636 L21.3330909,21.8649818 L21.3512727,21.8540727 L21.3730909,21.8395273 L21.3912727,21.8286182 L21.4094545,21.8140727 L21.4276364,21.7995273 L21.4458182,21.7813455 L21.4603636,21.7668 L21.4785455,21.7486182 L21.4930909,21.7304364 L21.5112727,21.7122545 L21.5258182,21.6940727 L21.5403636,21.6722545 L21.5585455,21.6504364 L21.5730909,21.6286182 L21.584,21.6068 L21.6021818,21.5813455 L21.6130909,21.5558909 L22.9949091,19.1668 L23.0276364,19.1122545 L23.0603636,19.0577091 L23.0930909,19.0068 L23.1294545,18.9558909 L23.1658182,18.9086182 L23.2058182,18.8649818 L23.2421818,18.8177091 L23.2821818,18.7777091 L23.2967273,18.7595273 L23.3367273,18.7231636 L23.3767273,18.6831636 L23.4130909,18.6504364 L23.4567273,18.6177091 L23.4967273,18.5849818 L23.5403636,18.5558909 L23.5803636,18.5268 L23.624,18.5013455 L25.8930909,17.1922545 L25.9367273,17.1668 L25.9767273,17.1486182 L26.0203636,17.1304364 L26.0603636,17.1122545 L26.104,17.0977091 L26.1403636,17.0868 L26.1803636,17.0795273 L26.2203636,17.0722545 L26.2349091,17.0722545 L26.2749091,17.0686182 L26.3112727,17.0686182 L26.3512727,17.0722545 L26.3876364,17.0758909 L26.424,17.0868 L26.4567273,17.0977091 L26.4894545,17.1122545 L26.5221818,17.1304364 L27.944,17.9486182 L28.0312727,17.9958909 L28.0676364,17.9777091 L32.2203636,15.5777091 L33.0712727,15.0904364 L33.1076364,15.0649818 L33.144,15.0358909 L33.184,15.0031636 L33.2203636,14.9668 L33.2494545,14.9304364 L33.2821818,14.8904364 L33.3112727,14.8468 L33.3403636,14.8031636 L33.3658182,14.7595273 L33.3876364,14.7122545 L33.4021818,14.6649818 L33.4203636,14.6177091 L33.4312727,14.5668 L33.4421818,14.5195273 L33.4494545,14.4758909 L33.4494545,14.4286182 L33.4494545,5.29770909 L33.4494545,5.25043636 L33.4421818,5.21043636 L33.4312727,5.17407273 L33.4203636,5.14134545 L33.4021818,5.11225455 L33.3876364,5.0868 L33.3658182,5.06498182 L36.5330909,6.89043636 L36.5585455,6.90861818 L36.5767273,6.93043636 L36.5949091,6.95589091 L36.6094545,6.98498182 L36.624,7.01770909 L36.6349091,7.05407273 L36.6385455,7.09407273 L36.6421818,7.13770909 L36.6421818,16.2722545 L36.6385455,16.3158909 L36.6349091,16.3631636 L36.624,16.4104364 L36.6094545,16.4577091 L36.5949091,16.5049818 L36.5767273,16.5522545 L36.5585455,16.6031636 L36.5330909,16.6468 L36.504,16.6904364 L36.4749091,16.7340727 L36.4421818,16.7704364 L36.4094545,16.8104364 L36.3730909,16.8468 L36.3367273,16.8795273 L36.3003636,16.9086182 L36.264,16.9304364 L35.1658182,17.5631636 L31.3767273,19.7486182 C31.2894545,19.7995273 31.2021818,19.8286182 31.1076364,19.7777091 L29.7149091,18.9740727 L29.7149091,18.9704364 L29.6821818,18.9558909 Z" id="Fill-10" fill="#BDC8CA"></path>
                <path d="M37.612,5.29298182 L37.5392727,5.26025455 L37.4629091,5.2348 L37.3792727,5.22389091 L37.292,5.22752727 L37.1974545,5.24207273 L37.0992727,5.26752727 L36.9974545,5.30752727 L36.8956364,5.36207273 L19.2701818,15.5366182 L19.1647273,15.6057091 L19.0629091,15.6820727 L18.9647273,15.7657091 L18.8738182,15.8602545 L18.7829091,15.9620727 L18.7029091,16.0675273 L18.6192727,16.1802545 L18.5501818,16.2966182 L11.5865455,12.2748 L11.6556364,12.1584364 L11.7356364,12.0457091 L11.8192727,11.9402545 L11.9101818,11.8384364 L12.0010909,11.7438909 L12.0992727,11.6566182 L12.2010909,11.5838909 L12.3029091,11.5148 L29.932,1.34025455 L30.0338182,1.28570909 L30.132,1.24570909 L30.2338182,1.22025455 L30.3247273,1.20207273 L30.4156364,1.20207273 L30.4992727,1.21298182 L30.5756364,1.2348 L30.6483636,1.27116364 L37.612,5.29298182 Z M11.2883636,23.5729818 L11.292,23.6893455 L11.3101818,23.7948 L11.332,23.8929818 L11.3647273,23.9838909 L11.4083636,24.0602545 L11.4629091,24.1257091 L11.5210909,24.1838909 L11.5865455,24.2311636 L18.5501818,28.2493455 L18.4847273,28.2057091 L18.4265455,28.1475273 L18.3756364,28.0820727 L18.332,28.0020727 L18.2956364,27.9148 L18.2738182,27.8166182 L18.2556364,27.7111636 L18.252,27.5948 L18.252,23.9984364 L18.252,18.7948 L18.252,17.3002545 L18.2556364,17.1802545 L18.2738182,17.0529818 L18.2956364,16.9257091 L18.332,16.7984364 L18.3756364,16.6711636 L18.4265455,16.5438909 L18.4847273,16.4202545 L18.5501818,16.3002545 L11.5865455,12.2784364 L11.5174545,12.3984364 L11.4629091,12.5220727 L11.4083636,12.6493455 L11.3647273,12.7766182 L11.332,12.9038909 L11.3065455,13.0311636 L11.292,13.1584364 L11.2883636,13.2784364 L11.2883636,14.7729818 L11.2883636,19.9766182 L11.2883636,23.5729818 Z" id="Fill-12" fill="#BDC8CA"></path>
                <polygon id="Fill-14" fill="#BDC8CA" points="15.7298182 24.4228 12.5370909 22.5791636 12.5370909 22.5828"></polygon>
                <path d="M35.8327273,7.14825455 L35.8327273,15.8028 C35.8327273,15.9264364 35.7890909,16.0609818 35.72,16.1809818 C35.6509091,16.3009818 35.5563636,16.4064364 35.4509091,16.4682545 L30.5672727,19.2828 C30.5127273,19.3155273 30.4618182,19.3373455 30.4218182,19.3409818 L30.4218182,19.3373455 C30.3781818,19.3446182 30.3345455,19.3337091 30.2981818,19.3118909 L30.2836364,19.3046182 L29.6981818,18.9664364 L29.6872727,18.9591636 L29.6836364,18.9591636 L29.68,18.9555273 L29.6763636,18.9555273 L29.6727273,18.9518909 L28.9054545,18.5082545 C28.8181818,18.4573455 28.7236364,18.4391636 28.6181818,18.4464364 L28.6036364,18.4500727 C28.4981818,18.4609818 28.3890909,18.5046182 28.2763636,18.5700727 L26.0072727,19.8791636 C25.8909091,19.9446182 25.7818182,20.0318909 25.68,20.1373455 L25.6654545,20.1518909 C25.5563636,20.2646182 25.4581818,20.3955273 25.3781818,20.5446182 L23.9963636,22.9337091 L23.9818182,22.9591636 C23.9418182,23.0246182 23.9018182,23.0791636 23.8618182,23.1264364 C23.8145455,23.1737091 23.7672727,23.2100727 23.7127273,23.2428 L19.2436364,25.8246182 L19.2436364,17.1664364 C19.2436364,17.0464364 19.28,16.9118909 19.3527273,16.7918909 C19.4181818,16.6718909 19.5163636,16.5664364 19.6218182,16.5046182 L35.8327273,7.14825455 Z" id="Fill-16" fill="#003A59"></path>
                <path d="M29.5829091,10.7562545 L25.932,17.5780727 C25.8374545,17.7489818 25.6774545,17.8544364 25.572,17.8071636 C25.4701818,17.7598909 25.4592727,17.5780727 25.5538182,17.4071636 L28.9029091,11.1489818 L19.6229091,16.5053455 C19.5138182,16.5671636 19.4192727,16.6726182 19.3538182,16.7926182 C19.2810909,16.9089818 19.2410909,17.0435273 19.2410909,17.1671636 L19.2410909,25.8253455 L23.7138182,23.2435273 C23.7647273,23.2108 23.8156364,23.1708 23.8592727,23.1271636 C23.9029091,23.0798909 23.9429091,23.0253455 23.9829091,22.9562545 L23.9974545,22.9344364 L25.3792727,20.5453455 C25.4592727,20.3962545 25.5574545,20.2653455 25.6665455,20.1526182 L25.6810909,20.1380727 C25.7829091,20.0326182 25.8883636,19.9453455 26.0083636,19.8798909 L28.2738182,18.5671636 C28.3938182,18.4980727 28.5065455,18.4617091 28.6156364,18.4508 L28.6156364,18.4471636 C28.7247273,18.4398909 28.8192727,18.4580727 28.9029091,18.5053455 L30.2956364,19.3126182 C30.3356364,19.3344364 30.3792727,19.3417091 30.4192727,19.3380727 L30.4301818,19.3380727 C30.4701818,19.3308 30.5174545,19.3162545 30.5683636,19.2835273 L35.4483636,16.4653455 C35.5574545,16.4071636 35.652,16.3017091 35.7174545,16.1817091 C35.7901818,16.0617091 35.8338182,15.9271636 35.8338182,15.8035273 L35.8338182,7.14898182 L35.4883636,7.34534545 L33.5029091,11.0580727 C33.412,11.2326182 33.252,11.3344364 33.1429091,11.2871636 C33.0410909,11.2398909 33.0301818,11.0580727 33.1283636,10.8871636 L34.8083636,7.73807273 L32.4483636,9.10170909 L29.4847273,14.6362545 C29.3901818,14.8108 29.2301818,14.9162545 29.1283636,14.8653455 C29.0229091,14.8217091 29.0156364,14.6398909 29.1065455,14.4653455 L31.7683636,9.49443636 L29.5829091,10.7562545 Z" id="Fill-18" fill="#003C67"></path>
                <path d="M29.6963636,18.9649818 L29.6636364,18.9468 L29.6963636,18.9649818 Z" id="Fill-20" fill="#4C4C4C"></path>
                <polygon id="Fill-22" fill="#9D9E9D" points="18.4287273 16.5377091 11.4650909 12.5158909 11.4614545 12.5231636 11.4069091 12.6504364 11.3669091 12.7777091 11.3341818 12.9049818 11.3050909 13.0322545 11.2905455 13.1558909 11.2869091 13.2795273 11.2869091 14.7740727 11.2869091 19.9777091 11.2869091 23.5740727 11.2905455 23.6868 11.3087273 23.7958909 11.3341818 23.8940727 11.3669091 23.9813455 11.4069091 24.0577091 11.4614545 24.1268 11.5196364 24.1849818 11.5850909 24.2286182 18.5487273 28.2504364 18.4869091 28.2031636 18.4250909 28.1486182 18.3741818 28.0795273 18.3341818 28.0031636 18.2978182 27.9158909 18.2723636 27.8177091 18.2578182 27.7086182 18.2505455 27.5958909 18.2505455 23.9995273 18.2505455 18.7958909 18.2505455 17.3013455 18.2578182 17.1777091 18.2723636 17.0540727 18.2978182 16.9268 18.3341818 16.7995273 18.3741818 16.6722545 18.4250909 16.5449818"></polygon>
                <polygon id="Fill-24" fill="#BDC8CA" points="14.7781818 14.1191636 11.5854545 12.2755273 11.5854545 12.2791636 14.7745455 14.1191636"></polygon>
                <polygon id="Fill-26" fill="#495F63" points="12.8996364 21.5358909 12.3832727 21.1722545 11.8596364 20.7977091 11.3250909 20.4122545 10.7832727 20.0195273 10.2378182 19.6195273 9.68509091 19.2122545 9.13236364 18.8049818 8.57963636 18.3904364 8.02690909 17.9758909 7.48145455 17.5577091 6.936 17.1431636 6.40509091 16.7286182 5.88145455 16.3140727 5.37236364 15.9104364 4.87418182 15.5068 4.39418182 15.1104364 4.03418182 14.8086182 3.68145455 14.5140727 3.34327273 14.2231636 3.016 13.9395273 2.70327273 13.6595273 2.40509091 13.3904364 2.12509091 13.1249818 1.86327273 12.8704364 1.61236364 12.6231636 1.38327273 12.3868 1.17236364 12.1613455 0.986909091 11.9468 0.816 11.7395273 0.670545455 11.5468 0.543272727 11.3686182 0.441454545 11.1977091 0.299636364 10.9177091 0.186909091 10.6377091 0.0996363636 10.3577091 0.0414545455 10.0849818 0.00872727273 9.80861818 0.00145454545 9.53589091 0.00145454545 6.0668 0.00872727273 6.33952727 0.0414545455 6.61225455 0.0996363636 6.88861818 0.186909091 7.16861818 0.299636364 7.44861818 0.441454545 7.72861818 0.543272727 7.89589091 0.670545455 8.07770909 0.706909091 8.12861818 0.706909091 6.08134545 0.717818182 5.87043636 0.750545455 5.6668 0.845090909 5.32134545 0.986909091 4.98316364 1.17236364 4.65225455 1.40872727 4.33225455 1.68509091 4.01589091 2.00145455 3.71043636 2.35418182 3.41589091 2.73963636 3.12861818 2.95418182 2.9868 3.176 2.84861818 3.40509091 2.71407273 3.64145455 2.58316364 3.88509091 2.45225455 4.13963636 2.32861818 4.39418182 2.20861818 4.656 2.08861818 4.92872727 1.97589091 5.20509091 1.8668 5.48509091 1.76498182 5.76872727 1.66316364 6.05963636 1.56861818 6.35418182 1.47407273 6.65236364 1.3868 6.95418182 1.3068 7.56145455 1.15770909 8.176 1.03043636 8.80145455 0.921345455 9.43054545 0.834072727 10.0632727 0.768618182 10.696 0.724981818 11.3250909 0.703163636 11.9505455 0.7068 12.5723636 0.735890909 13.1796364 0.790436364 13.7796364 0.8668 14.3650909 0.972254545 14.936 1.1068 15.4814545 1.2668 16.0087273 1.45952727 16.5105455 1.67770909 17.0341818 1.91407273 17.5396364 2.12134545 18.0378182 2.30316364 18.5250909 2.45952727 19.0050909 2.59770909 19.4741818 2.71043636 19.936 2.80498182 20.3869091 2.88498182 20.8305455 2.9468 21.2705455 2.99770909 21.7032727 3.03407273 22.1323636 3.06316364 22.5541818 3.08498182 22.976 3.10316364 23.3978182 3.11407273 23.8123636 3.12498182 24.3069091 3.13589091 24.7941818 3.15043636 25.2887273 3.17225455 25.7832727 3.20498182 26.2814545 3.25225455 26.5578182 3.28498182 23.8123636 4.87407273 21.0887273 6.44498182 20.8305455 6.41589091 20.3869091 6.35407273 19.936 6.27407273 19.4741818 6.17952727 19.0050909 6.0668 18.5250909 5.92861818 18.0378182 5.77225455 17.5396364 5.59043636 17.0341818 5.38316364 16.5105455 5.1468 16.0087273 4.92861818 15.4814545 4.73589091 14.936 4.57589091 14.3650909 4.44498182 13.7796364 4.33952727 13.1796364 4.25952727 12.5723636 4.20498182 11.9505455 4.17952727 11.3250909 4.17589091 10.696 4.19407273 10.0632727 4.24134545 9.43054545 4.3068 8.80145455 4.39407273 8.176 4.49952727 7.56145455 4.63043636 6.95418182 4.77589091 6.65236364 4.85952727 6.35418182 4.9468 6.05963636 5.03770909 5.76872727 5.13225455 5.48509091 5.23407273 5.20509091 5.33589091 4.92872727 5.44861818 4.656 5.55770909 4.39418182 5.67770909 4.13963636 5.79770909 3.88509091 5.92498182 3.64145455 6.05225455 3.40509091 6.18316364 3.176 6.31770909 2.95418182 6.45952727 2.73963636 6.60134545 2.35418182 6.88498182 2.00145455 7.17952727 1.68509091 7.48498182 1.40872727 7.80134545 1.17236364 8.12134545 0.986909091 8.45225455 0.979636364 8.47043636 0.986909091 8.47407273 1.17236364 8.69225455 1.38327273 8.91770909 1.61236364 9.15407273 1.86327273 9.40134545 2.12509091 9.65589091 2.40509091 9.91770909 2.70327273 10.1868 3.016 10.4668 3.34327273 10.7540727 3.68145455 11.0449818 4.03418182 11.3395273 4.39418182 11.6413455 4.87418182 12.0377091 5.37236364 12.4377091 5.88145455 12.8449818 6.40509091 13.2558909 6.936 13.6704364 7.48145455 14.0886182 8.02690909 14.5031636 8.57963636 14.9213455 9.13236364 15.3322545 9.68509091 15.7431636 10.2378182 16.1504364 10.7832727 16.5504364 11.3250909 16.9431636 11.8596364 17.3286182 12.3832727 17.6995273 12.8996364 18.0631636 13.3032727 17.4886182 13.3032727 20.9577091"></polygon>
                <path d="M12.8996364,18.0646182 C10.1941818,16.1555273 6.91418182,13.7264364 4.39418182,11.6391636 C2.43418182,10.0209818 0.917818182,8.59189091 0.441454545,7.73007273 C0.0269090909,6.97734545 -0.0785454545,6.23916364 0.056,5.53007273 C0.274181818,4.41370909 1.11781818,3.39552727 2.33963636,2.55189091 C3.52509091,1.73370909 5.08145455,1.06825455 6.776,0.624618182 C10.1178182,-0.251745455 14.0414545,-0.284472727 16.816,1.03552727 C19.4923636,2.31552727 21.6923636,2.37007273 23.8269091,2.41734545 C25.056,2.45007273 26.2669091,2.47552727 27.5323636,2.7228 L26.5614545,3.28643636 C25.6341818,3.16643636 24.7287273,3.14461818 23.8123636,3.1228 C21.6014545,3.07189091 19.3250909,3.01734545 16.5105455,1.67552727 C13.8923636,0.428254545 10.1541818,0.468254545 6.95418182,1.30825455 C5.336,1.73370909 3.85963636,2.3628 2.73963636,3.13007273 C1.66327273,3.87552727 0.932363636,4.74098182 0.750545455,5.66461818 C0.645090909,6.21370909 0.732363636,6.79189091 1.05963636,7.38825455 C1.48509091,8.1628 2.94690909,9.52643636 4.84145455,11.0973455 C7.36145455,13.1773455 10.6196364,15.5918909 13.3032727,17.4864364 L12.8996364,18.0646182 Z" id="Fill-28" fill="#5F8186"></path>
                <polygon id="Fill-30" fill="#80A0A5" points="13.9327273 16.5944364 12.8381818 15.9653455 11.4018182 16.7944364 12.4927273 17.4235273"></polygon>
                <polygon id="Fill-32" fill="#617C81" points="12.4945455 17.4235273 11.4 16.7944364 11.4 21.4089818 12.4945455 22.0417091"></polygon>
                <polygon id="Fill-34" fill="#ECECEC" points="13.9327273 21.2108 13.9327273 16.5926182 12.4927273 17.4217091 12.4927273 22.0398909"></polygon>
                <g id="Group-38" transform="translate(32.727273, 6.443527)">
                    <mask id="mask-4" fill="white">
                        <use xlink:href="#path-3"></use>
                    </mask>
                    <g id="Clip-37"></g>
                    <path d="M3.10545455,0.704727273 L3.10545455,3.34836364 L3.10545455,9.35927273 C3.10545455,9.48290909 3.06181818,9.61745455 2.99272727,9.73745455 C2.97454545,9.77018182 2.95272727,9.80290909 2.92727273,9.832 L3.72,10.2901818 L3.72727273,10.2792727 L3.75636364,10.2392727 L3.78545455,10.1956364 L3.80727273,10.1483636 L3.82909091,10.1010909 L3.85090909,10.0574545 L3.86545455,10.0065455 L3.88,9.95927273 L3.88727273,9.912 L3.89454545,9.86472727 L3.89818182,9.81745455 L3.89818182,0.686545455 L3.89454545,0.642909091 L3.88727273,0.602909091 L3.88,0.562909091 L3.86545455,0.533818182 L3.85090909,0.504727273 L3.82909091,0.479272727 L3.80727273,0.457454545 L3.78545455,0.439272727 L3.10545455,0.0465454545 L3.10545455,0.704727273 Z" id="Fill-36" fill="#9D9E9D" mask="url(#mask-4)"></path>
                </g>
                <g id="Group-41" transform="translate(14.545455, 2.807164)">
                    <mask id="mask-6" fill="white">
                        <use xlink:href="#path-5"></use>
                    </mask>
                    <g id="Clip-40"></g>
                    <path d="M5.07636364,13.6985455 L21.6945455,4.10218182 C21.8036364,4.044 21.8981818,4.03672727 21.9672727,4.07672727 C22.0363636,4.11672727 22.08,4.20036364 22.08,4.324 L22.08,13.4549091 C22.08,13.5749091 22.0363636,13.7094545 21.9672727,13.8330909 C21.8981818,13.9494545 21.8036364,14.0549091 21.6945455,14.1167273 L16.8145455,16.9349091 C16.76,16.9676364 16.7090909,16.9858182 16.6690909,16.9894545 C16.6254545,16.9930909 16.5818182,16.9858182 16.5418182,16.9603636 L16.5272727,16.9567273 L15.1527273,16.1567273 C15.0654545,16.1094545 14.9709091,16.0876364 14.8618182,16.0985455 L14.8472727,16.1021818 C14.7454545,16.1130909 14.6363636,16.1530909 14.5236364,16.2185455 L12.2545455,17.5312727 C12.1345455,17.5967273 12.0290909,17.684 11.9236364,17.7894545 L11.9090909,17.804 C11.8036364,17.9167273 11.7054545,18.0476364 11.6218182,18.1930909 L10.2436364,20.5858182 L10.2290909,20.6076364 C10.1890909,20.6730909 10.1490909,20.7312727 10.1054545,20.7749091 C10.0618182,20.8221818 10.0109091,20.8621818 9.96,20.8949091 L5.07636364,23.7094545 C4.97090909,23.7749091 4.87272727,23.7749091 4.80727273,23.7385455 C4.73454545,23.6985455 4.69454545,23.6149091 4.69454545,23.4912727 L4.69454545,14.3603636 C4.69454545,14.2367273 4.73454545,14.1021818 4.80727273,13.9858182 C4.87272727,13.8658182 4.97090909,13.7603636 5.07636364,13.6985455 M23.2145455,13.3785455 L23.2145455,3.08763636 C23.2145455,2.764 23.1018182,2.53490909 22.9163636,2.42945455 C22.7309091,2.324 22.48,2.33490909 22.2,2.49854545 L4.57090909,12.6767273 C4.29090909,12.8367273 4.03636364,13.1167273 3.85454545,13.4330909 L3.85454545,13.4367273 C3.66909091,13.7530909 3.55636364,14.1130909 3.55636364,14.4367273 L3.55636364,15.9349091 L3.55636364,21.1349091 L3.55636364,24.7312727 C3.55636364,25.0549091 3.66909091,25.2803636 3.85454545,25.3858182 C4.04,25.4949091 4.29090909,25.4767273 4.57090909,25.3167273 C11.6109091,21.2549091 15.4545455,19.0330909 22.2,15.1385455 C22.48,14.9785455 22.7309091,14.6985455 22.9163636,14.3821818 L22.9163636,14.3785455 C23.1018182,14.0621818 23.2145455,13.7021818 23.2145455,13.3785455" id="Fill-39" fill="#ECECEC" mask="url(#mask-6)"></path>
                </g>
                <path d="M33.432,10.3144364 L33.432,8.53261818 L34.8101818,7.73989091 L33.432,10.3144364 Z M26.2065455,17.0635273 L25.9301818,17.5798909 C25.8356364,17.7508 25.6756364,17.8526182 25.5738182,17.8089818 C25.472,17.7580727 25.4610909,17.5798909 25.552,17.4053455 L25.5810909,17.3544364 L23.6065455,18.4962545 L23.5629091,18.5180727 L23.5192727,18.5471636 L23.4792727,18.5762545 L23.4392727,18.6089818 L23.3956364,18.6417091 L23.3556364,18.6744364 L23.3192727,18.7144364 L23.2792727,18.7544364 L23.2647273,18.7689818 L23.2210909,18.8089818 L23.1883636,18.8562545 L23.1483636,18.9035273 L23.112,18.9508 L23.0756364,18.9980727 L23.0429091,19.0489818 L23.0101818,19.1035273 L22.9774545,19.1580727 L21.5956364,21.5471636 L21.5810909,21.5726182 L21.5665455,21.5980727 L21.552,21.6198909 L21.5374545,21.6417091 L21.5229091,21.6671636 L21.5083636,21.6853455 L21.4938182,21.7035273 L21.4756364,21.7253455 L21.4610909,21.7435273 L21.4429091,21.7580727 L21.4247273,21.7726182 L21.4065455,21.7908 L21.3883636,21.8053455 L21.3738182,21.8198909 L21.352,21.8308 L21.3338182,21.8453455 L21.312,21.8562545 L19.2429091,23.0526182 L19.2429091,25.8271636 L23.712,23.2417091 C23.7665455,23.2089818 23.8138182,23.1726182 23.8574545,23.1253455 C23.9010909,23.0817091 23.9447273,23.0235273 23.9810909,22.9580727 L23.9956364,22.9326182 L25.3774545,20.5435273 C25.4610909,20.3944364 25.5556364,20.2671636 25.6647273,20.1544364 L25.6792727,20.1398909 C25.7810909,20.0308 25.8901818,19.9435273 26.0065455,19.8780727 L28.272,18.5689818 C28.392,18.4998909 28.5083636,18.4598909 28.6174545,18.4489818 C28.7229091,18.4380727 28.8174545,18.4562545 28.9047273,18.5071636 L30.2974545,19.3108 C30.3338182,19.3326182 30.3774545,19.3435273 30.4210909,19.3362545 L30.432,19.3362545 C30.472,19.3326182 30.5156364,19.3144364 30.5665455,19.2853455 L35.4501818,16.4671636 C35.5556364,16.4053455 35.6501818,16.2998909 35.7192727,16.1798909 C35.7883636,16.0635273 35.832,15.9253455 35.832,15.8053455 L35.832,7.14716364 L35.4865455,7.34716364 L33.5047273,11.0598909 C33.4829091,11.0962545 33.4574545,11.1326182 33.432,11.1617091 L33.432,14.4198909 L33.4283636,14.4671636 L33.4247273,14.5144364 L33.4138182,14.5617091 L33.3992727,14.6089818 L33.3847273,14.6562545 L33.3629091,14.7035273 L33.3447273,14.7508 L33.3229091,14.7944364 L33.2938182,14.8417091 L33.2610909,14.8817091 L33.232,14.9217091 L33.1992727,14.9617091 L33.1629091,14.9980727 L33.1265455,15.0271636 L33.0865455,15.0562545 L33.0501818,15.0817091 L32.2029091,15.5689818 L28.0465455,17.9689818 L28.0101818,17.9908 L27.9265455,17.9398909 L26.5047273,17.1217091 L26.472,17.1035273 L26.4392727,17.0889818 L26.4029091,17.0780727 L26.3701818,17.0671636 L26.3301818,17.0635273 L26.2938182,17.0598909 L26.2538182,17.0598909 L26.2174545,17.0635273 L26.2065455,17.0635273 Z" id="Fill-42" fill="#003A59"></path>
                <polygon id="Fill-44" fill="#C2231D" points="15.4527273 17.0348 15.7545455 16.8602545 15.7909091 16.8493455 15.8309091 16.8384364 15.8672727 16.8348 15.9072727 16.8275273 15.9509091 16.8275273 15.9909091 16.8311636 16.0345455 16.8348 16.0818182 16.8457091 16.1290909 16.8566182 16.1727273 16.8711636 16.2236364 16.8893455 16.2709091 16.9111636 16.3181818 16.9366182 16.3690909 16.9620727 16.42 16.9911636 16.4672727 17.0238909 16.5181818 17.0602545 16.5654545 17.0966182 16.6090909 17.1366182 16.6563636 17.1802545 16.7036364 17.2202545 16.7436364 17.2675273 16.7909091 17.3148 16.8309091 17.3620727 16.8745455 17.4129818 16.9109091 17.4675273 16.9509091 17.5184364 16.9872727 17.5729818 17.0236364 17.6275273 17.0527273 17.6857091 17.0854545 17.7438909 17.1181818 17.7984364 17.1472727 17.8602545 17.1763636 17.9184364 17.1981818 17.9766182 17.22 18.0384364 17.2418182 18.1002545 17.2636364 18.1620727 17.2818182 18.2202545 17.2963636 18.2820727 17.3109091 18.3402545 17.3181818 18.4020727 17.3290909 18.4638909 17.3363636 18.5220727 17.34 18.5802545 17.34 18.6384364 17.34 18.6966182 17.3363636 18.7511636 17.3290909 18.8057091 17.3181818 18.8529818 17.3109091 18.9038909 17.2963636 18.9475273 17.2818182 18.9911636 17.2636364 19.0311636 17.2418182 19.0711636 17.22 19.1075273 17.1981818 19.1402545 17.1763636 19.1693455 17.1472727 19.1984364 17.1181818 19.2238909 16.8163636 19.3984364 16.8454545 19.3729818 16.8745455 19.3438909 16.8963636 19.3111636 16.9181818 19.2820727 16.94 19.2420727 16.9618182 19.2057091 16.98 19.1657091 16.9945455 19.1220727 17.0090909 19.0784364 17.02 19.0275273 17.0272727 18.9802545 17.0345455 18.9257091 17.0381818 18.8711636 17.0381818 18.8129818 17.0381818 18.7548 17.0345455 18.6966182 17.0272727 18.6384364 17.02 18.5766182 17.0090909 18.5184364 16.9945455 18.4566182 16.98 18.3948 16.9618182 18.3329818 16.94 18.2748 16.9181818 18.2129818 16.8963636 18.1548 16.8745455 18.0929818 16.8454545 18.0311636 16.8163636 17.9729818 16.7836364 17.9184364 16.7509091 17.8602545 16.7218182 17.8020727 16.6854545 17.7475273 16.6490909 17.6929818 16.6090909 17.6420727 16.5727273 17.5875273 16.5290909 17.5366182 16.4890909 17.4893455 16.4454545 17.4420727 16.4018182 17.3984364 16.3545455 17.3511636 16.3109091 17.3111636 16.2636364 17.2711636 16.2163636 17.2348 16.1654545 17.1984364 16.1181818 17.1657091 16.0672727 17.1366182 16.0163636 17.1111636 15.9690909 17.0857091 15.9218182 17.0638909 15.8709091 17.0457091 15.8272727 17.0311636 15.78 17.0202545 15.7327273 17.0129818 15.6890909 17.0057091 15.6490909 17.0020727 15.6054545 17.0020727 15.5654545 17.0093455 15.5290909 17.0129818 15.4890909 17.0238909"></polygon>
                <g id="Group-48" transform="translate(32.727273, 6.443527)">
                    <mask id="mask-8" fill="white">
                        <use xlink:href="#path-7"></use>
                    </mask>
                    <g id="Clip-47"></g>
                    <path d="M3.12327273,0.712 L3.12327273,3.35563636 L3.12327273,9.37018182 C3.12327273,9.49018182 3.07963636,9.62472727 3.01054545,9.74472727 C2.99236364,9.77745455 2.97054545,9.81018182 2.94872727,9.83927273 L3.74145455,10.2974545 L3.74872727,10.2901818 L3.77781818,10.2465455 L3.80327273,10.2029091 L3.82872727,10.1592727 L3.85054545,10.1083636 L3.86872727,10.0610909 L3.88327273,10.0174545 L3.89781818,9.96654545 L3.90872727,9.91927273 L3.91236364,9.87563636 L3.916,9.82836364 L3.916,0.697454545 L3.91236364,0.650181818 L3.90872727,0.610181818 L3.89781818,0.573818182 L3.88327273,0.541090909 L3.86872727,0.512 L3.85054545,0.486545455 L3.82872727,0.464727273 L3.80327273,0.446545455 L3.12327273,0.0574545455 L3.12327273,0.712 Z" id="Fill-46" fill="#9D9E9D" mask="url(#mask-8)"></path>
                </g>
                <path d="M16.0672727,19.3733455 C15.5363636,19.0642545 15.1,18.3115273 15.1,17.6969818 C15.1,17.0788 15.5363636,16.8242545 16.0672727,17.1369818 C16.6018182,17.4460727 17.0381818,18.1951636 17.0381818,18.8133455 C17.0381818,19.4315273 16.6018182,19.6824364 16.0672727,19.3733455" id="Fill-49" fill="#FF3440"></path>
                <polygon id="Fill-51" fill="#D6BE0D" points="15.4527273 20.5417091 15.7545455 20.3671636 15.7909091 20.3562545 15.8309091 20.3453455 15.8672727 20.3380727 15.9072727 20.3344364 15.9509091 20.3344364 15.9909091 20.3380727 16.0345455 20.3417091 16.0818182 20.3489818 16.1290909 20.3635273 16.1727273 20.3780727 16.2236364 20.3926182 16.2709091 20.4144364 16.3181818 20.4398909 16.3690909 20.4653455 16.42 20.4980727 16.4672727 20.5308 16.5181818 20.5635273 16.5654545 20.6035273 16.6090909 20.6435273 16.6563636 20.6835273 16.7036364 20.7271636 16.7436364 20.7708 16.7909091 20.8217091 16.8309091 20.8689818 16.8745455 20.9198909 16.9109091 20.9708 16.9509091 21.0253455 16.9872727 21.0762545 17.0236364 21.1344364 17.0527273 21.1889818 17.0854545 21.2471636 17.1181818 21.3053455 17.1472727 21.3671636 17.1763636 21.4253455 17.1981818 21.4835273 17.22 21.5453455 17.2418182 21.6035273 17.2636364 21.6653455 17.2818182 21.7271636 17.2963636 21.7889818 17.3109091 21.8471636 17.3181818 21.9089818 17.3290909 21.9708 17.3363636 22.0289818 17.34 22.0871636 17.34 22.1453455 17.34 22.2035273 17.3363636 22.2580727 17.3290909 22.3089818 17.3181818 22.3598909 17.3109091 22.4071636 17.2963636 22.4544364 17.2818182 22.4980727 17.2636364 22.5380727 17.2418182 22.5780727 17.22 22.6108 17.1981818 22.6471636 17.1763636 22.6762545 17.1472727 22.7053455 17.1181818 22.7308 16.8163636 22.9017091 16.8454545 22.8798909 16.8745455 22.8508 16.8963636 22.8180727 16.9181818 22.7853455 16.94 22.7489818 16.9618182 22.7126182 16.98 22.6689818 16.9945455 22.6289818 17.0090909 22.5817091 17.02 22.5344364 17.0272727 22.4835273 17.0345455 22.4326182 17.0381818 22.3780727 17.0381818 22.3198909 17.0381818 22.2617091 17.0345455 22.2035273 17.0272727 22.1417091 17.02 22.0835273 17.0090909 22.0217091 16.9945455 21.9635273 16.98 21.9017091 16.9618182 21.8398909 16.94 21.7780727 16.9181818 21.7198909 16.8963636 21.6580727 16.8745455 21.5998909 16.8454545 21.5380727 16.8163636 21.4798909 16.7836364 21.4217091 16.7509091 21.3671636 16.7218182 21.3089818 16.6854545 21.2508 16.6490909 21.1998909 16.6090909 21.1453455 16.5727273 21.0944364 16.5290909 21.0435273 16.4890909 20.9962545 16.4454545 20.9453455 16.4018182 20.9017091 16.3545455 20.8580727 16.3109091 20.8180727 16.2636364 20.7744364 16.2163636 20.7380727 16.1654545 20.7017091 16.1181818 20.6726182 16.0672727 20.6398909 16.0163636 20.6144364 15.9690909 20.5889818 15.9218182 20.5671636 15.8709091 20.5526182 15.8272727 20.5380727 15.78 20.5235273 15.7327273 20.5162545 15.6890909 20.5126182 15.6490909 20.5089818 15.6054545 20.5089818 15.5654545 20.5126182 15.5290909 20.5198909 15.4890909 20.5308"></polygon>
                <path d="M16.0672727,22.8780727 C15.5363636,22.5726182 15.1,21.8198909 15.1,21.2017091 C15.1,20.5835273 15.5363636,20.3326182 16.0672727,20.6417091 C16.6018182,20.9508 17.0381818,21.6998909 17.0381818,22.3217091 C17.0381818,22.9398909 16.6018182,23.1871636 16.0672727,22.8780727" id="Fill-53" fill="#EDD109"></path>
            </g>
        </g>
    </g>
</svg>